<svg width="590" height="445" viewBox="0 0 590 445" fill="none" xmlns="http://www.w3.org/2000/svg">
<path d="M140.599 108.71C140.599 108.71 114.532 152.306 118.127 241.744C120.374 286.238 142.333 317.529 195.666 308.091C243.109 299.695 243.969 269.159 242.621 251.181C241.273 233.204 235.73 212.829 236.928 207.136C233.932 201.443 206.366 194.552 211.46 224.814C214.457 245.189 201.123 245.339 195.43 240.395C189.737 235.451 188.689 193.653 218.652 150.807C230.636 114.552 222.547 108.71 222.547 108.71C222.547 108.71 150.936 100.171 140.599 108.71Z" fill="#EDEFF4"/>
<path d="M140.598 108.711C143.658 106.184 152.084 105.153 162.432 104.953C158.33 112.629 137.405 156.003 140.652 236.741C142.793 279.134 162.828 309.541 210.844 304.156C206.406 305.748 201.376 307.081 195.666 308.092C142.333 317.531 120.374 286.239 118.127 241.744C114.531 152.306 140.598 108.711 140.598 108.711Z" fill="#D6DFED"/>
<path d="M180.84 122.909C179.237 123.505 177.832 124.023 176.477 124.415C175.125 124.805 173.851 125.023 172.615 125.038C171.384 125.037 170.138 124.935 168.832 124.487C168.668 124.438 168.495 124.401 168.323 124.36C168.155 124.305 167.998 124.223 167.826 124.165C167.492 124.033 167.14 123.911 166.776 123.79C166.067 123.51 165.367 123.162 164.51 122.91C164.649 123.316 164.831 123.699 165.026 124.083C165.224 124.463 165.419 124.859 165.683 125.194C165.954 125.523 166.238 125.851 166.539 126.169C166.825 126.505 167.165 126.783 167.538 127.029C168.933 128.139 170.835 128.705 172.684 128.674C174.549 128.647 176.335 127.984 177.746 126.96C179.146 125.92 180.29 124.573 180.84 122.909Z" fill="#B6BDD3"/>
<path d="M179.79 126.884C180.028 128.479 180.825 129.849 181.838 131.02C182.868 132.181 184.2 133.122 185.72 133.689C187.227 134.283 188.959 134.389 190.526 134.021C192.113 133.701 193.497 132.763 194.473 131.548C192.871 131.382 191.583 131.425 190.359 131.167C189.151 130.97 188.048 130.701 186.949 130.273C185.851 129.865 184.744 129.366 183.583 128.783C182.414 128.198 181.211 127.56 179.79 126.884Z" fill="#B6BDD3"/>
<path d="M189.527 135.336L184.756 135.058C183.27 134.964 181.872 134.812 180.535 134.557C179.186 134.318 177.954 133.874 176.679 133.305C175.354 132.772 174.202 131.863 172.674 130.94C172.918 132.65 173.678 134.392 175.033 135.63C176.339 136.89 178.06 137.816 179.844 138.124C181.623 138.464 183.427 138.353 185.087 137.888C186.739 137.401 188.306 136.625 189.527 135.336Z" fill="#B6BDD3"/>
<path d="M165.26 126.884C164.077 127.366 163.152 127.82 162.283 128.241C161.421 128.664 160.645 129.027 159.895 129.349C159.146 129.686 158.415 129.944 157.563 130.19C156.702 130.488 155.744 130.601 154.474 130.941C155.168 132.001 156.245 132.78 157.499 133.049C158.737 133.355 160.128 133.231 161.296 132.699C162.477 132.187 163.467 131.357 164.167 130.361C164.85 129.356 165.321 128.196 165.26 126.884Z" fill="#B6BDD3"/>
<path d="M182.789 140.791C180.976 141.414 179.344 141.871 177.723 142.186C176.112 142.498 174.55 142.689 172.969 142.7C172.576 142.724 172.179 142.677 171.783 142.676L171.186 142.675C170.987 142.654 170.789 142.625 170.588 142.613L169.375 142.524C168.972 142.455 168.563 142.402 168.147 142.355C167.941 142.325 167.727 142.32 167.519 142.286C167.312 142.245 167.106 142.2 166.894 142.166C166.473 142.09 166.041 142.027 165.599 141.969C164.729 141.815 163.853 141.618 162.864 141.549C163.46 142.3 164.137 142.989 164.875 143.6C165.261 143.875 165.655 144.146 166.061 144.404C166.462 144.672 166.879 144.915 167.328 145.092C167.769 145.288 168.217 145.477 168.672 145.651C169.13 145.817 169.613 145.903 170.088 146.027C171.036 146.287 172.039 146.3 173.023 146.336C175.007 146.319 176.985 145.785 178.711 144.856C180.422 143.916 181.944 142.567 182.789 140.791Z" fill="#90CDE0"/>
<path d="M173.652 151.702C172.04 152.517 170.594 153.187 169.197 153.649C167.799 154.108 166.493 154.291 165.222 154.168C163.953 154.029 162.655 153.668 161.285 153.038C160.594 152.743 159.933 152.32 159.17 151.995C158.471 151.573 157.736 151.157 156.873 150.793C157.134 151.661 157.522 152.476 157.946 153.286C158.472 154.009 159.003 154.772 159.691 155.401C161.047 156.675 162.906 157.604 164.935 157.792C166.974 157.987 169.022 157.302 170.527 156.161C172.032 155.007 173.179 153.49 173.652 151.702Z" fill="#90CDE0"/>
<path d="M173.649 147.459C174.012 149.28 175.076 150.885 176.466 152.131C177.864 153.371 179.653 154.277 181.559 154.569C182.028 154.686 182.512 154.657 182.988 154.701L183.704 154.717C183.941 154.703 184.176 154.677 184.411 154.644C184.879 154.571 185.351 154.533 185.805 154.417C186.252 154.285 186.693 154.135 187.127 153.979C187.569 153.842 187.977 153.63 188.37 153.394C188.768 153.169 189.154 152.93 189.529 152.685C190.246 152.127 190.904 151.493 191.477 150.792C190.535 150.796 189.704 150.927 188.886 151.019C188.47 151.041 188.066 151.069 187.673 151.11C187.475 151.125 187.282 151.154 187.089 151.178C186.896 151.196 186.698 151.177 186.508 151.189C186.125 151.196 185.748 151.209 185.379 151.24L184.28 151.197L183.739 151.191L183.208 151.116C182.857 151.061 182.495 151.09 182.155 150.983C180.757 150.775 179.402 150.337 178.01 149.746C176.605 149.154 175.215 148.383 173.649 147.459Z" fill="#90CDE0"/>
<path d="M201.215 158.067C199.477 158.766 197.918 159.355 196.394 159.794C194.873 160.231 193.412 160.465 191.978 160.466C190.55 160.442 189.097 160.318 187.611 159.81C187.424 159.755 187.229 159.713 187.034 159.666L186.473 159.448C186.095 159.302 185.7 159.166 185.294 159.033C184.503 158.724 183.722 158.343 182.788 158.068C182.977 158.499 183.207 158.904 183.451 159.308C183.699 159.708 183.94 160.126 184.252 160.477C184.571 160.82 184.902 161.162 185.249 161.493C185.421 161.661 185.595 161.827 185.78 161.981C185.977 162.117 186.175 162.257 186.381 162.385C187.952 163.54 190.003 164.101 192.01 164.102C194.034 164.097 196.006 163.44 197.603 162.37C199.188 161.284 200.515 159.851 201.215 158.067Z" fill="#90CDE0"/>
<path d="M181.105 160.188C179.484 160.972 178.048 161.696 176.644 162.25C175.247 162.803 173.917 163.168 172.657 163.211C171.401 163.249 170.155 163.031 168.818 162.458C167.475 161.907 166.099 161.069 164.514 160.188C164.905 161.978 165.858 163.583 167.285 164.862C168.692 166.143 170.758 166.943 172.808 166.844C174.866 166.761 176.717 165.865 178.121 164.677C179.521 163.468 180.605 161.963 181.105 160.188Z" fill="#90CDE0"/>
<path d="M162.859 161.704C161.363 162.528 160.031 163.102 158.734 163.429C157.446 163.764 156.235 163.839 154.983 163.754C153.726 163.692 152.437 163.311 151.041 162.982C150.358 162.758 149.647 162.54 148.892 162.343C148.162 162.094 147.4 161.858 146.53 161.704C146.911 162.474 147.4 163.162 147.919 163.836C148.485 164.452 149.117 165.02 149.789 165.547C151.211 166.481 152.854 167.274 154.714 167.38C156.546 167.521 158.48 167.037 159.973 165.989C161.462 164.952 162.563 163.432 162.859 161.704Z" fill="#90CDE0"/>
<path d="M148.035 165.61C146.667 166.076 145.548 166.463 144.46 166.765C143.383 167.071 142.383 167.302 141.372 167.431C141.124 167.5 140.865 167.492 140.61 167.521C140.354 167.563 140.098 167.598 139.835 167.597C139.572 167.615 139.308 167.624 139.036 167.664C138.766 167.653 138.491 167.66 138.208 167.673C137.635 167.74 137.062 167.646 136.425 167.702C135.797 167.707 135.154 167.67 134.403 167.764C134.793 168.37 135.267 168.911 135.8 169.374C136.363 169.775 136.938 170.229 137.61 170.468C138.909 171.079 140.432 171.214 141.89 171.028C143.359 170.831 144.752 170.179 145.848 169.244C146.935 168.306 147.789 167.074 148.035 165.61Z" fill="#B6BDD3"/>
<path d="M132.449 169.348C131.192 169.811 130.179 170.247 129.231 170.624C128.29 171.002 127.443 171.288 126.641 171.483C126.239 171.605 125.842 171.631 125.432 171.723C125.021 171.726 124.59 171.816 124.124 171.781C123.647 171.825 123.16 171.729 122.598 171.715C122.037 171.681 121.475 171.555 120.763 171.555C120.871 171.876 121.02 172.168 121.182 172.46C121.35 172.745 121.509 173.055 121.745 173.281C122.201 173.753 122.697 174.234 123.33 174.525C123.928 174.893 124.633 175.033 125.34 175.171C125.697 175.192 126.058 175.187 126.421 175.188C126.784 175.18 127.126 175.079 127.48 175.019C128.869 174.678 130.06 173.891 130.92 172.906C131.766 171.907 132.377 170.725 132.449 169.348Z" fill="#B6BDD3"/>
<path d="M139.492 172.615C138.112 173.397 136.932 174.103 135.794 174.704C134.659 175.304 133.587 175.755 132.537 176.025C131.488 176.303 130.43 176.427 129.224 176.294C128.606 176.313 127.997 176.114 127.302 176.05C126.62 175.933 125.94 175.727 125.111 175.647C125.278 176.008 125.486 176.341 125.706 176.672C125.932 176.997 126.15 177.347 126.442 177.612C127.031 178.135 127.633 178.713 128.407 179.033C129.138 179.451 129.983 179.623 130.841 179.768C131.704 179.812 132.594 179.792 133.43 179.549C135.115 179.11 136.552 178.116 137.588 176.903C138.611 175.672 139.35 174.238 139.492 172.615Z" fill="#B6BDD3"/>
<path d="M141.216 173.45C141.485 174.321 141.971 175.104 142.576 175.786C142.87 176.14 143.227 176.432 143.579 176.745C143.963 177.008 144.347 177.298 144.781 177.509C146.489 178.411 148.743 178.557 150.635 177.836C151.092 177.634 151.547 177.427 151.991 177.208C152.381 176.923 152.774 176.646 153.15 176.35C153.545 176.067 153.847 175.72 154.149 175.368C154.452 175.021 154.752 174.671 155.02 174.307C155.473 173.528 155.93 172.759 156.246 171.936C156.52 171.087 156.76 170.237 156.871 169.348C156.088 169.835 155.434 170.36 154.814 170.888C154.171 171.391 153.53 171.846 152.961 172.347C151.712 173.169 150.593 174.048 149.405 174.42C148.241 174.843 147.067 174.997 145.698 174.814C144.326 174.643 142.862 174.118 141.216 173.45Z" fill="#90CDE0"/>
<path d="M158.816 169.348C159.061 171.196 159.967 172.875 161.325 174.242C162.669 175.596 164.716 176.596 166.88 176.503C167.946 176.463 168.979 176.187 169.895 175.757C170.797 175.304 171.598 174.734 172.27 174.068C173.618 172.74 174.531 171.137 174.996 169.348C173.365 170.19 171.987 171.101 170.611 171.752C169.929 172.081 169.269 172.353 168.628 172.556C167.985 172.736 167.369 172.854 166.763 172.87C165.562 172.921 164.32 172.599 162.992 171.945C161.66 171.294 160.312 170.384 158.816 169.348Z" fill="#90CDE0"/>
<path d="M177.394 168.221C177.969 170.06 179.23 171.61 180.894 172.725C182.551 173.832 184.817 174.373 186.94 173.906C189.067 173.462 190.825 172.19 192.064 170.714C193.31 169.219 194.127 167.492 194.473 165.611C192.882 166.652 191.545 167.733 190.182 168.58C188.831 169.44 187.519 170.068 186.217 170.344C184.919 170.623 183.568 170.55 182.091 170.146C180.613 169.738 179.079 169.056 177.394 168.221Z" fill="#90CDE0"/>
<path d="M184.285 176.588C182.661 177.708 181.163 178.647 179.664 179.374C178.168 180.099 176.685 180.543 175.185 180.675C174.816 180.773 174.431 180.704 174.052 180.725L173.477 180.751C173.285 180.732 173.092 180.694 172.898 180.68C172.509 180.631 172.112 180.632 171.714 180.559C171.32 180.463 170.917 180.383 170.504 180.309C170.084 180.263 169.684 180.11 169.266 179.991C168.85 179.868 168.419 179.757 167.976 179.649C167.125 179.356 166.254 179.044 165.259 178.828C165.772 179.667 166.389 180.445 167.063 181.179C167.433 181.502 167.816 181.822 168.211 182.13C168.608 182.437 169.001 182.761 169.468 182.97C169.921 183.205 170.383 183.433 170.855 183.646C171.328 183.858 171.855 183.941 172.362 184.087C172.618 184.154 172.877 184.21 173.136 184.262L173.938 184.315C174.474 184.317 175.013 184.396 175.548 184.293C177.708 184.098 179.752 183.116 181.262 181.722C182.763 180.316 183.888 178.564 184.285 176.588Z" fill="#B6BDD3"/>
<path d="M162.859 179.574C161.252 180.422 159.81 181.15 158.408 181.693C157.008 182.234 155.68 182.527 154.394 182.517C154.07 182.565 153.748 182.507 153.425 182.46C153.098 182.44 152.769 182.418 152.445 182.304C152.117 182.216 151.778 182.16 151.438 182.062C151.11 181.922 150.769 181.797 150.416 181.678C150.051 181.583 149.72 181.388 149.367 181.22C149.015 181.05 148.647 180.888 148.265 180.727C147.547 180.333 146.808 179.921 145.931 179.574C146.216 180.436 146.618 181.259 147.081 182.054C147.355 182.415 147.641 182.777 147.944 183.129C148.248 183.482 148.547 183.846 148.942 184.117C150.353 185.382 152.37 186.141 154.407 186.154C156.463 186.164 158.417 185.338 159.861 184.136C161.3 182.916 162.404 181.378 162.859 179.574Z" fill="#90CDE0"/>
<path d="M145.934 181.253C144.229 181.8 142.724 182.359 141.261 182.809C139.806 183.26 138.418 183.58 137.123 183.651C135.823 183.724 134.63 183.521 133.349 182.99C132.075 182.439 130.784 181.534 129.305 180.495C129.498 182.3 130.335 184.019 131.766 185.359C133.204 186.682 135.328 187.429 137.309 187.281C139.297 187.166 141.083 186.397 142.542 185.347C143.992 184.275 145.21 182.933 145.934 181.253Z" fill="#90CDE0"/>
<path d="M128.255 181.969C127.182 182.79 126.398 183.641 125.676 184.476L123.757 186.802C123.478 187.136 123.2 187.416 123.006 187.597C122.794 187.778 122.772 187.873 122.585 187.983C122.391 188.09 121.96 188.009 121.488 187.806C120.994 187.622 120.491 187.305 119.864 187.011C119.815 187.696 119.902 188.36 120.182 189.01C120.457 189.646 120.929 190.337 121.838 190.741C122.75 191.163 123.911 190.993 124.669 190.609C125.459 190.227 126.01 189.707 126.47 189.185C127.373 188.121 127.874 186.959 128.191 185.759C128.477 184.553 128.582 183.301 128.255 181.969Z" fill="#90CDE0"/>
<path d="M136.051 189.434C134.462 190.274 133.103 191.178 131.769 192.022C130.448 192.862 129.169 193.673 127.946 194.209C126.699 194.743 125.672 195.006 124.557 194.74C123.392 194.498 122.148 193.468 120.77 192.314C120.791 193.223 120.965 194.13 121.369 194.989C121.755 195.85 122.38 196.689 123.285 197.294C124.175 197.913 125.324 198.226 126.404 198.217C127.492 198.212 128.498 197.926 129.39 197.537C131.176 196.735 132.538 195.499 133.656 194.136C134.753 192.754 135.628 191.212 136.051 189.434Z" fill="#90CDE0"/>
<path d="M137.617 189.434C138.136 191.369 139.371 193.04 141.014 194.298C142.655 195.547 144.892 196.289 147.103 196.067C148.201 195.962 149.26 195.657 150.226 195.21C151.172 194.733 152.046 194.159 152.785 193.465C154.28 192.095 155.362 190.418 155.969 188.527C154.221 189.44 152.707 190.401 151.185 191.108C150.432 191.474 149.688 191.764 148.959 192.009C148.226 192.224 147.507 192.384 146.79 192.446C145.361 192.586 143.908 192.36 142.382 191.807C140.853 191.253 139.301 190.43 137.617 189.434Z" fill="#90CDE0"/>
<path d="M158.067 189.434C159.181 190.988 160.726 192.094 162.426 192.893C164.135 193.672 166.077 194.099 168.076 193.966C170.067 193.844 172.105 193.055 173.605 191.711C175.115 190.377 176.075 188.586 176.344 186.709C174.793 187.799 173.443 188.736 172.046 189.326C170.664 189.932 169.287 190.232 167.825 190.339C166.364 190.439 164.825 190.352 163.211 190.157C161.591 189.964 159.924 189.681 158.067 189.434Z" fill="#90CDE0"/>
<path d="M167.211 195.347C165.32 196.314 163.597 197.245 161.878 198.042C160.168 198.839 158.48 199.478 156.815 199.819C155.149 200.141 153.515 200.166 151.826 199.744C150.126 199.344 148.42 198.476 146.536 197.469C147.293 199.47 148.744 201.252 150.75 202.389C152.749 203.543 155.271 203.854 157.514 203.386C159.77 202.918 161.764 201.822 163.405 200.438C165.032 199.032 166.398 197.352 167.211 195.347Z" fill="#90CDE0"/>
<path d="M144.43 197.923C142.817 198.613 141.408 199.291 140.033 199.85C138.666 200.41 137.358 200.826 136.123 200.984C134.885 201.155 133.72 201.035 132.426 200.628C131.141 200.189 129.798 199.438 128.25 198.584C128.593 200.33 129.553 201.916 131.032 203.116C132.524 204.286 134.64 204.889 136.578 204.59C138.523 204.332 140.216 203.42 141.542 202.257C142.856 201.074 143.909 199.639 144.43 197.923Z" fill="#90CDE0"/>
<path d="M126.609 198.584C125.379 199.094 124.422 199.702 123.53 200.286C122.663 200.866 121.822 201.455 121.237 201.743C120.944 201.882 120.824 201.906 120.9 201.965C120.964 202.063 120.758 202.085 120.461 201.82C119.855 201.305 119.543 199.967 118.675 198.965C118.088 200.175 117.542 201.744 117.993 203.215C118.043 203.395 118.132 203.585 118.235 203.778C118.328 203.967 118.453 204.155 118.621 204.346C118.766 204.536 118.955 204.72 119.19 204.877C119.401 205.048 119.674 205.165 119.943 205.276C121.098 205.675 122.129 205.349 122.815 205.011C124.213 204.273 124.995 203.265 125.619 202.199C126.207 201.113 126.609 199.941 126.609 198.584Z" fill="#90CDE0"/>
<path d="M134.398 205.954C132.968 206.388 131.781 206.936 130.646 207.459C129.525 207.985 128.464 208.5 127.526 208.827C127.061 208.997 126.632 209.103 126.276 209.15C125.914 209.198 125.623 209.199 125.238 209.087C124.446 208.879 123.536 207.925 122.488 206.863C122.294 207.597 122.246 208.353 122.394 209.123C122.526 209.89 122.877 210.698 123.544 211.376C124.196 212.063 125.193 212.504 126.131 212.597C127.079 212.698 127.946 212.522 128.707 212.26C130.231 211.71 131.395 210.786 132.348 209.73C133.284 208.656 134.04 207.435 134.398 205.954Z" fill="#90CDE0"/>
<path d="M137.62 205.954C138.545 207.73 140.01 209.112 141.701 210.163C143.399 211.199 145.42 211.877 147.551 211.885C148.61 211.885 149.683 211.739 150.701 211.407C151.714 211.064 152.663 210.566 153.497 209.944C155.14 208.658 156.328 206.96 156.871 205.045C155.151 206.022 153.623 206.883 152.106 207.454C150.58 208.003 149.107 208.268 147.576 208.25C146.048 208.249 144.463 207.976 142.819 207.548C141.167 207.123 139.483 206.558 137.62 205.954Z" fill="#90CDE0"/>
<path d="M158.817 205.954C159.448 207.544 160.627 208.782 162.013 209.731C163.412 210.663 165.116 211.257 166.896 211.312C167.785 211.371 168.68 211.206 169.542 211.009C170.385 210.711 171.219 210.41 171.919 209.878C172.669 209.435 173.243 208.777 173.794 208.153C174.079 207.851 174.265 207.452 174.472 207.09C174.67 206.719 174.855 206.348 174.996 205.953C174.145 206.161 173.466 206.487 172.756 206.706C172.034 206.895 171.408 207.179 170.739 207.279L170.261 207.396C170.107 207.448 169.95 207.483 169.788 207.49C169.466 207.519 169.161 207.578 168.855 207.63C168.232 207.647 167.63 207.737 167.011 207.678C165.781 207.642 164.516 207.451 163.172 207.132C161.823 206.815 160.424 206.404 158.817 205.954Z" fill="#90CDE0"/>
<path d="M166.309 212.168C164.54 213.037 162.957 213.896 161.391 214.624C159.835 215.351 158.313 215.93 156.856 216.183C155.399 216.416 154.031 216.322 152.575 215.773C151.122 215.214 149.659 214.212 148.032 213.077C148.408 215.032 149.445 216.872 151.138 218.236C152.836 219.598 155.29 220.17 157.449 219.769C159.617 219.384 161.467 218.313 162.954 216.995C164.429 215.656 165.634 214.061 166.309 212.168Z" fill="#90CDE0"/>
<path d="M146.535 212.926C144.705 213.763 143.061 214.604 141.434 215.327C139.817 216.043 138.233 216.655 136.71 216.919C135.187 217.175 133.75 217.153 132.269 216.598C130.773 216.074 129.296 215.028 127.658 213.836C128.032 215.826 129.093 217.744 130.885 219.092C132.663 220.474 135.182 220.916 137.339 220.498C139.527 220.104 141.397 219.031 142.945 217.732C144.478 216.404 145.761 214.823 146.535 212.926Z" fill="#90CDE0"/>
<path d="M125.855 213.986C124.53 214.65 123.467 215.399 122.457 216.096C121.485 216.779 120.475 217.482 119.847 217.693C119.712 217.739 119.598 217.778 119.573 217.77C119.527 217.808 119.55 217.794 119.491 217.829C119.381 217.846 119.035 217.608 118.725 217.187C118.057 216.376 118.221 214.702 117.969 213.091C117.391 214.473 115.77 216.779 116.145 218.355C116.331 219.122 116.717 220.031 117.695 220.76C118.2 221.097 118.838 221.335 119.441 221.359C120.061 221.402 120.582 221.267 121.055 221.116C121.972 220.769 122.616 220.271 123.167 219.743C123.712 219.21 124.155 218.636 124.526 218.029C125.255 216.811 125.764 215.492 125.855 213.986Z" fill="#90CDE0"/>
<path d="M134.398 221.108C132.87 222.013 131.557 222.931 130.267 223.727C128.994 224.524 127.734 225.192 126.646 225.428C125.572 225.664 124.681 225.542 123.51 224.851C122.362 224.164 121.207 223.04 119.867 221.866C119.858 223.664 120.379 225.423 121.612 226.97C122.238 227.728 123.097 228.41 124.152 228.796C125.205 229.187 126.39 229.211 127.423 228.977C129.514 228.479 131.009 227.213 132.141 225.854C133.257 224.463 134.079 222.89 134.398 221.108Z" fill="#90CDE0"/>
<path d="M137.094 222.927C136.994 223.468 137.266 223.972 137.457 224.436C137.674 224.908 137.951 225.344 138.253 225.766C138.868 226.596 139.631 227.328 140.51 227.934C142.253 229.146 144.594 229.766 146.835 229.395C147.948 229.215 149.011 228.836 149.962 228.31C150.892 227.758 151.749 227.117 152.451 226.355C153.881 224.856 154.874 223.075 155.371 221.109C153.668 222.181 152.194 223.277 150.692 224.115C149.952 224.551 149.209 224.898 148.482 225.202C147.748 225.481 147.022 225.69 146.294 225.801C144.843 226.037 143.347 225.892 141.778 225.389C140.994 225.143 140.201 224.813 139.401 224.418C138.632 223.995 137.723 223.619 137.094 222.927Z" fill="#90CDE0"/>
<path d="M157.163 221.108C157.505 222.688 158.335 224.013 159.368 225.161C160.421 226.287 161.721 227.258 163.303 227.792C164.864 228.339 166.714 228.401 168.321 227.785C168.714 227.608 169.095 227.416 169.457 227.215C169.799 226.973 170.106 226.683 170.404 226.41C170.546 226.263 170.7 226.138 170.822 225.977C170.936 225.805 171.051 225.641 171.151 225.462C171.36 225.117 171.551 224.773 171.695 224.407C170.105 224.721 168.896 225.074 167.728 224.989C166.583 224.943 165.56 224.713 164.467 224.352C163.376 223.996 162.255 223.451 161.067 222.887C159.87 222.316 158.63 221.699 157.163 221.108Z" fill="#90CDE0"/>
<path d="M165.262 228.686C163.599 229.814 162.103 230.885 160.602 231.772C159.111 232.66 157.63 233.325 156.221 233.544C154.818 233.768 153.43 233.571 151.934 232.885C150.437 232.219 148.929 231.163 147.247 230.05C147.712 232.032 148.757 233.844 150.388 235.28C151.211 235.978 152.19 236.586 153.313 236.911C154.426 237.248 155.637 237.317 156.782 237.136C159.093 236.758 160.985 235.475 162.383 233.982C163.772 232.459 164.812 230.684 165.262 228.686Z" fill="#90CDE0"/>
<path d="M144.43 230.201C142.662 230.521 141.133 231.043 139.632 231.482C138.145 231.928 136.714 232.364 135.383 232.575C134.039 232.782 132.895 232.805 131.802 232.365C130.684 231.927 129.603 230.816 128.438 229.443C128.173 231.194 128.603 233.219 130.18 234.706C130.958 235.43 131.979 235.909 132.991 236.123C134.012 236.34 135.019 236.31 135.959 236.163C137.847 235.849 139.47 235.035 140.892 234.032C142.306 233.008 143.524 231.75 144.43 230.201Z" fill="#90CDE0"/>
<path d="M127.133 230.807C125.856 231.381 124.848 232.046 123.897 232.682C122.969 233.317 122.077 233.944 121.383 234.294C121.041 234.476 120.802 234.528 120.721 234.58C120.65 234.643 120.481 234.674 120.135 234.463C119.459 234.007 118.713 232.994 117.77 231.969C117.279 233.294 117.169 234.671 117.88 236.189C118.089 236.566 118.355 236.947 118.755 237.28C118.942 237.449 119.189 237.59 119.424 237.721C119.673 237.828 119.943 237.928 120.209 237.99C121.318 238.21 122.272 237.899 122.986 237.548C124.414 236.791 125.288 235.735 125.97 234.611C126.625 233.471 127.085 232.232 127.133 230.807Z" fill="#90CDE0"/>
<path d="M172.301 239.143C169.331 240.455 167.197 240.433 164.921 239.826C164.344 239.719 163.771 239.462 163.167 239.285C162.571 239.062 161.965 238.801 161.325 238.573C160.71 238.28 160.042 238.043 159.36 237.774C158.686 237.489 157.983 237.217 157.17 237.021C157.446 237.79 157.832 238.483 158.247 239.162C158.685 239.817 159.231 240.389 159.778 240.967C160.061 241.245 160.39 241.48 160.71 241.724C161.036 241.963 161.349 242.214 161.716 242.407C162.081 242.6 162.457 242.773 162.832 242.954C163.199 243.143 163.633 243.224 164.038 243.35C165.678 243.792 167.587 243.717 169.173 242.928C170.745 242.154 171.977 240.778 172.301 239.143Z" fill="#90CDE0"/>
<path d="M154.176 237.021C152.274 238.044 150.568 239.109 148.866 240.065C147.177 241.016 145.499 241.876 143.892 242.342C142.267 242.795 140.875 242.809 139.46 242.029C138.017 241.264 136.701 239.728 135.3 238.081C135.309 238.625 135.349 239.172 135.436 239.716C135.555 240.248 135.657 240.797 135.863 241.324C136.215 242.394 136.858 243.413 137.737 244.297C138.617 245.178 139.846 245.83 141.134 246.065C142.425 246.309 143.716 246.17 144.863 245.843C147.166 245.16 149.015 243.84 150.565 242.338C152.095 240.809 153.372 239.059 154.176 237.021Z" fill="#90CDE0"/>
<path d="M132.898 237.021C131.572 237.549 130.505 238.166 129.489 238.759C128.488 239.353 127.553 239.935 126.715 240.348C126.3 240.561 125.911 240.718 125.576 240.819C125.236 240.923 124.957 240.975 124.59 240.958C123.845 240.937 122.837 240.274 121.663 239.459C121.574 240.179 121.631 240.902 121.895 241.608C122.15 242.308 122.614 243.023 123.365 243.535C124.103 244.06 125.083 244.291 125.956 244.248C126.839 244.209 127.621 243.943 128.302 243.611C129.663 242.923 130.656 241.929 131.43 240.826C132.185 239.708 132.751 238.469 132.898 237.021Z" fill="#B6BDD3"/>
<path d="M127.654 244.418C126.457 245.187 125.553 246.04 124.707 246.894C123.876 247.751 123.131 248.619 122.438 249.421C121.77 250.21 121.029 250.92 120.768 251.153C120.723 251.206 120.709 251.205 120.66 251.259C120.617 251.282 120.57 251.303 120.496 251.329C120.358 251.346 120.152 251.314 119.924 251.22C119.447 251.032 118.964 250.614 118.365 250.205C118.251 250.914 118.259 251.637 118.581 252.382C118.753 252.749 119.004 253.123 119.396 253.443C119.795 253.751 120.336 253.978 120.874 254.011C121.97 254.09 122.827 253.671 123.486 253.267C124.154 252.841 124.674 252.34 125.137 251.822C126.036 250.774 126.668 249.615 127.107 248.387C127.532 247.153 127.793 245.854 127.654 244.418Z" fill="#B6BDD3"/>
<path d="M129.306 245.962C129.648 247.656 130.476 249.123 131.57 250.409C132.679 251.668 134.123 252.801 136.062 253.272C137.022 253.493 138.113 253.509 139.126 253.194C140.14 252.885 141.016 252.284 141.656 251.578C142.901 250.124 143.424 248.434 143.389 246.72C142.079 247.805 140.944 248.803 139.859 249.37C138.752 249.909 137.919 249.958 136.864 249.728C135.811 249.489 134.604 248.907 133.364 248.212C132.107 247.518 130.819 246.725 129.306 245.962Z" fill="#90CDE0"/>
<path d="M146.231 247.022C147.439 248.608 149.16 249.681 151.036 250.358C152.921 251.017 155.054 251.192 157.102 250.739C159.14 250.294 161.094 249.262 162.471 247.752C163.233 247.072 163.731 246.167 164.257 245.34C164.516 244.922 164.666 244.433 164.839 243.973C165.004 243.506 165.156 243.042 165.262 242.562C164.378 243.069 163.683 243.655 162.938 244.152C162.151 244.593 161.509 245.157 160.74 245.493C159.321 246.347 157.845 246.84 156.35 247.184C154.848 247.519 153.266 247.632 151.59 247.564C149.909 247.494 148.165 247.29 146.231 247.022Z" fill="#B6BDD3"/>
<path d="M157.171 252.592C158.632 254.221 160.517 255.348 162.558 256.114C164.606 256.856 166.897 257.187 169.209 256.817C171.514 256.469 173.781 255.247 175.293 253.467C176.808 251.685 177.615 249.501 177.695 247.325C176.229 248.934 174.88 250.355 173.389 251.353C171.905 252.353 170.339 252.948 168.629 253.227C166.921 253.505 165.089 253.497 163.182 253.334C161.268 253.173 159.303 252.877 157.171 252.592Z" fill="#90CDE0"/>
<path d="M155.371 253.842C153.414 254.825 151.634 255.816 149.859 256.686C148.097 257.56 146.347 258.302 144.647 258.684C142.943 259.064 141.333 259.086 139.724 258.458C138.087 257.877 136.528 256.617 134.846 255.197C135.036 256.291 135.418 257.346 135.992 258.337C136.55 259.337 137.358 260.235 138.347 260.956C139.333 261.678 140.535 262.188 141.773 262.379C143.014 262.578 144.263 262.492 145.428 262.233C147.767 261.695 149.761 260.498 151.424 259.056C153.075 257.594 154.476 255.88 155.371 253.842Z" fill="#90CDE0"/>
<path d="M132.898 254.6C131.545 254.927 130.441 255.362 129.394 255.767C128.359 256.173 127.399 256.563 126.569 256.794C125.715 257.004 125.18 257.111 124.448 256.937C123.681 256.769 122.771 256.052 121.663 255.198C121.515 255.89 121.518 256.594 121.699 257.294C121.865 257.994 122.238 258.7 122.839 259.288C123.429 259.882 124.275 260.295 125.121 260.44C125.972 260.591 126.796 260.495 127.525 260.299C128.982 259.877 130.108 259.056 131.013 258.1C131.9 257.122 132.601 255.99 132.898 254.6Z" fill="#B6BDD3"/>
<path d="M128.442 262.631C128.019 263.069 127.594 263.352 127.183 263.686C126.78 264.009 126.412 264.334 126.058 264.649C125.362 265.275 124.714 265.912 124.213 266.321C123.97 266.527 123.78 266.616 123.871 266.659C123.923 266.67 124.025 266.755 124.027 266.805C124.037 266.872 123.948 266.879 123.826 266.835C123.574 266.732 123.233 266.431 122.879 266.085C122.5 265.736 122.158 265.322 121.664 264.904C121.376 265.479 121.264 266.052 121.209 266.666C121.184 267.274 121.256 267.913 121.613 268.616C121.807 268.962 122.077 269.341 122.538 269.636C122.969 269.96 123.594 270.096 124.141 270.098C125.238 270.033 125.945 269.572 126.475 269.147C127.52 268.258 128.078 267.237 128.451 266.153C128.624 265.605 128.74 265.041 128.77 264.448C128.762 263.864 128.804 263.211 128.442 262.631Z" fill="#B6BDD3"/>
<path d="M129.902 262.631C130.573 264.616 131.813 266.317 133.372 267.732C134.94 269.117 136.963 270.241 139.324 270.462C140.492 270.565 141.713 270.425 142.831 270.02C143.948 269.609 144.925 268.95 145.731 268.184C147.32 266.615 148.281 264.686 148.629 262.631C147.004 263.911 145.538 265.101 144.049 265.886C142.558 266.678 141.131 266.983 139.641 266.84C138.148 266.711 136.559 266.146 134.948 265.369C133.327 264.59 131.699 263.633 129.902 262.631Z" fill="#90CDE0"/>
<path d="M151.773 261.873C152.779 263.754 154.327 265.254 156.188 266.371C158.042 267.453 160.409 268.146 162.856 267.641C165.309 267.153 167.338 265.398 168.401 263.464C169.517 261.519 169.985 259.403 169.9 257.28C168.572 258.924 167.433 260.505 166.153 261.73C164.897 262.987 163.567 263.772 162.136 264.078C160.695 264.389 159.031 264.203 157.285 263.746C155.533 263.288 153.735 262.602 151.773 261.873Z" fill="#B6BDD3"/>
<path d="M172.299 257.28C173.12 258.632 174.246 259.619 175.496 260.417C176.756 261.198 178.179 261.777 179.811 261.95C180.625 262.025 181.504 262.005 182.412 261.73C183.307 261.465 184.246 260.9 184.833 260.075C185.431 259.257 185.647 258.321 185.636 257.494C185.635 256.657 185.397 255.892 185.033 255.196C184.292 256.579 183.571 257.726 182.811 258.076C182.441 258.256 182.094 258.33 181.653 258.367C181.22 258.405 180.705 258.393 180.154 258.332C179.049 258.22 177.815 257.99 176.519 257.763C175.212 257.544 173.854 257.322 172.299 257.28Z" fill="#90CDE0"/>
<path d="M180.091 262.631C178.842 263.927 177.707 265.003 176.511 265.853C175.324 266.704 174.134 267.324 172.853 267.74C171.559 268.115 170.19 268.362 168.68 268.467C167.927 268.538 167.15 268.496 166.329 268.586C165.518 268.572 164.682 268.575 163.762 268.692C164.406 269.315 165.133 269.83 165.887 270.317C166.683 270.689 167.5 271.089 168.38 271.311C170.137 271.773 172.094 271.77 173.952 271.202C175.808 270.607 177.451 269.364 178.543 267.828C179.63 266.291 180.24 264.459 180.091 262.631Z" fill="#90CDE0"/>
<path d="M160.836 269.99C159.001 271.276 157.284 272.436 155.541 273.375C153.804 274.309 152.063 275.002 150.315 275.253C148.572 275.503 146.803 275.361 144.972 274.79C143.137 274.234 141.284 273.317 139.262 272.33C140.225 274.383 141.78 276.13 143.794 277.39C145.797 278.649 148.386 279.232 150.843 278.849C153.311 278.486 155.498 277.249 157.191 275.686C158.872 274.099 160.189 272.182 160.836 269.99Z" fill="#90CDE0"/>
<path d="M137.621 272.026C136.161 272.763 134.95 273.592 133.785 274.401C132.632 275.209 131.534 276.005 130.507 276.616C130.001 276.918 129.508 277.149 129.103 277.281C128.688 277.409 128.409 277.473 128.015 277.392C127.616 277.32 127.117 276.995 126.627 276.532C126.36 276.321 126.14 276.039 125.863 275.777C125.603 275.502 125.363 275.2 125.055 274.905C124.894 275.717 124.876 276.546 125.076 277.389C125.265 278.221 125.673 279.124 126.532 279.826C127.375 280.554 128.642 280.811 129.656 280.684C130.693 280.569 131.556 280.19 132.311 279.761C133.798 278.864 134.905 277.686 135.796 276.395C136.667 275.09 137.352 273.668 137.621 272.026Z" fill="#B6BDD3"/>
<path d="M137.297 280.913C135.87 281.687 134.682 282.538 133.547 283.244C132.987 283.586 132.436 283.91 131.99 284.064C131.771 284.139 131.582 284.196 131.5 284.174C131.412 284.166 131.457 284.155 131.479 284.161C131.498 284.191 131.433 284.149 131.333 284.025C131.279 283.967 131.218 283.897 131.159 283.791C131.102 283.719 131.031 283.567 130.946 283.416C130.616 282.826 130.309 282.238 129.997 281.651C129.695 281.062 129.403 280.471 129.159 279.851C128.926 279.223 128.675 278.585 128.757 277.773C128.369 277.948 128.081 278.312 127.862 278.685C127.642 279.062 127.487 279.485 127.392 279.903C127.193 280.75 127.193 281.605 127.276 282.43C127.366 283.251 127.564 284.042 127.819 284.793C128.082 285.525 128.537 286.725 129.907 287.433C130.581 287.762 131.374 287.836 132.001 287.724C132.641 287.608 133.134 287.379 133.556 287.12C134.4 286.598 134.976 285.972 135.477 285.32C136.441 284.001 137.084 282.555 137.297 280.913Z" fill="#B6BDD3"/>
<path d="M136.754 278.727C136.312 279.734 136.19 280.838 136.237 281.982C136.311 283.119 136.668 284.333 137.463 285.388C138.248 286.441 139.486 287.225 140.747 287.536C141.061 287.637 141.368 287.647 141.683 287.697C141.994 287.734 142.316 287.792 142.61 287.769C143.201 287.741 143.832 287.744 144.374 287.628C146.602 287.268 148.831 286.272 150.453 284.639C152.08 283.046 153.176 280.921 153.234 278.727C151.794 280.311 150.308 281.504 148.736 282.367C147.186 283.258 145.528 283.741 143.802 284.038C142.943 284.197 142.162 284.219 141.431 284.166C140.715 284.083 140.109 283.855 139.514 283.434C138.309 282.576 137.422 280.748 136.754 278.727Z" fill="#90CDE0"/>
<path d="M155.745 280.967C157.475 282.806 159.66 284.126 162.069 284.993C164.469 285.824 167.259 286.183 170.007 285.309C171.364 284.87 172.654 284.108 173.682 283.102C174.728 282.105 175.454 280.873 175.966 279.63C176.957 277.114 177.122 274.505 176.647 272.026C175.643 274.334 174.709 276.514 173.473 278.282C172.258 280.073 170.737 281.264 168.912 281.845C167.084 282.442 164.93 282.465 162.708 282.216C160.472 281.968 158.179 281.481 155.745 280.967Z" fill="#90CDE0"/>
<path d="M186.535 258.748C186.653 260.393 186.713 261.816 186.503 263.02C186.289 264.225 185.853 265.077 185.182 265.877C184.546 266.709 183.483 267.391 182.396 268.178C181.801 268.509 181.227 268.932 180.599 269.324C179.965 269.703 179.322 270.115 178.67 270.663C179.454 270.894 180.246 270.989 181.048 271.053C181.845 271.088 182.641 270.952 183.446 270.834C185.011 270.413 186.687 269.75 187.919 268.233C188.522 267.51 189.025 266.621 189.248 265.667C189.505 264.724 189.484 263.744 189.315 262.857C189.224 262.415 189.072 261.996 188.92 261.591C188.724 261.204 188.554 260.813 188.302 260.473C187.834 259.781 187.252 259.176 186.535 258.748Z" fill="#90CDE0"/>
<path d="M185.781 270.663C185.255 272.156 184.627 273.276 183.925 274.231C183.229 275.183 182.429 275.943 181.53 276.675C180.656 277.434 179.593 278.061 178.52 278.819C177.949 279.144 177.389 279.533 176.804 279.937C176.206 280.315 175.603 280.725 174.993 281.27C175.745 281.501 176.501 281.597 177.264 281.662C178.02 281.683 178.774 281.591 179.532 281.488C181.015 281.14 182.526 280.581 183.788 279.503C185.057 278.478 186.101 277.013 186.509 275.365C186.914 273.739 186.746 271.962 185.781 270.663Z" fill="#90CDE0"/>
<path d="M176.644 283.142C176.155 285.248 175.713 287.193 175.103 288.979C174.496 290.758 173.712 292.332 172.629 293.475C171.55 294.607 170.161 295.424 168.403 295.885C166.664 296.389 164.692 296.586 162.563 296.879C164.37 298.059 166.477 298.722 168.757 298.722C171.01 298.768 173.543 297.819 175.246 295.968C176.966 294.124 177.719 291.728 177.869 289.516C177.999 287.282 177.634 285.088 176.644 283.142Z" fill="#90CDE0"/>
<path d="M162.559 285.666C161.165 286.976 159.949 288.215 158.71 289.299C157.481 290.381 156.239 291.277 155.005 291.763C153.777 292.262 152.527 292.355 151.045 292.031C149.569 291.71 147.992 291.012 146.225 290.279C146.935 292.074 148.193 293.614 149.976 294.679C150.874 295.194 151.918 295.557 153.033 295.659C154.149 295.749 155.295 295.554 156.317 295.148C158.378 294.314 159.863 292.765 160.878 291.119C161.877 289.446 162.514 287.612 162.559 285.666Z" fill="#B6BDD3"/>
<path d="M187.288 275.967C187.3 278.137 187.253 280.127 186.991 281.994C186.735 283.856 186.234 285.539 185.408 286.988C185.006 287.72 184.495 288.387 183.907 289.012C183.326 289.645 182.657 290.232 181.909 290.778C180.427 291.895 178.68 292.844 176.811 293.936C178.937 294.333 181.136 294.114 183.24 293.301C185.331 292.504 187.331 290.934 188.521 288.805C189.731 286.688 190.089 284.215 189.808 281.983C189.514 279.745 188.704 277.637 187.288 275.967Z" fill="#90CDE0"/>
<path d="M196.87 263.995C197.037 265.635 197.07 267.05 196.77 268.172C196.484 269.291 195.964 270.053 195.166 270.823C194.976 271.021 194.795 271.23 194.527 271.389C194.291 271.576 194.05 271.756 193.819 271.96C193.256 272.276 192.751 272.69 192.151 273.039C191.545 273.368 190.966 273.804 190.325 274.179C189.688 274.564 189.044 274.981 188.398 275.534C189.185 275.759 189.976 275.849 190.773 275.908C191.568 275.963 192.354 275.821 193.152 275.714C193.551 275.671 193.941 275.526 194.332 275.395C194.726 275.268 195.111 275.113 195.501 274.962C196.248 274.509 197.023 274.137 197.671 273.431C197.999 273.104 198.331 272.786 198.581 272.352C198.832 271.935 199.121 271.549 199.255 271.058C199.419 270.588 199.585 270.127 199.6 269.63C199.624 269.387 199.65 269.146 199.66 268.907L199.587 268.2C199.33 266.339 198.291 264.838 196.87 263.995Z" fill="#B6BDD3"/>
<path d="M197.018 273.581C196.892 275.41 196.722 277.009 196.399 278.485C196.067 279.953 195.591 281.255 194.875 282.415C194.739 282.73 194.485 282.978 194.304 283.27C194.207 283.413 194.124 283.567 194.017 283.705C193.898 283.835 193.775 283.96 193.662 284.098C193.423 284.362 193.226 284.666 192.957 284.918C192.685 285.165 192.42 285.429 192.155 285.704C191.906 285.999 191.583 286.219 191.287 286.481C190.984 286.738 190.685 287.012 190.38 287.298C189.731 287.805 189.061 288.326 188.397 288.999C189.293 289.081 190.196 289.037 191.098 288.932C191.534 288.83 191.973 288.717 192.411 288.585C192.847 288.449 193.298 288.335 193.702 288.098C195.398 287.335 196.922 285.98 197.962 284.279C199.012 282.567 199.406 280.495 199.216 278.603C199.004 276.709 198.302 274.913 197.018 273.581Z" fill="#B6BDD3"/>
<path d="M198.966 283.69C199.05 285.352 199.208 286.806 199.297 288.196C199.391 289.58 199.404 290.867 199.262 292.044C199.11 293.221 198.809 294.28 198.22 295.376C197.636 296.479 193.365 298.485 189.438 299.328C193.5 301.045 199.503 298.757 200.352 297.255C201.722 296.103 202.632 294.289 202.829 292.495C203.042 290.695 202.688 288.958 202.018 287.457C201.328 285.963 200.355 284.624 198.966 283.69Z" fill="#B6BDD3"/>
<path d="M204.964 278.053C205.807 279.799 206.565 281.381 207.085 282.926C207.61 284.467 207.842 285.915 207.68 287.248C207.537 288.584 206.963 289.904 206.076 291.261C205.208 292.633 202.887 294.123 201.713 295.68C204.045 295.452 206.591 294.5 208.151 293.204C209.692 291.938 211.01 289.965 211.25 287.674C211.523 285.393 210.742 283.19 209.564 281.57C208.366 279.941 206.81 278.687 204.964 278.053Z" fill="#B6BDD3"/>
<path d="M233.037 280.367C232.889 282.301 232.75 284.049 232.424 285.646C232.105 287.242 231.579 288.61 230.769 289.682C229.975 290.765 228.814 291.619 227.367 292.347C225.927 293.098 223.171 293.221 221.375 293.978C223.507 294.952 226.185 295.407 228.185 295.07C230.154 294.749 232.285 293.704 233.642 291.843C235.023 290.007 235.454 287.709 235.248 285.718C235.031 283.709 234.314 281.843 233.037 280.367Z" fill="#90CDE0"/>
<path d="M199.264 265.661C200.309 267.218 201.269 268.609 201.987 269.994C202.711 271.374 203.125 272.689 203.117 273.914C203.134 275.139 202.707 276.426 201.971 277.801C201.256 279.188 200.238 280.56 199.263 282.179C201.096 281.796 202.78 280.937 204.19 279.572C204.907 278.905 205.508 278.058 205.984 277.109C206.456 276.153 206.707 275.028 206.711 273.908C206.713 271.619 205.593 269.598 204.213 268.249C202.811 266.889 201.127 265.963 199.264 265.661Z" fill="#B6BDD3"/>
<path d="M206.195 272.027C207.902 272.993 209.447 273.883 210.745 274.893C212.047 275.898 213.009 277.001 213.534 278.242C213.806 278.863 213.981 279.539 214.081 280.274C214.159 281.016 214.183 281.806 214.133 282.643C214.063 284.322 213.708 286.106 213.503 288.091C215.022 286.824 216.193 285.202 216.894 283.259C217.254 282.293 217.448 281.231 217.488 280.125C217.499 279.014 217.285 277.854 216.825 276.782C215.897 274.601 213.983 273.09 212.072 272.38C210.139 271.664 208.112 271.503 206.195 272.027Z" fill="#B6BDD3"/>
<path d="M217.69 282.18C218.224 283.789 218.795 285.18 219.278 286.528C219.76 287.865 220.161 289.137 220.304 290.303C220.439 291.47 220.383 292.503 219.939 293.658C219.499 294.817 218.103 295.326 217.135 296.724C218.81 296.65 221.017 296.636 222.288 295.248C223.576 293.865 224.147 291.697 223.868 289.83C223.619 287.941 222.756 286.349 221.695 285.06C220.607 283.786 219.295 282.744 217.69 282.18Z" fill="#90CDE0"/>
<path d="M214.841 273.921C215.726 272.137 216.028 270.143 215.804 268.088C215.677 267.06 215.385 266.005 214.837 264.996C214.296 263.992 213.446 263.049 212.379 262.423C211.31 261.799 210.1 261.529 208.983 261.525C207.855 261.517 206.829 261.779 205.867 262.113C203.976 262.851 202.385 263.996 201.114 265.508C203.071 265.339 204.839 265.006 206.491 264.902C207.308 264.885 208.093 264.848 208.785 264.969C209.476 265.079 210.073 265.267 210.577 265.569C211.582 266.132 212.419 267.288 213.078 268.805C213.739 270.317 214.243 272.044 214.841 273.921Z" fill="#B6BDD3"/>
<path d="M216.273 272.027C217.852 272.98 219.281 273.82 220.493 274.753C221.708 275.68 222.618 276.676 223.126 277.77C223.655 278.853 223.823 280.178 223.759 281.716C223.718 283.257 223.404 284.918 223.234 286.785C224.708 285.653 225.843 284.158 226.519 282.332C226.875 281.428 227.048 280.413 227.07 279.362C227.086 278.307 226.834 277.2 226.367 276.2C225.409 274.163 223.571 272.833 221.775 272.216C219.954 271.598 218.061 271.491 216.273 272.027Z" fill="#90CDE0"/>
<path d="M225.389 273.921C226.611 274.67 227.628 275.283 228.52 275.909C229.41 276.532 230.116 277.16 230.702 277.849C230.876 277.999 230.998 278.195 231.128 278.384C231.274 278.563 231.428 278.739 231.534 278.958C231.659 279.164 231.79 279.368 231.934 279.58C232.035 279.813 232.156 280.046 232.287 280.284C232.435 280.515 232.539 280.774 232.648 281.042C232.761 281.307 232.892 281.578 233.032 281.859C233.268 282.431 233.151 283.925 233.527 284.583C233.929 283.993 234.572 282.455 234.798 281.782C234.875 281.441 234.942 281.091 234.992 280.735C235.05 280.38 235.086 280.019 235.044 279.652C235.045 278.183 234.414 276.639 233.399 275.447C232.37 274.245 230.93 273.487 229.51 273.241C228.086 273.009 226.636 273.162 225.389 273.921Z" fill="#B6BDD3"/>
<path d="M212.453 261.647C214.454 261.685 216.293 261.648 218.011 261.79C219.719 261.922 221.268 262.279 222.275 262.999C223.281 263.681 223.955 264.892 224.393 266.534C224.857 268.156 225.017 270.028 225.394 272.026C226.478 270.317 227.156 268.384 227.205 266.23C227.249 265.16 227.057 264.018 226.616 262.902C226.171 261.788 225.355 260.726 224.32 260.009C223.282 259.293 222.111 258.916 221 258.784C219.883 258.653 218.811 258.734 217.799 258.948C215.785 259.396 213.95 260.271 212.453 261.647Z" fill="#90CDE0"/>
<path d="M204.209 257.28C205.454 257.566 206.504 257.663 207.436 257.8C208.355 257.91 209.136 258.135 209.359 258.311C209.474 258.395 209.555 258.408 209.695 258.595C209.834 258.776 209.989 259.095 210.121 259.506C210.4 260.334 210.568 261.404 210.988 262.632C211.996 261.828 212.66 260.81 212.949 259.51C213.088 258.862 213.097 258.112 212.858 257.304C212.621 256.502 212.004 255.651 211.214 255.196C210.433 254.721 209.619 254.594 208.922 254.598C208.216 254.61 207.585 254.757 207.009 254.983C205.869 255.45 204.898 256.172 204.209 257.28Z" fill="#B6BDD3"/>
<path d="M209.516 255.197C211.108 254.717 212.479 254.142 213.792 253.68C215.068 253.214 216.369 252.883 217.074 253.012C217.421 253.066 217.635 253.146 217.953 253.406C218.264 253.671 218.605 254.124 218.916 254.689C219.556 255.822 220.058 257.256 220.832 258.749C221.546 257.225 221.855 255.603 221.615 253.836C221.489 252.958 221.177 252.015 220.515 251.129C220.349 250.905 220.167 250.696 219.935 250.506C219.719 250.307 219.486 250.125 219.218 249.979C218.702 249.666 218.108 249.495 217.548 249.408C216.404 249.265 215.405 249.508 214.566 249.858C213.722 250.215 213 250.686 212.363 251.224C211.103 252.307 210.103 253.607 209.516 255.197Z" fill="#90CDE0"/>
<path d="M240.322 276.699C240.455 275.154 240.709 273.797 240.875 272.514C241.052 271.262 241.109 270.009 240.875 269.381C240.769 269.07 240.663 268.885 240.385 268.635C240.104 268.392 239.657 268.151 239.119 267.956C238.037 267.55 236.72 267.32 235.306 266.849C236.487 265.944 237.822 265.395 239.378 265.331C240.152 265.305 241.015 265.44 241.889 265.905C242.109 266.021 242.321 266.155 242.524 266.338C242.732 266.505 242.928 266.69 243.101 266.913C243.46 267.338 243.709 267.856 243.882 268.359C244.203 269.39 244.169 270.35 244.016 271.179C243.858 272.015 243.58 272.756 243.231 273.43C242.52 274.768 241.581 275.9 240.322 276.699Z" fill="#B6BDD3"/>
<path d="M234.986 286.927C235.44 285.674 235.926 284.607 236.34 283.578C236.752 282.579 237.087 281.55 237.087 280.968C237.093 280.682 237.07 280.502 236.951 280.224C236.83 279.952 236.6 279.639 236.302 279.343C235.706 278.735 234.917 278.215 234.123 277.47C235.096 277.01 236.083 276.886 237.095 277.221C237.597 277.391 238.118 277.719 238.566 278.324C238.68 278.476 238.784 278.64 238.869 278.844C238.963 279.035 239.045 279.238 239.101 279.466C239.23 279.91 239.266 280.404 239.256 280.866C239.217 281.804 238.965 282.596 238.669 283.249C238.367 283.905 238.013 284.454 237.628 284.928C236.855 285.866 235.983 286.576 234.986 286.927Z" fill="#B6BDD3"/>
<path d="M222.159 256.674C223.896 256.077 225.479 255.546 226.906 255.376C227.613 255.289 228.252 255.314 228.786 255.453C229.32 255.59 229.773 255.814 230.219 256.173C231.117 256.875 231.969 258.106 232.744 259.495C233.544 260.885 234.283 262.422 235.301 263.996C235.76 262.178 235.766 260.342 235.394 258.5C235.003 256.691 234.21 254.741 232.417 253.297C231.528 252.595 230.367 252.113 229.213 252.039C228.058 251.954 226.97 252.219 226.063 252.657C224.249 253.55 222.92 254.952 222.159 256.674Z" fill="#90CDE0"/>
<path d="M226.857 263.995C228.501 264.854 230.008 265.586 231.316 266.413C232.625 267.236 233.636 268.158 234.151 269.164C234.695 270.15 234.829 271.446 234.7 272.987C234.591 274.527 234.184 276.187 233.936 278.054C235.458 276.973 236.67 275.538 237.431 273.725C237.821 272.825 238.048 271.805 238.086 270.722C238.124 269.637 237.855 268.471 237.321 267.452C236.778 266.433 235.984 265.595 235.115 265C234.244 264.401 233.31 264.011 232.376 263.774C230.507 263.323 228.62 263.355 226.857 263.995Z" fill="#B6BDD3"/>
<path d="M233.528 257.691C234.879 257.428 235.998 257.137 236.975 257.029C237.457 256.975 237.884 256.967 238.225 257.016C238.569 257.065 238.819 257.142 239.067 257.27C239.553 257.503 240.191 258.062 240.858 258.872C241.535 259.677 242.386 263.062 242.522 266.34C244.268 262.676 243.729 258.996 243.412 257.645C243.232 256.971 242.971 256.293 242.516 255.648C242.073 255.008 241.443 254.4 240.634 253.998C239.825 253.602 238.882 253.464 238.055 253.579C237.223 253.689 236.499 253.997 235.898 254.395C234.705 255.207 233.878 256.321 233.528 257.691Z" fill="#B6BDD3"/>
<path d="M227.492 253.034C229.491 251.977 231.31 250.87 233.121 249.981C234.02 249.542 234.912 249.153 235.747 248.929C236.583 248.698 237.322 248.661 237.823 248.812C238.31 248.958 238.761 249.331 239.218 250.004C239.683 250.652 240.029 251.564 240.371 252.49C241.03 254.387 241.502 256.495 242.231 258.665C242.995 256.509 243.319 254.262 243.139 251.907C243.018 250.728 242.803 249.515 242.177 248.289C242.058 247.98 241.829 247.685 241.631 247.388C241.448 247.086 241.167 246.811 240.9 246.537C240.348 245.997 239.613 245.583 238.85 245.328C237.271 244.887 235.795 245.202 234.624 245.68C233.437 246.174 232.445 246.853 231.561 247.608C229.814 249.133 228.42 250.935 227.492 253.034Z" fill="#B6BDD3"/>
<path d="M213.349 252.296C214.656 251.319 215.717 250.334 216.759 249.439C217.785 248.55 218.793 247.746 219.683 247.315C220.581 246.908 221.17 246.786 222.256 247.144C223.314 247.539 226.712 251.837 228.082 252.716C227.982 251.072 225.158 246.051 223.819 244.76C223.134 244.137 222.185 243.636 221.119 243.502C220.052 243.362 218.982 243.619 218.122 244.04C216.392 244.917 215.317 246.28 214.543 247.68C213.797 249.103 213.328 250.637 213.349 252.296Z" fill="#90CDE0"/>
<path d="M206.191 251.172C207.583 250.567 208.709 249.824 209.781 249.081L212.731 246.917C213.172 246.595 213.624 246.319 213.912 246.183C214.04 246.12 214.149 246.071 214.147 246.034C214.169 245.982 214.161 245.919 214.277 245.92C214.501 245.957 214.912 246.386 215.216 246.93C215.401 247.187 215.531 247.496 215.728 247.793C215.894 248.101 216.059 248.421 216.277 248.751C216.642 248.072 216.868 247.358 216.949 246.578C217.025 245.813 216.984 244.921 216.327 243.95C216.153 243.721 215.91 243.487 215.656 243.295C215.373 243.124 215.064 242.951 214.752 242.887C214.101 242.689 213.535 242.772 213.025 242.853C212.029 243.068 211.324 243.494 210.68 243.931C209.42 244.837 208.489 245.93 207.729 247.128C206.987 248.336 206.405 249.646 206.191 251.172Z" fill="#B6BDD3"/>
<path d="M208.193 242.905C209.3 242.503 210.125 242.048 210.87 241.666C211.583 241.277 212.268 240.998 212.466 240.999C212.563 241.001 212.527 240.948 212.66 240.947C212.788 240.947 213.045 241.027 213.345 241.231C213.968 241.604 215.03 242.978 216.029 243.614C216.436 242.493 216.097 240.682 215.629 239.545C215.406 238.983 214.986 238.396 214.318 237.932C213.651 237.465 212.656 237.249 211.846 237.417C211.025 237.562 210.416 237.947 209.94 238.344C209.465 238.753 209.111 239.207 208.84 239.688C208.313 240.657 208.037 241.712 208.193 242.905Z" fill="#B6BDD3"/>
<path d="M219.162 243.839C220.74 243.067 222.113 242.292 223.448 241.678C224.77 241.06 226.037 240.648 227.061 240.662C228.06 240.669 229.031 241.026 230.119 241.92C231.213 242.769 232.975 245.312 234.25 246.539C234.361 244.761 233.263 241.674 232.265 240.058C231.783 239.249 231.077 238.495 230.175 237.924C229.276 237.35 228.155 237.026 227.07 237.026C224.862 237.047 223.107 238.126 221.829 239.345C220.554 240.605 219.6 242.1 219.162 243.839Z" fill="#90CDE0"/>
<path d="M242.306 251.391C243.238 249.594 242.965 243.58 243.044 241.559C243.078 240.546 242.993 239.507 242.747 238.443C242.485 237.386 242.054 236.273 241.187 235.26C240.742 234.767 240.188 234.321 239.55 234.002C239.221 233.861 238.884 233.731 238.602 233.678C238.303 233.616 238.013 233.518 237.706 233.5C236.484 233.34 235.241 233.609 234.228 234.11C232.197 235.147 230.888 236.893 230.328 238.836C232.038 237.837 233.672 237.044 235.149 236.814C235.883 236.712 236.542 236.716 237.151 236.904C237.435 237.003 237.815 237.109 237.961 237.213C238.148 237.327 238.326 237.474 238.503 237.677C239.247 238.506 239.815 240.172 240.242 241.853C240.691 243.567 241.756 249.457 242.306 251.391Z" fill="#B6BDD3"/>
<path d="M236.039 233.56C235.847 231.937 235.041 230.508 233.878 229.334C232.717 228.179 230.987 227.309 229.106 227.332C227.238 227.349 225.501 228.203 224.354 229.376C223.763 229.952 223.333 230.646 222.915 231.307C222.592 232.039 222.306 232.776 222.15 233.56C222.924 233.26 223.568 232.913 224.174 232.561C224.835 232.297 225.4 231.945 225.978 231.716C227.13 231.209 228.153 230.999 229.119 230.968C230.087 230.951 231.121 231.193 232.272 231.675C233.422 232.158 234.635 232.811 236.039 233.56Z" fill="#90CDE0"/>
<path d="M224.824 237.434C224.419 236.001 222.82 232.989 221.672 232.078C220.531 231.202 218.924 230.507 217.069 230.829C216.163 230.994 215.29 231.439 214.644 232.036C214.003 232.634 213.521 233.33 213.25 234.046C212.668 235.476 212.615 236.926 213.012 238.348C214.055 237.312 214.828 236.313 215.625 235.598C216.418 234.85 217.074 234.524 217.713 234.406C218.369 234.272 219.313 234.357 220.401 234.621C221.495 234.874 222.813 235.454 224.824 237.434Z" fill="#90CDE0"/>
<path d="M213.652 233.89C214.233 232.432 214.519 230.673 215.146 229.752C215.461 229.301 215.787 228.976 216.107 228.766C216.427 228.556 216.748 228.417 217.175 228.329C218.018 228.14 219.201 228.164 220.478 228.287C221.766 228.388 223.673 228.984 225.25 228.943C224.352 227.635 222.657 226.259 221.287 225.547C219.926 224.863 218.279 224.385 216.388 224.782C215.458 224.987 214.49 225.489 213.797 226.24C213.097 226.985 212.685 227.892 212.51 228.75C212.191 230.476 212.762 232.567 213.652 233.89Z" fill="#90CDE0"/>
<path d="M225.867 226.575C227.364 225.731 228.658 224.889 229.905 224.272C230.523 223.971 231.118 223.724 231.639 223.62C232.162 223.513 232.563 223.525 232.921 223.629C233.624 223.795 234.572 224.594 235.452 225.715C236.352 226.823 237.217 228.131 238.36 229.442C238.655 227.722 238.506 226.026 237.935 224.348C237.63 223.513 237.225 222.679 236.566 221.909C235.928 221.146 235.006 220.432 233.854 220.117C232.705 219.803 231.486 219.959 230.54 220.363C229.578 220.763 228.827 221.355 228.204 222.001C226.978 223.312 226.165 224.846 225.867 226.575Z" fill="#B6BDD3"/>
<path d="M234.175 231.54C234.152 230.344 235.339 229.182 236.175 228.254C236.393 228.027 236.667 227.8 237.034 227.616C237.416 227.43 237.922 227.281 238.563 227.365C239.211 227.456 239.784 227.843 240.141 228.228C240.31 228.414 240.439 228.607 240.559 228.797C240.651 228.97 240.743 229.154 240.816 229.327C241.29 230.651 241.458 232.855 241.234 233.863C241.107 235.247 240.977 237.831 240.167 238.695C239.485 237.716 238.429 233.61 238.137 232.759C238.054 232.506 237.976 232.253 237.901 232.013C237.673 231.267 236.897 230.838 236.142 231.036C235.472 231.213 234.722 231.411 234.175 231.54Z" fill="#B6BDD3"/>
<path d="M237.321 224.22C238.123 222.42 238.426 220.508 238.347 218.524C238.292 217.529 238.131 216.51 237.719 215.457C237.511 214.928 237.223 214.4 236.824 213.877C236.413 213.364 235.841 212.872 235.143 212.551C234.446 212.237 233.643 212.136 233.003 212.209L232.501 212.255L232.01 212.391C231.683 212.485 231.359 212.583 231.085 212.763C229.919 213.391 229.16 214.342 228.656 215.277C227.697 217.178 227.425 219.158 227.734 221.108C228.865 219.53 229.867 218.038 230.955 216.941C231.502 216.412 232.054 216.03 232.523 215.891C232.638 215.833 232.752 215.824 232.861 215.811L233.022 215.774L233.192 215.795C233.448 215.772 233.558 215.816 233.681 215.871C233.915 215.941 234.296 216.316 234.641 216.921C234.99 217.517 235.292 218.269 235.58 219.056C236.153 220.65 236.636 222.391 237.321 224.22Z" fill="#B6BDD3"/>
<path d="M216.373 226.356C217.066 224.8 217.609 223.387 218.236 222.157C218.851 220.921 219.564 219.981 220.314 219.537C220.69 219.299 221.113 219.133 221.644 219.033C222.179 218.943 222.793 218.92 223.465 218.941C224.817 218.987 226.309 219.268 228.004 219.371C227.045 217.956 225.761 216.862 224.14 216.165C223.326 215.822 222.412 215.608 221.418 215.592C220.424 215.587 219.337 215.871 218.415 216.45C217.493 217.033 216.787 217.867 216.334 218.732C215.879 219.602 215.635 220.499 215.527 221.375C215.334 223.122 215.58 224.824 216.373 226.356Z" fill="#90CDE0"/>
<path d="M212.448 219.576C213.235 218.338 213.824 217.236 214.427 216.254C215.019 215.274 215.617 214.462 216.223 213.912C216.827 213.365 217.465 212.982 218.474 212.724C219.471 212.46 220.703 212.367 222.152 212.167C221.28 210.977 220.036 210.176 218.503 209.864C217.738 209.723 216.893 209.723 216.059 209.957C215.227 210.187 214.442 210.641 213.81 211.218C212.539 212.397 211.938 213.935 211.748 215.369C211.579 216.819 211.748 218.262 212.448 219.576Z" fill="#90CDE0"/>
<path d="M221.59 215.894C222.774 215.134 223.716 214.411 224.612 213.812C225.498 213.209 226.309 212.789 226.954 212.636C227.585 212.492 228.23 212.453 229.194 212.762C230.146 213.033 231.213 213.57 232.535 214.062C232.386 212.642 231.786 211.375 230.702 210.344C230.17 209.826 229.473 209.398 228.656 209.157C227.844 208.911 226.919 208.896 226.082 209.108C224.38 209.555 223.224 210.719 222.515 211.906C221.817 213.125 221.443 214.463 221.59 215.894Z" fill="#90CDE0"/>
<path d="M229.72 81.2204C229.72 81.2204 237.96 74.1787 249.158 75.5274C253.915 68.636 238.035 63.4675 237.81 63.3923C237.586 63.3172 224.089 58.0056 218.778 64.7443C213.465 71.4829 215.488 80.2466 229.72 81.2204Z" fill="#70BED7"/>
<path d="M218.14 68.542C218.14 68.542 236.792 71.5756 237.017 72.9243C237.241 74.273 237.07 76.9687 236.154 77.4188C235.239 77.869 218.627 77.0067 218.627 77.0067C218.627 77.0067 216.006 71.3137 218.14 68.542Z" fill="#87C9DE"/>
<path d="M235.145 74.9058C234.95 76.2432 235.325 77.4044 235.981 77.5006C236.638 77.5959 237.328 76.5899 237.523 75.2525C237.717 73.9151 237.343 72.7539 236.686 72.6577C236.03 72.5616 235.339 73.5684 235.145 74.9058Z" fill="#7FC5DB"/>
<path d="M245.973 88.8611C245.973 88.8611 247.321 85.6401 245.973 83.3928C244.624 81.1455 239.231 78.9734 239.231 78.9734L237.359 75.977L234.287 79.6473C234.287 79.6473 221.178 81.0704 218.931 75.5277C216.684 69.985 222.002 64.4415 226.496 64.3664C230.991 64.2912 238.706 66.8383 239.455 73.3547C242.301 71.5567 242.751 69.6844 242.751 69.6844L248.07 73.7297V77.1754C248.07 77.1754 251.815 75.8267 253.426 73.6545C254.736 70.2088 250.841 63.4678 250.841 63.4678C250.841 63.4678 237.434 58.4487 227.62 59.3481C217.808 60.2467 213.913 64.8165 214.437 72.2323C214.962 79.6481 220.804 82.6445 228.894 83.9924C236.984 85.3411 245.973 88.8611 245.973 88.8611Z" fill="#CEEAF3"/>
<path d="M178.034 20.6217C178.034 20.6217 196.236 10.734 221.179 19.2738C240.055 26.2404 236.011 31.7459 236.011 31.7459C236.011 31.7459 258.258 32.7568 261.741 40.7343C265.224 48.7117 261.741 52.757 261.741 52.757C261.741 52.757 264.999 67.8133 253.427 73.6558C249.718 69.9483 249.269 66.6893 249.157 66.1276C245.448 68.038 233.763 63.8803 229.831 62.3078C225.899 60.7345 214.213 62.9818 215.899 73.6558C217.585 84.3298 234.888 81.5209 238.259 83.0943C241.629 84.6676 248.708 88.1505 248.708 91.1841C248.708 94.2176 251.068 98.3752 237.022 104.33C227.809 106.802 222.415 94.2176 220.056 91.521C217.696 88.8244 207.921 82.0826 202.64 76.8017C197.359 71.5208 183.202 60.8468 180.281 42.1953C177.359 23.543 178.034 20.6217 178.034 20.6217Z" fill="#EFF8FB"/>
<path d="M204.024 22.8695C204.024 22.8695 210.99 17.027 221.177 19.2743C231.365 21.5216 227.395 36.0534 227.395 36.0534C227.395 36.0534 220.728 41.222 212.713 34.855C204.698 28.4873 204.024 22.8695 204.024 22.8695Z" fill="#CEEAF3"/>
<path d="M208.97 29.4606C208.97 29.4606 215.263 27.2133 218.708 26.3147C222.153 25.4161 226.902 25.189 227.711 28.8602C228.52 32.5321 227.396 36.0522 227.396 36.0522C227.396 36.0522 221.854 37.8502 216.91 34.6291C211.967 31.4081 208.97 29.4606 208.97 29.4606Z" fill="#90CDE0"/>
<path d="M256.799 53.2052C256.799 53.2052 254.215 51.4072 254.215 49.2722C254.215 47.1373 258.934 42.1934 259.271 44.6653C259.608 47.1381 257.81 52.082 256.799 53.2052Z" fill="#70BED7"/>
<path d="M258.708 54.3292C258.708 54.3292 261.269 53.4807 261.741 52.7559C261.983 54.3397 262.171 57.0258 262.164 57.5866C262.153 58.2638 258.745 56.351 258.708 54.3292Z" fill="#70BED7"/>
<path d="M256.762 58.9736C256.762 58.9736 255.336 64.1422 249.157 66.1268L256.762 58.9736Z" fill="#CEEAF3"/>
<path d="M220.113 33.3338C220.113 35.1116 221.307 36.5525 222.781 36.5525C224.255 36.5525 225.449 35.1116 225.449 33.3338C225.449 31.5569 224.255 30.1152 222.781 30.1152C221.307 30.116 220.113 31.5569 220.113 33.3338Z" fill="#37AFD4"/>
<path d="M243.429 47.4182C243.606 47.4182 243.775 47.3123 243.846 47.1378C243.939 46.9075 243.828 46.6449 243.598 46.5527C243.487 46.5075 232.282 42.046 222.239 43.5467C221.995 43.5838 221.825 43.8125 221.862 44.0574C221.899 44.303 222.136 44.4671 222.373 44.4355C232.171 42.9697 243.151 47.3422 243.261 47.3859C243.316 47.4077 243.373 47.4182 243.429 47.4182Z" fill="#CEEAF3"/>
<path d="M222.306 51.858C222.345 51.858 222.386 51.8524 222.426 51.8411C231.373 49.3473 243.252 50.8657 243.37 50.8803C243.613 50.9118 243.843 50.7396 243.875 50.4932C243.907 50.2475 243.734 50.0213 243.488 49.9889C243.366 49.9736 231.307 48.4334 222.185 50.9756C221.945 51.0419 221.806 51.29 221.873 51.5291C221.928 51.7279 222.109 51.858 222.306 51.858Z" fill="#CEEAF3"/>
<path d="M231.218 58.7486C231.32 58.7486 231.421 58.7147 231.505 58.6452C235.321 55.4775 244.568 54.7098 244.661 54.7025C244.908 54.6831 245.093 54.4665 245.073 54.2185C245.053 53.9704 244.831 53.7934 244.589 53.8063C244.198 53.8378 234.963 54.6055 230.93 57.9534C230.739 58.1118 230.713 58.3955 230.871 58.5862C230.961 58.6928 231.089 58.7486 231.218 58.7486Z" fill="#CEEAF3"/>
<path d="M228.93 36.5527C228.93 36.5527 244.19 40.7322 250.043 48.5981C250.615 45.9023 251.289 43.9904 251.289 43.9904C251.289 43.9904 241.29 37.4271 228.93 36.5527Z" fill="#CEEAF3"/>
<path d="M220.63 19.0868C220.63 19.0868 210.845 -2.52468 181.183 1.07051C151.52 4.66569 144.329 6.91299 139.16 6.01439C138.037 13.8795 142.531 17.8448 142.531 17.8448C142.531 17.8448 121.857 35.0038 122.306 66.1273C120.508 81.9699 116.464 88.8613 116.464 88.8613L125.003 91.1837C125.003 91.1837 116.913 126.239 110.845 135.004C118.485 139.274 123.879 137.925 123.879 137.925C123.879 137.925 117.137 171.408 106.126 182.869C126.8 182.195 154.89 169.835 154.89 169.835L156.912 137.026L172.418 130.509C172.418 130.509 188.148 135.677 193.991 136.8C194.44 152.98 194.44 162.418 194.44 162.418C194.44 162.418 227.428 169.61 233.069 178.598C232.643 153.879 236.462 137.924 241.406 134.553C239.384 117.7 239.833 106.014 236.238 102.194C232.643 98.3741 231.069 100.396 231.069 100.396C231.069 100.396 220.432 90.4338 217.062 87.7372C213.691 85.0406 195.114 73.093 187.474 53.4298C179.833 33.7674 184.018 23.6614 188.821 19.9467C193.625 16.2319 206.013 20.059 206.013 20.059C206.013 20.059 214.038 16.3733 220.63 19.0868Z" fill="#DFE3F4"/>
<path d="M220.63 19.0868C220.63 19.0868 210.845 -2.52468 181.183 1.07051C151.52 4.66569 144.329 6.91299 139.16 6.01439C138.037 13.8795 142.531 17.8448 142.531 17.8448C142.531 17.8448 121.857 35.0038 122.306 66.1273C120.508 81.9699 116.464 88.8613 116.464 88.8613L125.003 91.1837C125.003 91.1837 116.913 126.239 110.845 135.004C118.485 139.274 123.879 137.925 123.879 137.925C123.879 137.925 117.137 171.408 106.126 182.869C126.8 182.195 154.89 169.835 154.89 169.835L156.912 137.026L172.418 130.509C172.418 130.509 188.148 135.677 193.991 136.8C194.44 152.98 194.44 162.418 194.44 162.418C194.44 162.418 227.428 169.61 233.069 178.598C232.643 153.879 236.462 137.924 241.406 134.553C239.384 117.7 239.833 106.014 236.238 102.194C232.643 98.3741 231.069 100.396 231.069 100.396C231.069 100.396 220.432 90.4338 217.062 87.7372C213.691 85.0406 195.114 73.093 187.474 53.4298C179.833 33.7674 184.018 23.6614 188.821 19.9467C193.625 16.2319 206.013 20.059 206.013 20.059C206.013 20.059 214.038 16.3733 220.63 19.0868Z" fill="#CFE9F2"/>
<path d="M133.993 38.1559C128.6 64.7905 127.477 83.2174 127.477 83.2174L116.596 89.0202L116.466 88.9847C116.466 88.9847 120.511 82.0933 122.309 66.2507C121.859 35.1272 142.533 17.9682 142.533 17.9682C142.533 17.9682 142.515 17.9513 142.489 17.927C150.427 11.0179 159.644 5.45417 167.027 5.16406C167.027 5.16568 139.387 11.5213 133.993 38.1559Z" fill="#90CDE0"/>
<path d="M146.951 21.9697C146.951 21.9697 138.936 24.8918 141.746 61.3334C144.554 97.7749 139.761 127.138 139.761 127.138L125.229 122.643L110.847 135.003C110.847 135.003 118.187 140.171 123.88 137.924C130.621 132.831 151.587 135.808 156.98 138.804L160.203 135.732L143.094 126.014C143.094 126.014 146.803 101.669 145.454 86.6879C144.105 71.7076 139.563 34.6519 146.951 21.9697Z" fill="#90CDE0"/>
<path d="M158.933 15.7979C158.933 15.7979 147.698 24.2165 152.191 52.7558C156.686 81.2951 157.422 102.643 155.032 141.969C153.091 165.564 152.416 169.159 152.416 169.159L106.124 182.867L122.64 187.923C131.292 185.564 157.584 172.867 157.584 172.867L159.719 138.489L156.91 137.024C156.91 137.024 158.333 118.681 158.333 101.86C158.333 85.0398 156.244 62.2719 153.689 50.8826C151.134 39.4934 153.39 22.2108 158.933 15.7979Z" fill="#90CDE0"/>
<path d="M163.127 20.4707C163.127 20.4707 157.21 37.9238 163.127 57.924C169.045 77.9242 172.865 95.0024 173.764 108.935C174.663 122.868 172.416 130.507 172.416 130.507L156.976 136.13L159.502 141.976L173.976 135.901L189.943 144.103L193.988 136.799L175.482 129.383C175.482 129.383 178.408 112.604 174.363 90.1328C170.319 67.6607 163.649 58.7846 162.528 43.3913C161.407 27.9997 163.127 20.4707 163.127 20.4707Z" fill="#90CDE0"/>
<path d="M188.601 5.04102C188.601 5.04102 168.226 6.23941 168.226 26.7641C168.226 47.2887 174.968 61.3705 180.211 75.6025C185.455 89.8346 194.965 119.765 192.832 136.335L189.948 144.104L188.9 165.789L210.623 177.924L233.394 179.722C233.394 179.722 233.544 172.082 216.017 165.49C198.488 158.899 194.407 157.253 194.407 157.253C194.407 157.253 195.642 139.423 194.744 126.24C193.845 113.057 191.148 98.8246 185.754 85.0418C180.361 71.259 173.17 54.1801 171.373 43.544C169.574 32.9063 167.327 9.2358 188.601 5.04102Z" fill="#90CDE0"/>
<path d="M187.998 8.01172C187.998 8.01172 175.564 9.58992 174.515 25.8794C173.466 42.1688 181.107 61.2324 187.399 71.4006C193.691 81.5688 202.83 100.895 210.321 113.329C217.812 125.763 230.322 139.372 233.879 157.662C234.922 150.269 236.538 142.542 241.406 134.677C234.29 116.026 225.958 109.284 214.393 96.1007C202.83 82.9175 191.293 71.4936 186.5 62.6741C181.706 53.8538 178.637 42.0985 177.212 30.6334C175.786 19.1682 181.856 10.5588 187.998 8.01172Z" fill="#90CDE0"/>
<path d="M201.707 20.8464C201.707 20.8464 198.411 7.81276 191.145 5.04102C185.677 15.1534 186.201 20.5466 187.175 23.6925C193.093 25.1907 199.834 22.7939 201.707 20.8464Z" fill="#EFF8FB"/>
<path d="M200.805 21.9695C200.805 21.9695 196.212 12.2231 193.201 9.5459C191.179 17.2502 191.179 24.1618 191.179 24.1618C191.179 24.1618 198.633 23.3182 200.805 21.9695Z" fill="#37AFD4"/>
<path d="M270.188 116.95C270.188 116.95 237.828 127.138 236.929 207.137C206.009 195.976 211.461 224.815 211.461 224.815C211.461 224.815 200.352 219.134 197.678 233.204C195.862 242.764 207.342 240.845 208.353 238.822C208.69 247.249 208.411 257.811 196.977 257.474C185.543 257.137 184.082 242.754 184.082 242.754C178.465 247.586 168.577 234.328 174.419 220.845C166.105 225.564 164.531 208.148 175.43 201.181C171.273 199.834 169.993 183.466 192.015 180.657C186.735 171.781 203.296 155.901 208.801 155.676C207.34 145.002 220.449 118.748 229.737 127.437C230.935 107.661 248.613 107.362 250.111 112.156C253.708 104.966 269.889 106.764 270.188 116.95Z" fill="#DFF0F6"/>
<path d="M250.113 112.157C253.708 104.965 269.889 106.763 270.188 116.95C270.188 116.95 268.69 117.424 266.335 118.957C264.822 110.363 253.071 110.704 250.113 112.157Z" fill="#90CDE0"/>
<path d="M209.809 217.699C209.809 217.699 199.888 214.394 192.377 221.102C184.865 227.811 185.652 245.415 192.377 251.406C199.101 257.398 206.276 253.622 208.265 245.996C206.663 259.047 198.873 261.369 188.685 255.226C178.498 249.084 181.794 229.908 185.689 223.316C189.584 216.725 202.768 212.081 209.809 217.699Z" fill="#90CDE0"/>
<path d="M210.414 212.232C210.414 212.232 197.081 203.992 183.897 211.483C170.714 218.974 170.714 228.166 172.062 236.827C173.41 245.489 181.912 243.741 181.912 243.741C181.912 243.741 181.338 240.532 181.912 236.827C176.407 233.804 177.156 220.087 183.148 215.185C189.14 210.284 202.923 209.534 210.414 212.232Z" fill="#90CDE0"/>
<path d="M210.414 208.336C210.414 208.336 202.349 201.743 190.951 200.545C179.553 199.347 173.56 200.396 170.265 204.441C166.969 208.485 164.484 218.939 171.488 221.627C169.366 218.672 171.314 206.611 178.804 203.953C186.294 201.294 200.976 202.793 210.414 208.336Z" fill="#90CDE0"/>
<path d="M212.66 204.591C212.66 204.591 204.271 190.359 193.784 188.261C183.297 186.163 172.861 193.022 174.633 200.679C171.462 198.597 169.814 190.208 173.41 183.916C177.005 177.624 190.889 176.969 200.202 185.761C209.514 194.553 212.66 204.591 212.66 204.591Z" fill="#90CDE0"/>
<path d="M207.114 163.842C207.114 163.842 192.644 166.162 192.014 180.657C188.238 175.976 191.988 158.006 208.689 153.957C210.86 159.647 207.124 187.362 216.258 204.59C211.609 198.449 207.414 182.868 207.114 163.842Z" fill="#90CDE0"/>
<path d="M218.951 202.344C218.951 202.344 214.755 152.006 225.541 133.58C216.103 132.382 208.689 153.958 208.689 153.958C208.689 153.958 209.738 139.123 217.789 129.685C225.841 120.247 231.684 128.637 231.684 128.637C231.684 128.637 220.897 139.273 218.951 202.344Z" fill="#90CDE0"/>
<path d="M225.692 200.079C225.692 200.079 225.092 149.16 252.059 115.901C252.797 109.332 242.92 103.317 233.183 113.505C227.49 119.947 229.737 127.437 229.737 127.437C229.737 127.437 231.722 118.448 238.894 115.452C246.066 112.456 248.164 114.852 248.164 114.852C248.164 114.852 239.025 124.74 232.583 144.665C226.141 164.59 224.344 194.52 225.692 200.079Z" fill="#90CDE0"/>
<path opacity="0.5" d="M236.291 74.417C236.291 74.417 266.103 80.2007 291.518 95.1872C369.995 141.463 401.577 197.212 419.84 248.063C450.489 333.399 459.586 412.278 459.586 412.278L428.819 422.481C428.819 422.481 416.702 245.697 344.448 153.224C303.761 101.151 266.048 85.6417 236.007 76.2026C235.034 75.2248 236.291 74.417 236.291 74.417Z" fill="#E0EEFF"/>
<path opacity="0.5" d="M268.015 91.5059C268.015 91.5059 298.361 109.618 310.842 123.077C323.323 136.537 322.184 130.063 313.576 121.186C304.968 112.309 280.374 96.6437 268.015 91.5059Z" fill="#D6E9FF"/>
<path opacity="0.5" d="M267.159 82.3555C267.159 82.3555 300.005 95.3932 314.474 106.689C328.942 117.986 326.786 111.777 316.872 104.386C306.957 96.9964 280.179 85.4553 267.159 82.3555Z" fill="#D6E9FF"/>
<path d="M480.392 341.588C436.912 341.588 401.539 306.215 401.539 262.737C401.539 219.257 436.912 183.885 480.392 183.885C523.872 183.885 559.246 219.258 559.246 262.737C559.244 306.215 523.872 341.588 480.392 341.588ZM480.392 185.344C437.717 185.344 403 220.063 403 262.736C403 305.41 437.717 340.126 480.392 340.126C523.066 340.126 557.785 305.409 557.785 262.736C557.783 220.063 523.066 185.344 480.392 185.344Z" fill="#89D0E6"/>
<path d="M480.393 287.634C466.665 287.634 455.496 276.465 455.496 262.737C455.496 249.009 466.665 237.839 480.393 237.839C494.121 237.839 505.29 249.008 505.29 262.737C505.29 276.465 494.121 287.634 480.393 287.634ZM480.393 239.3C467.47 239.3 456.957 249.814 456.957 262.737C456.957 275.66 467.47 286.173 480.393 286.173C493.316 286.173 503.829 275.66 503.829 262.737C503.829 249.813 493.316 239.3 480.393 239.3Z" fill="#89D0E6"/>
<path d="M480.396 335.528C440.259 335.528 407.605 302.875 407.605 262.738C407.605 222.601 440.259 189.947 480.396 189.947C520.533 189.947 553.186 222.601 553.186 262.738C553.186 302.873 520.533 335.528 480.396 335.528ZM480.396 191.407C441.065 191.407 409.066 223.406 409.066 262.736C409.066 302.068 441.065 334.066 480.396 334.066C519.726 334.066 551.726 302.068 551.726 262.736C551.726 223.406 519.726 191.407 480.396 191.407Z" fill="#89D0E6"/>
<path d="M481.121 176.572H479.66V348.47H481.121V176.572Z" fill="#89D0E6"/>
<path d="M566.343 261.791H394.445V263.252H566.343V261.791Z" fill="#89D0E6"/>
<path d="M554.446 218.85L405.617 304.867L406.348 306.132L555.177 220.114L554.446 218.85Z" fill="#89D0E6"/>
<path d="M522.725 187.69L436.793 336.57L438.058 337.301L523.99 188.42L522.725 187.69Z" fill="#89D0E6"/>
<path d="M438.038 187.713L436.773 188.443L522.722 337.307L523.987 336.576L438.038 187.713Z" fill="#89D0E6"/>
<path d="M406.316 218.93L405.586 220.195L554.449 306.144L555.18 304.879L406.316 218.93Z" fill="#89D0E6"/>
<path d="M442.603 185.091C440.948 182.225 437.285 181.244 434.419 182.899C431.553 184.554 430.571 188.217 432.226 191.083C433.881 193.949 437.545 194.931 440.411 193.276C443.275 191.621 444.257 187.957 442.603 185.091Z" fill="#CDEBF4"/>
<path d="M437.427 194.808C435.101 194.808 432.837 193.602 431.594 191.449C429.742 188.239 430.845 184.12 434.055 182.266C437.265 180.416 441.384 181.517 443.238 184.726C445.091 187.935 443.987 192.055 440.776 193.908C439.722 194.518 438.568 194.808 437.427 194.808ZM437.408 182.823C436.496 182.823 435.596 183.062 434.786 183.53C433.569 184.232 432.698 185.367 432.335 186.724C431.971 188.082 432.158 189.5 432.861 190.717C433.563 191.934 434.698 192.804 436.055 193.168C437.411 193.532 438.829 193.346 440.047 192.642C441.264 191.939 442.135 190.804 442.499 189.447C442.862 188.09 442.675 186.672 441.973 185.455C441.27 184.238 440.135 183.368 438.778 183.004C438.325 182.884 437.865 182.823 437.408 182.823Z" fill="#37AFD4"/>
<path d="M528.552 333.959C526.897 331.093 523.234 330.111 520.368 331.766C517.502 333.421 516.52 337.085 518.175 339.951C519.83 342.817 523.494 343.798 526.36 342.143C529.224 340.488 530.207 336.825 528.552 333.959Z" fill="#CDEBF4"/>
<path d="M523.376 343.675C521.05 343.675 518.786 342.47 517.543 340.316C515.691 337.106 516.794 332.986 520.005 331.133C521.559 330.233 523.369 329.995 525.106 330.461C526.839 330.926 528.29 332.039 529.187 333.595C530.085 335.149 530.323 336.96 529.859 338.694C529.394 340.43 528.283 341.879 526.727 342.775C525.671 343.385 524.517 343.675 523.376 343.675ZM523.356 331.691C522.444 331.691 521.544 331.929 520.735 332.397C518.223 333.847 517.359 337.073 518.81 339.585C519.512 340.802 520.647 341.673 522.004 342.036C523.36 342.399 524.78 342.213 525.997 341.512C527.213 340.808 528.084 339.674 528.448 338.316C528.811 336.957 528.624 335.542 527.922 334.325C527.219 333.108 526.086 332.236 524.727 331.872C524.273 331.751 523.813 331.691 523.356 331.691Z" fill="#37AFD4"/>
<path d="M408.945 214.358C406.079 212.702 402.416 213.686 400.761 216.55C399.106 219.416 400.089 223.081 402.953 224.735C405.819 226.39 409.483 225.408 411.138 222.542C412.793 219.676 411.811 216.013 408.945 214.358Z" fill="#CDEBF4"/>
<path d="M405.94 226.267C404.801 226.267 403.647 225.978 402.591 225.367C399.38 223.514 398.277 219.394 400.129 216.185C401.983 212.974 406.104 211.87 409.311 213.724C412.522 215.577 413.625 219.697 411.773 222.906C410.53 225.06 408.264 226.267 405.94 226.267ZM405.961 214.283C405.503 214.283 405.043 214.344 404.59 214.464C403.233 214.828 402.098 215.699 401.396 216.915C400.693 218.132 400.506 219.551 400.87 220.908C401.234 222.265 402.104 223.4 403.321 224.102C404.539 224.805 405.958 224.992 407.313 224.628C408.67 224.264 409.805 223.394 410.508 222.177C411.21 220.96 411.397 219.542 411.034 218.185C410.67 216.828 409.799 215.693 408.583 214.99C407.772 214.523 406.872 214.283 405.961 214.283Z" fill="#37AFD4"/>
<path d="M557.817 300.307C554.951 298.652 551.287 299.635 549.632 302.499C547.977 305.365 548.96 309.029 551.825 310.684C554.69 312.339 558.354 311.356 560.009 308.491C561.664 305.625 560.683 301.962 557.817 300.307Z" fill="#CDEBF4"/>
<path d="M554.811 312.222C553.647 312.222 552.497 311.917 551.461 311.318C548.252 309.464 547.148 305.345 549 302.135C549.898 300.581 551.347 299.468 553.081 299.005C554.817 298.539 556.627 298.779 558.182 299.677C561.392 301.531 562.496 305.648 560.642 308.858C559.745 310.413 558.295 311.525 556.561 311.991C555.984 312.144 555.395 312.222 554.811 312.222ZM554.831 300.235C553.011 300.235 551.241 301.179 550.266 302.864C548.816 305.377 549.681 308.602 552.192 310.053C553.409 310.757 554.83 310.939 556.184 310.577C557.542 310.213 558.676 309.341 559.379 308.124C560.829 305.612 559.966 302.388 557.453 300.938C556.627 300.463 555.724 300.235 554.831 300.235Z" fill="#37AFD4"/>
<path d="M394.448 257.188C391.139 257.188 388.457 259.869 388.457 263.178C388.457 266.487 391.139 269.169 394.448 269.169C397.756 269.169 400.438 266.487 400.438 263.178C400.438 259.869 397.756 257.188 394.448 257.188Z" fill="#CDEBF4"/>
<path d="M394.444 269.899C390.738 269.899 387.723 266.884 387.723 263.178C387.723 259.472 390.738 256.457 394.444 256.457C398.149 256.457 401.164 259.472 401.164 263.178C401.164 266.884 398.149 269.899 394.444 269.899ZM394.444 257.919C391.544 257.919 389.183 260.278 389.183 263.179C389.183 266.079 391.543 268.44 394.444 268.44C397.343 268.44 399.704 266.08 399.704 263.179C399.704 260.278 397.345 257.919 394.444 257.919Z" fill="#37AFD4"/>
<path d="M566.342 257.188C563.034 257.188 560.352 259.869 560.352 263.178C560.352 266.487 563.034 269.169 566.342 269.169C569.651 269.169 572.333 266.487 572.333 263.178C572.333 259.869 569.651 257.188 566.342 257.188Z" fill="#CDEBF4"/>
<path d="M566.338 269.899C562.632 269.899 559.617 266.884 559.617 263.178C559.617 259.472 562.632 256.457 566.338 256.457C570.044 256.457 573.059 259.472 573.059 263.178C573.059 266.884 570.044 269.899 566.338 269.899ZM566.338 257.919C563.437 257.919 561.078 260.278 561.078 263.179C561.078 266.079 563.437 268.44 566.338 268.44C569.238 268.44 571.598 266.08 571.598 263.179C571.598 260.278 569.239 257.919 566.338 257.919Z" fill="#37AFD4"/>
<path d="M402.961 300.307C400.096 301.961 399.114 305.624 400.768 308.49C402.422 311.355 406.085 312.336 408.951 310.683C411.816 309.029 412.797 305.366 411.144 302.5C409.489 299.635 405.825 298.653 402.961 300.307Z" fill="#CDEBF4"/>
<path d="M405.965 312.214C403.641 312.214 401.376 311.008 400.133 308.855C399.236 307.301 398.998 305.488 399.461 303.756C399.926 302.02 401.038 300.573 402.593 299.676C404.147 298.776 405.957 298.537 407.693 299.004C409.427 299.467 410.876 300.58 411.773 302.136C413.625 305.344 412.522 309.463 409.313 311.315C408.258 311.923 407.104 312.214 405.965 312.214ZM405.946 300.234C405.034 300.234 404.134 300.472 403.324 300.94C402.107 301.642 401.236 302.777 400.872 304.133C400.509 305.49 400.696 306.907 401.398 308.123C402.847 310.633 406.071 311.498 408.582 310.049C411.093 308.598 411.958 305.374 410.508 302.863C409.805 301.646 408.671 300.776 407.314 300.412C406.862 300.292 406.401 300.234 405.946 300.234Z" fill="#37AFD4"/>
<path d="M551.832 214.358C548.967 216.011 547.986 219.675 549.639 222.541C551.293 225.405 554.956 226.387 557.822 224.734C560.687 223.08 561.668 219.416 560.015 216.55C558.36 213.684 554.696 212.703 551.832 214.358Z" fill="#CDEBF4"/>
<path d="M554.836 226.269C554.251 226.269 553.664 226.193 553.086 226.037C551.35 225.572 549.901 224.461 549.004 222.905C548.108 221.351 547.869 219.54 548.332 217.806C548.797 216.072 549.909 214.623 551.464 213.726C553.019 212.829 554.828 212.589 556.564 213.054C558.298 213.518 559.747 214.63 560.645 216.186C561.542 217.74 561.78 219.551 561.316 221.285C560.851 223.019 559.739 224.468 558.185 225.365C557.148 225.964 556 226.269 554.836 226.269ZM554.815 214.284C553.904 214.284 553.004 214.523 552.195 214.991C550.978 215.693 550.107 216.827 549.744 218.184C549.38 219.541 549.567 220.958 550.269 222.175C550.972 223.392 552.106 224.262 553.463 224.626C554.82 224.99 556.238 224.803 557.453 224.1C558.67 223.397 559.541 222.264 559.905 220.907C560.268 219.55 560.081 218.133 559.379 216.916C558.676 215.699 557.542 214.829 556.185 214.465C555.733 214.344 555.272 214.284 554.815 214.284Z" fill="#37AFD4"/>
<path d="M432.225 334.707C430.571 337.571 431.553 341.235 434.418 342.89C437.282 344.543 440.946 343.562 442.601 340.697C444.254 337.833 443.273 334.169 440.408 332.514C437.544 330.859 433.88 331.841 432.225 334.707Z" fill="#CDEBF4"/>
<path d="M437.403 344.421C436.264 344.421 435.11 344.131 434.054 343.522C430.845 341.669 429.742 337.551 431.594 334.343C432.491 332.789 433.94 331.676 435.674 331.211C437.409 330.744 439.219 330.983 440.773 331.883C442.328 332.778 443.441 334.227 443.904 335.963C444.368 337.697 444.13 339.508 443.233 341.062C441.992 343.214 439.728 344.421 437.403 344.421ZM437.422 332.44C436.965 332.44 436.505 332.499 436.052 332.621C434.695 332.984 433.562 333.855 432.859 335.072C431.409 337.583 432.273 340.807 434.784 342.257C437.297 343.706 440.519 342.842 441.97 340.332C442.672 339.115 442.859 337.697 442.496 336.341C442.132 334.984 441.261 333.851 440.045 333.148C439.234 332.678 438.334 332.44 437.422 332.44Z" fill="#37AFD4"/>
<path d="M518.178 185.09C516.525 187.955 517.506 191.619 520.371 193.274C523.235 194.927 526.899 193.946 528.554 191.081C530.207 188.216 529.226 184.553 526.361 182.898C523.497 181.244 519.833 182.226 518.178 185.09Z" fill="#CDEBF4"/>
<path d="M523.354 194.809C522.19 194.809 521.04 194.504 520.004 193.906C518.45 193.01 517.337 191.561 516.873 189.825C516.408 188.091 516.646 186.28 517.544 184.726C518.441 183.171 519.89 182.058 521.626 181.594C523.355 181.128 525.17 181.367 526.725 182.266C528.281 183.163 529.393 184.612 529.857 186.346C530.322 188.08 530.083 189.891 529.185 191.445C528.288 192.999 526.839 194.112 525.105 194.577C524.525 194.733 523.937 194.809 523.354 194.809ZM523.373 182.825C522.916 182.825 522.457 182.885 522.003 183.006C520.646 183.37 519.511 184.241 518.809 185.458C518.107 186.674 517.92 188.091 518.284 189.448C518.647 190.805 519.518 191.939 520.735 192.641C521.952 193.344 523.368 193.53 524.725 193.167C526.083 192.804 527.216 191.933 527.919 190.716C528.621 189.499 528.808 188.082 528.445 186.725C528.081 185.368 527.21 184.235 525.993 183.532C525.184 183.063 524.284 182.825 523.373 182.825Z" fill="#37AFD4"/>
<path d="M475.538 173.729C473.884 176.594 474.866 180.257 477.73 181.912C480.595 183.566 484.258 182.584 485.913 179.72C487.567 176.855 486.585 173.192 483.721 171.537C480.856 169.883 477.193 170.865 475.538 173.729Z" fill="#CDEBF4"/>
<path d="M480.713 183.448C479.549 183.448 478.399 183.143 477.364 182.545C475.81 181.648 474.696 180.199 474.232 178.464C473.767 176.73 474.005 174.919 474.904 173.364C475.801 171.81 477.25 170.697 478.985 170.233C480.715 169.767 482.529 170.006 484.085 170.904C485.64 171.801 486.752 173.25 487.216 174.984C487.681 176.718 487.443 178.53 486.544 180.084C485.648 181.638 484.199 182.751 482.465 183.216C481.885 183.372 481.296 183.448 480.713 183.448ZM480.732 171.464C480.275 171.464 479.816 171.524 479.362 171.645C478.005 172.009 476.87 172.879 476.169 174.096C475.466 175.313 475.279 176.73 475.643 178.087C476.007 179.444 476.877 180.578 478.094 181.28C479.311 181.983 480.728 182.168 482.085 181.806C483.442 181.442 484.575 180.572 485.278 179.355C485.981 178.138 486.168 176.721 485.804 175.364C485.44 174.007 484.57 172.874 483.353 172.171C482.544 171.702 481.644 171.464 480.732 171.464Z" fill="#37AFD4"/>
<path d="M503.079 420.119H455.141L471.462 268.103H489.318L503.079 420.119Z" fill="#37AFD4"/>
<path d="M480.65 367.999H480.136C475.348 367.999 471.465 364.116 471.465 359.328V268.103H489.321V359.328C489.321 364.116 485.438 367.999 480.65 367.999Z" fill="#CDEBF4"/>
<path d="M480.393 275.73C488.105 275.73 494.356 269.479 494.356 261.767C494.356 254.055 488.105 247.804 480.393 247.804C472.681 247.804 466.43 254.055 466.43 261.767C466.43 269.479 472.681 275.73 480.393 275.73Z" fill="#CDEBF4"/>
<path d="M480.394 268.102C483.893 268.102 486.729 265.266 486.729 261.767C486.729 258.268 483.893 255.432 480.394 255.432C476.895 255.432 474.059 258.268 474.059 261.767C474.059 265.266 476.895 268.102 480.394 268.102Z" fill="#37AFD4"/>
<path d="M305.357 279.399H269.297V414.331H305.357V279.399Z" fill="#37AFD4"/>
<path d="M299.348 274.028H275.309V286.307H299.348V274.028Z" fill="#37AFD4"/>
<path d="M295.505 269.521H279.262V282.816H295.505V269.521Z" fill="#37AFD4"/>
<path d="M140.47 210.472L118.137 226.857V417.506H140.47V210.472Z" fill="#37AFD4"/>
<path d="M171.697 284.278C169.616 226.781 152.458 201.68 152.458 201.68L144.66 207.4V417.508H164.591C164.591 417.508 173.779 341.774 171.697 284.278Z" fill="#37AFD4"/>
<path d="M225.516 178.983L251.245 197.861V417.506H225.516V178.983Z" fill="#37AFD4"/>
<path d="M189.537 264.014C191.936 197.772 211.703 168.854 211.703 168.854L220.686 175.444V417.508H197.725C197.725 417.508 187.139 330.256 189.537 264.014Z" fill="#37AFD4"/>
<path d="M106.483 256.739H66.6641V424.966H106.483V256.739Z" fill="#37AFD4"/>
<path d="M98.569 249.833H73.8984V264.346H98.569V249.833Z" fill="#37AFD4"/>
<path d="M88.1673 242.818H84.7812V253.702H88.1673V242.818Z" fill="#37AFD4"/>
<path d="M93.489 219.599H91.3125V257.089H93.489V219.599Z" fill="#37AFD4"/>
<path d="M402.049 331.081C402.049 334.985 383.683 343.122 361.12 357.465C338.557 342.187 320.191 334.983 320.191 331.081C320.191 327.18 343.695 320.265 361.12 320.265C378.545 320.265 402.049 327.18 402.049 331.081Z" fill="#89D0E6"/>
<path d="M383.684 333.773C383.684 336.563 373.583 352.335 361.121 352.335C348.66 352.335 338.559 336.565 338.559 333.773C338.559 330.982 348.66 328.721 361.121 328.721C373.583 328.721 383.684 330.982 383.684 333.773Z" fill="#CDEBF4"/>
<path d="M350.145 344.354C354.343 350.873 357.255 365.042 357.255 381.484C357.255 397.926 354.344 412.096 350.145 418.615H361.118V344.355H350.145V344.354Z" fill="#CDEBF4"/>
<path d="M372.094 344.354C367.895 350.873 364.983 365.042 364.983 381.484C364.983 397.926 367.895 412.096 372.094 418.615H361.121V344.355H372.094V344.354Z" fill="#CDEBF4"/>
<path d="M425.934 362.867C425.934 365.162 415.81 369.947 403.371 378.38C390.933 369.398 380.809 365.162 380.809 362.867C380.809 360.572 393.765 356.507 403.371 356.507C412.977 356.508 425.934 360.572 425.934 362.867Z" fill="#89D0E6"/>
<path d="M415.806 364.449C415.806 366.089 410.238 375.362 403.368 375.362C396.498 375.362 390.93 366.089 390.93 364.449C390.93 362.808 396.498 361.478 403.368 361.478C410.238 361.479 415.806 362.808 415.806 364.449Z" fill="#CDEBF4"/>
<path d="M397.324 370.67C399.64 374.503 401.243 382.834 401.243 392.501C401.243 402.168 399.638 410.499 397.324 414.332H403.373V370.67H397.324Z" fill="#CDEBF4"/>
<path d="M409.42 370.67C407.105 374.503 405.501 382.834 405.501 392.501C405.501 402.168 407.106 410.499 409.42 414.332H403.371V370.67H409.42Z" fill="#CDEBF4"/>
<path d="M394.134 386.064C394.134 387.127 389.443 389.343 383.682 393.249C377.921 389.087 373.23 387.125 373.23 386.064C373.23 385.002 379.233 383.117 383.682 383.117C388.133 383.117 394.134 385 394.134 386.064Z" fill="#89D0E6"/>
<path d="M389.444 386.795C389.444 387.555 386.865 391.851 383.683 391.851C380.502 391.851 377.922 387.556 377.922 386.795C377.922 386.035 380.502 385.419 383.683 385.419C386.866 385.419 389.444 386.035 389.444 386.795Z" fill="#CDEBF4"/>
<path d="M380.879 389.678C381.951 391.453 382.695 395.313 382.695 399.79C382.695 404.268 381.951 408.128 380.879 409.903H383.681V389.678H380.879Z" fill="#CDEBF4"/>
<path d="M386.481 389.678C385.409 391.453 384.666 395.313 384.666 399.79C384.666 404.268 385.409 408.128 386.481 409.903H383.68V389.678H386.481Z" fill="#CDEBF4"/>
<path d="M353.889 375.989C353.889 377.365 347.82 380.234 340.362 385.29C332.905 379.904 326.836 377.365 326.836 375.989C326.836 374.613 334.604 372.177 340.362 372.177C346.121 372.177 353.889 374.613 353.889 375.989Z" fill="#89D0E6"/>
<path d="M347.82 376.939C347.82 377.922 344.481 383.482 340.363 383.482C336.245 383.482 332.906 377.922 332.906 376.939C332.906 375.956 336.245 375.158 340.363 375.158C344.481 375.158 347.82 375.954 347.82 376.939Z" fill="#CDEBF4"/>
<path d="M336.734 380.668C338.122 382.966 339.085 387.962 339.085 393.757C339.085 399.553 338.122 404.547 336.734 406.845H340.361V380.667L336.734 380.668Z" fill="#CDEBF4"/>
<path d="M343.986 380.668C342.599 382.966 341.636 387.962 341.636 393.757C341.636 399.553 342.599 404.547 343.986 406.845H340.359V380.667L343.986 380.668Z" fill="#CDEBF4"/>
<path d="M151.582 308.142L154.813 416.777H174.044L162.814 308.142" fill="#89D0E6"/>
<path d="M197.93 310.326L204.753 414.47H220.107L209.018 308.235" fill="#89D0E6"/>
<path d="M244.559 312.112L250.814 414.469L265.314 410.204L255.932 310.325" fill="#89D0E6"/>
<path d="M159.095 416.778L154.812 308.235L179.688 308.764L195.782 412.116" fill="#CDEBF4"/>
<path d="M210.662 411.916L200.332 310.325L224.684 311.801L242.396 411.916H257.862L247.651 313.276H271.175L287.471 412.116" fill="#CDEBF4"/>
<path d="M277.137 316.968L137.938 311.269L126.059 306.439L123.719 302.445L128.552 299.317L277.137 306.71L279.265 310.326L277.137 316.968Z" fill="#CDEBF4"/>
<path d="M167.99 297.811L154.814 297.611L153.289 303.583L171.487 304.719L167.99 297.811Z" fill="#CDEBF4"/>
<path d="M238.301 308.142V303.298H248.536L250.811 310.326" fill="#CDEBF4"/>
<path d="M1.01953 430.697H590.001C590.001 430.697 288.629 368.058 1.01953 430.697Z" fill="#89D0E6"/>
<path d="M589.846 437.581H0V444.577H589.846V437.581Z" fill="#CDEBF4"/>
</svg>
