<svg width="32" height="32" viewBox="0 0 32 32" fill="none" xmlns="http://www.w3.org/2000/svg">
<path d="M13.2925 25.7071L4.2925 16.7071C4.19952 16.6142 4.12576 16.5039 4.07544 16.3825C4.02512 16.2611 3.99921 16.131 3.99921 15.9996C3.99921 15.8682 4.02512 15.738 4.07544 15.6166C4.12576 15.4952 4.19952 15.385 4.2925 15.2921L13.2925 6.29208C13.4801 6.10444 13.7346 5.99902 14 5.99902C14.2654 5.99902 14.5199 6.10444 14.7075 6.29208C14.8951 6.47972 15.0006 6.73421 15.0006 6.99958C15.0006 7.26494 14.8951 7.51944 14.7075 7.70708L7.41375 14.9996L27 14.9996C27.2652 14.9996 27.5196 15.1049 27.7071 15.2925C27.8946 15.48 28 15.7344 28 15.9996C28 16.2648 27.8946 16.5192 27.7071 16.7067C27.5196 16.8942 27.2652 16.9996 27 16.9996L7.41375 16.9996L14.7075 24.2921C14.8951 24.4797 15.0006 24.7342 15.0006 24.9996C15.0006 25.2649 14.8951 25.5194 14.7075 25.7071C14.5199 25.8947 14.2654 26.0001 14 26.0001C13.7346 26.0001 13.4801 25.8947 13.2925 25.7071Z" fill="#37AFD4"/>
</svg>
