<svg width="10" height="10" viewBox="0 0 10 10" fill="none" xmlns="http://www.w3.org/2000/svg">
<g clip-path="url(#clip0_2512_352)">
<path d="M8.54244 1.45321C7.60238 0.516638 6.35238 0.000571421 5.0206 0C2.27625 0 0.0428984 2.22281 0.0417997 4.95496C0.0414799 5.82831 0.270681 6.68082 0.706331 7.43229L0 10L2.63932 9.31098C3.3665 9.70582 4.18526 9.91387 5.01846 9.91421H5.02057H5.0206C7.7645 9.91421 9.99819 7.691 9.99935 4.95898C9.99981 3.63485 9.48238 2.38984 8.54244 1.45321ZM5.0206 9.07729H5.01898C4.27631 9.0769 3.54802 8.87839 2.91278 8.50311L2.7616 8.41388L1.19537 8.82272L1.61354 7.30293L1.51504 7.14712C1.10077 6.49133 0.882074 5.73347 0.882385 4.95528C0.883295 2.68441 2.73957 0.836944 5.02216 0.836944C6.12752 0.837401 7.16642 1.26636 7.94776 2.04481C8.72906 2.82324 9.15902 3.85807 9.15869 4.95863C9.15773 7.22958 7.30139 9.07729 5.0206 9.07729Z" fill="#E0E0E0"/>
<path d="M0.230469 9.71487L0.904536 7.26445C0.488679 6.5473 0.269989 5.73367 0.270251 4.90038C0.271342 2.29309 2.40269 0.171875 5.02145 0.171875C6.29247 0.172446 7.48539 0.664914 8.38231 1.55872C9.27942 2.45252 9.77317 3.64058 9.77265 4.90408C9.77156 7.51144 7.64008 9.63284 5.02164 9.63284C5.02145 9.63284 5.02177 9.63284 5.02164 9.63284H5.01953C4.22439 9.63259 3.44309 9.43387 2.74918 9.05734L0.230469 9.71487Z" fill="url(#paint0_linear_2512_352)"/>
<path fill-rule="evenodd" clip-rule="evenodd" d="M3.79028 2.85113C3.69817 2.64724 3.60119 2.64316 3.51356 2.63959C3.44188 2.63653 3.35982 2.63672 3.27789 2.63672C3.1959 2.63672 3.06266 2.6674 2.94999 2.78991C2.83725 2.91242 2.51953 3.20859 2.51953 3.81094C2.51953 4.41336 2.96024 4.99543 3.02167 5.07719C3.08316 5.15882 3.87241 6.43444 5.12234 6.92519C6.16114 7.33303 6.37253 7.2519 6.59801 7.23149C6.82349 7.21109 7.32556 6.93539 7.42805 6.64949C7.53054 6.36364 7.53054 6.11863 7.4998 6.06741C7.46905 6.01639 7.38706 5.98578 7.26407 5.92456C7.14108 5.86333 6.53652 5.5671 6.42378 5.52628C6.31104 5.48547 6.22905 5.46506 6.14705 5.58764C6.06506 5.71008 5.82952 5.98578 5.75778 6.06741C5.68603 6.14923 5.61429 6.15943 5.4913 6.09821C5.36831 6.0368 4.97225 5.90765 4.5024 5.49056C4.13683 5.16608 3.89002 4.76531 3.81827 4.64274C3.74653 4.5203 3.81058 4.45397 3.87227 4.39293C3.92749 4.33809 3.99526 4.25001 4.05676 4.17852C4.11812 4.10703 4.13862 4.05601 4.17961 3.97438C4.22061 3.89261 4.20011 3.82113 4.16936 3.75991C4.13862 3.69868 3.89963 3.09322 3.79028 2.85113Z" fill="white"/>
<path d="M8.50297 1.4375C7.5737 0.511688 6.33805 0.00155615 5.02157 0.000976562C2.30871 0.000976562 0.101 2.19827 0.0999097 4.89906C0.0995899 5.76239 0.326159 6.6051 0.756808 7.34795L0.0585938 9.88618L2.66762 9.20506C3.38646 9.59536 4.19581 9.80104 5.01945 9.80136H5.02154H5.02157C7.73397 9.80136 9.942 7.60368 9.94316 4.90301C9.94361 3.5941 9.43211 2.36339 8.50297 1.4375ZM5.02157 8.97408H5.01997C4.28582 8.97369 3.56588 8.77746 2.93794 8.40648L2.78849 8.31828L1.24024 8.72242L1.6536 7.22008L1.55623 7.06607C1.14672 6.4178 0.930533 5.66863 0.930853 4.89939C0.931747 2.65458 2.76671 0.828329 5.02311 0.828329C6.11579 0.828778 7.14274 1.25281 7.91513 2.02232C8.68746 2.79183 9.11248 3.81477 9.11216 4.90271C9.11119 7.14757 7.27616 8.97408 5.02157 8.97408Z" fill="white"/>
</g>
<defs>
<linearGradient id="paint0_linear_2512_352" x1="5.00156" y1="9.71487" x2="5.00156" y2="0.171891" gradientUnits="userSpaceOnUse">
<stop stop-color="#20B038"/>
<stop offset="1" stop-color="#60D66A"/>
</linearGradient>
<clipPath id="clip0_2512_352">
<rect width="10" height="10" fill="white"/>
</clipPath>
</defs>
</svg>
