<svg width="616" height="610" viewBox="0 0 616 610" fill="none" xmlns="http://www.w3.org/2000/svg">
<path d="M491.895 262.17C491.895 262.17 455.507 269.471 428.351 203.118C401.194 136.762 360.995 98.7834 303.358 87.0564C245.105 75.2062 207.904 71.025 176.834 125.385C164.52 146.928 164.667 192.637 117.231 184.264C78.0616 177.348 46.4976 199.985 54.73 249.045C62.9623 298.105 105.097 327.124 118.158 344.355C131.22 361.586 128.005 439.988 227.717 445.402C327.431 450.814 330.305 383.765 380.179 410.641C430.053 437.515 528.011 452.658 570.122 381.091C593.69 341.039 569.135 275.076 491.895 262.17Z" fill="#DDF2F8"/>
<path d="M587.552 428.98V418.269H559.702V401.131H553.114V393.326H531.329V378.866H520.099V331.49H517.404V327.67H508.869V331.49H499.96V327.67H491.426V331.49H488.431V367.16H483.266V361.422H454.518V393.174H448.304V359.465H434.23V341.561H403.086V369.105H391.407V299.365L354.275 313.443V340.337H336.009V334.72H318.041V293.377H310.256V283.584H266.236V360.427H255.156V327.987H249.789V319.827H243.516V303.306H221.62V319.827H215.348V327.986H209.939V377.948H202.528V356.831H179.395V368.307H171.759V321.712L140.092 334.107V374.275H136.723V385.675H119.728V390.801H112.354V382.653H114.937V378.406H112.578V359.699L86.7126 370.717V378.635H84.6161V383.685H86.7126V403.731H74.4366V432.499C74.4366 432.499 63.8056 432.499 63.207 432.499C62.6083 432.499 63.207 426.532 63.207 426.532H52.4265V448.873H43.4428V442.676H26V476.646H616V428.98H587.552V428.98Z" fill="#89D0E6"/>
<path d="M571.608 476.646H83.6307C80.5509 476.646 78.0312 479.027 78.0312 481.937C78.0312 484.848 80.5509 487.229 83.6307 487.229H158.027C161.107 487.229 163.627 489.611 163.627 492.521C163.627 495.432 161.107 497.813 158.027 497.813H133.398C130.318 497.813 127.798 500.194 127.798 503.105C127.798 506.016 130.318 508.397 133.398 508.397H182.124C185.204 508.397 187.723 510.778 187.723 513.689C187.723 516.6 185.204 518.981 182.124 518.981H118.604C115.524 518.981 113.004 521.362 113.004 524.273C113.004 527.183 115.524 529.565 118.604 529.565H526.554C529.634 529.565 532.153 527.183 532.153 524.273C532.153 521.362 529.634 518.981 526.554 518.981H524.949C521.869 518.981 519.35 516.6 519.35 513.689C519.35 510.778 521.869 508.397 524.949 508.397H541.871C544.951 508.397 547.471 506.016 547.471 503.105C547.471 500.194 544.951 497.813 541.871 497.813H500.853C497.773 497.813 495.253 495.432 495.253 492.521C495.253 489.611 497.773 487.229 500.853 487.229H571.609C574.689 487.229 577.208 484.848 577.208 481.937C577.208 479.027 574.688 476.646 571.608 476.646Z" fill="#CFE9F2"/>
<path d="M96.8551 518.978H70.3964C67.3166 518.978 64.7969 521.359 64.7969 524.269C64.7969 527.18 67.3166 529.561 70.3964 529.561H96.8551C99.9349 529.561 102.455 527.18 102.455 524.269C102.455 521.36 99.9349 518.978 96.8551 518.978Z" fill="#BFE2EE"/>
<path d="M558.771 497.812C555.692 497.812 553.172 500.193 553.172 503.103C553.172 506.014 555.692 508.395 558.771 508.395C561.851 508.395 564.371 506.014 564.371 503.103C564.371 500.193 561.851 497.812 558.771 497.812Z" fill="#BFE2EE"/>
<path d="M576.782 306.23C574.031 306.23 571.57 307.449 569.892 309.371C567.445 302.735 561.066 298.003 553.582 298.003C549.287 298.003 545.358 299.565 542.325 302.147C537.83 294.682 529.649 289.688 520.3 289.688C509.366 289.688 500.032 296.521 496.323 306.149C493.942 303.741 490.638 302.248 486.985 302.248C481.661 302.248 477.08 305.418 475.018 309.972C473.352 307.705 470.676 306.229 467.647 306.229C462.756 306.229 458.773 310.068 458.52 314.897H585.909C585.656 310.069 581.672 306.23 576.782 306.23Z" fill="white"/>
<path d="M447.572 309.057C446.014 309.057 444.608 309.656 443.526 310.613C442.803 306.25 439.023 302.92 434.455 302.92C429.372 302.92 425.25 307.041 425.25 312.125C425.25 312.216 425.262 312.305 425.264 312.396C424.405 311.709 423.329 311.281 422.144 311.281C419.86 311.281 417.958 312.812 417.352 314.899H453.679C453.523 311.65 450.86 309.057 447.572 309.057Z" fill="white"/>
<path d="M192.38 205.954C190.241 205.954 188.302 206.805 186.875 208.183C184.624 202.673 179.218 198.787 172.898 198.787C168.252 198.787 164.1 200.889 161.331 204.189C157.731 196.792 150.143 191.693 141.364 191.693C130.857 191.693 122.062 198.998 119.762 208.803C117.868 204.887 113.869 202.179 109.228 202.179C102.996 202.179 97.9166 207.051 97.5547 213.192H200.278C199.926 209.137 196.528 205.954 192.38 205.954Z" fill="white"/>
<path d="M84.6643 207.367C83.0359 207.367 81.5585 207.998 80.4493 209.021C78.8091 205.925 75.5578 203.812 71.8094 203.812C66.5434 203.812 62.2624 207.979 62.0547 213.193H90.8648C90.6618 209.943 87.9675 207.367 84.6643 207.367Z" fill="white"/>
<path d="M526.071 205.399C523.991 205.399 522.114 206.199 520.669 207.476C519.705 201.653 514.659 197.208 508.563 197.208C501.778 197.208 496.278 202.708 496.278 209.494C496.278 209.616 496.293 209.735 496.296 209.856C495.149 208.94 493.714 208.368 492.132 208.368C489.084 208.368 486.545 210.411 485.734 213.197H534.222C534.013 208.859 530.46 205.399 526.071 205.399Z" fill="white"/>
<path d="M123.491 293.846H99.8947L96.5742 271.381H126.811L123.491 293.846Z" fill="#37AFD4"/>
<path d="M126.394 274.206H96.9922L97.3855 276.867H126.001L126.394 274.206Z" fill="#37AFD4"/>
<path d="M98.0808 281.586H125.302L125.695 278.926H97.6875L98.0808 281.586Z" fill="#37AFD4"/>
<path d="M98.7793 286.3H124.606L124.999 283.64H98.3867L98.7793 286.3Z" fill="#37AFD4"/>
<path d="M99.4793 291.021H123.911L124.304 288.36H99.0859L99.4793 291.021Z" fill="#37AFD4"/>
<path d="M121.535 261.984H101.848V271.382H121.535V261.984Z" fill="#37AFD4"/>
<path d="M121.535 254.8H101.848V258.568H121.535V254.8Z" fill="#37AFD4"/>
<path d="M119.705 258.566H103.68V261.979H119.705V258.566Z" fill="#37AFD4"/>
<path d="M111.981 226.166H111.394L110.965 254.801H112.416L111.981 226.166Z" fill="#012169"/>
<path d="M120.135 293.844H103.25V295.751H120.135V293.844Z" fill="#012169"/>
<path d="M114.586 294.803H108.793V466.265H114.586V294.803Z" fill="#012169"/>
<path d="M120.403 380.531H102.977V382.062H120.403V380.531Z" fill="#012169"/>
<path d="M116.015 471.665H107.367V456.759L108.794 454.545H114.587L116.015 456.759V471.665Z" fill="#012169"/>
<path d="M108.909 333.69L91.8984 471.619L92.484 471.691L109.494 333.762L108.909 333.69Z" fill="#012169"/>
<path d="M114.402 333.708L113.816 333.78L130.813 471.71L131.398 471.638L114.402 333.708Z" fill="#012169"/>
<path d="M109.694 333.722L97.8164 471.642L98.405 471.692L110.282 333.773L109.694 333.722Z" fill="#012169"/>
<path d="M113.659 333.722L113.07 333.772L124.865 471.705L125.453 471.655L113.659 333.722Z" fill="#012169"/>
<path d="M110.316 333.726L103.84 471.662L104.43 471.69L110.906 333.754L110.316 333.726Z" fill="#012169"/>
<path d="M112.906 333.721L112.316 333.749L118.958 471.671L119.548 471.642L112.906 333.721Z" fill="#012169"/>
<path d="M254.435 449.082C254.313 449.082 254.201 449.006 254.158 448.888L243.062 418.415L243.617 418.214L254.14 447.115V413.078C254.14 412.937 254.239 412.817 254.376 412.789C254.512 412.763 254.651 412.832 254.706 412.96L265.568 437.942V407.535C265.568 407.397 265.664 407.277 265.8 407.248C265.933 407.217 266.073 407.286 266.131 407.41L276.886 430.379V402.279C276.886 402.144 276.978 402.026 277.109 401.993C277.242 401.965 277.379 402.021 277.441 402.141L288.313 422.634V397.308C288.313 397.174 288.402 397.059 288.531 397.023C288.658 396.987 288.796 397.044 288.863 397.16L299.631 415.643V393.665C299.631 393.536 299.715 393.421 299.839 393.383C299.962 393.345 300.097 393.392 300.17 393.5L311.059 409.493V389.387C311.059 389.259 311.141 389.145 311.264 389.106C311.384 389.068 311.52 389.112 311.594 389.216L321.821 403.531V385.466C321.821 385.341 321.9 385.23 322.018 385.189C322.135 385.146 322.266 385.183 322.345 385.281L333.333 398.819V382.346C333.333 382.221 333.412 382.11 333.53 382.069C333.646 382.027 333.779 382.064 333.857 382.162L344.151 394.984V379.406C344.151 379.283 344.227 379.173 344.342 379.129C344.457 379.086 344.587 379.118 344.668 379.212L355.717 391.893V377.177C355.717 377.054 355.794 376.944 355.909 376.9C356.025 376.858 356.154 376.89 356.235 376.984L366.868 389.26V374.949C366.868 374.827 366.943 374.718 367.055 374.674C367.169 374.63 367.297 374.659 367.379 374.747L378.91 387.137L380.094 373.764C380.106 373.643 380.19 373.54 380.308 373.507C380.426 373.474 380.551 373.516 380.625 373.614L390.224 386.46L393.114 372.749C393.14 372.63 393.235 372.539 393.354 372.519C393.476 372.5 393.594 372.553 393.656 372.658L401.771 386.149L409.312 372.666C409.371 372.559 409.496 372.502 409.608 372.517C409.727 372.534 409.826 372.621 409.855 372.737L413.311 386.473L422.61 373.617C422.681 373.518 422.807 373.474 422.924 373.504C423.042 373.535 423.128 373.636 423.142 373.756L424.635 387.151L436.18 374.746C436.262 374.659 436.391 374.63 436.504 374.673C436.616 374.717 436.69 374.826 436.69 374.948V389.259L447.324 376.983C447.404 376.89 447.535 376.858 447.649 376.9C447.764 376.943 447.841 377.053 447.841 377.176V391.892L458.89 379.211C458.972 379.118 459.101 379.086 459.216 379.128C459.331 379.172 459.408 379.282 459.408 379.405V394.983L469.7 382.162C469.779 382.063 469.914 382.026 470.028 382.068C470.146 382.11 470.225 382.221 470.225 382.346V398.818L481.212 385.28C481.291 385.182 481.423 385.145 481.54 385.188C481.658 385.23 481.736 385.34 481.736 385.466V403.53L491.964 389.216C492.038 389.111 492.172 389.066 492.293 389.105C492.415 389.145 492.499 389.258 492.499 389.386V409.492L503.389 393.499C503.461 393.391 503.598 393.348 503.719 393.383C503.842 393.421 503.927 393.535 503.927 393.664V415.642L514.695 397.159C514.762 397.044 514.9 396.988 515.027 397.022C515.156 397.058 515.244 397.173 515.244 397.307V422.633L526.117 402.14C526.18 402.02 526.32 401.964 526.449 401.992C526.58 402.025 526.672 402.143 526.672 402.278V430.378L537.427 407.41C537.485 407.285 537.624 407.216 537.758 407.247C537.893 407.277 537.989 407.396 537.989 407.535V437.942L548.852 412.96C548.908 412.832 549.049 412.764 549.183 412.788C549.32 412.816 549.418 412.937 549.418 413.077V447.114L559.94 418.213L560.495 418.414L549.4 448.887C549.35 449.022 549.217 449.1 549.071 449.077C548.93 449.053 548.827 448.929 548.827 448.787V414.494L537.964 439.476C537.909 439.605 537.771 439.675 537.634 439.648C537.497 439.62 537.399 439.499 537.399 439.359V408.859L526.644 431.828C526.586 431.953 526.443 432.019 526.313 431.991C526.178 431.961 526.082 431.841 526.082 431.703V403.463L515.209 423.956C515.146 424.077 515.011 424.135 514.877 424.105C514.746 424.072 514.654 423.954 514.654 423.819V398.399L503.887 416.882C503.82 416.997 503.684 417.054 503.555 417.019C503.426 416.984 503.337 416.868 503.337 416.734V394.622L492.447 410.614C492.374 410.722 492.238 410.767 492.116 410.73C491.993 410.692 491.908 410.578 491.908 410.448V390.307L481.681 404.621C481.607 404.725 481.47 404.767 481.351 404.731C481.229 404.692 481.146 404.578 481.146 404.45V386.298L470.158 399.836C470.08 399.934 469.948 399.97 469.831 399.928C469.713 399.887 469.634 399.776 469.634 399.65V383.184L459.342 396.006C459.264 396.105 459.131 396.144 459.014 396.1C458.896 396.058 458.817 395.947 458.817 395.822V380.193L447.768 392.874C447.687 392.966 447.557 392.999 447.442 392.956C447.327 392.912 447.251 392.803 447.251 392.679V377.968L436.617 390.243C436.537 390.336 436.406 390.369 436.291 390.326C436.177 390.283 436.1 390.173 436.1 390.049V375.697L424.628 388.023C424.55 388.106 424.432 388.139 424.318 388.102C424.209 388.066 424.131 387.969 424.118 387.855L422.638 374.58L413.416 387.33C413.349 387.423 413.235 387.47 413.122 387.446C413.009 387.425 412.919 387.339 412.891 387.229L409.461 373.6L402.035 386.879C401.983 386.971 401.887 387.029 401.783 387.03C401.682 387.029 401.579 386.978 401.525 386.887L393.536 373.603L390.667 387.217C390.644 387.332 390.555 387.42 390.442 387.445C390.327 387.469 390.212 387.426 390.142 387.333L380.614 374.583L379.438 387.847C379.428 387.962 379.351 388.062 379.241 388.099C379.13 388.137 379.008 388.106 378.928 388.021L367.457 375.695V390.048C367.457 390.171 367.38 390.281 367.265 390.325C367.149 390.366 367.019 390.334 366.94 390.241L356.306 377.966V392.678C356.306 392.8 356.23 392.911 356.115 392.955C355.999 392.996 355.87 392.965 355.789 392.872L344.74 380.191V395.82C344.74 395.946 344.66 396.057 344.543 396.098C344.428 396.142 344.294 396.104 344.215 396.004L333.922 383.183V399.648C333.922 399.773 333.843 399.885 333.725 399.927C333.608 399.969 333.477 399.932 333.398 399.835L322.41 386.296V404.449C322.41 404.577 322.328 404.691 322.205 404.729C322.084 404.767 321.949 404.724 321.875 404.619L311.648 390.305V410.447C311.648 410.577 311.564 410.691 311.44 410.729C311.319 410.766 311.182 410.72 311.109 410.613L300.22 394.62V416.733C300.22 416.867 300.131 416.983 300.002 417.018C299.872 417.052 299.737 416.997 299.67 416.881L288.902 398.398V423.818C288.902 423.953 288.81 424.071 288.679 424.104C288.549 424.134 288.411 424.077 288.347 423.956L277.475 403.462V431.702C277.475 431.84 277.379 431.96 277.244 431.99C277.109 432.02 276.971 431.951 276.913 431.827L266.157 408.859V439.358C266.157 439.499 266.059 439.619 265.922 439.647C265.785 439.672 265.648 439.603 265.592 439.476L254.73 414.494V448.786C254.73 448.929 254.626 449.052 254.486 449.076C254.469 449.081 254.452 449.082 254.435 449.082Z" fill="#012169"/>
<path d="M563.549 420.415C505.842 389.168 451.525 373.326 402.105 373.326C352.685 373.326 298.368 389.169 240.66 420.415L240.098 419.378C297.979 388.036 352.486 372.146 402.104 372.146C451.722 372.146 506.229 388.036 564.111 419.378L563.549 420.415Z" fill="#012169"/>
<path d="M563.455 460.878C502.239 409.942 456.999 389.661 402.094 388.542C373.905 388.542 347.233 394.644 320.565 407.197C296.541 418.506 271.183 435.564 240.758 460.878L240.004 459.972C270.506 434.59 295.945 417.481 320.063 406.13C346.891 393.501 373.728 387.362 402.107 387.362C465.782 388.659 512.96 417.326 564.21 459.972L563.455 460.878Z" fill="#012169"/>
<path d="M560.872 423.322H243.336V425.682H560.872V423.322Z" fill="#012169"/>
<path d="M561.404 425.639H238.457V427.442H561.404V425.639Z" fill="#37AFD4"/>
<path d="M242.086 453.195H220.883L222.27 405.118H240.698L242.086 453.195Z" fill="#37AFD4"/>
<path d="M239.068 431.196H223.902L224.895 396.809H238.076L239.068 431.196Z" fill="#37AFD4"/>
<path d="M242.086 453.195H220.883L222.27 405.118H240.698L242.086 453.195Z" fill="#37AFD4"/>
<path d="M244.701 471.696H218.27L220 411.768H242.971L244.701 471.696Z" fill="#37AFD4"/>
<path d="M235.334 437.89V428.616C235.334 426.349 233.604 424.495 231.487 424.495C229.372 424.495 227.641 426.349 227.641 428.616V437.89H235.334Z" fill="#012169"/>
<path d="M236.785 436.609H226.184V439.527H236.785V436.609Z" fill="#37AFD4"/>
<path d="M234.45 409.795H228.523V411.766H234.45V409.795Z" fill="#012169"/>
<path d="M233.335 403.452H229.637V405.114H233.335V403.452Z" fill="#012169"/>
<path d="M583.328 453.195H562.125L563.513 405.118H581.94L583.328 453.195Z" fill="#37AFD4"/>
<path d="M580.311 431.196H565.145L566.137 396.809H579.318L580.311 431.196Z" fill="#37AFD4"/>
<path d="M583.328 453.195H562.125L563.513 405.118H581.94L583.328 453.195Z" fill="#37AFD4"/>
<path d="M585.943 471.696H559.512L561.242 411.768H584.212L585.943 471.696Z" fill="#37AFD4"/>
<path d="M576.576 437.89V428.616C576.576 426.349 574.846 424.495 572.73 424.495C570.613 424.495 568.883 426.349 568.883 428.616V437.89H576.576Z" fill="#012169"/>
<path d="M578.028 436.609H567.426V439.527H578.028V436.609Z" fill="#37AFD4"/>
<path d="M575.692 409.795H569.766V411.766H575.692V409.795Z" fill="#012169"/>
<path d="M574.577 403.452H570.879V405.114H574.577V403.452Z" fill="#012169"/>
<path d="M363.533 444.915L362.961 437.266L386.317 435.222L401.75 444.915H363.533Z" fill="#012169"/>
<path d="M255.711 438.4L260.371 427.521L284.176 431.759L290.511 444.911H286.516L267.27 438.4H255.711Z" fill="#012169"/>
<path d="M148.168 371.945L196.221 426.26H198.234L219.139 381.164C197.501 372.361 173.688 369.502 148.168 371.945Z" fill="white"/>
<path d="M198.234 426.259L219.14 381.163L247.06 438.402L211.594 426.259H198.234Z" fill="#CFE9F2"/>
<path d="M247.059 438.404L203.848 349.812C224.578 350.871 245.976 356.354 266.744 368.493L253.002 438.404H247.059Z" fill="white"/>
<path d="M253 438.401H255.712L260.373 427.522L284.178 431.76L290.512 444.912H294.506L266.742 368.49L253 438.401Z" fill="#CFE9F2"/>
<path d="M294.507 444.913L248.027 316.976C291.768 328.225 327.218 352.243 348.976 397.349L307.217 444.913H294.507Z" fill="white"/>
<path d="M348.974 397.351L307.215 444.914H309.333L327.429 428.974L357.42 437.567L358.234 444.914H362.138L348.974 397.351Z" fill="#CFE9F2"/>
<path d="M431.282 383.461L411.189 444.913H404.47L348.973 397.35C372.536 380.879 399.972 376.249 431.282 383.461Z" fill="white"/>
<path d="M450.712 444.916L424.234 410.939C437.282 411.85 450.002 414.665 462.363 419.564L456.825 444.916H450.712Z" fill="white"/>
<path d="M492.876 454.976L530.54 409.851C503.912 408.076 481.239 411.381 462.363 419.565L486.176 452.426L492.876 454.976Z" fill="white"/>
<path d="M495.799 471.702V456.087L479.579 449.914H475.706L462.513 444.914H286.518L267.272 438.404H247.059L211.593 426.261H196.221L181.333 432.968H153.251V441.562H146.101V452.819H138.242V471.702H495.799Z" fill="#46B5D7"/>
<path d="M325.988 463.676H313.75V471.695H325.988V463.676Z" fill="#012169"/>
<path d="M340.789 463.676H328.551V471.695H340.789V463.676Z" fill="#012169"/>
<path d="M355.59 463.676H343.352V471.695H355.59V463.676Z" fill="#012169"/>
<path d="M370.387 463.676H358.148V471.695H370.387V463.676Z" fill="#012169"/>
<path d="M385.187 463.676H372.949V471.695H385.187V463.676Z" fill="#012169"/>
<path d="M399.988 463.676H387.75V471.695H399.988V463.676Z" fill="#012169"/>
<path d="M414.789 463.676H402.551V471.695H414.789V463.676Z" fill="#012169"/>
<path d="M429.586 463.676H417.348V471.695H429.586V463.676Z" fill="#012169"/>
<path d="M246.755 450.334H227.781V453.483H246.755V450.334Z" fill="#012169"/>
<path d="M363.533 450.334H289.242V453.483H363.533V450.334Z" fill="#012169"/>
<path d="M468.976 450.334H414.789V453.483H468.976V450.334Z" fill="#012169"/>
<path d="M284.743 450.334H251.746V453.483H284.743V450.334Z" fill="#012169"/>
<path d="M450.709 460.02H440.48V471.7H450.709V460.02Z" fill="#012169"/>
<path d="M285.156 466.252H272.719V471.696H285.156V466.252Z" fill="#012169"/>
<path d="M153.252 432.966L149.137 427.522L188.361 417.374L196.222 426.259L181.333 432.966H153.252Z" fill="#012169"/>
<path d="M169.714 407.912L170.675 397.351L188.362 417.376L156.109 425.759L169.714 407.912Z" fill="#57BCDB"/>
<path d="M201 426.262L204.752 417.995L230.716 423.71L238.64 435.524L211.592 426.262H201Z" fill="#012169"/>
<path d="M309.336 444.911L327.432 428.971L357.423 437.564L358.237 444.911H309.336Z" fill="#012169"/>
<path d="M363.534 444.914L362.962 437.265L386.318 435.221L401.751 444.914H404.474L348.977 397.351L362.14 444.914H363.534Z" fill="#BFE2EE"/>
<path d="M486.175 452.422L476.736 439.382H458.033L456.824 444.913H462.513L475.707 449.913H479.58L486.175 452.422Z" fill="#012169"/>
<path d="M438.107 428.744L423.297 439.385H424.232V444.916H450.71L438.107 428.744Z" fill="#37AFD4"/>
<path d="M446.447 439.433L424.234 439.382V444.913H450.712L446.447 439.433Z" fill="#012169"/>
<path d="M183.653 452.817L197.28 459.142H200.457L218.614 467.494V471.701H138.242V452.817H183.653Z" fill="#2BA4C9"/>
<path d="M146.102 441.558H159.183L179.457 452.814H146.102V441.558Z" fill="#36AED4"/>
<path d="M159.181 437.624H153.25V441.558H159.181V437.624Z" fill="#012169"/>
<path d="M153.252 447.188H146.102V452.816H153.252V447.188Z" fill="#012169"/>
<path d="M147.199 460.745H138.242V471.699H147.199V460.745Z" fill="#012169"/>
<path d="M180.304 463.351H173.828V471.703H180.304V463.351Z" fill="#012169"/>
<path d="M458.031 439.382L462.361 419.562L476.734 439.382H458.031Z" fill="#CFE9F2"/>
<path d="M597.04 471.695H44.9609V476.647H597.04V471.695Z" fill="#012169"/>
</svg>
