<svg width="590" height="590" viewBox="0 0 590 590" fill="none" xmlns="http://www.w3.org/2000/svg">
<path d="M284.587 517.404C410.893 521.898 510.91 408.03 546.429 307.296C570.033 240.356 569.046 165.8 534.655 109.826C509.455 68.812 460.57 32.4904 400.993 38.9238C334.6 46.0935 294.926 115.376 226.911 123.591C158.996 131.793 84.6915 169.602 56.3704 223.261C28.0586 276.903 39.2238 365.976 87.0114 429.615C114.258 465.897 154.776 494.571 202.44 508.747C228.634 516.537 255.017 516.102 283.041 517.344C283.556 517.365 284.07 517.385 284.587 517.404Z" fill="#37AFD4"/>
<path opacity="0.8" d="M284.587 517.404C410.893 521.898 510.91 408.03 546.429 307.296C570.033 240.356 569.046 165.8 534.655 109.826C509.455 68.812 460.57 32.4904 400.993 38.9238C334.6 46.0935 294.926 115.376 226.911 123.591C158.996 131.793 84.6915 169.602 56.3704 223.261C28.0586 276.903 39.2238 365.976 87.0114 429.615C114.258 465.897 154.776 494.571 202.44 508.747C228.634 516.537 255.017 516.102 283.041 517.344C283.556 517.365 284.07 517.385 284.587 517.404Z" fill="white"/>
<path d="M124.27 458.225H173.077" stroke="#263238" stroke-width="1.18" stroke-miterlimit="10" stroke-linecap="round" stroke-linejoin="round"/>
<path d="M182.465 458.225H305.42" stroke="#263238" stroke-width="1.18" stroke-miterlimit="10" stroke-linecap="round" stroke-linejoin="round"/>
<path d="M95.1758 481.475H152.429" stroke="#263238" stroke-width="1.18" stroke-miterlimit="10" stroke-linecap="round" stroke-linejoin="round"/>
<path d="M24.7812 441.382H82.0348" stroke="#263238" stroke-width="1.18" stroke-miterlimit="10" stroke-linecap="round" stroke-linejoin="round"/>
<path d="M195.605 480.312H226.578" stroke="#263238" stroke-width="1.18" stroke-miterlimit="10" stroke-linecap="round" stroke-linejoin="round"/>
<path d="M323.25 480.312H354.224" stroke="#263238" stroke-width="1.18" stroke-miterlimit="10" stroke-linecap="round" stroke-linejoin="round"/>
<path d="M182.465 505.296H230.333" stroke="#263238" stroke-width="1.18" stroke-miterlimit="10" stroke-linecap="round" stroke-linejoin="round"/>
<path d="M256.609 505.296H272.565" stroke="#263238" stroke-width="1.18" stroke-miterlimit="10" stroke-linecap="round" stroke-linejoin="round"/>
<path d="M479.055 505.296H495.009" stroke="#263238" stroke-width="1.18" stroke-miterlimit="10" stroke-linecap="round" stroke-linejoin="round"/>
<path d="M380.504 505.296H396.46" stroke="#263238" stroke-width="1.18" stroke-miterlimit="10" stroke-linecap="round" stroke-linejoin="round"/>
<path d="M477.179 476.819H440.574" stroke="#263238" stroke-width="1.18" stroke-miterlimit="10" stroke-linecap="round" stroke-linejoin="round"/>
<path d="M424.617 476.819H411.477" stroke="#263238" stroke-width="1.18" stroke-miterlimit="10" stroke-linecap="round" stroke-linejoin="round"/>
<path d="M48.2461 527.955H79.2199" stroke="#263238" stroke-width="1.18" stroke-miterlimit="10" stroke-linecap="round" stroke-linejoin="round"/>
<path d="M202.175 524.471H165.57" stroke="#263238" stroke-width="1.18" stroke-miterlimit="10" stroke-linecap="round" stroke-linejoin="round"/>
<path d="M149.613 524.471H136.473" stroke="#263238" stroke-width="1.18" stroke-miterlimit="10" stroke-linecap="round" stroke-linejoin="round"/>
<path d="M372.059 527.955H403.031" stroke="#263238" stroke-width="1.18" stroke-miterlimit="10" stroke-linecap="round" stroke-linejoin="round"/>
<path d="M525.984 524.471H489.379" stroke="#263238" stroke-width="1.18" stroke-miterlimit="10" stroke-linecap="round" stroke-linejoin="round"/>
<path d="M473.426 524.471H460.285" stroke="#263238" stroke-width="1.18" stroke-miterlimit="10" stroke-linecap="round" stroke-linejoin="round"/>
<path d="M324.189 447.19H220.945" stroke="#263238" stroke-width="1.18" stroke-miterlimit="10" stroke-linecap="round" stroke-linejoin="round"/>
<path d="M346.718 447.19H330.762" stroke="#263238" stroke-width="1.18" stroke-miterlimit="10" stroke-linecap="round" stroke-linejoin="round"/>
<path d="M558.836 422.207H498.766" stroke="#263238" stroke-width="1.18" stroke-miterlimit="10" stroke-linecap="round" stroke-linejoin="round"/>
<path d="M565.404 412.324H553.203" stroke="#263238" stroke-width="1.18" stroke-miterlimit="10" stroke-linecap="round" stroke-linejoin="round"/>
<path d="M143.982 412.324H131.781" stroke="#263238" stroke-width="1.18" stroke-miterlimit="10" stroke-linecap="round" stroke-linejoin="round"/>
<path d="M309.17 412.324H296.969" stroke="#263238" stroke-width="1.18" stroke-miterlimit="10" stroke-linecap="round" stroke-linejoin="round"/>
<path d="M508.49 412.324H470.742" stroke="#263238" stroke-width="1.18" stroke-miterlimit="10" stroke-linecap="round" stroke-linejoin="round"/>
<path d="M243.808 412.324H206.059" stroke="#263238" stroke-width="1.18" stroke-miterlimit="10" stroke-linecap="round" stroke-linejoin="round"/>
<path d="M436.818 412.324H424.617" stroke="#263238" stroke-width="1.18" stroke-miterlimit="10" stroke-linecap="round" stroke-linejoin="round"/>
<path d="M82.9746 412.324H70.7734" stroke="#263238" stroke-width="1.18" stroke-miterlimit="10" stroke-linecap="round" stroke-linejoin="round"/>
<path d="M552.267 407.098H520.355" stroke="#263238" stroke-width="1.18" stroke-miterlimit="10" stroke-linecap="round" stroke-linejoin="round"/>
<path d="M405.846 407.098H373.934" stroke="#263238" stroke-width="1.18" stroke-miterlimit="10" stroke-linecap="round" stroke-linejoin="round"/>
<path d="M138.352 421.046H182.465" stroke="#263238" stroke-width="1.18" stroke-miterlimit="10" stroke-linecap="round" stroke-linejoin="round"/>
<path d="M325.129 421.046H369.243" stroke="#263238" stroke-width="1.18" stroke-miterlimit="10" stroke-linecap="round" stroke-linejoin="round"/>
<path d="M425.555 444.867H469.668" stroke="#263238" stroke-width="1.18" stroke-miterlimit="10" stroke-linecap="round" stroke-linejoin="round"/>
<path d="M405.822 382.564H356.069V352.184H263.913H216.684L212.076 356.791H118.77V389.046H412.513V382.134L405.822 382.564Z" fill="#89D0E6" stroke="#2489A8" stroke-width="1.18" stroke-miterlimit="10"/>
<path d="M405.82 382.569V342.18H442.49V366.121H445.593V348.387H488.598V338.19H506.776V324.446H556.433V319.125H574.61V381.195" fill="#89D0E6"/>
<path d="M405.82 382.569V342.18H442.49V366.121H445.593V348.387H488.598V338.19H506.776V324.446H556.433V319.125H574.61V381.195" stroke="#2489A8" stroke-width="1.18" stroke-miterlimit="10"/>
<path d="M576.103 381.194H268.023V400.514H576.103V381.194Z" fill="#CFE9F2" stroke="#2489A8" stroke-width="1.18" stroke-miterlimit="10"/>
<path d="M571.928 319.104H541.492V400.679H571.928V319.104Z" fill="#CFE9F2" stroke="#2489A8" stroke-width="1.18" stroke-miterlimit="10"/>
<path d="M541.715 322.607H562.165" stroke="#2489A8" stroke-width="1.18" stroke-miterlimit="10"/>
<path d="M559.609 324.939H562.165" stroke="#2489A8" stroke-width="1.18" stroke-miterlimit="10"/>
<path d="M541.715 324.939H555.659" stroke="#2489A8" stroke-width="1.18" stroke-miterlimit="10"/>
<path d="M541.715 327.283H562.165" stroke="#2489A8" stroke-width="1.18" stroke-miterlimit="10"/>
<path d="M559.609 329.615H562.165" stroke="#2489A8" stroke-width="1.18" stroke-miterlimit="10"/>
<path d="M541.715 329.615H555.659" stroke="#2489A8" stroke-width="1.18" stroke-miterlimit="10"/>
<path d="M541.715 331.948H562.165" stroke="#2489A8" stroke-width="1.18" stroke-miterlimit="10"/>
<path d="M559.609 334.28H562.165" stroke="#2489A8" stroke-width="1.18" stroke-miterlimit="10"/>
<path d="M541.715 334.28H555.659" stroke="#2489A8" stroke-width="1.18" stroke-miterlimit="10"/>
<path d="M541.715 336.617H562.165" stroke="#2489A8" stroke-width="1.18" stroke-miterlimit="10"/>
<path d="M559.609 338.949H562.165" stroke="#2489A8" stroke-width="1.18" stroke-miterlimit="10"/>
<path d="M541.715 338.949H555.659" stroke="#2489A8" stroke-width="1.18" stroke-miterlimit="10"/>
<path d="M541.715 341.293H562.165" stroke="#2489A8" stroke-width="1.18" stroke-miterlimit="10"/>
<path d="M559.609 343.625H562.165" stroke="#2489A8" stroke-width="1.18" stroke-miterlimit="10"/>
<path d="M541.715 343.625H555.659" stroke="#2489A8" stroke-width="1.18" stroke-miterlimit="10"/>
<path d="M541.715 345.958H562.165" stroke="#2489A8" stroke-width="1.18" stroke-miterlimit="10"/>
<path d="M559.609 348.29H562.165" stroke="#2489A8" stroke-width="1.18" stroke-miterlimit="10"/>
<path d="M541.715 348.29H555.659" stroke="#2489A8" stroke-width="1.18" stroke-miterlimit="10"/>
<path d="M541.715 350.634H562.165" stroke="#2489A8" stroke-width="1.18" stroke-miterlimit="10"/>
<path d="M559.609 352.966H562.165" stroke="#2489A8" stroke-width="1.18" stroke-miterlimit="10"/>
<path d="M541.715 352.966H555.659" stroke="#2489A8" stroke-width="1.18" stroke-miterlimit="10"/>
<path d="M541.715 355.299H562.165" stroke="#2489A8" stroke-width="1.18" stroke-miterlimit="10"/>
<path d="M559.609 357.631H562.165" stroke="#2489A8" stroke-width="1.18" stroke-miterlimit="10"/>
<path d="M541.715 357.631H555.659" stroke="#2489A8" stroke-width="1.18" stroke-miterlimit="10"/>
<path d="M541.715 359.968H562.165" stroke="#2489A8" stroke-width="1.18" stroke-miterlimit="10"/>
<path d="M559.609 362.3H562.165" stroke="#2489A8" stroke-width="1.18" stroke-miterlimit="10"/>
<path d="M541.715 362.3H555.659" stroke="#2489A8" stroke-width="1.18" stroke-miterlimit="10"/>
<path d="M541.715 364.644H562.165" stroke="#2489A8" stroke-width="1.18" stroke-miterlimit="10"/>
<path d="M559.609 366.976H562.165" stroke="#2489A8" stroke-width="1.18" stroke-miterlimit="10"/>
<path d="M541.715 366.976H555.659" stroke="#2489A8" stroke-width="1.18" stroke-miterlimit="10"/>
<path d="M541.715 369.309H562.165" stroke="#2489A8" stroke-width="1.18" stroke-miterlimit="10"/>
<path d="M559.609 371.641H562.165" stroke="#2489A8" stroke-width="1.18" stroke-miterlimit="10"/>
<path d="M541.715 371.641H555.659" stroke="#2489A8" stroke-width="1.18" stroke-miterlimit="10"/>
<path d="M541.715 373.984H562.165" stroke="#2489A8" stroke-width="1.18" stroke-miterlimit="10"/>
<path d="M559.609 376.316H562.165" stroke="#2489A8" stroke-width="1.18" stroke-miterlimit="10"/>
<path d="M541.715 376.316H555.659" stroke="#2489A8" stroke-width="1.18" stroke-miterlimit="10"/>
<path d="M541.715 378.66H562.165" stroke="#2489A8" stroke-width="1.18" stroke-miterlimit="10"/>
<path d="M559.609 380.992H562.165" stroke="#2489A8" stroke-width="1.18" stroke-miterlimit="10"/>
<path d="M541.715 380.992H555.659" stroke="#2489A8" stroke-width="1.18" stroke-miterlimit="10"/>
<path d="M541.715 383.318H562.165" stroke="#2489A8" stroke-width="1.18" stroke-miterlimit="10"/>
<path d="M559.609 385.65H562.165" stroke="#2489A8" stroke-width="1.18" stroke-miterlimit="10"/>
<path d="M541.715 385.65H555.659" stroke="#2489A8" stroke-width="1.18" stroke-miterlimit="10"/>
<path d="M232.782 320.01H214.684V399.428H232.782V320.01Z" fill="#89D0E6" stroke="#2489A8" stroke-width="1.18" stroke-miterlimit="10"/>
<path d="M249.188 359.715H226.656V399.424H249.188V359.715Z" fill="#CFE9F2" stroke="#2489A8" stroke-width="1.18" stroke-miterlimit="10"/>
<path d="M339.632 280.554H315.691V399.432H339.632V280.554Z" fill="#89D0E6" stroke="#2489A8" stroke-width="1.18" stroke-miterlimit="10"/>
<path d="M401.702 295.184H378.203V399.431H401.702V295.184Z" fill="#89D0E6" stroke="#2489A8" stroke-width="1.18" stroke-miterlimit="10"/>
<path d="M390.175 312.469H346.727V399.425H390.175V312.469Z" fill="#CFE9F2" stroke="#2489A8" stroke-width="1.18" stroke-miterlimit="10"/>
<path d="M385.742 316.903H351.16V399.425H385.742V316.903Z" fill="#89D0E6" stroke="#2489A8" stroke-width="1.18" stroke-miterlimit="10"/>
<path d="M382.195 323.107H354.707V399.423H382.195V323.107Z" fill="#CFE9F2" stroke="#2489A8" stroke-width="1.18" stroke-miterlimit="10"/>
<path d="M335.2 355.032H312.668V399.426H335.2V355.032Z" fill="#CFE9F2" stroke="#2489A8" stroke-width="1.18" stroke-miterlimit="10"/>
<path d="M271.356 339.074H248.824V399.429H271.356V339.074Z" fill="#CFE9F2" stroke="#2489A8" stroke-width="1.18" stroke-miterlimit="10"/>
<path d="M225.247 334.64H207.148V399.428H225.247V334.64Z" fill="#CFE9F2" stroke="#2489A8" stroke-width="1.18" stroke-miterlimit="10"/>
<path d="M280.915 400.578H261.102L266.054 193.805H275.961L280.915 400.578Z" fill="#89D0E6" stroke="#2489A8" stroke-width="1.18" stroke-miterlimit="10"/>
<path d="M271.411 193.805L266.457 400.578H280.917L275.963 193.805H271.411Z" fill="#CFE9F2" stroke="#2489A8" stroke-width="1.18" stroke-miterlimit="10"/>
<path d="M274.682 400.578H266.54L266.055 193.805H273.243L274.682 400.578Z" fill="#CFE9F2" stroke="#2489A8" stroke-width="1.18" stroke-miterlimit="10"/>
<path d="M268.312 337.23H255.09V400.684H268.312V337.23Z" fill="#CFE9F2" stroke="#2489A8" stroke-width="1.18" stroke-miterlimit="10"/>
<path d="M311.171 361.393H297.949V400.683H311.171V361.393Z" fill="#CFE9F2" stroke="#2489A8" stroke-width="1.18" stroke-miterlimit="10"/>
<path d="M379.349 346.717H351.168V400.678H379.349V346.717Z" fill="#CFE9F2" stroke="#2489A8" stroke-width="1.18" stroke-miterlimit="10"/>
<path d="M373.306 346.717H357.207V400.678H373.306V346.717Z" fill="#CFE9F2" stroke="#2489A8" stroke-width="1.18" stroke-miterlimit="10"/>
<path d="M368.417 346.717H362.098V400.678H368.417V346.717Z" fill="#CFE9F2" stroke="#2489A8" stroke-width="1.18" stroke-miterlimit="10"/>
<path d="M423.071 346.717H394.891V400.678H423.071V346.717Z" fill="#CFE9F2" stroke="#2489A8" stroke-width="1.18" stroke-miterlimit="10"/>
<path d="M417.028 346.717H400.93V400.678H417.028V346.717Z" fill="#CFE9F2" stroke="#2489A8" stroke-width="1.18" stroke-miterlimit="10"/>
<path d="M412.139 346.717H405.82V400.678H412.139V346.717Z" fill="#CFE9F2" stroke="#2489A8" stroke-width="1.18" stroke-miterlimit="10"/>
<path d="M306.86 355.926H301.691V400.682H306.86V355.926Z" fill="#CFE9F2" stroke="#2489A8" stroke-width="1.18" stroke-miterlimit="10"/>
<path d="M238.97 386.127H222.871V400.679H238.97V386.127Z" fill="#CFE9F2" stroke="#2489A8" stroke-width="1.18" stroke-miterlimit="10"/>
<path d="M240.955 390.017H220.887V400.678H240.955V390.017Z" fill="#89D0E6" stroke="#2489A8" stroke-width="1.18" stroke-miterlimit="10"/>
<path d="M258.532 380.955H242.434V400.685H258.532V380.955Z" fill="#CFE9F2" stroke="#2489A8" stroke-width="1.18" stroke-miterlimit="10"/>
<path d="M260.517 386.229H240.449V400.684H260.517V386.229Z" fill="#89D0E6" stroke="#2489A8" stroke-width="1.18" stroke-miterlimit="10"/>
<path d="M491.821 340.395H454.148V400.684H491.821V340.395Z" fill="#CFE9F2" stroke="#2489A8" stroke-width="1.18" stroke-miterlimit="10"/>
<path d="M454.426 342.984H479.74" stroke="#2489A8" stroke-width="1.18" stroke-miterlimit="10"/>
<path d="M476.574 344.708H479.739" stroke="#2489A8" stroke-width="1.18" stroke-miterlimit="10"/>
<path d="M454.426 344.708H471.686" stroke="#2489A8" stroke-width="1.18" stroke-miterlimit="10"/>
<path d="M454.426 346.435H479.74" stroke="#2489A8" stroke-width="1.18" stroke-miterlimit="10"/>
<path d="M476.574 348.158H479.739" stroke="#2489A8" stroke-width="1.18" stroke-miterlimit="10"/>
<path d="M454.426 348.158H471.686" stroke="#2489A8" stroke-width="1.18" stroke-miterlimit="10"/>
<path d="M454.426 349.888H479.74" stroke="#2489A8" stroke-width="1.18" stroke-miterlimit="10"/>
<path d="M476.574 351.611H479.739" stroke="#2489A8" stroke-width="1.18" stroke-miterlimit="10"/>
<path d="M454.426 351.611H471.686" stroke="#2489A8" stroke-width="1.18" stroke-miterlimit="10"/>
<path d="M454.426 353.338H479.74" stroke="#2489A8" stroke-width="1.18" stroke-miterlimit="10"/>
<path d="M476.574 355.062H479.739" stroke="#2489A8" stroke-width="1.18" stroke-miterlimit="10"/>
<path d="M454.426 355.062H471.686" stroke="#2489A8" stroke-width="1.18" stroke-miterlimit="10"/>
<path d="M454.426 356.791H479.74" stroke="#2489A8" stroke-width="1.18" stroke-miterlimit="10"/>
<path d="M476.574 358.515H479.739" stroke="#2489A8" stroke-width="1.18" stroke-miterlimit="10"/>
<path d="M454.426 358.515H471.686" stroke="#2489A8" stroke-width="1.18" stroke-miterlimit="10"/>
<path d="M454.426 360.241H479.74" stroke="#2489A8" stroke-width="1.18" stroke-miterlimit="10"/>
<path d="M476.574 361.965H479.739" stroke="#2489A8" stroke-width="1.18" stroke-miterlimit="10"/>
<path d="M454.426 361.965H471.686" stroke="#2489A8" stroke-width="1.18" stroke-miterlimit="10"/>
<path d="M454.426 363.691H479.74" stroke="#2489A8" stroke-width="1.18" stroke-miterlimit="10"/>
<path d="M476.574 365.415H479.739" stroke="#2489A8" stroke-width="1.18" stroke-miterlimit="10"/>
<path d="M454.426 365.415H471.686" stroke="#2489A8" stroke-width="1.18" stroke-miterlimit="10"/>
<path d="M454.426 367.145H479.74" stroke="#2489A8" stroke-width="1.18" stroke-miterlimit="10"/>
<path d="M476.574 368.868H479.739" stroke="#2489A8" stroke-width="1.18" stroke-miterlimit="10"/>
<path d="M454.426 368.868H471.686" stroke="#2489A8" stroke-width="1.18" stroke-miterlimit="10"/>
<path d="M454.426 370.595H479.74" stroke="#2489A8" stroke-width="1.18" stroke-miterlimit="10"/>
<path d="M476.574 372.318H479.739" stroke="#2489A8" stroke-width="1.18" stroke-miterlimit="10"/>
<path d="M454.426 372.318H471.686" stroke="#2489A8" stroke-width="1.18" stroke-miterlimit="10"/>
<path d="M454.426 374.056H479.74" stroke="#2489A8" stroke-width="1.18" stroke-miterlimit="10"/>
<path d="M476.574 375.779H479.739" stroke="#2489A8" stroke-width="1.18" stroke-miterlimit="10"/>
<path d="M454.426 375.779H471.686" stroke="#2489A8" stroke-width="1.18" stroke-miterlimit="10"/>
<path d="M454.426 377.499H479.74" stroke="#2489A8" stroke-width="1.18" stroke-miterlimit="10"/>
<path d="M476.574 379.223H479.739" stroke="#2489A8" stroke-width="1.18" stroke-miterlimit="10"/>
<path d="M454.426 379.223H471.686" stroke="#2489A8" stroke-width="1.18" stroke-miterlimit="10"/>
<path d="M454.426 380.96H479.74" stroke="#2489A8" stroke-width="1.18" stroke-miterlimit="10"/>
<path d="M476.574 382.684H479.739" stroke="#2489A8" stroke-width="1.18" stroke-miterlimit="10"/>
<path d="M454.426 382.684H471.686" stroke="#2489A8" stroke-width="1.18" stroke-miterlimit="10"/>
<path d="M454.426 384.402H479.74" stroke="#2489A8" stroke-width="1.18" stroke-miterlimit="10"/>
<path d="M476.574 386.126H479.739" stroke="#2489A8" stroke-width="1.18" stroke-miterlimit="10"/>
<path d="M454.426 386.126H471.686" stroke="#2489A8" stroke-width="1.18" stroke-miterlimit="10"/>
<path d="M454.426 387.863H479.74" stroke="#2489A8" stroke-width="1.18" stroke-miterlimit="10"/>
<path d="M476.574 389.587H479.739" stroke="#2489A8" stroke-width="1.18" stroke-miterlimit="10"/>
<path d="M454.426 389.587H471.686" stroke="#2489A8" stroke-width="1.18" stroke-miterlimit="10"/>
<path d="M547.339 310.764H527.203V318.818H547.339V310.764Z" fill="#CFE9F2" stroke="#2489A8" stroke-width="1.18" stroke-miterlimit="10"/>
<path d="M552.802 319.104H515.129V400.679H552.802V319.104Z" fill="#CFE9F2" stroke="#2489A8" stroke-width="1.18" stroke-miterlimit="10"/>
<path d="M563.344 391.323V397.071H560.678V391.323H554.902V394.405H552.682V391.323H507.806V395.739H503.807V391.323H492.7V395.294H490.478V391.323H438.493V398.404H435.384V391.323H405.17V397.516H402.504V391.323H386.014V399.156H382.51V391.323H342.966V399.738H341.189V391.323H327.86V397.071H324.749V391.323H296.758V398.849H293.203V391.323H268.297V400.744H576.376V391.323H563.344Z" fill="#CFE9F2" stroke="#2489A8" stroke-width="1.18" stroke-miterlimit="10"/>
<path d="M319.139 391.766H305.238V400.677H319.139V391.766Z" fill="#89D0E6" stroke="#2489A8" stroke-width="1.18" stroke-miterlimit="10"/>
<path d="M374.393 391.766H360.492V400.677H374.393V391.766Z" fill="#89D0E6" stroke="#2489A8" stroke-width="1.18" stroke-miterlimit="10"/>
<path d="M458.146 391.766H444.246V400.677H458.146V391.766Z" fill="#89D0E6" stroke="#2489A8" stroke-width="1.18" stroke-miterlimit="10"/>
<path d="M478.65 391.766H464.75V400.677H478.65V391.766Z" fill="#89D0E6" stroke="#2489A8" stroke-width="1.18" stroke-miterlimit="10"/>
<path d="M546.416 391.766H519.309V400.677H546.416V391.766Z" fill="#89D0E6" stroke="#2489A8" stroke-width="1.18" stroke-miterlimit="10"/>
<path d="M515.406 322.607H540.72" stroke="#2489A8" stroke-width="1.18" stroke-miterlimit="10"/>
<path d="M537.555 324.939H540.718" stroke="#2489A8" stroke-width="1.18" stroke-miterlimit="10"/>
<path d="M515.406 324.939H532.666" stroke="#2489A8" stroke-width="1.18" stroke-miterlimit="10"/>
<path d="M515.406 327.283H540.72" stroke="#2489A8" stroke-width="1.18" stroke-miterlimit="10"/>
<path d="M537.555 329.615H540.718" stroke="#2489A8" stroke-width="1.18" stroke-miterlimit="10"/>
<path d="M515.406 329.615H532.666" stroke="#2489A8" stroke-width="1.18" stroke-miterlimit="10"/>
<path d="M515.406 331.948H540.72" stroke="#2489A8" stroke-width="1.18" stroke-miterlimit="10"/>
<path d="M537.555 334.28H540.718" stroke="#2489A8" stroke-width="1.18" stroke-miterlimit="10"/>
<path d="M515.406 334.28H532.666" stroke="#2489A8" stroke-width="1.18" stroke-miterlimit="10"/>
<path d="M515.406 336.617H540.72" stroke="#2489A8" stroke-width="1.18" stroke-miterlimit="10"/>
<path d="M537.555 338.949H540.718" stroke="#2489A8" stroke-width="1.18" stroke-miterlimit="10"/>
<path d="M515.406 338.949H532.666" stroke="#2489A8" stroke-width="1.18" stroke-miterlimit="10"/>
<path d="M515.406 341.293H540.72" stroke="#2489A8" stroke-width="1.18" stroke-miterlimit="10"/>
<path d="M537.555 343.625H540.718" stroke="#2489A8" stroke-width="1.18" stroke-miterlimit="10"/>
<path d="M515.406 343.625H532.666" stroke="#2489A8" stroke-width="1.18" stroke-miterlimit="10"/>
<path d="M515.406 345.958H540.72" stroke="#2489A8" stroke-width="1.18" stroke-miterlimit="10"/>
<path d="M537.555 348.29H540.718" stroke="#2489A8" stroke-width="1.18" stroke-miterlimit="10"/>
<path d="M515.406 348.29H532.666" stroke="#2489A8" stroke-width="1.18" stroke-miterlimit="10"/>
<path d="M515.406 350.634H540.72" stroke="#2489A8" stroke-width="1.18" stroke-miterlimit="10"/>
<path d="M537.555 352.966H540.718" stroke="#2489A8" stroke-width="1.18" stroke-miterlimit="10"/>
<path d="M515.406 352.966H532.666" stroke="#2489A8" stroke-width="1.18" stroke-miterlimit="10"/>
<path d="M515.406 355.299H540.72" stroke="#2489A8" stroke-width="1.18" stroke-miterlimit="10"/>
<path d="M537.555 357.631H540.718" stroke="#2489A8" stroke-width="1.18" stroke-miterlimit="10"/>
<path d="M515.406 357.631H532.666" stroke="#2489A8" stroke-width="1.18" stroke-miterlimit="10"/>
<path d="M515.406 359.968H540.72" stroke="#2489A8" stroke-width="1.18" stroke-miterlimit="10"/>
<path d="M537.555 362.3H540.718" stroke="#2489A8" stroke-width="1.18" stroke-miterlimit="10"/>
<path d="M515.406 362.3H532.666" stroke="#2489A8" stroke-width="1.18" stroke-miterlimit="10"/>
<path d="M515.406 364.644H540.72" stroke="#2489A8" stroke-width="1.18" stroke-miterlimit="10"/>
<path d="M537.555 366.976H540.718" stroke="#2489A8" stroke-width="1.18" stroke-miterlimit="10"/>
<path d="M515.406 366.976H532.666" stroke="#2489A8" stroke-width="1.18" stroke-miterlimit="10"/>
<path d="M515.406 369.309H540.72" stroke="#2489A8" stroke-width="1.18" stroke-miterlimit="10"/>
<path d="M537.555 371.641H540.718" stroke="#2489A8" stroke-width="1.18" stroke-miterlimit="10"/>
<path d="M515.406 371.641H532.666" stroke="#2489A8" stroke-width="1.18" stroke-miterlimit="10"/>
<path d="M515.406 373.984H540.72" stroke="#2489A8" stroke-width="1.18" stroke-miterlimit="10"/>
<path d="M537.555 376.316H540.718" stroke="#2489A8" stroke-width="1.18" stroke-miterlimit="10"/>
<path d="M515.406 376.316H532.666" stroke="#2489A8" stroke-width="1.18" stroke-miterlimit="10"/>
<path d="M515.406 378.66H540.72" stroke="#2489A8" stroke-width="1.18" stroke-miterlimit="10"/>
<path d="M537.555 380.992H540.718" stroke="#2489A8" stroke-width="1.18" stroke-miterlimit="10"/>
<path d="M515.406 380.992H532.666" stroke="#2489A8" stroke-width="1.18" stroke-miterlimit="10"/>
<path d="M515.406 383.318H540.72" stroke="#2489A8" stroke-width="1.18" stroke-miterlimit="10"/>
<path d="M537.555 385.65H540.718" stroke="#2489A8" stroke-width="1.18" stroke-miterlimit="10"/>
<path d="M515.406 385.65H532.666" stroke="#2489A8" stroke-width="1.18" stroke-miterlimit="10"/>
<path d="M280.747 173.65H262.12L258.055 180.086V189.739H284.474L284.812 179.747L280.747 173.65Z" fill="#CFE9F2" stroke="#2489A8" stroke-width="1.18" stroke-miterlimit="10"/>
<path d="M258.055 180.085H284.812" stroke="#2489A8" stroke-width="1.18" stroke-miterlimit="10"/>
<path d="M258.055 182.454H284.812" stroke="#2489A8" stroke-width="1.18" stroke-miterlimit="10"/>
<path d="M258.055 184.823H284.812" stroke="#2489A8" stroke-width="1.18" stroke-miterlimit="10"/>
<path d="M280.409 193.802H262.119C259.874 193.802 258.055 191.982 258.055 189.738C258.055 187.493 259.874 185.674 262.119 185.674H280.409C282.653 185.674 284.473 187.493 284.473 189.738C284.474 191.982 282.654 193.802 280.409 193.802Z" fill="#CFE9F2" stroke="#2489A8" stroke-width="1.18" stroke-miterlimit="10"/>
<path d="M278.885 173.655H263.644C262.616 173.655 261.781 172.821 261.781 171.792C261.781 170.763 262.616 169.929 263.644 169.929H278.885C279.914 169.929 280.749 170.763 280.749 171.792C280.747 172.822 279.914 173.655 278.885 173.655Z" fill="#CFE9F2" stroke="#2489A8" stroke-width="1.18" stroke-miterlimit="10"/>
<path d="M274.651 122.849H267.199V169.927H274.651V122.849Z" fill="#CFE9F2" stroke="#2489A8" stroke-width="1.18" stroke-miterlimit="10"/>
<path d="M272.447 57.8193H269.4L267.875 120.817H273.972L272.447 57.8193Z" fill="#CFE9F2" stroke="#2489A8" stroke-width="1.18" stroke-miterlimit="10"/>
<path d="M272.618 124.206H269.232C267.548 124.206 266.184 122.842 266.184 121.158C266.184 119.474 267.548 118.11 269.232 118.11H272.618C274.302 118.11 275.666 119.476 275.666 121.158C275.666 122.841 274.301 124.206 272.618 124.206Z" fill="#CFE9F2" stroke="#2489A8" stroke-width="1.18" stroke-miterlimit="10"/>
<path d="M91.7949 400.677V339.891H82.4847V343.439H72.7309V386.445H43.4692V339.005H30.6119V327.034H15.0938V400.677H91.7949Z" fill="#89D0E6" stroke="#2489A8" stroke-width="1.18" stroke-miterlimit="10"/>
<path d="M218.982 396.291C218.501 369.171 186.972 344.239 148.128 344.239C109.283 344.239 77.7537 369.171 77.2734 396.291H218.982Z" fill="#CFE9F2" stroke="#2489A8" stroke-width="1.18" stroke-miterlimit="10"/>
<path d="M204.211 396.287C203.979 374.748 178.964 354.896 148.129 354.896C117.293 354.896 92.2782 374.749 92.0469 396.287H204.211Z" fill="#89D0E6" stroke="#2489A8" stroke-width="1.18" stroke-miterlimit="10"/>
<path d="M220.259 378.1H75.3906V400.677H220.259V378.1Z" fill="#CFE9F2" stroke="#2489A8" stroke-width="1.18" stroke-miterlimit="10"/>
<path d="M88.5619 385.628H82.918V399.424H88.5619V385.628Z" fill="#89D0E6" stroke="#2489A8" stroke-width="1.18" stroke-miterlimit="10"/>
<path d="M96.0892 385.628H90.4453V399.424H96.0892V385.628Z" fill="#89D0E6" stroke="#2489A8" stroke-width="1.18" stroke-miterlimit="10"/>
<path d="M103.613 385.628H97.9688V399.424H103.613V385.628Z" fill="#89D0E6" stroke="#2489A8" stroke-width="1.18" stroke-miterlimit="10"/>
<path d="M128.07 385.628H122.426V399.424H128.07V385.628Z" fill="#89D0E6" stroke="#2489A8" stroke-width="1.18" stroke-miterlimit="10"/>
<path d="M135.597 385.628H129.953V399.424H135.597V385.628Z" fill="#89D0E6" stroke="#2489A8" stroke-width="1.18" stroke-miterlimit="10"/>
<path d="M143.121 385.628H137.477V399.424H143.121V385.628Z" fill="#89D0E6" stroke="#2489A8" stroke-width="1.18" stroke-miterlimit="10"/>
<path d="M167.581 385.628H161.938V399.424H167.581V385.628Z" fill="#89D0E6" stroke="#2489A8" stroke-width="1.18" stroke-miterlimit="10"/>
<path d="M175.105 385.628H169.461V399.424H175.105V385.628Z" fill="#89D0E6" stroke="#2489A8" stroke-width="1.18" stroke-miterlimit="10"/>
<path d="M182.632 385.628H176.988V399.424H182.632V385.628Z" fill="#89D0E6" stroke="#2489A8" stroke-width="1.18" stroke-miterlimit="10"/>
<path d="M205.722 385.628H201.445V399.424H205.722V385.628Z" fill="#89D0E6" stroke="#2489A8" stroke-width="1.18" stroke-miterlimit="10"/>
<path d="M211.425 385.628H207.148V399.424H211.425V385.628Z" fill="#89D0E6" stroke="#2489A8" stroke-width="1.18" stroke-miterlimit="10"/>
<path d="M217.124 385.628H212.848V399.424H217.124V385.628Z" fill="#89D0E6" stroke="#2489A8" stroke-width="1.18" stroke-miterlimit="10"/>
<path d="M55.9511 351.132H35.8828V400.675H55.9511V351.132Z" fill="#CFE9F2" stroke="#2489A8" stroke-width="1.18" stroke-miterlimit="10"/>
<path d="M75.3886 373.092H55.3203V400.686H75.3886V373.092Z" fill="#CFE9F2" stroke="#2489A8" stroke-width="1.18" stroke-miterlimit="10"/>
<path d="M276.125 200.644L275.961 193.805H266.053L265.891 200.644H276.125Z" fill="#89D0E6" stroke="#2489A8" stroke-width="1.18" stroke-miterlimit="10"/>
<path d="M227.285 96.0612C220.718 92.4788 217.732 95.4641 215.344 92.4787C212.955 89.4933 221.912 81.7313 203.999 73.9681C203.999 73.9681 202.805 57.2498 178.324 56.6528C153.843 56.0557 160.411 73.3722 153.843 77.5506C147.276 81.7301 145.484 75.1622 138.915 79.3418C132.347 83.5214 135.333 91.8817 129.959 93.0758C124.585 94.27 117.42 87.7021 110.852 91.8817C104.285 96.0612 104.285 99.6437 101.299 99.6437C98.3138 99.6437 92.3418 97.2554 88.7593 99.6437C85.1757 102.032 80.9961 105.017 80.9961 105.017H232.062C232.062 105.017 233.853 99.6437 227.285 96.0612Z" stroke="#999999" stroke-width="1.18" stroke-miterlimit="10" stroke-linecap="round" stroke-linejoin="round"/>
<path d="M137.92 93.6064C137.21 94.0159 136.337 94.4324 135.254 94.8655" stroke="#999999" stroke-width="1.18" stroke-miterlimit="10" stroke-linecap="round" stroke-linejoin="round"/>
<path d="M170.236 65.7197C170.236 65.7197 165.5 67.5416 164.406 73.0074C163.313 78.4732 160.762 82.117 157.846 82.4816C154.932 82.8462 143.999 81.7524 142.177 85.7608C141.537 87.1686 141.391 88.3521 141.156 89.4212" stroke="#999999" stroke-width="1.18" stroke-miterlimit="10" stroke-linecap="round" stroke-linejoin="round"/>
<path d="M475.73 159.207C472.206 157.284 470.604 158.887 469.323 157.284C468.041 155.682 472.848 151.518 463.235 147.351C463.235 147.351 462.595 138.381 449.459 138.06C436.323 137.739 439.847 147.031 436.323 149.273C432.798 151.517 431.838 147.992 428.313 150.235C424.789 152.478 426.391 156.963 423.507 157.604C420.623 158.245 416.779 154.72 413.254 156.963C409.729 159.205 409.729 161.129 408.128 161.129C406.526 161.129 403.322 159.847 401.4 161.129C399.478 162.41 397.234 164.013 397.234 164.013H478.294C478.294 164.013 479.255 161.129 475.73 159.207Z" stroke="#999999" stroke-width="1.18" stroke-miterlimit="10" stroke-linecap="round" stroke-linejoin="round"/>
<path d="M427.778 157.896C427.398 158.115 426.929 158.339 426.348 158.572" stroke="#999999" stroke-width="1.18" stroke-miterlimit="10" stroke-linecap="round" stroke-linejoin="round"/>
<path d="M445.119 142.924C445.119 142.924 442.577 143.902 441.991 146.834C441.404 149.768 440.035 151.723 438.471 151.918C436.906 152.114 431.04 151.527 430.063 153.677C429.72 154.432 429.642 155.067 429.516 155.641" stroke="#999999" stroke-width="1.18" stroke-miterlimit="10" stroke-linecap="round" stroke-linejoin="round"/>
<path d="M224.144 160.741C221.741 159.43 220.649 160.523 219.776 159.43C218.901 158.337 222.178 155.498 215.625 152.658C215.625 152.658 215.189 146.542 206.233 146.324C197.276 146.106 199.679 152.441 197.276 153.969C194.874 155.498 194.218 153.096 191.815 154.624C189.412 156.153 190.504 159.212 188.539 159.648C186.573 160.085 183.951 157.683 181.548 159.212C179.146 160.741 179.146 162.051 178.053 162.051C176.96 162.051 174.776 161.178 173.465 162.051C172.154 162.925 170.625 164.017 170.625 164.017H225.893C225.893 164.017 226.546 162.052 224.144 160.741Z" stroke="#999999" stroke-width="1.18" stroke-miterlimit="10" stroke-linecap="round" stroke-linejoin="round"/>
<path d="M191.451 159.843C191.192 159.993 190.872 160.145 190.477 160.304" stroke="#999999" stroke-width="1.18" stroke-miterlimit="10" stroke-linecap="round" stroke-linejoin="round"/>
<path d="M203.272 149.638C203.272 149.638 201.538 150.304 201.138 152.304C200.738 154.305 199.805 155.638 198.738 155.771C197.671 155.905 193.672 155.505 193.006 156.971C192.772 157.487 192.719 157.919 192.633 158.311" stroke="#999999" stroke-width="1.18" stroke-miterlimit="10" stroke-linecap="round" stroke-linejoin="round"/>
<path d="M142.267 255.732C138.404 253.625 136.648 255.38 135.243 253.625C133.838 251.869 139.106 247.304 128.57 242.737C128.57 242.737 127.868 232.904 113.468 232.553C99.0685 232.201 102.932 242.387 99.0685 244.845C95.2051 247.303 94.1514 243.441 90.2881 245.899C86.4248 248.357 88.1806 253.274 85.0206 253.977C81.8593 254.679 77.6456 250.816 73.7822 253.275C69.9189 255.733 69.9189 257.84 68.1631 257.84C66.4072 257.84 62.8944 256.436 60.7881 257.84C58.6806 259.246 56.2227 261.001 56.2227 261.001H145.077C145.075 260.999 146.129 257.839 142.267 255.732Z" stroke="#999999" stroke-width="1.18" stroke-miterlimit="10" stroke-linecap="round" stroke-linejoin="round"/>
<path d="M89.7038 254.296C89.2872 254.537 88.7727 254.782 88.1367 255.037" stroke="#999999" stroke-width="1.18" stroke-miterlimit="10" stroke-linecap="round" stroke-linejoin="round"/>
<path d="M108.712 237.887C108.712 237.887 105.926 238.958 105.283 242.174C104.64 245.389 103.14 247.532 101.426 247.747C99.7113 247.962 93.2814 247.318 92.21 249.676C91.8336 250.504 91.7474 251.201 91.6094 251.828" stroke="#999999" stroke-width="1.18" stroke-miterlimit="10" stroke-linecap="round" stroke-linejoin="round"/>
<path d="M15.3398 559.201H574.66" stroke="#263238" stroke-width="1.18" stroke-miterlimit="10"/>
<path d="M60.1813 415.36H54.2812V559.208H60.1813V415.36Z" fill="white" stroke="#263238" stroke-width="1.18" stroke-miterlimit="10"/>
<path d="M81.4195 415.36H75.5195V559.208H81.4195V415.36Z" fill="white" stroke="#263238" stroke-width="1.18" stroke-miterlimit="10"/>
<path d="M102.662 415.36H96.7617V559.208H102.662V415.36Z" fill="white" stroke="#263238" stroke-width="1.18" stroke-miterlimit="10"/>
<path d="M123.9 415.36H118V559.208H123.9V415.36Z" fill="white" stroke="#263238" stroke-width="1.18" stroke-miterlimit="10"/>
<path d="M145.142 415.36H139.242V559.208H145.142V415.36Z" fill="white" stroke="#263238" stroke-width="1.18" stroke-miterlimit="10"/>
<path d="M166.38 415.36H160.48V559.208H166.38V415.36Z" fill="white" stroke="#263238" stroke-width="1.18" stroke-miterlimit="10"/>
<path d="M187.619 415.36H181.719V559.208H187.619V415.36Z" fill="white" stroke="#263238" stroke-width="1.18" stroke-miterlimit="10"/>
<path d="M208.861 415.36H202.961V559.208H208.861V415.36Z" fill="white" stroke="#263238" stroke-width="1.18" stroke-miterlimit="10"/>
<path d="M230.099 415.36H224.199V559.208H230.099V415.36Z" fill="white" stroke="#263238" stroke-width="1.18" stroke-miterlimit="10"/>
<path d="M251.341 415.36H245.441V559.208H251.341V415.36Z" fill="white" stroke="#263238" stroke-width="1.18" stroke-miterlimit="10"/>
<path d="M272.58 415.36H266.68V559.208H272.58V415.36Z" fill="white" stroke="#263238" stroke-width="1.18" stroke-miterlimit="10"/>
<path d="M293.822 415.36H287.922V559.208H293.822V415.36Z" fill="white" stroke="#263238" stroke-width="1.18" stroke-miterlimit="10"/>
<path d="M315.06 415.36H309.16V559.208H315.06V415.36Z" fill="white" stroke="#263238" stroke-width="1.18" stroke-miterlimit="10"/>
<path d="M336.302 415.36H330.402V559.208H336.302V415.36Z" fill="white" stroke="#263238" stroke-width="1.18" stroke-miterlimit="10"/>
<path d="M357.541 415.36H351.641V559.208H357.541V415.36Z" fill="white" stroke="#263238" stroke-width="1.18" stroke-miterlimit="10"/>
<path d="M378.779 415.36H372.879V559.208H378.779V415.36Z" fill="white" stroke="#263238" stroke-width="1.18" stroke-miterlimit="10"/>
<path d="M400.021 415.36H394.121V559.208H400.021V415.36Z" fill="white" stroke="#263238" stroke-width="1.18" stroke-miterlimit="10"/>
<path d="M421.259 415.36H415.359V559.208H421.259V415.36Z" fill="white" stroke="#263238" stroke-width="1.18" stroke-miterlimit="10"/>
<path d="M442.502 415.36H436.602V559.208H442.502V415.36Z" fill="white" stroke="#263238" stroke-width="1.18" stroke-miterlimit="10"/>
<path d="M463.74 415.36H457.84V559.208H463.74V415.36Z" fill="white" stroke="#263238" stroke-width="1.18" stroke-miterlimit="10"/>
<path d="M484.982 415.36H479.082V559.208H484.982V415.36Z" fill="white" stroke="#263238" stroke-width="1.18" stroke-miterlimit="10"/>
<path d="M506.22 415.36H500.32V559.208H506.22V415.36Z" fill="white" stroke="#263238" stroke-width="1.18" stroke-miterlimit="10"/>
<path d="M527.459 415.36H521.559V559.208H527.459V415.36Z" fill="white" stroke="#263238" stroke-width="1.18" stroke-miterlimit="10"/>
<path d="M548.701 415.36H542.801V559.208H548.701V415.36Z" fill="white" stroke="#263238" stroke-width="1.18" stroke-miterlimit="10"/>
<path d="M60.1813 415.36H54.2812V420.469H60.1813V415.36Z" fill="#263238" stroke="#263238" stroke-width="1.18" stroke-miterlimit="10"/>
<path d="M81.4195 415.36H75.5195V420.469H81.4195V415.36Z" fill="#263238" stroke="#263238" stroke-width="1.18" stroke-miterlimit="10"/>
<path d="M102.662 415.36H96.7617V420.469H102.662V415.36Z" fill="#263238" stroke="#263238" stroke-width="1.18" stroke-miterlimit="10"/>
<path d="M123.9 415.36H118V420.469H123.9V415.36Z" fill="#263238" stroke="#263238" stroke-width="1.18" stroke-miterlimit="10"/>
<path d="M145.142 415.36H139.242V420.469H145.142V415.36Z" fill="#263238" stroke="#263238" stroke-width="1.18" stroke-miterlimit="10"/>
<path d="M166.38 415.36H160.48V420.469H166.38V415.36Z" fill="#263238" stroke="#263238" stroke-width="1.18" stroke-miterlimit="10"/>
<path d="M187.619 415.36H181.719V420.469H187.619V415.36Z" fill="#263238" stroke="#263238" stroke-width="1.18" stroke-miterlimit="10"/>
<path d="M208.861 415.36H202.961V420.469H208.861V415.36Z" fill="#263238" stroke="#263238" stroke-width="1.18" stroke-miterlimit="10"/>
<path d="M230.099 415.36H224.199V420.469H230.099V415.36Z" fill="#263238" stroke="#263238" stroke-width="1.18" stroke-miterlimit="10"/>
<path d="M251.341 415.36H245.441V420.469H251.341V415.36Z" fill="#263238" stroke="#263238" stroke-width="1.18" stroke-miterlimit="10"/>
<path d="M272.58 415.36H266.68V420.469H272.58V415.36Z" fill="#263238" stroke="#263238" stroke-width="1.18" stroke-miterlimit="10"/>
<path d="M293.822 415.36H287.922V420.469H293.822V415.36Z" fill="#263238" stroke="#263238" stroke-width="1.18" stroke-miterlimit="10"/>
<path d="M315.06 415.36H309.16V420.469H315.06V415.36Z" fill="#263238" stroke="#263238" stroke-width="1.18" stroke-miterlimit="10"/>
<path d="M336.302 415.36H330.402V420.469H336.302V415.36Z" fill="#263238" stroke="#263238" stroke-width="1.18" stroke-miterlimit="10"/>
<path d="M357.541 415.36H351.641V420.469H357.541V415.36Z" fill="#263238" stroke="#263238" stroke-width="1.18" stroke-miterlimit="10"/>
<path d="M378.779 415.36H372.879V420.469H378.779V415.36Z" fill="#263238" stroke="#263238" stroke-width="1.18" stroke-miterlimit="10"/>
<path d="M400.021 415.36H394.121V420.469H400.021V415.36Z" fill="#263238" stroke="#263238" stroke-width="1.18" stroke-miterlimit="10"/>
<path d="M421.259 415.36H415.359V420.469H421.259V415.36Z" fill="#263238" stroke="#263238" stroke-width="1.18" stroke-miterlimit="10"/>
<path d="M442.502 415.36H436.602V420.469H442.502V415.36Z" fill="#263238" stroke="#263238" stroke-width="1.18" stroke-miterlimit="10"/>
<path d="M463.74 415.36H457.84V420.469H463.74V415.36Z" fill="#263238" stroke="#263238" stroke-width="1.18" stroke-miterlimit="10"/>
<path d="M484.982 415.36H479.082V420.469H484.982V415.36Z" fill="#263238" stroke="#263238" stroke-width="1.18" stroke-miterlimit="10"/>
<path d="M506.22 415.36H500.32V420.469H506.22V415.36Z" fill="#263238" stroke="#263238" stroke-width="1.18" stroke-miterlimit="10"/>
<path d="M527.459 415.36H521.559V420.469H527.459V415.36Z" fill="#263238" stroke="#263238" stroke-width="1.18" stroke-miterlimit="10"/>
<path d="M548.701 415.36H542.801V420.469H548.701V415.36Z" fill="#263238" stroke="#263238" stroke-width="1.18" stroke-miterlimit="10"/>
<path d="M573.48 411.415H12.9805V414.955H573.48V411.415Z" fill="white" stroke="#263238" stroke-width="1.18" stroke-miterlimit="10"/>
<path d="M359.37 251.423C359.37 251.423 424.417 257.859 457.386 298.182C457.386 298.182 492.216 251.469 554.777 252.426C572.931 230.546 583.851 202.446 583.862 171.794C583.887 101.967 527.3 45.3412 457.473 45.3164C387.647 45.2916 331.02 101.879 330.996 171.705C330.985 201.974 341.618 229.759 359.35 251.531L359.37 251.423Z" fill="#37AFD4"/>
<path opacity="0.5" d="M359.37 251.423C359.37 251.423 424.417 257.859 457.386 298.182C457.386 298.182 492.216 251.469 554.777 252.426C572.931 230.546 583.851 202.446 583.862 171.794C583.887 101.967 527.3 45.3412 457.473 45.3164C387.647 45.2916 331.02 101.879 330.996 171.705C330.985 201.974 341.618 229.759 359.35 251.531L359.37 251.423Z" fill="white"/>
<path d="M455.231 54.2305L453.035 551.534H464.015L455.231 54.2305Z" fill="#1D6D86"/>
<path d="M458.524 285.892C458.524 285.892 480.482 246.367 520.007 234.291C520.007 234.291 478.287 244.172 457.426 278.207L458.524 285.892Z" fill="#1D6D86"/>
<path d="M458.524 173.904C458.524 173.904 480.482 134.379 520.007 122.302C520.007 122.302 478.287 132.183 457.426 166.219L458.524 173.904Z" fill="#1D6D86"/>
<path d="M458.524 229.899C458.524 229.899 480.482 190.374 520.007 178.297C520.007 178.297 478.287 188.178 457.426 222.213L458.524 229.899Z" fill="#1D6D86"/>
<path d="M455.271 202.445C455.271 202.445 434.083 162.92 395.945 150.843C395.945 150.843 436.202 160.724 456.331 194.76L455.271 202.445Z" fill="#1D6D86"/>
<path d="M455.271 257.343C455.271 257.343 434.083 217.818 395.945 205.74C395.945 205.74 436.202 215.622 456.331 249.656L455.271 257.343Z" fill="#1D6D86"/>
<path d="M493.241 549.178H424.801V569.238H493.241V549.178Z" fill="#1D6D86"/>
<path d="M148.957 568.147C148.957 570.996 128.162 573.308 102.51 573.308C76.8576 573.308 56.0625 570.998 56.0625 568.147C56.0625 565.297 76.8576 562.985 102.51 562.985C128.162 562.985 148.957 565.296 148.957 568.147Z" fill="#263238"/>
<path d="M112.055 333.114C112.055 333.114 110.987 340.325 109.385 342.461C107.783 344.598 104.578 346.2 104.578 346.2L101.641 335.786L112.055 333.114Z" fill="white" stroke="#263238" stroke-width="1.18" stroke-miterlimit="10"/>
<path d="M115.657 362.3L128.643 355.332L143.212 360.4L167.601 348.048C167.601 348.048 148.597 395.557 147.013 400.941C145.43 406.326 145.43 409.177 145.43 409.177L121.991 404.108L111.223 406.959L107.422 366.102L115.657 362.3Z" fill="white"/>
<path d="M119.223 367.341L126.947 362.449L138.275 369.144C138.275 369.144 149.86 368.371 154.495 362.449C159.129 356.528 160.159 352.15 160.159 352.15" stroke="#37AFD4" stroke-width="1.18" stroke-miterlimit="10"/>
<path d="M145.741 368.108C145.741 368.108 144.711 378.922 151.663 387.161" stroke="#37AFD4" stroke-width="1.18" stroke-miterlimit="10"/>
<path d="M131.324 365.536L131.581 384.073L139.048 407.502" stroke="#37AFD4" stroke-width="1.18" stroke-miterlimit="10"/>
<path d="M146.256 377.124L133.125 389.225" stroke="#37AFD4" stroke-width="1.18" stroke-miterlimit="10"/>
<path d="M131.58 378.922L121.539 381.754" stroke="#37AFD4" stroke-width="1.18" stroke-miterlimit="10"/>
<path d="M143.213 360.401L121.992 404.11" stroke="#263238" stroke-width="1.18" stroke-miterlimit="10"/>
<path d="M128.643 355.331L111.223 408.225" stroke="#263238" stroke-width="1.18" stroke-miterlimit="10"/>
<path d="M115.657 362.3L128.643 355.332L143.212 360.4L167.601 348.048C167.601 348.048 148.597 395.557 147.013 400.941C145.43 406.326 145.43 409.177 145.43 409.177L121.991 404.108L111.223 406.959L107.422 366.102L115.657 362.3Z" stroke="#263238" stroke-width="1.18" stroke-miterlimit="10"/>
<path d="M73.9593 496.413C73.9593 496.413 74.5576 500.401 73.7599 501.997C72.9622 503.592 68.9738 514.36 68.9738 522.535C68.9738 530.71 66.5808 561.817 66.3813 563.013C66.1819 564.21 65.1848 566.603 66.7802 567.6C68.3755 568.597 76.9494 567.201 76.9494 567.201C76.9494 567.201 85.5233 566.204 86.5204 565.606C87.5175 565.008 85.1245 563.412 84.3268 563.013C83.5291 562.615 78.3454 558.826 77.5477 557.43C76.75 556.034 76.5506 556.233 76.5506 554.239C76.5506 552.245 81.3367 532.106 84.1274 524.33C86.9192 516.553 89.7099 507.38 90.1088 503.792C90.5076 500.202 90.5076 497.611 90.5076 497.611L73.9593 496.413Z" fill="white" stroke="#263238" stroke-width="1.18" stroke-miterlimit="10"/>
<path d="M90.5088 497.61L73.9581 496.413C73.9581 496.413 74.5564 500.401 73.7587 501.997C73.4566 502.601 72.6955 504.528 71.8672 507.127C79.2764 506.886 86.295 505.083 90.0911 503.93C90.097 503.886 90.1053 503.833 90.11 503.792C90.5088 500.202 90.5088 497.61 90.5088 497.61Z" fill="#263238" stroke="#263238" stroke-width="1.18" stroke-miterlimit="10"/>
<path d="M84.3268 563.013C83.5291 562.614 78.3454 558.825 77.5477 557.429C77.4875 557.324 77.432 557.231 77.3789 557.144C77.1866 557.604 76.7842 558.312 75.9523 559.024C74.7346 560.069 69.2664 559.594 66.7011 559.456C66.5371 561.478 66.4191 562.785 66.3813 563.013C66.1819 564.209 65.1848 566.602 66.7802 567.6C68.3755 568.597 76.9494 567.201 76.9494 567.201C76.9494 567.201 85.5233 566.204 86.5204 565.605C87.5163 565.006 85.1245 563.412 84.3268 563.013Z" fill="#37AFD4" stroke="#263238" stroke-width="1.18" stroke-miterlimit="10"/>
<path d="M65.8934 565.607C65.865 566.396 66.0503 567.141 66.7772 567.595C68.3725 568.592 76.9464 567.196 76.9464 567.196C76.9464 567.196 85.5203 566.199 86.5174 565.601C86.9717 565.328 86.7204 564.85 86.2401 564.371C83.7444 564.933 79.4114 565.747 74.354 565.999C69.6174 566.237 67.1312 565.911 65.8934 565.607Z" fill="white" stroke="#263238" stroke-width="1.18" stroke-miterlimit="10"/>
<path d="M103.469 499.603C103.469 499.603 102.871 504.19 102.472 505.784C102.073 507.38 99.2812 517.15 99.2812 523.53C99.2812 529.912 102.871 543.071 102.871 547.658C102.871 552.244 102.671 566.002 102.671 567.199C102.671 568.395 104.067 568.794 105.264 568.993C106.46 569.193 118.823 568.595 121.416 568.395C124.008 568.196 128.394 567.199 127.797 566.002C127.199 564.806 123.21 565.204 120.619 563.41C118.027 561.615 113.242 558.025 113.242 558.025C113.242 558.025 112.843 554.436 112.843 552.84C112.843 551.245 114.04 532.302 116.433 524.724C118.826 517.148 119.025 506.38 119.224 503.987C119.424 501.594 120.022 496.211 120.022 496.211L103.469 499.603Z" fill="white" stroke="#263238" stroke-width="1.18" stroke-miterlimit="10"/>
<path d="M120.018 496.211L103.467 499.601C103.467 499.601 102.869 504.188 102.47 505.782C102.401 506.059 102.257 506.595 102.07 507.304C109.185 507.361 115.253 505.566 119.222 503.974C119.422 501.575 120.018 496.211 120.018 496.211Z" fill="#263238" stroke="#263238" stroke-width="1.18" stroke-miterlimit="10"/>
<path d="M120.617 563.416C118.025 561.621 113.24 558.031 113.24 558.031C113.24 558.031 112.841 558.63 112.841 560.225C112.841 561.82 112.841 561.82 112.841 561.82L102.727 562.335C102.697 564.863 102.672 566.789 102.672 567.205C102.672 568.401 104.068 568.8 105.264 568.999C106.461 569.199 118.824 568.601 121.416 568.401C124.009 568.202 128.396 567.205 127.798 566.008C127.197 564.81 123.209 565.209 120.617 563.416Z" fill="#37AFD4" stroke="#263238" stroke-width="1.18" stroke-miterlimit="10"/>
<path d="M127.796 566.006C127.717 565.849 127.578 565.72 127.393 565.609C119.482 567.254 106.859 566.999 102.674 566.858C102.673 567.008 102.672 567.133 102.672 567.202C102.672 568.399 104.068 568.798 105.264 568.997C106.461 569.197 118.824 568.598 121.416 568.399C124.007 568.199 128.395 567.202 127.796 566.006Z" fill="white" stroke="#263238" stroke-width="1.18" stroke-miterlimit="10"/>
<path d="M71.4629 357.943C71.4629 357.943 66.6555 357.676 66.6555 366.488C66.6555 375.301 70.6617 385.717 72.7975 391.057C74.9344 396.398 77.0702 402.541 77.0702 402.541C77.0702 402.541 66.121 434.587 64.2519 445.803C62.3828 457.019 60.2458 481.856 59.7124 484.526C59.1779 487.197 58.6445 491.737 58.6445 491.737C58.6445 491.737 63.9852 498.68 81.6109 500.016C99.2365 501.352 109.919 500.551 117.129 499.481C124.34 498.414 132.618 495.209 132.618 495.209C132.618 495.209 133.152 455.15 127.81 439.928C122.47 424.706 119.531 410.552 119.531 410.552C119.531 410.552 116.861 393.193 116.594 381.71C116.328 370.227 113.924 361.949 110.719 358.744C107.514 355.539 100.037 355.273 97.9008 355.005C95.7638 354.738 74.1332 355.806 74.1332 355.806L72.5308 357.675L71.4629 357.943Z" fill="#37AFD4" stroke="#263238" stroke-width="1.18" stroke-miterlimit="10"/>
<path d="M106.676 390.443C107.911 390.2 109.218 389.901 110.59 389.531" stroke="#263238" stroke-width="1.18" stroke-miterlimit="10"/>
<path d="M92.8516 391.008C92.8516 391.008 97.2364 391.967 104.683 390.794" stroke="#263238" stroke-width="1.18" stroke-miterlimit="10"/>
<path d="M99.7305 397.111C102.691 397.127 106.886 396.698 111.431 394.813" stroke="#263238" stroke-width="1.18" stroke-miterlimit="10"/>
<path d="M95.3867 396.713C95.3867 396.713 96.2328 396.906 97.6877 397.023" stroke="#263238" stroke-width="1.18" stroke-miterlimit="10"/>
<path d="M108.826 403.498C106.22 404.253 102.41 404.911 98.3438 404.097" stroke="#263238" stroke-width="1.18" stroke-miterlimit="10"/>
<path d="M112.277 402.198C112.277 402.198 111.548 402.575 110.301 403.022" stroke="#263238" stroke-width="1.18" stroke-miterlimit="10"/>
<path d="M110.72 358.744C107.515 355.539 100.037 355.273 97.9015 355.005C95.7645 354.738 74.1339 355.806 74.1339 355.806L72.5315 357.675L71.4636 357.942C71.4636 357.942 66.6562 357.675 66.6562 366.487C66.6562 370.707 67.5778 375.29 68.7696 379.512C72.8418 382.357 80.7466 386.421 92.0263 385.715C102.918 385.034 111.634 381.97 116.529 379.834C116.056 369.33 113.747 361.772 110.72 358.744Z" fill="white" stroke="#263238" stroke-width="1.18" stroke-miterlimit="10"/>
<path d="M78.6721 334.975C78.6721 334.975 77.3363 339.515 73.0636 344.589C68.7908 349.663 66.6538 351.265 67.455 355.538C68.2562 359.811 74.3981 363.817 74.3981 363.817L76.2673 357.942C76.2673 357.942 74.3981 366.221 78.6709 370.493C82.9437 374.766 87.4832 377.17 87.4832 377.17C87.4832 377.17 86.6819 371.829 89.6201 368.624C92.5583 365.419 94.9608 361.948 94.9608 361.948L94.6941 367.556C94.6941 367.556 100.836 364.618 104.842 360.079C108.848 355.539 107.78 346.459 106.979 342.72C106.178 338.982 105.643 333.64 105.643 333.64C105.643 333.64 84.2795 335.777 78.6721 334.975Z" fill="#263238"/>
<path d="M68.5234 330.972C68.5234 330.972 73.3308 339.25 93.6268 338.716C113.923 338.181 121.935 328.301 124.337 325.096C126.741 321.891 128.61 317.885 128.61 317.885L112.32 314.147C112.32 314.147 108.582 302.13 105.911 299.993C103.24 297.856 92.5577 296.788 87.217 298.657C81.8763 300.526 81.6085 306.936 81.6085 308.805C81.6085 310.674 79.7393 320.556 79.7393 320.556L68.5234 330.972Z" fill="white" stroke="#263238" stroke-width="1.18" stroke-miterlimit="10"/>
<path d="M112.323 314.149C112.323 314.149 112.282 314.018 112.209 313.789C110.869 316.009 107.416 319.992 99.1662 322.274C90.0223 324.806 82.7382 321.307 79.9203 319.603C79.8106 320.198 79.7422 320.558 79.7422 320.558L78.4961 321.714C80.8242 323.163 85.8746 325.717 92.5817 325.717C94.8297 325.717 97.264 325.43 99.8423 324.716C109.282 322.104 113.154 317.283 114.615 314.674L112.323 314.149Z" fill="#263238"/>
<path d="M106.449 356.883C106.449 356.883 114.728 353.411 118.466 360.889C122.205 368.367 124.075 395.606 124.075 395.606C124.075 395.606 136.092 389.196 140.633 387.06C145.172 384.923 148.377 381.452 148.377 381.452L151.849 373.707L155.587 370.502L157.189 368.099C157.189 368.099 159.058 367.832 157.724 369.968C156.388 372.105 155.855 373.439 155.855 373.439L161.73 369.701C161.73 369.701 163.867 371.304 162.531 372.105C161.195 372.906 160.929 373.707 160.394 374.509C159.86 375.31 160.127 380.918 158.525 381.72C156.923 382.521 155.855 383.855 153.986 384.658C152.116 385.459 151.315 385.993 151.315 385.993C151.315 385.993 131.553 404.955 127.28 407.357C123.007 409.761 119.802 411.897 117.666 411.63C115.529 411.363 111.257 389.732 110.455 381.987C109.654 374.243 107.517 372.641 107.517 372.641" fill="white"/>
<path d="M106.449 356.883C106.449 356.883 114.728 353.411 118.466 360.889C122.205 368.367 124.075 395.606 124.075 395.606C124.075 395.606 136.092 389.196 140.633 387.06C145.172 384.923 148.377 381.452 148.377 381.452L151.849 373.707L155.587 370.502L157.189 368.099C157.189 368.099 159.058 367.832 157.724 369.968C156.388 372.105 155.855 373.439 155.855 373.439L161.73 369.701C161.73 369.701 163.867 371.304 162.531 372.105C161.195 372.906 160.929 373.707 160.394 374.509C159.86 375.31 160.127 380.918 158.525 381.72C156.923 382.521 155.855 383.855 153.986 384.658C152.116 385.459 151.315 385.993 151.315 385.993C151.315 385.993 131.553 404.955 127.28 407.357C123.007 409.761 119.802 411.897 117.666 411.63C115.529 411.363 111.257 389.732 110.455 381.987C109.654 374.243 107.517 372.641 107.517 372.641" stroke="#263238" stroke-width="1.18" stroke-miterlimit="10"/>
<path d="M76.0349 396.95C68.064 379.014 71.1828 355.178 71.3197 354.173L73.8307 354.514C73.7977 354.753 70.6766 378.652 78.3513 395.921L76.0349 396.95Z" fill="#6E6E6E" stroke="#263238" stroke-width="1.18" stroke-miterlimit="10"/>
<path d="M82.1675 394.907C82.315 394.618 96.5706 366.631 109.521 356.188C108.509 355.632 106.769 356.488 105.574 356.169C92.5574 367.666 79.9349 392.31 79.3438 393.472L82.1675 394.907Z" fill="#6E6E6E" stroke="#263238" stroke-width="1.18" stroke-miterlimit="10"/>
<path d="M88.0229 390.531C88.0229 390.531 77.8749 391.867 72.8009 391.066C67.7269 390.265 64.5221 395.873 63.9887 402.282C63.4542 408.691 66.9257 424.981 69.3294 428.987C71.733 432.994 80.2786 434.863 90.1599 434.328C100.041 433.794 103.779 430.322 104.314 425.783C104.849 421.243 96.0351 403.884 93.6315 399.077C91.2266 394.271 90.6933 391.332 88.0229 390.531Z" fill="#6E6E6E" stroke="#263238" stroke-width="1.18" stroke-miterlimit="10"/>
<path d="M66.6523 418.942C66.6523 418.942 67.1822 427.104 67.6247 427.731C68.066 428.358 69.3038 429.667 72.6621 429.049C76.0204 428.43 76.7272 428.2 76.2847 425.439C75.8434 422.679 74.871 418.491 74.871 418.491C74.871 418.491 72.3081 420.465 66.6523 418.942Z" fill="#6E6E6E" stroke="#263238" stroke-width="1.18" stroke-miterlimit="10"/>
<path d="M72.9277 412.593C72.9277 412.593 68.1557 411.764 66.7421 411.664C65.3285 411.563 66.0353 413.69 66.2123 415.625C66.3893 417.56 65.6825 419.25 68.6867 420.15C71.691 421.05 75.0493 420.32 74.9608 419.072C74.8723 417.823 73.6357 413.709 73.6357 413.26C73.6357 412.812 73.4575 412.672 72.9277 412.593Z" fill="#6E6E6E" stroke="#263238" stroke-width="1.18" stroke-miterlimit="10"/>
<path d="M69.3044 415.643L68.332 417.292C68.332 417.292 69.4814 421.281 70.0997 423.283C70.718 425.284 71.072 429.827 71.072 429.827L71.9558 429.96C71.9558 429.96 72.1328 425.609 71.8673 423.323C71.6018 421.039 71.6018 417.221 71.6018 417.221L69.3044 415.643Z" fill="#6E6E6E" stroke="#263238" stroke-width="1.18" stroke-miterlimit="10"/>
<path d="M89.8936 391.866C89.8936 391.866 85.0863 391.331 84.8196 396.405C84.5529 401.479 87.7578 411.361 79.7456 413.23C71.7346 415.099 65.8594 407.889 65.8594 399.342" stroke="#263238" stroke-width="1.18" stroke-miterlimit="10"/>
<path d="M72.5312 408.159C72.5312 408.159 75.4683 420.177 75.7361 425.251C76.0028 430.325 76.2707 431.66 76.2707 431.66L78.4076 433.796L80.5446 431.393C80.5446 431.393 80.1399 425.767 79.7434 420.978C79.3068 415.699 78.9422 407.358 78.9422 407.358L74.6694 402.018L72.5312 408.159Z" fill="#6E6E6E" stroke="#263238" stroke-width="1.18" stroke-miterlimit="10"/>
<path d="M74.6875 416.751L79.4382 416.62L79.5703 417.939H74.6875V416.751Z" fill="white" stroke="#263238" stroke-width="1.18" stroke-miterlimit="10"/>
<path d="M82.0781 421.239C82.0781 421.239 82.8699 430.739 83.5295 431.399C84.1891 432.058 86.037 433.378 91.0508 432.058C96.0647 430.739 97.1208 430.343 96.4611 427.175C95.8015 424.008 94.3501 419.259 94.3501 419.259C94.3501 419.259 90.5234 422.031 82.0781 421.239Z" fill="#6E6E6E" stroke="#263238" stroke-width="1.18" stroke-miterlimit="10"/>
<path d="M91.447 412.661C91.447 412.661 84.3222 412.529 82.2112 412.661C80.1002 412.793 81.1551 415.169 81.4194 417.412C81.6837 419.655 80.6276 421.766 85.114 422.294C89.6003 422.821 94.6142 421.37 94.482 419.918C94.3498 418.467 92.5031 413.848 92.5031 413.321C92.502 412.793 92.2388 412.661 91.447 412.661Z" fill="#6E6E6E" stroke="#263238" stroke-width="1.18" stroke-miterlimit="10"/>
<path d="M86.0373 416.88L84.5859 418.991C84.5859 418.991 86.3017 423.477 87.2244 425.72C88.1484 427.964 88.6758 433.242 88.6758 433.242H89.9951C89.9951 433.242 90.2594 428.096 89.8629 425.456C89.4664 422.818 89.4664 418.331 89.4664 418.331L86.0373 416.88Z" fill="#6E6E6E" stroke="#263238" stroke-width="1.18" stroke-miterlimit="10"/>
<path d="M92.3697 398.543C92.3697 398.543 89.5991 393.662 88.4108 394.057C87.2238 394.452 87.2238 395.244 88.1465 398.543C89.0705 401.843 99.0981 424.802 100.022 427.573C100.946 430.343 102.001 429.024 102.661 427.176C103.32 425.329 103.32 424.801 103.32 424.801" stroke="#263238" stroke-width="1.18" stroke-miterlimit="10"/>
</svg>
