<svg width="641" height="432" viewBox="0 0 641 432" fill="none" xmlns="http://www.w3.org/2000/svg">
<path fill-rule="evenodd" clip-rule="evenodd" d="M28.6408 266.451C65.8054 279.844 85.1762 277.13 99.1934 269.241C122.82 255.941 143.379 237.997 111.517 217.951C98.6008 209.825 79.9555 203.807 60.9278 203.807C18.5666 203.807 -32.8556 244.291 28.6408 266.451ZM507.229 184.162C497.382 168.032 497.267 151.968 526.773 140.781C546.837 133.173 606.06 128.12 594.262 162.232C587.628 181.411 601.961 192.6 616.062 198.575C636.425 207.207 661.543 238.769 612.918 229.274C585.682 223.957 522.038 208.419 507.229 184.162ZM18.2019 425.1C1.73438 389.928 32.4844 336.035 76.4859 314.872C161.618 273.926 167.963 246.044 160.822 224.916C143.006 172.191 129.558 139.239 177.342 138.28C278.537 136.247 202.42 97.8368 269.575 65.914C334.157 35.2139 465.012 88.9622 465.012 148.692C465.012 233.418 517.262 225.885 597.657 280.634C691.439 344.499 503.089 377.583 614.524 425.1H18.2019Z" fill="#EDF7FD"/>
<path fill-rule="evenodd" clip-rule="evenodd" d="M288.527 3.4456C344.626 -11.1694 401.959 22.4426 416.579 78.5306C431.207 134.616 397.577 191.931 341.474 206.546C285.375 221.164 228.042 187.549 213.422 131.464C198.792 75.3755 232.423 18.0606 288.527 3.4456Z" fill="#37AFD4"/>
<path d="M257 66.5869C258.219 67.5749 259.268 68.609 260.057 69.7108C260.847 70.8125 261.31 71.9597 261.423 73.1221C261.444 73.3777 261.493 73.8838 261.575 74.3118C261.655 74.759 261.785 75.2261 262.037 75.7528C262.275 76.2629 262.767 76.9179 263.508 77.258C264.239 77.5943 264.9 77.593 265.383 77.5481C266.363 77.4465 267.028 77.2234 267.709 77.0856C268.374 76.9316 269.005 76.8252 269.651 76.7912L270.126 76.7661L270.181 76.7196C270.249 76.6626 270.469 76.5699 270.631 76.5124C270.809 76.4506 270.992 76.3878 271.18 76.3424C271.558 76.2523 271.947 76.2003 272.351 76.1958C272.757 76.1853 273.162 76.2629 273.59 76.3767C274.01 76.5034 274.433 76.6988 274.864 76.9438C274.682 76.4836 274.397 76.0538 274.03 75.6786C273.665 75.2958 273.2 75.0064 272.7 74.7712C272.195 74.5489 271.645 74.4121 271.089 74.3654C270.811 74.3416 270.529 74.3313 270.247 74.3519C269.95 74.3754 269.713 74.3918 269.34 74.4874L269.87 74.4161C269.018 74.2426 268.138 74.221 267.318 74.2772C266.509 74.3356 265.709 74.4744 265.189 74.4863C264.928 74.4892 264.81 74.4499 264.859 74.4565C264.914 74.4723 264.905 74.513 264.813 74.3527C264.729 74.2075 264.649 73.9464 264.569 73.661C264.485 73.3555 264.451 73.1134 264.356 72.6276C263.986 70.8107 262.868 69.2303 261.511 68.2394C260.834 67.7317 260.099 67.3452 259.338 67.0701C258.586 66.7849 257.794 66.6115 257 66.5869Z" fill="#1D6D86"/>
<path d="M302 89.1555C300.641 88.3059 298.758 88.363 297.195 89.0278C295.607 89.696 294.323 90.9044 293.377 92.2308L292.77 93.063C292.578 93.3201 292.373 93.5509 292.213 93.7238C292.068 93.9086 291.873 93.9335 292.182 93.8685C292.339 93.8479 292.539 93.9184 292.565 93.9514C292.596 93.9807 292.533 93.9475 292.444 93.8775C292.055 93.5628 291.446 92.8489 290.659 92.3475C289.869 91.8229 288.841 91.5182 287.924 91.5893L288.346 91.7308C287.922 91.5417 287.591 91.4926 287.204 91.4388C286.827 91.4052 286.442 91.4219 286.07 91.4998C285.698 91.5695 285.343 91.7419 285.056 91.9591C284.763 92.1725 284.554 92.4671 284.418 92.7623C285.025 92.4845 285.6 92.4808 286.082 92.6326C286.326 92.7039 286.555 92.8183 286.769 92.9547C286.973 93.0712 287.217 93.2568 287.324 93.378L287.316 93.3695L287.746 93.5195C288.302 93.7146 288.696 93.9929 289.06 94.3892C289.45 94.7926 289.725 95.2831 290.373 96.0142C290.55 96.199 290.771 96.4078 291.127 96.6151C291.475 96.8231 292.05 96.9871 292.575 96.9155C293.096 96.8548 293.47 96.6502 293.742 96.4746C294.019 96.2914 294.224 96.1092 294.405 95.9339C294.768 95.5846 295.024 95.2367 295.269 94.8992C295.51 94.5703 295.737 94.2004 295.911 93.9042C296.586 92.7755 297.342 91.7437 298.304 90.9041C299.266 90.0738 300.454 89.3829 302 89.1555Z" fill="#1D6D86"/>
<path d="M268.426 64C270.268 65.0687 272.1 66.0894 273.574 67.3427C274.294 67.9587 274.914 68.6721 275.103 69.312C275.147 69.4704 275.173 69.6183 275.176 69.764C275.179 69.8364 275.173 69.9087 275.165 69.981L275.144 70.1817L275.126 70.427C275.113 71.0458 275.096 71.7515 275.556 72.5895C275.792 72.999 276.217 73.3797 276.656 73.5653C277.096 73.7581 277.506 73.809 277.861 73.8175C278.574 73.8177 279.14 73.6908 279.679 73.5619L281.175 73.1614C281.619 73.0466 282.084 72.9634 282.563 72.9103C283.523 72.81 284.53 72.7765 285.525 72.8681C286.523 72.9549 287.533 73.0872 288.448 73.6385C288.182 73.1619 287.737 72.7907 287.275 72.4863C286.808 72.1819 286.299 71.9519 285.784 71.7479C284.742 71.3748 283.653 71.1311 282.523 71.0691C281.957 71.0371 281.378 71.0503 280.796 71.1314C280.235 71.1992 279.715 71.3104 279.226 71.3869C278.743 71.4664 278.272 71.5337 277.937 71.5052C277.771 71.4976 277.655 71.4656 277.616 71.4432C277.576 71.4186 277.597 71.4313 277.567 71.3906C277.498 71.3125 277.42 70.9249 277.435 70.5104L277.436 70.3644L277.446 70.174C277.456 69.9861 277.457 69.796 277.439 69.6088C277.406 69.2323 277.316 68.8653 277.178 68.5348C276.601 67.2028 275.595 66.443 274.639 65.8484C272.671 64.7136 270.571 64.1494 268.426 64Z" fill="#1D6D86"/>
<path fill-rule="evenodd" clip-rule="evenodd" d="M74.5586 425.1H314.741H554.924C475.149 353.52 414.903 264.998 374.998 158.897C372.091 151.164 361.984 138.337 354.367 138.337C348.158 138.337 344.085 141.416 337.876 141.416C331.925 141.416 326.056 139.127 314.741 139.127C303.427 139.127 297.558 143.8 291.607 143.8C285.397 143.8 281.325 143.105 275.115 143.105C267.499 143.105 257.392 151.163 254.484 158.897C214.579 264.999 154.334 353.52 74.5586 425.1Z" fill="#95D5F5"/>
<path fill-rule="evenodd" clip-rule="evenodd" d="M397.563 258.352C391.025 243.752 393.528 292.45 401.782 306.153C412.496 323.941 460.904 363.233 450.068 345.52C436.032 322.575 412.451 291.598 397.563 258.352Z" fill="#60C5F1"/>
<path fill-rule="evenodd" clip-rule="evenodd" d="M334.966 249.912C324.932 222.716 330.79 308.942 338.85 336.787C342.849 350.606 373.114 381.434 369.039 367.637C358.142 330.743 348.188 285.743 334.966 249.912Z" fill="#60C5F1"/>
<path fill-rule="evenodd" clip-rule="evenodd" d="M317.737 139.182C317.737 139.182 261.561 185.989 294.348 270.412C320.163 336.887 283.771 400.887 267.127 425.101H74.5586C154.334 353.521 214.579 265 254.484 158.898C257.392 151.164 267.499 143.105 275.115 143.105C281.325 143.105 285.397 143.801 291.607 143.801C297.558 143.801 303.427 139.128 314.741 139.128C315.784 139.128 316.782 139.147 317.737 139.182Z" fill="#60C5F1"/>
<path fill-rule="evenodd" clip-rule="evenodd" d="M225.433 268.07C212.866 289.26 191.232 316.761 174.333 349.147C165.185 366.678 207.622 327.915 218.166 311.187C225.34 299.804 232.295 256.498 225.433 268.07Z" fill="#00A0E8"/>
<path fill-rule="evenodd" clip-rule="evenodd" d="M392.411 201.216C386.233 187.433 380.425 173.329 374.998 158.897C372.09 151.164 361.983 138.337 354.366 138.337C348.157 138.337 344.084 141.416 337.875 141.416C331.924 141.416 326.055 139.127 314.74 139.127C303.426 139.127 297.558 143.8 291.606 143.8C285.396 143.8 281.324 143.105 275.114 143.105C267.498 143.105 257.392 151.163 254.483 158.897C247.956 176.251 240.882 193.132 233.271 209.547C229.955 226.032 242.618 213.643 248.868 198.836C254.699 185.021 260.815 179.043 259.512 194.543C254.241 257.207 263.362 249.524 278.046 200.061C284.078 179.743 293.557 180.98 295.015 200.105C297.672 234.95 308.774 236.871 315.971 202.07C323.369 166.293 330.963 181.305 338.49 206.509C351.05 248.566 366.675 252.672 358.749 198.694C355.398 175.878 361.997 173.81 370.556 189.374C383.439 212.799 394.896 219.036 392.411 201.216Z" fill="white"/>
<path fill-rule="evenodd" clip-rule="evenodd" d="M317.736 139.182H317.734L317.735 139.181C316.78 139.146 315.784 139.127 314.74 139.127C303.426 139.127 297.557 143.8 291.606 143.8C285.396 143.8 281.324 143.105 275.114 143.105C267.498 143.105 257.391 151.163 254.483 158.897C247.956 176.251 240.881 193.132 233.27 209.548H233.271C229.956 226.032 242.617 213.643 248.867 198.836C254.699 185.021 260.815 179.043 259.511 194.544C254.241 257.207 263.362 249.525 278.046 200.061C281.329 189.003 285.633 184.331 289.109 185.451C298.497 155.224 317.736 139.182 317.736 139.182Z" fill="#D6EDFB"/>
<path fill-rule="evenodd" clip-rule="evenodd" d="M245.966 378.904C249.294 381.286 249.595 384.315 247.486 387.858C247.042 386.914 246.599 385.969 246.155 385.024C245.808 386.022 245.46 387.019 245.112 388.017C242.97 384.392 242.909 381.713 245.966 378.904Z" fill="#FDDF73"/>
<path fill-rule="evenodd" clip-rule="evenodd" d="M161.426 407.765C162.034 405.042 163.856 404.046 166.643 404.425C166.168 404.955 165.693 405.485 165.219 406.015C165.938 405.967 166.657 405.92 167.376 405.872C165.67 408.182 164.005 408.935 161.426 407.765Z" fill="#FDDF73"/>
<path fill-rule="evenodd" clip-rule="evenodd" d="M166.302 369.611C168.551 371.265 168.729 373.333 167.259 375.73C166.965 375.082 166.672 374.434 166.378 373.786C166.132 374.463 165.886 375.141 165.64 375.818C164.211 373.326 164.192 371.499 166.302 369.611Z" fill="#FDDF73"/>
<path fill-rule="evenodd" clip-rule="evenodd" d="M166.001 340.764C168.058 342.65 168.013 344.726 166.295 346.951C166.072 346.275 165.85 345.599 165.627 344.922C165.309 345.57 164.992 346.217 164.674 346.864C163.522 344.233 163.7 342.414 166.001 340.764Z" fill="#FDDF73"/>
<path fill-rule="evenodd" clip-rule="evenodd" d="M194.374 317.976C191.609 318.357 190.038 317.001 189.418 314.259C190.081 314.518 190.744 314.777 191.407 315.036C191.111 314.38 190.814 313.723 190.517 313.066C193.28 313.855 194.568 315.152 194.374 317.976Z" fill="#FDDF73"/>
<path fill-rule="evenodd" clip-rule="evenodd" d="M124.306 375.729C126.817 376.946 127.368 378.948 126.358 381.572C125.951 380.989 125.544 380.404 125.138 379.82C125.019 380.531 124.9 381.242 124.781 381.952C122.924 379.761 122.574 377.968 124.306 375.729Z" fill="#6CB82D"/>
<path fill-rule="evenodd" clip-rule="evenodd" d="M253.482 353.585C249.844 354.089 247.777 352.302 246.961 348.693C247.833 349.035 248.705 349.375 249.578 349.717C249.188 348.852 248.797 347.988 248.408 347.123C252.043 348.162 253.739 349.868 253.482 353.585Z" fill="#FDDF73"/>
<path fill-rule="evenodd" clip-rule="evenodd" d="M266.453 386.174C270.841 387.514 271.547 389.303 271.111 393.1C268.487 392.144 267.363 390.62 266.453 386.174Z" fill="#6CB82D"/>
<path fill-rule="evenodd" clip-rule="evenodd" d="M264.488 353.99C268.876 355.331 269.582 357.12 269.146 360.917C266.522 359.96 265.398 358.436 264.488 353.99Z" fill="#40A437"/>
<path fill-rule="evenodd" clip-rule="evenodd" d="M177.938 326.162C182.325 327.501 183.032 329.292 182.596 333.089C179.971 332.132 178.848 330.608 177.938 326.162Z" fill="#FDDF73"/>
<path fill-rule="evenodd" clip-rule="evenodd" d="M203.721 329.699C201.493 325.69 202.228 323.911 205.178 321.48C206.402 323.99 206.153 325.867 203.721 329.699Z" fill="#FDDF73"/>
<path fill-rule="evenodd" clip-rule="evenodd" d="M160.071 333.428C158.656 329.065 159.72 327.461 163.082 325.643C163.8 328.341 163.195 330.136 160.071 333.428Z" fill="#FDDF73"/>
<path fill-rule="evenodd" clip-rule="evenodd" d="M180.453 387.738C181.014 385.198 181.995 384.718 184.163 384.795C183.739 386.321 182.927 387.024 180.453 387.738Z" fill="#FDDF73"/>
<path fill-rule="evenodd" clip-rule="evenodd" d="M146.57 386.032C143.781 383.608 143.847 382.06 145.412 379.408C147.03 380.972 147.358 382.462 146.57 386.032Z" fill="#40A437"/>
<path fill-rule="evenodd" clip-rule="evenodd" d="M143.104 406.711C143.072 411.298 141.558 412.486 137.793 413.152C137.962 410.364 139.102 408.852 143.104 406.711Z" fill="#6CB82D"/>
<path fill-rule="evenodd" clip-rule="evenodd" d="M119.586 397.521C124.907 399.147 125.763 401.317 125.234 405.92C122.052 404.759 120.689 402.912 119.586 397.521Z" fill="#40A437"/>
<path fill-rule="evenodd" clip-rule="evenodd" d="M239.883 405.874C244.038 403.929 245.762 404.783 247.984 407.892C245.395 408.94 243.539 408.563 239.883 405.874Z" fill="#FDDF73"/>
<path fill-rule="evenodd" clip-rule="evenodd" d="M265.781 408.018C270.17 409.357 270.876 411.147 270.441 414.944C267.816 413.987 266.692 412.464 265.781 408.018Z" fill="#6CB82D"/>
<path fill-rule="evenodd" clip-rule="evenodd" d="M290.613 405.615C294.797 403.731 296.507 404.611 298.685 407.752C296.08 408.762 294.23 408.357 290.613 405.615Z" fill="#FDDF73"/>
<path fill-rule="evenodd" clip-rule="evenodd" d="M296.598 366.227C301.178 366.491 302.287 368.063 302.763 371.855C299.986 371.545 298.534 370.33 296.598 366.227Z" fill="#6CB82D"/>
<path fill-rule="evenodd" clip-rule="evenodd" d="M283.832 385.768C286.724 386.65 287.189 387.829 286.902 390.332C285.173 389.701 284.431 388.697 283.832 385.768Z" fill="#6CB82D"/>
<path fill-rule="evenodd" clip-rule="evenodd" d="M120.578 383.82C123.469 384.703 123.935 385.882 123.648 388.383C121.918 387.753 121.178 386.749 120.578 383.82Z" fill="#6CB82D"/>
<path fill-rule="evenodd" clip-rule="evenodd" d="M439.929 206.931H450.522C457.126 290.75 468.041 371.797 490.849 425.1H473.13C471.941 405.781 459.903 390.599 445.225 390.599C430.547 390.599 418.509 405.781 417.32 425.1H399.602C422.41 371.796 433.324 290.75 439.929 206.931Z" fill="#37AFD4"/>
<path fill-rule="evenodd" clip-rule="evenodd" d="M437.089 206.931H453.363L455.718 242.996H434.734L437.089 206.931Z" fill="#FDE89B"/>
<path fill-rule="evenodd" clip-rule="evenodd" d="M454.72 253.402C456.536 270.949 458.616 288.154 461.032 304.775H429.422C431.838 288.154 433.917 270.949 435.734 253.402H454.72Z" fill="#FDE89B"/>
<path fill-rule="evenodd" clip-rule="evenodd" d="M475.872 341.518L472.066 362.837H418.389L414.582 341.518H475.872Z" fill="#FDE89B"/>
<path fill-rule="evenodd" clip-rule="evenodd" d="M451.191 196.094L451.895 206.931H438.559L439.263 196.094H451.191Z" fill="#37AFD4"/>
<path fill-rule="evenodd" clip-rule="evenodd" d="M448.023 153.258L448.353 196.094H442.098L442.428 153.258H448.023Z" fill="#37AFD4"/>
<path fill-rule="evenodd" clip-rule="evenodd" d="M445.227 206.931H450.523C457.128 290.75 468.042 371.797 490.851 425.1H473.131C471.943 405.781 459.904 390.599 445.227 390.599V206.931Z" fill="#6CC4DF"/>
<path fill-rule="evenodd" clip-rule="evenodd" d="M446.492 119.121L446.64 161.958H443.809L443.958 119.121H446.492Z" fill="#37AFD4"/>
<path fill-rule="evenodd" clip-rule="evenodd" d="M445.227 206.931H453.364L455.718 242.996H445.227V206.931Z" fill="#FEF1C2"/>
<path fill-rule="evenodd" clip-rule="evenodd" d="M454.72 253.402C456.536 270.949 458.616 288.154 461.032 304.774H445.227V253.402H454.72Z" fill="#FEF1C2"/>
<path fill-rule="evenodd" clip-rule="evenodd" d="M475.872 341.518L472.065 362.837H445.227V341.518H475.872Z" fill="#FEF1C2"/>
<path fill-rule="evenodd" clip-rule="evenodd" d="M451.191 196.094L451.895 206.931H445.227V196.094H451.191Z" fill="#89D0E6"/>
<path fill-rule="evenodd" clip-rule="evenodd" d="M448.024 153.258L448.355 196.094H445.227V153.258H448.024Z" fill="#89D0E6"/>
<path d="M153.078 289.998H101.77V312.287H153.078V289.998Z" fill="#68C3DF"/>
<path d="M134.409 292.824H120.441V309.464H134.409V292.824Z" fill="#37AFD4"/>
<path d="M118.354 292.824H104.387V309.464H118.354V292.824Z" fill="#37AFD4"/>
<path d="M150.46 292.824H136.492V309.464H150.46V292.824Z" fill="#37AFD4"/>
<path fill-rule="evenodd" clip-rule="evenodd" d="M99.4796 277.711H155.368C156.725 281.003 169.238 288.732 174.464 284.642C173.222 291.464 165.927 294.111 157.524 294.111H97.3235C88.9203 294.111 81.6253 291.464 80.3828 284.642C85.6091 288.732 98.122 281.003 99.4796 277.711Z" fill="#005D7A"/>
<path d="M153.078 255.422H101.77V277.711H153.078V255.422Z" fill="#68C3DF"/>
<path d="M155.249 294.109H99.6016V296.252H155.249V294.109Z" fill="#FDE89B"/>
<path d="M155.249 307.549H99.6016V309.467H155.249V307.549Z" fill="#FDE89B"/>
<path d="M134.409 258.246H120.441V274.887H134.409V258.246Z" fill="#37AFD4"/>
<path d="M118.354 258.246H104.387V274.887H118.354V258.246Z" fill="#37AFD4"/>
<path d="M150.46 258.246H136.492V274.887H150.46V258.246Z" fill="#37AFD4"/>
<path d="M153.078 359.156H101.77V381.445H153.078V359.156Z" fill="#68C3DF"/>
<path fill-rule="evenodd" clip-rule="evenodd" d="M127.423 259.533H97.3235C88.9203 259.533 81.6253 256.886 80.3828 250.064C90.1784 257.73 118.668 232.266 127.424 217.067C136.18 232.266 164.669 257.73 174.465 250.064C173.222 256.886 165.927 259.533 157.524 259.533H127.423Z" fill="#005D7A"/>
<path fill-rule="evenodd" clip-rule="evenodd" d="M155.248 259.531V261.673H99.6016V259.531H127.425H155.248Z" fill="#FDE89B"/>
<path d="M134.409 361.984H120.441V378.624H134.409V361.984Z" fill="#37AFD4"/>
<path d="M118.354 361.984H104.387V378.624H118.354V361.984Z" fill="#37AFD4"/>
<path d="M150.46 361.984H136.492V378.624H150.46V361.984Z" fill="#37AFD4"/>
<path d="M155.249 272.969H99.6016V274.886H155.249V272.969Z" fill="#FDE89B"/>
<path fill-rule="evenodd" clip-rule="evenodd" d="M99.4796 346.867H155.368C156.725 350.16 169.238 357.889 174.464 353.799C173.222 360.621 165.927 363.267 157.524 363.267H97.3235C88.9203 363.267 81.6253 360.621 80.3828 353.799C85.6091 357.889 98.122 350.16 99.4796 346.867Z" fill="#005D7A"/>
<path d="M153.078 324.576H101.77V346.865H153.078V324.576Z" fill="#68C3DF"/>
<path d="M155.249 363.27H99.6016V365.412H155.249V363.27Z" fill="#FCCF00"/>
<path d="M155.249 376.707H99.6016V378.625H155.249V376.707Z" fill="#FDE89B"/>
<path fill-rule="evenodd" clip-rule="evenodd" d="M99.4796 312.289H155.368C156.725 315.581 169.238 323.311 174.464 319.22C173.222 326.042 165.927 328.689 157.524 328.689H97.3235C88.9203 328.689 81.6253 326.042 80.3828 319.22C85.6091 323.311 98.122 315.581 99.4796 312.289Z" fill="#005D7A"/>
<path d="M134.409 327.404H120.441V344.044H134.409V327.404Z" fill="#37AFD4"/>
<path d="M118.354 327.404H104.387V344.044H118.354V327.404Z" fill="#37AFD4"/>
<path d="M150.46 327.404H136.492V344.044H150.46V327.404Z" fill="#37AFD4"/>
<path d="M155.249 328.689H99.6016V330.831H155.249V328.689Z" fill="#FDE89B"/>
<path d="M159.813 396.961H95.0391V425.099H159.813V396.961Z" fill="#68C3DF"/>
<path d="M136.239 400.527H118.605V421.534H136.239V400.527Z" fill="#37AFD4"/>
<path d="M115.977 400.527H98.3438V421.534H115.977V400.527Z" fill="#37AFD4"/>
<path d="M156.508 400.527H138.875V421.534H156.508V400.527Z" fill="#37AFD4"/>
<path d="M155.249 342.127H99.6016V344.045H155.249V342.127Z" fill="#FDE89B"/>
<path fill-rule="evenodd" clip-rule="evenodd" d="M92.1482 381.447H162.702C164.416 385.603 180.212 395.362 186.811 390.198C185.243 398.81 176.033 402.151 165.425 402.151H89.4255C78.8177 402.151 69.6075 398.81 68.0391 390.198C74.6378 395.362 90.434 385.603 92.1482 381.447Z" fill="#005D7A"/>
<path d="M129.904 201.406H124.941V226.587H129.904V201.406Z" fill="#005D7A"/>
<path d="M128.78 182.86H126.07V208.042H128.78V182.86Z" fill="#005D7A"/>
<path d="M162.547 402.15H92.2969V404.855H162.547V402.15Z" fill="#FDE89B"/>
<path d="M162.547 419.115H92.2969V421.536H162.547V419.115Z" fill="#FDE89B"/>
<path fill-rule="evenodd" clip-rule="evenodd" d="M80.3828 284.643C83.3356 290.668 92.7933 291.55 99.6002 291.545L118.354 291.533V291.522L127.423 291.528L136.493 291.522V291.533L155.247 291.545C162.054 291.55 171.512 290.668 174.464 284.643C173.222 291.465 165.927 294.112 157.524 294.112H97.3235C88.9203 294.112 81.6253 291.465 80.3828 284.643Z" fill="#2BA4C9"/>
<path fill-rule="evenodd" clip-rule="evenodd" d="M80.3828 250.064C83.3356 256.09 92.7933 256.972 99.6002 256.968L118.354 256.956V256.944L127.423 256.95L136.493 256.944V256.956L155.247 256.968C162.054 256.972 171.512 256.09 174.464 250.064C173.222 256.887 165.927 259.534 157.524 259.534H97.3235C88.9203 259.534 81.6253 256.887 80.3828 250.064Z" fill="#2BA4C9"/>
<path fill-rule="evenodd" clip-rule="evenodd" d="M80.3828 319.221C83.3356 325.246 92.7933 326.128 99.6002 326.124L118.354 326.112V326.1L127.423 326.106L136.493 326.1V326.112L155.247 326.124C162.054 326.128 171.512 325.246 174.464 319.221C173.222 326.043 165.927 328.69 157.524 328.69H97.3235C88.9203 328.69 81.6253 326.043 80.3828 319.221Z" fill="#2BA4C9"/>
<path fill-rule="evenodd" clip-rule="evenodd" d="M80.3828 353.799C83.3356 359.824 92.7933 360.706 99.6002 360.701L118.354 360.689V360.678L127.423 360.684L136.493 360.678V360.689L155.247 360.701C162.054 360.706 171.512 359.824 174.464 353.799C173.222 360.621 165.927 363.268 157.524 363.268H97.3235C88.9203 363.268 81.6253 360.621 80.3828 353.799Z" fill="#2BA4C9"/>
<path fill-rule="evenodd" clip-rule="evenodd" d="M68.0312 390.199C71.7602 397.806 83.7019 398.92 92.2956 398.914L115.976 398.9V398.885L127.428 398.892L138.879 398.885V398.9L162.558 398.914C171.153 398.92 183.095 397.806 186.824 390.199C185.255 398.813 176.043 402.155 165.433 402.155H89.4216C78.8114 402.155 69.5996 398.813 68.0312 390.199Z" fill="#2BA4C9"/>
<path d="M302.823 268.939H287.938V289.095H302.823V268.939Z" fill="#2BA4C9"/>
<path fill-rule="evenodd" clip-rule="evenodd" d="M329.288 267.482H339.099L341.485 425.102H326.902L329.288 267.482Z" fill="#2BA4C9"/>
<path fill-rule="evenodd" clip-rule="evenodd" d="M251.655 267.482H261.466L263.852 425.102H249.27L251.655 267.482Z" fill="#2BA4C9"/>
<path fill-rule="evenodd" clip-rule="evenodd" d="M227.22 263.941C249.453 268.953 272.389 270.553 295.375 270.549C318.327 270.546 341.33 268.945 363.531 263.941L367.211 255.119C340.295 264.215 320.538 265.229 295.375 265.124C270.213 265.229 250.455 264.215 223.539 255.119L227.22 263.941Z" fill="#37AFD4"/>
<path fill-rule="evenodd" clip-rule="evenodd" d="M295.377 265.126C323.402 265.242 344.722 263.973 376.697 251.693L381.825 239.584C356.303 250.158 325.84 257.892 295.377 257.892C264.914 257.892 234.452 250.158 208.93 239.584L214.058 251.693C246.033 263.973 267.351 265.242 295.377 265.126Z" fill="#2489A8"/>
<path fill-rule="evenodd" clip-rule="evenodd" d="M340.937 267.896L341.484 275.679H326.902L327.349 269.326C331.894 268.951 336.426 268.479 340.937 267.896Z" fill="#3E3A39"/>
<path fill-rule="evenodd" clip-rule="evenodd" d="M263.405 269.333L263.852 275.681H249.27L249.817 267.902C254.328 268.486 258.86 268.958 263.405 269.333Z" fill="#3E3A39"/>
<path d="M354.137 290.295H236.617V297.948H354.137V290.295Z" fill="#2489A8"/>
<path fill-rule="evenodd" clip-rule="evenodd" d="M266.14 286.444L266.745 282.271H246.379L246.775 285.003C252.996 285.607 259.488 286.087 266.14 286.444Z" fill="#2489A8"/>
<path fill-rule="evenodd" clip-rule="evenodd" d="M343.982 285.003L344.378 282.271H324.012L324.616 286.444C331.269 286.087 337.761 285.607 343.982 285.003Z" fill="#2489A8"/>
<path fill-rule="evenodd" clip-rule="evenodd" d="M247.619 378.717H265.506L267.141 425.099H245.984L247.619 378.717Z" fill="#3E3A39"/>
<path fill-rule="evenodd" clip-rule="evenodd" d="M325.252 378.717H343.139L344.774 425.099H323.617L325.252 378.717Z" fill="#3E3A39"/>
<path fill-rule="evenodd" clip-rule="evenodd" d="M231.539 283.193C268.827 288.553 321.924 288.553 359.212 283.193L357.717 290.297H233.034L231.539 283.193Z" fill="#37AFD4"/>
<path fill-rule="evenodd" clip-rule="evenodd" d="M401.044 358.737C400.507 358.912 399.934 359.006 399.34 359.006C396.293 359.006 393.824 356.538 393.824 353.492C393.824 350.589 396.07 348.208 398.921 347.995C398.807 347.554 398.747 347.092 398.747 346.614C398.747 343.57 401.216 341.101 404.262 341.101C405.682 341.101 406.975 341.637 407.953 342.517C408.559 342.213 409.228 342.015 409.937 341.953C410.734 339.89 412.737 338.426 415.083 338.426C416.792 338.426 418.319 339.203 419.33 340.422C420.615 340.56 421.767 341.139 422.633 342.005C423.522 341.393 424.598 341.034 425.759 341.034C428.805 341.034 431.274 343.504 431.274 346.548C431.274 347.19 431.164 347.806 430.962 348.379C432.765 349.286 434.002 351.152 434.002 353.307C434.002 356.352 431.533 358.82 428.487 358.82C427.597 358.82 426.757 358.61 426.013 358.236C425.029 359.151 423.71 359.71 422.259 359.71C420.477 359.71 418.893 358.864 417.885 357.553C417.069 358.03 416.12 358.304 415.107 358.304C414.077 358.304 413.114 358.021 412.289 357.529C411.304 358.446 409.984 359.006 408.533 359.006C408.246 359.006 407.963 358.984 407.687 358.941C406.787 359.58 405.687 359.955 404.5 359.955C403.191 359.955 401.989 359.499 401.044 358.737Z" fill="#FDDF73"/>
<path fill-rule="evenodd" clip-rule="evenodd" d="M379.497 349.992C380.394 350.368 381.365 350.611 382.387 350.696C387.624 351.132 392.223 347.243 392.659 342.007C393.075 337.015 389.554 332.601 384.685 331.826C384.944 331.084 385.113 330.298 385.181 329.48C385.618 324.244 381.726 319.648 376.49 319.211C374.049 319.008 371.748 319.744 369.942 321.118C368.944 320.507 367.82 320.072 366.612 319.863C365.536 316.201 362.302 313.398 358.269 313.063C355.333 312.818 352.596 313.934 350.682 315.886C348.454 315.94 346.389 316.77 344.778 318.135C343.338 316.955 341.539 316.185 339.544 316.019C334.694 315.615 330.391 318.923 329.436 323.572C329.078 323.469 328.704 323.399 328.319 323.368C325.168 323.105 322.401 325.446 322.139 328.596C322.084 329.259 322.144 329.906 322.304 330.515C320.361 331.299 318.921 333.122 318.735 335.351C318.473 338.5 320.814 341.266 323.965 341.529C324.276 341.555 324.583 341.555 324.884 341.532C326.398 344.111 329.1 345.938 332.306 346.205C333.836 346.333 335.31 346.091 336.643 345.554C338.204 347.268 340.391 348.418 342.884 348.626C345.948 348.881 348.793 347.654 350.714 345.545C352.048 346.48 353.641 347.086 355.382 347.232C357.152 347.379 358.85 347.031 360.338 346.304C361.9 348.02 364.089 349.172 366.583 349.381C367.078 349.422 367.567 349.424 368.047 349.391C369.503 350.616 371.339 351.419 373.38 351.588C375.631 351.776 377.762 351.164 379.497 349.992Z" fill="#FDDF73"/>
<path fill-rule="evenodd" clip-rule="evenodd" d="M327.917 425.099C344.443 420.928 360.329 405.909 344.702 385.716C338.76 378.039 338.111 370.266 341.028 364.148L322.359 348.21L344.323 359.388C348.695 354.797 355.625 351.99 363.812 352.293L364.344 343.621L354.244 333.859L366.806 340.701L382.791 332.357L369.393 343.956L370.013 353.09C372.06 353.534 374.16 354.169 376.295 355.011C402.558 365.357 413.967 334.484 413.967 334.484C413.967 334.484 407.262 374.344 378.335 366.692C363.57 362.786 358.427 366.873 358.736 372.066C359.032 377.029 368.489 383.927 375.964 393.376L387.99 384.62L379.002 397.569C384 405.185 387.005 414.275 383.36 425.099H327.917Z" fill="#008CB8"/>
<path fill-rule="evenodd" clip-rule="evenodd" d="M327.917 425.101C344.443 420.929 360.329 405.91 344.702 385.717C338.76 378.041 338.111 370.268 341.028 364.15L322.359 348.213L344.323 359.39C348.695 354.799 355.625 351.992 363.812 352.295L364.344 343.623L354.244 333.861L366.806 340.703L382.79 332.359L369.394 343.958L370.012 353.092C372.06 353.536 374.16 354.171 376.295 355.013C386.645 359.09 394.686 356.764 400.633 352.45C398.029 357.677 393.125 362.462 383.92 360.795C365.425 357.447 358.712 357.022 352.654 362.337C344.362 369.612 351.097 378.504 362.468 394.853C369.265 404.625 367 416.236 361.624 425.102H327.917V425.101Z" fill="#007CA3"/>
<path fill-rule="evenodd" clip-rule="evenodd" d="M290.277 343.879C291.345 342.804 292.732 342.034 294.31 341.73C294.079 341.133 293.921 340.497 293.843 339.83C293.352 335.573 296.408 331.723 300.666 331.233C302.65 331.004 304.546 331.545 306.054 332.618C306.853 332.095 307.757 331.711 308.738 331.509C309.52 328.495 312.085 326.127 315.364 325.749C317.753 325.474 320.013 326.314 321.624 327.855C323.443 327.841 325.146 328.465 326.497 329.536C327.641 328.537 329.088 327.863 330.71 327.675C334.969 327.185 338.82 330.238 339.311 334.496C339.414 335.393 339.36 336.272 339.17 337.106C341.837 338.083 343.867 340.492 344.215 343.506C344.706 347.763 341.651 351.613 337.392 352.103C336.729 352.18 336.076 352.171 335.444 352.084C335.251 355.327 333.018 358.227 329.707 359.116C328.497 359.441 327.279 359.461 326.13 359.224C325.126 360.826 323.538 362.068 321.568 362.597C319.145 363.248 316.683 362.677 314.833 361.263C313.898 362.207 312.708 362.926 311.332 363.295C309.932 363.67 308.518 363.638 307.217 363.271C306.213 364.875 304.624 366.119 302.652 366.649C302.261 366.754 301.869 366.826 301.479 366.87C300.488 368.066 299.13 368.976 297.516 369.41C295.738 369.887 293.937 369.707 292.374 369.017C291.709 369.449 290.965 369.786 290.157 370.003C286.017 371.115 281.759 368.66 280.646 364.521C279.586 360.574 281.77 356.519 285.566 355.189C285.251 354.631 285 354.025 284.826 353.377C283.718 349.249 286.157 345.005 290.277 343.879Z" fill="#FDE691"/>
<path fill-rule="evenodd" clip-rule="evenodd" d="M290.28 343.879C291.347 342.804 292.734 342.034 294.312 341.73C294.082 341.133 293.923 340.497 293.846 339.83C293.355 335.573 296.41 331.723 300.669 331.233C302.653 331.004 304.548 331.545 306.057 332.618C306.855 332.095 307.759 331.711 308.74 331.509C309.522 328.495 312.087 326.127 315.367 325.749C317.755 325.474 320.015 326.314 321.627 327.855C323.445 327.842 325.149 328.465 326.499 329.536C327.643 328.537 329.09 327.863 330.713 327.675C332.703 327.446 334.605 327.991 336.116 329.072C336.159 329.287 336.195 329.505 336.221 329.726C336.323 330.623 336.269 331.502 336.08 332.336C337.34 332.797 338.458 333.58 339.323 334.593C339.413 335.457 339.355 336.302 339.172 337.106C339.833 337.348 340.454 337.678 341.021 338.083C341.064 338.298 341.099 338.515 341.124 338.736C341.615 342.993 338.561 346.842 334.302 347.333C333.639 347.41 332.986 347.4 332.354 347.314C332.16 350.557 329.927 353.457 326.616 354.346C325.407 354.67 324.188 354.69 323.04 354.454C322.036 356.056 320.447 357.298 318.476 357.826C316.054 358.477 313.592 357.906 311.743 356.492C310.808 357.437 309.618 358.155 308.242 358.524C306.842 358.9 305.428 358.868 304.127 358.501C303.124 360.105 301.534 361.349 299.561 361.878C299.17 361.983 298.778 362.056 298.387 362.099C297.397 363.295 296.04 364.206 294.426 364.639C292.648 365.116 290.847 364.936 289.284 364.246C288.618 364.679 287.874 365.016 287.066 365.232C284.734 365.859 282.363 365.353 280.539 364.051C279.766 360.256 281.924 356.466 285.569 355.188C285.254 354.63 285.003 354.024 284.829 353.376C283.72 349.249 286.159 345.005 290.28 343.879Z" fill="#FEF1C2"/>
<path fill-rule="evenodd" clip-rule="evenodd" d="M440.332 324.855C438.999 323.634 437.304 322.795 435.407 322.523C435.648 321.798 435.801 321.031 435.855 320.232C435.895 319.648 435.878 319.072 435.812 318.511C435.87 317.622 435.818 316.712 435.647 315.797C434.592 310.179 429.384 306.389 423.792 307.008C423.852 306.115 423.801 305.198 423.628 304.278C422.526 298.402 416.879 294.528 411.003 295.603C409.006 294.895 406.791 294.763 404.619 295.336C404.547 294.443 404.361 293.544 404.055 292.658C402.095 286.994 395.913 283.989 390.246 285.949C387.606 286.861 385.544 288.691 384.293 290.957C382.97 290.78 381.596 290.844 380.238 291.183C377.427 287.857 372.758 286.423 368.395 287.931C365.216 289.03 362.876 291.457 361.779 294.376C359.478 295.459 357.707 297.278 356.654 299.444C354.607 298.878 352.375 298.903 350.216 299.649C344.549 301.609 341.545 307.788 343.505 313.454C343.917 314.647 344.519 315.722 345.262 316.658C342.493 319.504 341.392 323.772 342.779 327.781C344.739 333.444 350.921 336.449 356.587 334.49C357.469 334.185 358.287 333.778 359.032 333.286C361.239 337.257 365.811 339.562 370.524 338.678C372.244 338.356 373.794 337.643 375.098 336.65C377.334 338.062 380.089 338.666 382.894 338.14C383.796 337.971 384.649 337.695 385.446 337.327C385.969 337.319 386.482 337.267 386.982 337.174C387.395 341.027 390.219 344.357 394.214 345.229C395.673 345.547 397.126 345.503 398.481 345.156C399.768 347.008 401.73 348.399 404.108 348.918C407.031 349.556 409.932 348.738 412.056 346.949C413.223 348.022 414.681 348.81 416.342 349.173C418.032 349.542 419.714 349.424 421.243 348.914C422.529 350.769 424.493 352.161 426.873 352.68C427.344 352.783 427.815 352.848 428.283 352.877C429.53 354.246 431.199 355.255 433.146 355.68C435.292 356.15 437.426 355.832 439.25 354.922C440.068 355.4 440.973 355.76 441.948 355.973C446.944 357.064 451.879 353.9 452.969 348.907C454.011 344.144 451.18 339.436 446.582 338.064C446.926 337.382 447.191 336.646 447.362 335.865C448.45 330.883 445.304 325.964 440.332 324.855Z" fill="#FDE691"/>
<path fill-rule="evenodd" clip-rule="evenodd" d="M440.339 324.855C439.006 323.634 437.311 322.795 435.414 322.523C435.655 321.798 435.808 321.031 435.862 320.232C435.901 319.648 435.885 319.072 435.819 318.511C435.877 317.622 435.825 316.712 435.654 315.797C434.599 310.179 429.391 306.389 423.799 307.008C423.859 306.115 423.808 305.198 423.635 304.278C422.532 298.402 416.886 294.528 411.01 295.603C409.013 294.895 406.798 294.763 404.625 295.336C404.554 294.443 404.368 293.544 404.062 292.658C402.102 286.994 395.92 283.989 390.253 285.949C387.612 286.861 385.551 288.691 384.3 290.957C382.976 290.78 381.603 290.844 380.245 291.183C378.04 288.574 374.693 287.13 371.247 287.355C371.008 287.797 370.799 288.253 370.622 288.722C368.322 289.805 366.552 291.624 365.498 293.791C364.439 293.497 363.329 293.363 362.206 293.404C362.05 293.721 361.91 294.045 361.786 294.376C359.485 295.459 357.714 297.278 356.661 299.444C355.507 299.125 354.294 298.993 353.068 299.074C351.664 301.658 351.311 304.802 352.348 307.799C352.761 308.994 353.362 310.069 354.106 311.004C351.335 313.851 350.236 318.118 351.623 322.126C353.582 327.792 359.764 330.795 365.43 328.836C366.312 328.531 367.13 328.124 367.875 327.632C370.082 331.603 374.654 333.908 379.367 333.025C381.088 332.701 382.637 331.99 383.941 330.995C386.178 332.408 388.932 333.012 391.737 332.486C392.639 332.317 393.493 332.041 394.29 331.673C394.812 331.665 395.326 331.612 395.826 331.52C396.239 335.372 399.062 338.703 403.057 339.575C404.516 339.893 405.97 339.849 407.324 339.502C408.611 341.354 410.573 342.744 412.951 343.264C415.874 343.903 418.775 343.083 420.899 341.294C422.066 342.368 423.525 343.156 425.185 343.519C426.874 343.888 428.556 343.77 430.085 343.26C431.372 345.114 433.336 346.506 435.715 347.025C436.188 347.129 436.658 347.194 437.126 347.223C438.373 348.591 440.042 349.601 441.989 350.026C444.135 350.495 446.27 350.178 448.094 349.268C448.911 349.746 449.817 350.106 450.791 350.319C451.351 350.44 451.909 350.51 452.462 350.528C452.679 350.013 452.852 349.471 452.975 348.906C454.017 344.143 451.186 339.435 446.588 338.064C446.933 337.381 447.197 336.645 447.368 335.864C448.457 330.883 445.311 325.964 440.339 324.855Z" fill="#FEF1C2"/>
<path fill-rule="evenodd" clip-rule="evenodd" d="M406.236 394.871C406.653 395.148 407.119 395.366 407.627 395.508C410.229 396.239 412.931 394.724 413.663 392.122C414.36 389.641 413.012 387.07 410.629 386.202C410.832 385.853 410.995 385.473 411.109 385.066C411.84 382.465 410.323 379.764 407.721 379.033C406.509 378.692 405.275 378.84 404.229 379.357C403.784 378.951 403.259 378.623 402.669 378.399C402.483 376.445 401.124 374.714 399.12 374.152C397.661 373.741 396.17 374.038 395.013 374.837C393.882 374.647 392.76 374.865 391.812 375.396C391.2 374.661 390.367 374.096 389.375 373.819C386.773 373.087 384.071 374.603 383.34 377.205C383.186 377.753 383.131 378.305 383.167 378.843C381.409 379.185 379.904 380.483 379.387 382.323C378.656 384.924 380.172 387.625 382.774 388.356C383.534 388.57 384.302 388.591 385.028 388.45C385.649 389.468 386.642 390.262 387.88 390.61C389.402 391.038 390.958 390.696 392.134 389.818C392.717 390.42 393.462 390.882 394.327 391.125C395.208 391.372 396.098 391.362 396.921 391.14C397.542 392.159 398.535 392.954 399.775 393.303C400.02 393.372 400.267 393.421 400.513 393.45C401.128 394.212 401.978 394.795 402.992 395.081C404.109 395.395 405.246 395.294 406.236 394.871Z" fill="#FDE691"/>
<path fill-rule="evenodd" clip-rule="evenodd" d="M413.701 391.979C414.31 389.543 412.969 387.052 410.63 386.201C410.833 385.852 410.996 385.472 411.11 385.065C411.842 382.464 410.324 379.763 407.723 379.032C406.511 378.691 405.277 378.838 404.23 379.356C403.785 378.95 403.261 378.621 402.671 378.397C402.485 376.444 401.126 374.713 399.122 374.149C397.663 373.739 396.171 374.037 395.015 374.835C393.884 374.645 392.761 374.864 391.813 375.395C391.201 374.659 390.368 374.095 389.376 373.817C387.908 373.403 386.408 373.707 385.248 374.518C385.122 375.019 385.08 375.523 385.112 376.015C384.559 376.122 384.03 376.325 383.549 376.609C383.468 376.8 383.399 376.998 383.341 377.202C383.187 377.751 383.133 378.303 383.168 378.841C382.492 378.973 381.854 379.245 381.295 379.635C380.656 382.193 382.165 384.81 384.72 385.528C385.48 385.742 386.248 385.763 386.973 385.622C387.594 386.639 388.587 387.434 389.825 387.782C391.347 388.209 392.904 387.867 394.08 386.989C394.663 387.592 395.408 388.054 396.273 388.297C397.152 388.544 398.044 388.534 398.866 388.312C399.487 389.331 400.481 390.126 401.72 390.474C401.965 390.543 402.212 390.592 402.458 390.622C403.073 391.383 403.923 391.968 404.937 392.253C406.055 392.567 407.191 392.466 408.181 392.042C408.597 392.32 409.064 392.537 409.572 392.68C411.041 393.093 412.541 392.789 413.701 391.979Z" fill="#FEF1C2"/>
<path fill-rule="evenodd" clip-rule="evenodd" d="M324.055 373.352C320.327 376.02 319.99 379.413 322.353 383.382C322.85 382.324 323.346 381.265 323.842 380.207C324.232 381.325 324.622 382.442 325.011 383.56C327.411 379.498 327.48 376.497 324.055 373.352Z" fill="#FDDF73"/>
<path fill-rule="evenodd" clip-rule="evenodd" d="M418.666 408.828C417.983 405.777 415.943 404.662 412.821 405.087C413.353 405.681 413.886 406.275 414.417 406.868C413.611 406.815 412.806 406.762 412 406.708C413.911 409.296 415.777 410.139 418.666 408.828Z" fill="#FDDF73"/>
<path fill-rule="evenodd" clip-rule="evenodd" d="M413.299 366C410.78 367.852 410.58 370.169 412.226 372.854C412.556 372.128 412.885 371.402 413.214 370.676C413.489 371.436 413.765 372.195 414.041 372.953C415.641 370.161 415.662 368.115 413.299 366Z" fill="#FDDF73"/>
<path fill-rule="evenodd" clip-rule="evenodd" d="M413.639 330.625C411.334 332.738 411.385 335.063 413.311 337.556C413.559 336.798 413.809 336.041 414.059 335.283C414.414 336.008 414.77 336.734 415.125 337.458C416.416 334.511 416.217 332.474 413.639 330.625Z" fill="#FDDF73"/>
<path fill-rule="evenodd" clip-rule="evenodd" d="M381.853 305.103C384.951 305.531 386.711 304.012 387.406 300.939C386.662 301.23 385.92 301.521 385.178 301.811C385.509 301.075 385.842 300.34 386.173 299.604C383.079 300.488 381.635 301.94 381.853 305.103Z" fill="#FDDF73"/>
<path fill-rule="evenodd" clip-rule="evenodd" d="M445.834 366C443.021 367.365 442.403 369.607 443.535 372.547C443.99 371.893 444.446 371.239 444.902 370.584C445.035 371.381 445.168 372.177 445.302 372.973C447.382 370.519 447.774 368.509 445.834 366Z" fill="#FDDF73"/>
<path fill-rule="evenodd" clip-rule="evenodd" d="M315.641 344.99C319.718 345.553 322.033 343.553 322.947 339.509C321.97 339.892 320.992 340.275 320.015 340.657C320.452 339.689 320.889 338.72 321.326 337.752C317.254 338.916 315.355 340.826 315.641 344.99Z" fill="#FDDF73"/>
<path fill-rule="evenodd" clip-rule="evenodd" d="M301.116 381.494C296.201 382.996 295.41 385 295.898 389.254C298.838 388.181 300.096 386.475 301.116 381.494Z" fill="#FDDF73"/>
<path fill-rule="evenodd" clip-rule="evenodd" d="M303.312 345.443C298.396 346.944 297.605 348.949 298.093 353.203C301.033 352.13 302.292 350.423 303.312 345.443Z" fill="#FDDF73"/>
<path fill-rule="evenodd" clip-rule="evenodd" d="M400.272 314.271C395.357 315.772 394.566 317.777 395.054 322.031C397.994 320.958 399.253 319.251 400.272 314.271Z" fill="#FDDF73"/>
<path fill-rule="evenodd" clip-rule="evenodd" d="M371.382 318.234C373.878 313.743 373.055 311.751 369.75 309.027C368.379 311.84 368.658 313.942 371.382 318.234Z" fill="#FDDF73"/>
<path fill-rule="evenodd" clip-rule="evenodd" d="M420.283 322.409C421.868 317.522 420.677 315.724 416.91 313.688C416.105 316.711 416.783 318.72 420.283 322.409Z" fill="#FDDF73"/>
<path fill-rule="evenodd" clip-rule="evenodd" d="M397.448 383.248C396.82 380.402 395.721 379.864 393.293 379.95C393.767 381.659 394.676 382.448 397.448 383.248Z" fill="#FDDF73"/>
<path fill-rule="evenodd" clip-rule="evenodd" d="M412.459 392.419C415.584 389.705 415.509 387.97 413.756 385C411.944 386.752 411.577 388.42 412.459 392.419Z" fill="#FDDF73"/>
<path fill-rule="evenodd" clip-rule="evenodd" d="M447 403C447.036 408.137 448.732 409.468 452.95 410.214C452.761 407.092 451.484 405.398 447 403Z" fill="#FDDF73"/>
<path fill-rule="evenodd" clip-rule="evenodd" d="M465.627 394.201C459.667 396.021 458.707 398.452 459.299 403.61C462.864 402.31 464.391 400.24 465.627 394.201Z" fill="#FDDF73"/>
<path fill-rule="evenodd" clip-rule="evenodd" d="M330.872 403.563C326.219 401.384 324.287 402.341 321.797 405.823C324.698 406.998 326.777 406.575 330.872 403.563Z" fill="#FDDF73"/>
<path fill-rule="evenodd" clip-rule="evenodd" d="M301.866 405.967C296.951 407.467 296.16 409.473 296.648 413.726C299.588 412.654 300.846 410.947 301.866 405.967Z" fill="#FDDF73"/>
<path fill-rule="evenodd" clip-rule="evenodd" d="M274.042 403.273C269.355 401.161 267.439 402.147 265 405.666C267.917 406.798 269.989 406.345 274.042 403.273Z" fill="#F0999F"/>
<path fill-rule="evenodd" clip-rule="evenodd" d="M267.344 359.15C262.213 359.446 260.97 361.207 260.438 365.455C263.548 365.108 265.174 363.749 267.344 359.15Z" fill="#F0999F"/>
<path fill-rule="evenodd" clip-rule="evenodd" d="M281.642 381.037C278.403 382.026 277.881 383.348 278.203 386.15C280.141 385.443 280.971 384.319 281.642 381.037Z" fill="#F0999F"/>
<path fill-rule="evenodd" clip-rule="evenodd" d="M446.521 386C443.282 386.99 442.76 388.31 443.082 391.113C445.019 390.407 445.849 389.282 446.521 386Z" fill="#FDDF73"/>
<path d="M488.352 319.213H482.707V425.101H488.352V319.213Z" fill="#5A5649"/>
<path d="M485.529 319.213H482.707V425.101H485.529V319.213Z" fill="#231916"/>
<path d="M502.718 324.756H482.707V325.537H502.718V324.756Z" fill="#5A5649"/>
<path d="M502.718 344.754H482.707V345.536H502.718V344.754Z" fill="#5A5649"/>
<path d="M502.718 357.982H482.707V358.764H502.718V357.982Z" fill="#5A5649"/>
<path d="M502.718 377.982H482.707V378.763H502.718V377.982Z" fill="#5A5649"/>
<path fill-rule="evenodd" clip-rule="evenodd" d="M502.723 324.756V345.535C530.262 350.749 551.726 341.168 575.85 340.772L572.735 335.86L576.426 331.99C551.359 323.158 527.214 328.973 502.723 324.756Z" fill="#89D0E6"/>
<path fill-rule="evenodd" clip-rule="evenodd" d="M502.722 324.756C504.525 324.756 505.987 329.407 505.987 335.146C505.987 340.883 504.525 345.535 502.722 345.535C500.919 345.535 499.457 340.883 499.457 335.146C499.457 329.407 500.919 324.756 502.722 324.756Z" fill="#37AFD4"/>
<path fill-rule="evenodd" clip-rule="evenodd" d="M509.359 325.67C509.889 326.079 510.356 326.521 510.604 326.949C511.423 328.363 510.232 331.861 512.168 333.499C514.103 335.136 513.434 335.954 515.146 336.55C516.858 337.145 519.836 337.368 521.549 334.317C523.261 331.266 522.665 331.415 524.377 330.149C525.294 329.472 526.254 328.046 526.708 326.537C520.926 326.468 515.15 326.288 509.359 325.67Z" fill="#37AFD4"/>
<path fill-rule="evenodd" clip-rule="evenodd" d="M517.026 328.441C518.701 328.441 520.059 329.8 520.059 331.474C520.059 333.149 518.701 334.507 517.026 334.507C515.351 334.507 513.992 333.149 513.992 331.474C513.992 329.8 515.351 328.441 517.026 328.441Z" fill="#D6EDFB"/>
<path fill-rule="evenodd" clip-rule="evenodd" d="M516.638 329.664C517.882 329.664 518.889 330.671 518.889 331.914C518.889 333.157 517.882 334.164 516.638 334.164C515.394 334.164 514.387 333.157 514.387 331.914C514.387 330.671 515.394 329.664 516.638 329.664Z" fill="#60C5F1"/>
<path fill-rule="evenodd" clip-rule="evenodd" d="M516.205 330.799C517.019 330.799 517.679 331.459 517.679 332.273C517.679 333.086 517.019 333.746 516.205 333.746C515.391 333.746 514.73 333.086 514.73 332.273C514.731 331.459 515.391 330.799 516.205 330.799Z" fill="#3E3A39"/>
<path fill-rule="evenodd" clip-rule="evenodd" d="M519.67 338.957C522.407 338.602 525.558 336.383 527.881 337.876C529.664 339.021 529.664 343.085 527.881 344.23C525.558 345.722 522.407 343.503 519.67 343.15C519.472 343.124 519.532 338.974 519.67 338.957Z" fill="#37AFD4"/>
<path fill-rule="evenodd" clip-rule="evenodd" d="M530.386 326.57C531.508 327.295 532.25 328.556 532.25 329.99C532.25 332.237 530.428 334.059 528.18 334.059C527.843 334.059 527.516 334.018 527.203 333.941C527.197 331.558 530.183 331.226 530.331 327.545C530.345 327.185 530.325 326.862 530.278 326.57H530.386Z" fill="#37AFD4"/>
<path fill-rule="evenodd" clip-rule="evenodd" d="M528.181 334.062C530.428 334.062 532.251 335.884 532.251 338.131C532.251 338.748 532.114 339.332 531.868 339.857C531.249 336.673 527.473 336.044 527.219 334.177C527.527 334.102 527.85 334.062 528.181 334.062Z" fill="#37AFD4"/>
<path fill-rule="evenodd" clip-rule="evenodd" d="M531.273 343.619C531.884 344.331 532.253 345.255 532.253 346.266C532.253 346.295 532.253 346.324 532.252 346.354C530.742 346.517 529.221 346.659 527.688 346.773C529.264 345.914 530.574 344.873 531.273 343.619Z" fill="#37AFD4"/>
<path fill-rule="evenodd" clip-rule="evenodd" d="M536.265 326.608C535.939 328.527 534.267 329.99 532.253 329.99C532.253 328.556 531.511 327.295 530.389 326.57C532.346 326.583 534.305 326.591 536.265 326.608Z" fill="#D6EDFB"/>
<path fill-rule="evenodd" clip-rule="evenodd" d="M532.25 329.992C534.498 329.992 536.32 331.814 536.32 334.062C536.32 336.308 534.498 338.13 532.25 338.13C532.25 335.883 530.427 334.062 528.18 334.062C530.427 334.062 532.25 332.239 532.25 329.992Z" fill="#D6EDFB"/>
<path fill-rule="evenodd" clip-rule="evenodd" d="M532.25 338.129C534.498 338.129 536.319 339.951 536.319 342.197C536.319 344.445 534.498 346.266 532.25 346.266C532.25 345.255 531.88 344.331 531.27 343.619C531.442 343.311 531.577 342.99 531.67 342.654C531.982 341.537 532.016 340.621 531.866 339.854C532.112 339.329 532.25 338.746 532.25 338.129Z" fill="#D6EDFB"/>
<path fill-rule="evenodd" clip-rule="evenodd" d="M538.622 326.634C539.692 327.367 540.394 328.597 540.394 329.992C540.394 332.238 538.571 334.061 536.324 334.061C536.324 331.813 534.502 329.992 532.254 329.992C534.268 329.992 535.94 328.529 536.266 326.609C537.051 326.616 537.837 326.624 538.622 326.634Z" fill="#37AFD4"/>
<path fill-rule="evenodd" clip-rule="evenodd" d="M536.32 334.062C538.568 334.062 540.39 335.884 540.39 338.131C540.39 340.379 538.568 342.2 536.32 342.2C536.32 339.953 534.498 338.131 532.25 338.131C534.498 338.131 536.32 336.309 536.32 334.062Z" fill="#37AFD4"/>
<path fill-rule="evenodd" clip-rule="evenodd" d="M536.32 342.199C538.235 342.199 539.841 343.521 540.275 345.301C537.626 345.701 534.956 346.063 532.251 346.356V346.355C532.42 346.336 532.59 346.318 532.759 346.3C532.593 346.279 532.422 346.267 532.25 346.267C534.498 346.267 536.32 344.447 536.32 342.199Z" fill="#37AFD4"/>
<path fill-rule="evenodd" clip-rule="evenodd" d="M544.378 326.755C543.993 328.602 542.355 329.99 540.393 329.99C540.393 328.595 539.691 327.366 538.621 326.633C540.538 326.657 542.457 326.694 544.378 326.755Z" fill="#D6EDFB"/>
<path fill-rule="evenodd" clip-rule="evenodd" d="M540.395 329.992C542.642 329.992 544.465 331.813 544.465 334.061C544.465 336.307 542.642 338.13 540.395 338.13C540.395 335.882 538.572 334.061 536.324 334.061C538.572 334.061 540.395 332.239 540.395 329.992Z" fill="#D6EDFB"/>
<path fill-rule="evenodd" clip-rule="evenodd" d="M540.395 338.129C542.642 338.129 544.465 339.951 544.465 342.197C544.465 343.185 544.113 344.09 543.528 344.794C542.448 344.968 541.366 345.138 540.279 345.301C539.845 343.52 538.239 342.198 536.324 342.198C538.572 342.197 540.395 340.376 540.395 338.129Z" fill="#D6EDFB"/>
<path fill-rule="evenodd" clip-rule="evenodd" d="M547.058 326.859C547.957 327.606 548.53 328.732 548.53 329.991C548.53 332.238 546.708 334.06 544.46 334.06C544.46 331.812 542.637 329.991 540.391 329.991C542.352 329.991 543.99 328.603 544.375 326.756C545.268 326.784 546.164 326.819 547.058 326.859Z" fill="#37AFD4"/>
<path fill-rule="evenodd" clip-rule="evenodd" d="M544.46 334.062C546.708 334.062 548.53 335.884 548.53 338.131C548.53 340.379 546.708 342.2 544.46 342.2C544.46 339.953 542.637 338.131 540.391 338.131C542.638 338.131 544.46 336.309 544.46 334.062Z" fill="#37AFD4"/>
<path fill-rule="evenodd" clip-rule="evenodd" d="M542.252 344.998C541.905 345.052 541.558 345.106 541.211 345.16C541.558 345.107 541.905 345.052 542.252 344.998ZM544.461 342.199C545.902 342.199 547.168 342.948 547.891 344.077C546.439 344.319 544.984 344.561 543.524 344.795C544.109 344.091 544.461 343.186 544.461 342.199Z" fill="#37AFD4"/>
<path fill-rule="evenodd" clip-rule="evenodd" d="M552.399 327.185C551.868 328.813 550.336 329.989 548.53 329.989C548.53 328.73 547.957 327.604 547.058 326.857C546.221 326.82 545.384 326.787 544.547 326.76C547.16 326.846 549.776 326.977 552.399 327.185Z" fill="#D6EDFB"/>
<path fill-rule="evenodd" clip-rule="evenodd" d="M548.531 329.992C550.779 329.992 552.601 331.813 552.601 334.061C552.601 336.307 550.779 338.13 548.531 338.13C548.531 335.882 546.708 334.061 544.461 334.061C546.708 334.061 548.531 332.239 548.531 329.992Z" fill="#D6EDFB"/>
<path fill-rule="evenodd" clip-rule="evenodd" d="M548.531 338.129C550.779 338.129 552.601 339.951 552.601 342.197C552.601 342.585 552.547 342.961 552.445 343.316C550.906 343.57 549.366 343.829 547.823 344.087L547.891 344.076C547.168 342.946 545.901 342.197 544.461 342.197C546.709 342.197 548.531 340.376 548.531 338.129Z" fill="#D6EDFB"/>
<path fill-rule="evenodd" clip-rule="evenodd" d="M555.822 327.503C556.354 328.192 556.671 329.055 556.671 329.992C556.671 332.238 554.849 334.061 552.601 334.061C552.601 331.813 550.779 329.992 548.531 329.992C550.337 329.992 551.868 328.815 552.4 327.188C553.539 327.278 554.68 327.383 555.822 327.503Z" fill="#37AFD4"/>
<path fill-rule="evenodd" clip-rule="evenodd" d="M552.601 334.062C554.849 334.062 556.671 335.884 556.671 338.131C556.671 340.379 554.849 342.2 552.601 342.2C552.601 339.953 550.779 338.131 548.531 338.131C550.779 338.131 552.601 336.309 552.601 334.062Z" fill="#37AFD4"/>
<path fill-rule="evenodd" clip-rule="evenodd" d="M552.602 342.199C553.459 342.199 554.254 342.465 554.91 342.916C554.088 343.048 553.267 343.183 552.446 343.318C552.548 342.962 552.602 342.587 552.602 342.199Z" fill="#37AFD4"/>
<path fill-rule="evenodd" clip-rule="evenodd" d="M560.142 328.045C559.426 329.21 558.138 329.989 556.669 329.989C556.669 329.052 556.353 328.19 555.82 327.502C557.259 327.655 558.7 327.834 560.142 328.045Z" fill="#D6EDFB"/>
<path fill-rule="evenodd" clip-rule="evenodd" d="M556.671 329.992C558.92 329.992 560.742 331.813 560.742 334.061C560.742 336.307 558.92 338.13 556.671 338.13C556.671 335.882 554.85 334.061 552.602 334.061C554.85 334.061 556.671 332.239 556.671 329.992Z" fill="#D6EDFB"/>
<path fill-rule="evenodd" clip-rule="evenodd" d="M556.671 338.129C558.867 338.129 560.656 339.866 560.739 342.04C558.792 342.307 556.85 342.604 554.909 342.914C554.254 342.462 553.459 342.197 552.602 342.197C554.85 342.197 556.671 340.376 556.671 338.129Z" fill="#D6EDFB"/>
<path fill-rule="evenodd" clip-rule="evenodd" d="M565.041 328.891C565.185 330.013 565.136 331.406 564.384 332.684C562.896 335.215 563.081 336.815 564.347 338.155C565.181 339.037 565.836 340.225 565.858 341.413C569.152 341.064 572.476 340.829 575.851 340.773L572.736 335.862L576.428 331.991C572.612 330.646 568.818 329.643 565.041 328.891Z" fill="#37AFD4"/>
<path fill-rule="evenodd" clip-rule="evenodd" d="M565.051 330.693L571.84 332.993L564.797 331.784C564.924 331.42 565.004 331.053 565.051 330.693Z" fill="#B7E1F8"/>
<path fill-rule="evenodd" clip-rule="evenodd" d="M563.336 335.601L569.444 335.569L563.518 334.592C563.412 334.949 563.353 335.284 563.336 335.601Z" fill="#B7E1F8"/>
<path fill-rule="evenodd" clip-rule="evenodd" d="M565.447 339.754L571.418 338.77L564.902 338.829C565.111 339.12 565.296 339.431 565.447 339.754Z" fill="#B7E1F8"/>
<path fill-rule="evenodd" clip-rule="evenodd" d="M502.723 357.982V378.762C530.262 383.976 551.726 374.395 575.85 373.999L572.735 369.087L576.426 365.216C551.359 356.385 527.214 362.2 502.723 357.982Z" fill="#FEF1C2"/>
<path fill-rule="evenodd" clip-rule="evenodd" d="M502.722 357.982C504.525 357.982 505.987 362.635 505.987 368.372C505.987 374.11 504.525 378.762 502.722 378.762C500.919 378.762 499.457 374.111 499.457 368.372C499.457 362.635 500.919 357.982 502.722 357.982Z" fill="#FDDF73"/>
<path fill-rule="evenodd" clip-rule="evenodd" d="M509.359 358.896C509.889 359.305 510.356 359.747 510.604 360.175C511.423 361.59 510.232 365.087 512.168 366.725C514.103 368.362 513.434 369.181 515.146 369.777C516.858 370.372 519.836 370.595 521.549 367.544C523.261 364.493 522.665 364.641 524.377 363.376C525.294 362.698 526.254 361.273 526.708 359.764C520.926 359.694 515.15 359.514 509.359 358.896Z" fill="#FDDF73"/>
<path fill-rule="evenodd" clip-rule="evenodd" d="M517.026 361.666C518.701 361.666 520.059 363.024 520.059 364.699C520.059 366.373 518.701 367.732 517.026 367.732C515.351 367.732 513.992 366.373 513.992 364.699C513.992 363.024 515.351 361.666 517.026 361.666Z" fill="#FBFDFE"/>
<path fill-rule="evenodd" clip-rule="evenodd" d="M516.638 362.893C517.882 362.893 518.889 363.9 518.889 365.143C518.889 366.386 517.882 367.393 516.638 367.393C515.394 367.393 514.387 366.386 514.387 365.143C514.387 363.9 515.394 362.893 516.638 362.893Z" fill="#FCDF73"/>
<path fill-rule="evenodd" clip-rule="evenodd" d="M516.205 364.027C517.019 364.027 517.679 364.688 517.679 365.501C517.679 366.316 517.019 366.975 516.205 366.975C515.391 366.975 514.73 366.316 514.73 365.501C514.731 364.688 515.391 364.027 516.205 364.027Z" fill="#3E3A39"/>
<path fill-rule="evenodd" clip-rule="evenodd" d="M519.67 372.183C522.407 371.829 525.558 369.611 527.881 371.102C529.664 372.246 529.664 376.311 527.881 377.457C525.558 378.948 522.407 376.729 519.67 376.376C519.472 376.35 519.532 372.201 519.67 372.183Z" fill="#FDDF73"/>
<path fill-rule="evenodd" clip-rule="evenodd" d="M530.386 359.797C531.508 360.521 532.25 361.783 532.25 363.217C532.25 365.464 530.428 367.286 528.18 367.286C527.843 367.286 527.516 367.245 527.203 367.168C527.197 364.785 530.183 364.453 530.331 360.772C530.345 360.413 530.325 360.089 530.278 359.797H530.386Z" fill="#FDE691"/>
<path fill-rule="evenodd" clip-rule="evenodd" d="M528.181 367.287C530.428 367.287 532.251 369.109 532.251 371.356C532.251 371.973 532.114 372.557 531.868 373.081C531.249 369.898 527.473 369.269 527.219 367.403C527.527 367.327 527.85 367.287 528.181 367.287Z" fill="#FDE691"/>
<path fill-rule="evenodd" clip-rule="evenodd" d="M531.273 376.846C531.884 377.557 532.253 378.481 532.253 379.493C532.253 379.523 532.253 379.551 532.252 379.58C530.742 379.743 529.221 379.885 527.688 379.999C529.264 379.14 530.574 378.099 531.273 376.846Z" fill="#FDE691"/>
<path fill-rule="evenodd" clip-rule="evenodd" d="M536.265 359.835C535.939 361.755 534.267 363.217 532.253 363.217C532.253 361.783 531.511 360.521 530.389 359.797C532.346 359.81 534.305 359.818 536.265 359.835Z" fill="#FBFDFE"/>
<path fill-rule="evenodd" clip-rule="evenodd" d="M532.25 363.219C534.498 363.219 536.32 365.041 536.32 367.287C536.32 369.535 534.498 371.356 532.25 371.356C532.25 369.109 530.427 367.287 528.18 367.287C530.427 367.287 532.25 365.465 532.25 363.219Z" fill="#FBFDFE"/>
<path fill-rule="evenodd" clip-rule="evenodd" d="M532.25 371.355C534.498 371.355 536.319 373.177 536.319 375.425C536.319 377.671 534.498 379.493 532.25 379.493C532.25 378.482 531.88 377.557 531.27 376.846C531.442 376.537 531.577 376.216 531.67 375.881C531.982 374.764 532.016 373.848 531.866 373.08C532.112 372.557 532.25 371.972 532.25 371.355Z" fill="#FBFDFE"/>
<path fill-rule="evenodd" clip-rule="evenodd" d="M538.622 359.859C539.692 360.592 540.394 361.822 540.394 363.217C540.394 365.463 538.571 367.285 536.324 367.285C536.324 365.038 534.502 363.217 532.254 363.217C534.268 363.217 535.94 361.755 536.266 359.834C537.051 359.84 537.837 359.849 538.622 359.859Z" fill="#FDE691"/>
<path fill-rule="evenodd" clip-rule="evenodd" d="M536.32 367.287C538.568 367.287 540.39 369.109 540.39 371.356C540.39 373.603 538.568 375.425 536.32 375.425C536.32 373.178 534.498 371.356 532.25 371.356C534.498 371.356 536.32 369.535 536.32 367.287Z" fill="#FDE691"/>
<path fill-rule="evenodd" clip-rule="evenodd" d="M536.32 375.424C538.235 375.424 539.841 376.745 540.275 378.526C537.626 378.924 534.956 379.286 532.251 379.579V379.578C532.42 379.561 532.59 379.541 532.759 379.523C532.593 379.502 532.422 379.491 532.25 379.491C534.498 379.491 536.32 377.67 536.32 375.424Z" fill="#FDE691"/>
<path fill-rule="evenodd" clip-rule="evenodd" d="M544.378 359.98C543.993 361.826 542.355 363.215 540.393 363.215C540.393 361.82 539.691 360.59 538.621 359.857C540.538 359.882 542.457 359.919 544.378 359.98Z" fill="#FBFDFE"/>
<path fill-rule="evenodd" clip-rule="evenodd" d="M540.395 363.219C542.642 363.219 544.465 365.04 544.465 367.287C544.465 369.535 542.642 371.356 540.395 371.356C540.395 369.109 538.572 367.287 536.324 367.287C538.572 367.287 540.395 365.465 540.395 363.219Z" fill="#FBFDFE"/>
<path fill-rule="evenodd" clip-rule="evenodd" d="M540.395 371.355C542.642 371.355 544.465 373.177 544.465 375.425C544.465 376.412 544.113 377.316 543.528 378.021C542.448 378.194 541.366 378.364 540.279 378.528C539.845 376.746 538.239 375.425 536.324 375.425C538.572 375.425 540.395 373.603 540.395 371.355Z" fill="#FBFDFE"/>
<path fill-rule="evenodd" clip-rule="evenodd" d="M547.058 360.086C547.957 360.832 548.53 361.958 548.53 363.218C548.53 365.464 546.708 367.286 544.46 367.286C544.46 365.039 542.637 363.218 540.391 363.218C542.352 363.218 543.99 361.829 544.375 359.982C545.268 360.012 546.164 360.045 547.058 360.086Z" fill="#FDE691"/>
<path fill-rule="evenodd" clip-rule="evenodd" d="M544.46 367.287C546.708 367.287 548.53 369.109 548.53 371.356C548.53 373.603 546.708 375.425 544.46 375.425C544.46 373.178 542.637 371.356 540.391 371.356C542.638 371.356 544.46 369.535 544.46 367.287Z" fill="#FDE691"/>
<path fill-rule="evenodd" clip-rule="evenodd" d="M544.461 375.424C545.902 375.424 547.168 376.171 547.891 377.301C546.439 377.544 544.984 377.785 543.524 378.02C544.109 377.314 544.461 376.411 544.461 375.424Z" fill="#FDE691"/>
<path fill-rule="evenodd" clip-rule="evenodd" d="M552.399 360.412C551.868 362.039 550.336 363.216 548.53 363.216C548.53 361.956 547.957 360.831 547.058 360.084C546.221 360.046 545.384 360.014 544.547 359.986C547.16 360.072 549.776 360.205 552.399 360.412Z" fill="#FBFDFE"/>
<path fill-rule="evenodd" clip-rule="evenodd" d="M548.531 363.219C550.779 363.219 552.601 365.04 552.601 367.287C552.601 369.535 550.779 371.356 548.531 371.356C548.531 369.109 546.708 367.287 544.461 367.287C546.708 367.287 548.531 365.465 548.531 363.219Z" fill="#FBFDFE"/>
<path fill-rule="evenodd" clip-rule="evenodd" d="M548.531 371.355C550.779 371.355 552.601 373.177 552.601 375.425C552.601 375.812 552.547 376.187 552.445 376.542C550.906 376.796 549.366 377.055 547.823 377.313L547.891 377.302C547.168 376.173 545.901 375.425 544.461 375.425C546.709 375.425 548.531 373.603 548.531 371.355Z" fill="#FBFDFE"/>
<path fill-rule="evenodd" clip-rule="evenodd" d="M555.822 360.731C556.354 361.418 556.671 362.281 556.671 363.218C556.671 365.465 554.849 367.287 552.601 367.287C552.601 365.039 550.779 363.218 548.531 363.218C550.337 363.218 551.868 362.041 552.4 360.414C553.539 360.505 554.68 360.609 555.822 360.731Z" fill="#FDE691"/>
<path fill-rule="evenodd" clip-rule="evenodd" d="M552.601 367.287C554.849 367.287 556.671 369.109 556.671 371.356C556.671 373.603 554.849 375.425 552.601 375.425C552.601 373.178 550.779 371.356 548.531 371.356C550.779 371.356 552.601 369.535 552.601 367.287Z" fill="#FDE691"/>
<path fill-rule="evenodd" clip-rule="evenodd" d="M552.602 375.424C553.459 375.424 554.254 375.688 554.91 376.14C554.088 376.272 553.267 376.406 552.446 376.541C552.548 376.186 552.602 375.811 552.602 375.424Z" fill="#FDE691"/>
<path fill-rule="evenodd" clip-rule="evenodd" d="M560.142 361.271C559.426 362.438 558.138 363.216 556.669 363.216C556.669 362.278 556.353 361.416 555.82 360.729C557.259 360.881 558.7 361.061 560.142 361.271Z" fill="#FBFDFE"/>
<path fill-rule="evenodd" clip-rule="evenodd" d="M556.671 363.219C558.92 363.219 560.742 365.04 560.742 367.287C560.742 369.535 558.92 371.356 556.671 371.356C556.671 369.109 554.85 367.287 552.602 367.287C554.85 367.287 556.671 365.465 556.671 363.219Z" fill="#FBFDFE"/>
<path fill-rule="evenodd" clip-rule="evenodd" d="M556.671 371.355C558.867 371.355 560.656 373.093 560.739 375.267C558.792 375.535 556.85 375.83 554.909 376.14C554.254 375.688 553.459 375.424 552.602 375.424C554.85 375.424 556.671 373.603 556.671 371.355Z" fill="#FBFDFE"/>
<path fill-rule="evenodd" clip-rule="evenodd" d="M565.041 362.117C565.185 363.239 565.136 364.632 564.384 365.911C562.896 368.442 563.081 370.042 564.347 371.381C565.181 372.263 565.836 373.453 565.858 374.64C569.152 374.291 572.476 374.055 575.851 374L572.736 369.088L576.428 365.217C572.612 363.873 568.818 362.87 565.041 362.117Z" fill="#FDDF73"/>
<path fill-rule="evenodd" clip-rule="evenodd" d="M565.051 363.918L571.84 366.219L564.797 365.009C564.924 364.644 565.004 364.278 565.051 363.918Z" fill="#FBFDFE"/>
<path fill-rule="evenodd" clip-rule="evenodd" d="M563.336 368.827L569.444 368.795L563.518 367.818C563.412 368.176 563.353 368.511 563.336 368.827Z" fill="#FBFDFE"/>
<path fill-rule="evenodd" clip-rule="evenodd" d="M565.447 372.979L571.418 371.994L564.902 372.054C565.111 372.345 565.296 372.656 565.447 372.979Z" fill="#FBFDFE"/>
<path fill-rule="evenodd" clip-rule="evenodd" d="M27.4529 425.102H605.221C607.122 425.102 608.674 426.654 608.674 428.552C608.674 430.449 607.122 432 605.221 432H27.4529C25.5518 432 24 430.449 24 428.552C24.0003 426.654 25.552 425.102 27.4529 425.102Z" fill="#00A0E8"/>
<path fill-rule="evenodd" clip-rule="evenodd" d="M274.77 333C267.486 335.181 262.932 336.702 261.412 343.091L252.047 382.46C252.511 384.802 258.041 386.279 264.158 386.847L262.957 402.703C265.931 404.933 270.413 405.4 274.77 405.538L274.77 333Z" fill="#89D0E6"/>
<path fill-rule="evenodd" clip-rule="evenodd" d="M274.771 333C273.809 333.288 272.826 333.563 271.844 333.837V405.379C272.814 405.46 273.795 405.507 274.771 405.538V333Z" fill="#2489A8"/>
<path fill-rule="evenodd" clip-rule="evenodd" d="M262.086 386.615C262.765 386.703 263.458 386.781 264.159 386.846L266.591 351.072C266.591 351.072 262.69 381.837 262.086 386.615Z" fill="#1D6D86"/>
<path fill-rule="evenodd" clip-rule="evenodd" d="M285.75 333C293.035 335.181 297.589 336.702 299.108 343.091L308.472 382.46C308.008 384.802 302.478 386.279 296.361 386.847L297.563 402.703C294.588 404.933 290.106 405.4 285.75 405.538L285.75 333Z" fill="#89D0E6"/>
<path fill-rule="evenodd" clip-rule="evenodd" d="M285.75 333C286.711 333.288 287.693 333.563 288.676 333.837V405.379C287.706 405.46 286.724 405.507 285.75 405.538V333Z" fill="#2489A8"/>
<path fill-rule="evenodd" clip-rule="evenodd" d="M298.435 386.615C297.757 386.703 297.063 386.781 296.362 386.846L293.93 351.072C293.93 351.072 297.832 381.837 298.435 386.615Z" fill="#1D6D86"/>
<path fill-rule="evenodd" clip-rule="evenodd" d="M274.77 369.282L285.752 369.268V405.536C289.292 405.425 292.917 405.094 295.747 403.778L295.911 420.62C290.52 422.416 285.355 423.321 280.261 423.371C275.167 423.321 270.001 422.416 264.609 420.62L264.774 403.778C267.605 405.094 271.229 405.425 274.77 405.536V369.282Z" fill="#89D0E6"/>
<path fill-rule="evenodd" clip-rule="evenodd" d="M280.262 369.274L285.753 369.268V405.536C289.293 405.425 292.918 405.094 295.748 403.778L295.912 420.62C290.521 422.416 285.356 423.321 280.262 423.371V369.274Z" fill="#ABDDED"/>
<path fill-rule="evenodd" clip-rule="evenodd" d="M285.751 333L274.77 344.879V351.518L285.751 339.66V333Z" fill="#46B5D7"/>
<path fill-rule="evenodd" clip-rule="evenodd" d="M274.77 333L280.26 338.939L277.183 342.268L274.77 339.66V333Z" fill="#46B5D7"/>
<path d="M285.751 357.975H274.77V369.282H285.751V357.975Z" fill="#68C3DF"/>
<path d="M285.751 361.988H274.77V365.271H285.751V361.988Z" fill="#2489A8"/>
<path fill-rule="evenodd" clip-rule="evenodd" d="M274.77 357.976H285.751V339.66L274.77 351.517V357.976Z" fill="#ABDDED"/>
<path fill-rule="evenodd" clip-rule="evenodd" d="M274.77 344.878L277.183 342.267L274.77 339.66V344.878Z" fill="#89D0E6"/>
<path fill-rule="evenodd" clip-rule="evenodd" d="M280.264 314.393C286.674 314.393 288.113 318.718 288.113 324.053C288.113 329.389 284.309 333.714 280.264 333.714C276.218 333.714 272.414 329.389 272.414 324.053C272.414 318.718 273.852 314.393 280.264 314.393Z" fill="#FFEFEB"/>
<path fill-rule="evenodd" clip-rule="evenodd" d="M272.322 326.012C273.263 327.463 273.509 319.833 275.302 318.246C277.385 316.402 283.135 316.402 285.217 318.246C287.01 319.833 287.256 327.463 288.198 326.012C289.98 323.268 289.544 311.908 280.26 311.908C270.976 311.908 270.54 323.268 272.322 326.012Z" fill="#3E3A39"/>
<path fill-rule="evenodd" clip-rule="evenodd" d="M285.225 331.412C285.315 331.971 285.467 332.618 285.752 333.002L280.261 338.942L280.259 338.938L280.257 338.94L274.766 333C275.05 332.618 275.202 331.974 275.292 331.417C276.686 332.85 278.447 333.716 280.257 333.716C282.067 333.716 283.83 332.848 285.225 331.412Z" fill="#FFDED6"/>
<path fill-rule="evenodd" clip-rule="evenodd" d="M277.395 423.255C277.354 426.061 275.697 428.317 273.659 428.317C271.596 428.317 269.922 426.002 269.922 423.147C269.922 422.801 269.947 422.464 269.994 422.137C272.495 422.707 274.957 423.079 277.395 423.255Z" fill="#FFDED6"/>
<path d="M273.367 428.299L273.271 426.056C272.746 425.319 271.01 424.793 270.066 424.554C270.033 424.392 270.006 424.226 269.984 424.059C270.827 424.26 272.821 424.809 273.64 425.656C274.761 425.009 276.458 424.692 277.257 424.572C277.223 424.735 277.183 424.895 277.138 425.053C276.285 425.193 274.788 425.507 273.869 426.096L273.965 428.298C273.866 428.309 273.765 428.314 273.664 428.314C273.564 428.314 273.465 428.309 273.367 428.299Z" fill="#3E3A39"/>
<path fill-rule="evenodd" clip-rule="evenodd" d="M283.125 423.255C283.167 426.061 284.823 428.317 286.86 428.317C288.924 428.317 290.598 426.002 290.598 423.147C290.598 422.801 290.573 422.464 290.526 422.137L290.513 422.139L290.302 422.187L290.287 422.191L290.096 422.233L290.059 422.242L289.942 422.266L289.867 422.283L289.825 422.292L289.708 422.317L289.617 422.336L289.591 422.341L289.474 422.366L289.385 422.384L289.358 422.39L289.241 422.413L289.125 422.437H289.124L289.008 422.46L288.903 422.48L288.891 422.483L288.775 422.505L288.747 422.511L288.669 422.525L288.493 422.558L288.463 422.564L288.426 422.571L288.31 422.592L288.293 422.595L288.194 422.613L288.077 422.633L288.045 422.64L287.961 422.655L287.845 422.675L287.731 422.694H287.73L287.614 422.714L287.498 422.734L287.434 422.744L287.266 422.772L287.245 422.775L287.219 422.779L287.073 422.802L286.926 422.825L286.918 422.826L286.803 422.844L286.792 422.845L286.701 422.859L286.539 422.883L286.515 422.886L286.457 422.895L286.299 422.917L286.273 422.921L286.226 422.928L286.068 422.95L286.003 422.958L285.996 422.959L285.88 422.974L285.788 422.986L285.765 422.989L285.582 423.012L285.546 423.017L285.535 423.018L285.504 423.022L285.304 423.046L285.075 423.073L285.063 423.074L285.056 423.075L284.844 423.099L284.821 423.101L284.791 423.105L284.615 423.123L284.58 423.127L284.559 423.129L284.347 423.151L284.328 423.153L284.115 423.173L284.081 423.176L283.897 423.192L283.828 423.199L283.63 423.216L283.61 423.218L283.394 423.235L283.376 423.237L283.355 423.238L283.162 423.252L283.135 423.254L283.125 423.255Z" fill="#FFDED6"/>
<path d="M287.159 428.299L287.257 426.056C287.782 425.319 289.517 424.793 290.46 424.554C290.493 424.392 290.521 424.226 290.542 424.059C289.7 424.26 287.706 424.809 286.886 425.656C285.766 425.009 284.068 424.692 283.27 424.572C283.304 424.735 283.343 424.895 283.389 425.053C284.241 425.193 285.739 425.507 286.657 426.096L286.561 428.298C286.661 428.309 286.761 428.314 286.862 428.314C286.963 428.314 287.062 428.309 287.159 428.299Z" fill="#3E3A39"/>
<path fill-rule="evenodd" clip-rule="evenodd" d="M211.03 370.189H237.19C237.892 386.549 236.487 404.731 236.647 421.027C231.391 422.778 229.077 423.661 224.11 423.71C219.144 423.661 216.831 422.778 211.574 421.027C211.732 404.731 210.328 386.549 211.03 370.189Z" fill="#FEF1C2"/>
<path fill-rule="evenodd" clip-rule="evenodd" d="M211.03 370.189H218.304V423.089C216.332 422.643 214.369 421.958 211.573 421.027C211.732 404.731 210.328 386.549 211.03 370.189Z" fill="#FDE691"/>
<path d="M237.229 359.164H211.004V370.187H237.229V359.164Z" fill="#FCD64A"/>
<path d="M237.229 363.078H211.004V366.278H237.229V363.078Z" fill="#FEF1C2"/>
<path fill-rule="evenodd" clip-rule="evenodd" d="M222.662 423.668C222.497 426.24 220.936 428.256 219.034 428.256C217.021 428.256 215.391 426 215.391 423.216C215.391 422.905 215.411 422.6 215.45 422.305C217.935 423.082 219.906 423.533 222.662 423.668Z" fill="#FFEFEB"/>
<path d="M218.747 428.238L218.653 426.053C218.14 425.334 216.449 424.82 215.53 424.588C215.497 424.429 215.471 424.269 215.449 424.105C216.271 424.301 218.214 424.836 219.013 425.662C220.106 425.031 221.761 424.723 222.539 424.605C222.506 424.765 222.467 424.921 222.424 425.074C221.592 425.211 220.132 425.518 219.237 426.092L219.33 428.238C219.234 428.249 219.135 428.254 219.036 428.254C218.939 428.254 218.843 428.248 218.747 428.238Z" fill="#3E3A39"/>
<path fill-rule="evenodd" clip-rule="evenodd" d="M225.555 423.668C225.719 426.24 227.281 428.256 229.183 428.256C231.195 428.256 232.827 426 232.827 423.216C232.827 422.905 232.806 422.6 232.767 422.305C230.282 423.082 228.311 423.533 225.555 423.668Z" fill="#FFEFEB"/>
<path d="M229.476 428.238L229.571 426.053C230.083 425.334 231.775 424.82 232.694 424.588C232.726 424.429 232.753 424.269 232.774 424.105C231.953 424.301 230.009 424.836 229.209 425.662C228.117 425.031 226.462 424.723 225.684 424.605C225.717 424.765 225.755 424.921 225.799 425.074C226.632 425.211 228.091 425.518 228.985 426.092L228.892 428.238C228.989 428.249 229.088 428.254 229.187 428.254C229.284 428.254 229.381 428.248 229.476 428.238Z" fill="#3E3A39"/>
<path fill-rule="evenodd" clip-rule="evenodd" d="M221.699 347.441L216.211 337.686L219.923 335.715L224.11 343.157L221.699 347.441Z" fill="#FCD64A"/>
<path fill-rule="evenodd" clip-rule="evenodd" d="M237.624 340.664C241.933 342.951 242.173 367.799 243.752 385.368C244.785 396.857 238.629 403.696 235.651 408.704C231.357 388.944 230.304 372.138 226.434 372.829C229.51 367.023 231.365 362.393 232.552 359.163H219.926L232.011 337.684L237.624 340.664Z" fill="#FEF1C2"/>
<path fill-rule="evenodd" clip-rule="evenodd" d="M236.217 345.672C235.532 349.184 234.104 354.549 232.551 359.165H229.695C232.024 354.682 234.267 350.251 236.217 345.672Z" fill="#FDE691"/>
<path fill-rule="evenodd" clip-rule="evenodd" d="M226.435 372.831C226.435 372.831 220.814 383.018 235.652 408.706C231.358 388.946 230.305 372.14 226.435 372.831Z" fill="#FDDF73"/>
<path fill-rule="evenodd" clip-rule="evenodd" d="M210.598 340.663C206.29 342.951 206.051 367.798 204.471 385.367C203.439 396.857 209.594 403.696 212.572 408.703C216.866 388.944 217.919 372.138 221.789 372.828C218.713 367.023 216.291 362.393 215.103 359.163L221.7 347.438L216.211 337.684L210.598 340.663Z" fill="#FEF1C2"/>
<path fill-rule="evenodd" clip-rule="evenodd" d="M212.008 345.672C212.693 349.184 213.553 354.549 215.105 359.165H217.516C215.187 354.682 213.958 350.251 212.008 345.672Z" fill="#FDE691"/>
<path fill-rule="evenodd" clip-rule="evenodd" d="M221.791 372.831C221.791 372.831 227.412 383.018 212.574 408.706C216.868 388.946 217.922 372.14 221.791 372.831Z" fill="#FDDF73"/>
<path fill-rule="evenodd" clip-rule="evenodd" d="M224.113 318.846C229.761 318.846 231.71 322.657 231.03 327.358C230.349 332.06 226.997 335.872 224.113 335.872C221.229 335.872 217.877 332.06 217.196 327.358C216.516 322.657 218.465 318.846 224.113 318.846Z" fill="#FFEFEB"/>
<path fill-rule="evenodd" clip-rule="evenodd" d="M215.105 359.166H219.926L232.011 337.686L228.3 335.715L215.105 359.166Z" fill="#FCD64A"/>
<path fill-rule="evenodd" clip-rule="evenodd" d="M217.125 327.357C218.107 328.521 217.598 323.743 219.177 322.345C220.041 321.581 222.229 320.63 224.112 322.302C225.995 320.63 228.184 321.581 229.048 322.345C230.627 323.743 230.117 328.521 231.1 327.357C234.158 323.734 234.85 314.104 224.112 314.104C213.374 314.104 214.066 323.734 217.125 327.357Z" fill="#4D4B40"/>
<path fill-rule="evenodd" clip-rule="evenodd" d="M220.824 334.406H220.824C220.824 334.406 220.675 335.317 219.926 335.715L224.112 343.157L228.299 335.715C227.55 335.317 227.402 334.406 227.402 334.406C226.793 334.942 226.15 335.348 225.506 335.596C225.33 335.663 225.155 335.718 224.98 335.761L224.958 335.767C224.929 335.773 224.9 335.781 224.871 335.787L224.849 335.792L224.827 335.796L224.805 335.8L224.783 335.804L224.765 335.808L224.762 335.809L224.74 335.813L224.718 335.816L224.696 335.82L224.679 335.824H224.675L224.653 335.828L224.631 335.831L224.609 335.834L224.587 335.837L224.566 335.841L224.544 335.843L224.523 335.846L224.501 335.848L224.48 335.85L224.472 335.851L224.458 335.853L224.437 335.855L224.421 335.856L224.414 335.857H224.413L224.379 335.86L224.371 335.861H224.369L224.35 335.863L224.328 335.864L224.317 335.865L224.307 335.866L224.286 335.867L224.266 335.868H224.263H224.259L224.221 335.869H224.216H224.215L224.178 335.87H224.165L224.113 335.871L224.063 335.87H224.049L224.013 335.869H224.011H224.006L223.968 335.868H223.963H223.961L223.942 335.867L223.92 335.866L223.909 335.865L223.899 335.864L223.877 335.863L223.858 335.861H223.856L223.849 335.86L223.814 335.857H223.812L223.807 335.856L223.791 335.855L223.769 335.853L223.755 335.851L223.748 335.85L223.726 335.848L223.705 335.846H223.704L223.682 335.843L223.66 335.841L223.639 335.837L223.617 335.834L223.596 335.831L223.574 335.828L223.552 335.824H223.549L223.531 335.82L223.509 335.816L223.488 335.813L223.465 335.809L223.462 335.808L223.443 335.804L223.421 335.8L223.4 335.796L223.378 335.792L223.356 335.787C223.327 335.781 223.298 335.773 223.269 335.767L223.247 335.761C223.072 335.718 222.896 335.663 222.721 335.596C222.075 335.348 221.432 334.942 220.824 334.406Z" fill="#FFDED6"/>
<path fill-rule="evenodd" clip-rule="evenodd" d="M216.198 325.938C216.139 326.374 216.164 326.981 216.45 327.745C216.754 328.553 217.169 328.836 217.521 328.912C217.389 328.436 217.282 327.945 217.205 327.445C217.178 327.42 217.151 327.39 217.122 327.356C216.78 326.951 216.467 326.471 216.198 325.938Z" fill="#FFEFEB"/>
<path fill-rule="evenodd" clip-rule="evenodd" d="M232.02 325.938C232.079 326.374 232.053 326.981 231.766 327.745C231.463 328.553 231.048 328.836 230.695 328.912C230.828 328.436 230.935 327.945 231.011 327.445C231.038 327.42 231.066 327.39 231.095 327.356C231.438 326.951 231.749 326.471 232.02 325.938Z" fill="#FFEFEB"/>
<path fill-rule="evenodd" clip-rule="evenodd" d="M216.779 328.383C216.695 329.213 216.703 331.325 218.815 331.944C218.275 331.037 217.828 330.012 217.521 328.913C217.284 328.862 217.019 328.718 216.779 328.383Z" fill="#4D4B40"/>
<path fill-rule="evenodd" clip-rule="evenodd" d="M231.443 328.383C231.526 329.213 231.518 331.325 229.406 331.944C229.947 331.037 230.393 330.012 230.7 328.913C230.937 328.862 231.202 328.718 231.443 328.383Z" fill="#4D4B40"/>
</svg>
