<svg width="594" height="423" viewBox="0 0 594 423" fill="none" xmlns="http://www.w3.org/2000/svg">
<path opacity="0.8" d="M472.193 46.443C379.474 -28.8917 228.129 -1.95471 134.37 52.0751C72.0649 87.979 23.3368 143.52 12.2507 204.407C4.12752 249.022 17.0639 303.681 66.474 332.908C121.538 365.48 197.574 337.011 254.56 369.737C311.462 402.415 392.851 416.903 449.919 393.483C506.967 370.071 557.616 298.019 563.638 223.843C567.07 181.552 555.396 137.303 528.69 99.6704C514.013 78.9898 493.733 64.2669 473.324 47.3705C472.949 47.0601 472.572 46.751 472.193 46.443Z" fill="#E6F5FA"/>
<path d="M339.901 278.27H322.129V321H339.901V278.27Z" fill="#BFE2EE"/>
<path d="M495.284 286.101H477.512V315.379H495.284V286.101Z" fill="#BFE2EE"/>
<path d="M321.381 347.42L315.625 417.029H332.242L321.381 347.42Z" fill="#C4C4C4"/>
<path d="M324.342 300.518L318.912 298.543L320.887 330.632L312 417.027H316.937L322.368 356.797L325.329 416.039H330.266L326.316 341.493C326.316 341.493 327.798 316.315 324.342 300.518Z" fill="white"/>
<path d="M324.344 300.516L329.281 417.024H375.686L372.231 305.452L324.344 300.516Z" fill="#BFE2EE"/>
<path d="M397.967 346.329L396.125 418.9L403.53 415.938L397.967 346.329Z" fill="#BFE2EE"/>
<path d="M399.582 302.886L396.126 306.836V329.545L393.164 415.939L397.114 418.901L398.474 355.709L400.57 418.901L404.519 415.939L401.558 340.406C401.556 340.406 401.352 318.684 399.582 302.886Z" fill="white"/>
<path d="M399.582 302.886L404.519 415.939H450.925L447.469 304.368L399.582 302.886Z" fill="#BFE2EE"/>
<path d="M479.424 346.33L476.477 415.939H484.987L479.424 346.33Z" fill="#BFE2EE"/>
<path d="M481.039 302.886L477.583 306.836V329.545L474.621 415.939H478.571L479.932 355.709L482.027 415.939H485.976L483.015 340.406C483.015 340.406 482.809 318.684 481.039 302.886Z" fill="white"/>
<path d="M481.039 302.888L485.977 415.941H532.382L529.42 302.395L481.039 302.888Z" fill="#BFE2EE"/>
<path d="M284.061 281.162C284.061 281.162 272.706 280.175 271.719 284.124C270.732 288.074 290.479 293.011 302.327 294.985C314.175 296.96 365.518 302.884 385.265 302.884C405.012 302.884 455.861 304.858 455.861 304.858H521.027C521.027 304.858 533.863 306.339 537.319 302.39C540.775 298.44 538.8 293.01 532.382 291.529L484.989 291.035L482.027 293.01C482.027 293.01 391.19 291.529 374.405 288.073C357.619 284.617 310.72 280.668 299.365 281.162C288.011 281.655 284.061 281.162 284.061 281.162Z" fill="#BFE2EE"/>
<path d="M272.211 414.951C273.692 414.951 318.123 394.71 351.694 393.229C385.264 391.748 398.593 419.394 398.593 419.394H270.73L272.211 414.951Z" fill="white"/>
<path d="M395.137 419.397C397.001 419.397 457.258 388.327 499.513 386.463C541.768 384.599 558.545 419.397 558.545 419.397H397.606H395.137Z" fill="white"/>
<path d="M408.384 419.635C408.384 419.635 407.294 407.634 422.567 408.725C437.842 409.816 445.065 407.64 450.934 401.088C458.504 392.636 491.302 383.632 495.666 418.544L408.384 419.635Z" fill="#2BA4C9"/>
<path d="M59.7578 94.5604L65.6378 84.5524L70.975 81.8838V94.336L59.7578 94.5604Z" fill="#92E5FF"/>
<path d="M82.5988 94.5875L76.7482 84.5618L71.4192 81.8779L71.3828 94.3301L82.5988 94.5875Z" fill="#92E5FF"/>
<path d="M58.6094 95.7043V128.6C58.6094 129.177 59.0771 129.645 59.654 129.645H82.9744C83.5513 129.645 84.019 129.177 84.019 128.6V95.7384C84.019 95.2883 83.7299 94.8818 83.301 94.7419C71.6009 90.9394 61.9031 93.796 59.298 94.7208C58.8832 94.87 58.6094 95.2637 58.6094 95.7043Z" fill="#99ECFF"/>
<path d="M54.4883 119.52V163.084C54.4883 163.848 55.1075 164.468 55.8725 164.468H86.7556C87.5194 164.468 88.1398 163.849 88.1398 163.084V119.565C88.1398 118.968 87.7568 118.431 87.1892 118.246C71.6948 113.211 58.8525 116.993 55.4013 118.218C54.8502 118.414 54.4883 118.935 54.4883 119.52Z" fill="#92E5FF"/>
<path d="M52.4258 145.871V194.77C52.4258 195.628 53.1214 196.324 53.9792 196.324H88.6437C89.5015 196.324 90.1971 195.628 90.1971 194.77V145.923C90.1971 145.253 89.767 144.649 89.1301 144.442C71.7392 138.79 57.3235 143.036 53.4504 144.411C52.8324 144.63 52.4258 145.216 52.4258 145.871Z" fill="#99ECFF"/>
<path d="M47.9258 188.698V367.577C47.9258 368.639 48.7871 369.501 49.8494 369.501H92.7781C93.8403 369.501 94.7017 368.639 94.7017 367.577V188.761C94.7017 187.932 94.1693 187.184 93.3797 186.928C71.8419 179.928 53.9891 185.187 49.1937 186.889C48.4287 187.161 47.9258 187.887 47.9258 188.698Z" fill="#92E5FF"/>
<path d="M95.2484 188.755H94.152C94.152 188.163 93.7643 187.623 93.2096 187.444C71.9151 180.522 54.275 185.66 49.3761 187.4C48.8356 187.592 48.4725 188.111 48.4725 188.693H47.375C47.375 187.648 48.0307 186.714 49.0083 186.367C53.9906 184.599 71.9268 179.374 93.5481 186.401C94.5645 186.73 95.2484 187.677 95.2484 188.755Z" fill="#37AFD4"/>
<path d="M90.2749 177.234H89.1785C89.1785 176.818 88.9059 176.438 88.517 176.312C71.7911 170.876 57.9335 174.91 54.0852 176.277C53.7056 176.411 53.4518 176.776 53.4518 177.184H52.3555C52.3555 176.312 52.9031 175.532 53.7185 175.243C57.648 173.847 71.7993 169.725 88.8566 175.269C89.7038 175.544 90.2749 176.333 90.2749 177.234Z" fill="#37AFD4"/>
<path d="M90.2749 164.297H89.1785C89.1785 163.881 88.9059 163.502 88.517 163.376C71.7911 157.94 57.9335 161.975 54.0852 163.339C53.7068 163.473 53.4518 163.839 53.4518 164.248H52.3555C52.3555 163.376 52.9031 162.596 53.7185 162.307C57.6503 160.912 71.8016 156.79 88.8566 162.332C89.7038 162.609 90.2749 163.398 90.2749 164.297Z" fill="#37AFD4"/>
<path d="M90.2749 151.349H89.1785C89.1785 150.933 88.9059 150.553 88.517 150.428C71.7887 144.992 57.9335 149.026 54.0852 150.392C53.7056 150.526 53.4518 150.892 53.4518 151.299H52.3555C52.3555 150.428 52.9031 149.647 53.7185 149.358C57.648 147.962 71.7981 143.84 88.8566 149.384C89.7038 149.66 90.2749 150.45 90.2749 151.349Z" fill="#37AFD4"/>
<path d="M89.28 139.3H88.1825C88.1825 138.919 87.9334 138.571 87.5762 138.456C71.7621 133.315 58.6625 137.13 55.0245 138.422C54.6778 138.545 54.4452 138.879 54.4452 139.253H53.3477C53.3477 138.416 53.8741 137.666 54.6567 137.388C58.3769 136.067 71.7727 132.167 87.9146 137.412C88.7324 137.678 89.28 138.436 89.28 139.3Z" fill="#37AFD4"/>
<path d="M89.28 131.345H88.1825C88.1825 130.964 87.9334 130.616 87.5762 130.501C71.7621 125.361 58.6625 129.175 55.0245 130.467C54.6778 130.59 54.4452 130.924 54.4452 131.296H53.3477C53.3477 130.46 53.8741 129.711 54.6567 129.433C58.3769 128.111 71.7727 124.211 87.9146 129.456C88.7324 129.723 89.28 130.481 89.28 131.345Z" fill="#37AFD4"/>
<path d="M89.28 123.373H88.1825C88.1825 122.993 87.9334 122.646 87.5762 122.53C71.7586 117.389 58.6625 121.204 55.0245 122.496C54.6778 122.619 54.4452 122.953 54.4452 123.325H53.3477C53.3477 122.489 53.8741 121.74 54.6567 121.462C58.3769 120.142 71.7703 116.241 87.9146 121.486C88.7324 121.752 89.28 122.51 89.28 123.373Z" fill="#37AFD4"/>
<path d="M84.3026 114.854H83.2051C83.2051 114.648 83.0711 114.461 82.8808 114.4C71.6307 110.742 62.3171 113.455 59.7308 114.374C59.5451 114.44 59.4206 114.619 59.4206 114.82H58.3242C58.3242 114.156 58.7414 113.562 59.3642 113.341C62.0339 112.396 71.6436 109.597 83.2204 113.358C83.8678 113.567 84.3026 114.169 84.3026 114.854Z" fill="#37AFD4"/>
<path d="M84.3026 108.867H83.2051C83.2051 108.662 83.0711 108.476 82.8808 108.414C71.6307 104.757 62.3171 107.469 59.7308 108.388C59.5451 108.454 59.4206 108.632 59.4206 108.833H58.3242C58.3242 108.169 58.7414 107.575 59.3642 107.354C62.0339 106.408 71.6436 103.608 83.2204 107.37C83.8678 107.582 84.3026 108.182 84.3026 108.867Z" fill="#37AFD4"/>
<path d="M84.3026 102.905H83.2051C83.2051 102.7 83.0711 102.514 82.8808 102.452C71.633 98.7961 62.3171 101.508 59.7308 102.427C59.5451 102.493 59.4206 102.671 59.4206 102.872H58.3242C58.3242 102.208 58.7425 101.614 59.3642 101.394C62.0339 100.446 71.6424 97.6469 83.2204 101.409C83.8678 101.62 84.3026 102.221 84.3026 102.905Z" fill="#37AFD4"/>
<path d="M84.3026 96.9261H83.2051C83.2051 96.7204 83.0711 96.5336 82.8808 96.4725C71.6307 92.8157 62.3171 95.5289 59.7308 96.4466C59.5451 96.5124 59.4206 96.6911 59.4206 96.892H58.3242C58.3242 96.2281 58.7414 95.6335 59.3642 95.4126C62.0339 94.4655 71.6436 91.6665 83.2204 95.429C83.8678 95.6394 84.3026 96.241 84.3026 96.9261Z" fill="#37AFD4"/>
<path d="M95.2495 200.695H94.1532C94.1532 200.103 93.7654 199.563 93.2096 199.383C71.9174 192.464 54.2762 197.601 49.3761 199.34C48.8356 199.532 48.4725 200.051 48.4725 200.633H47.375C47.375 199.588 48.0307 198.654 49.0083 198.307C53.9906 196.539 71.9268 191.315 93.5481 198.341C94.5657 198.671 95.2495 199.617 95.2495 200.695Z" fill="#37AFD4"/>
<path d="M95.2495 212.644H94.1532C94.1532 212.052 93.7654 211.512 93.2096 211.333C71.9174 204.412 54.2762 209.549 49.3761 211.289C48.8356 211.481 48.4725 212 48.4725 212.582H47.375C47.375 211.537 48.0307 210.603 49.0083 210.256C53.9906 208.488 71.9268 203.265 93.5481 210.29C94.5657 210.621 95.2495 211.568 95.2495 212.644Z" fill="#37AFD4"/>
<path d="M95.2495 224.586H94.1532C94.1532 223.994 93.7654 223.454 93.2096 223.273C71.9174 216.352 54.2762 221.49 49.3761 223.23C48.8356 223.423 48.4725 223.942 48.4725 224.522H47.375C47.375 223.479 48.0307 222.544 49.0083 222.197C53.9906 220.43 71.9268 215.204 93.5481 222.231C94.5657 222.562 95.2495 223.508 95.2495 224.586Z" fill="#37AFD4"/>
<path d="M95.2495 236.523H94.1532C94.1532 235.931 93.7654 235.392 93.2096 235.211C71.9151 228.29 54.2738 233.427 49.3761 235.167C48.8356 235.359 48.4725 235.878 48.4725 236.459H47.375C47.375 235.415 48.0307 234.48 49.0083 234.133C53.9894 232.364 71.9221 227.138 93.5481 234.167C94.5657 234.499 95.2495 235.445 95.2495 236.523Z" fill="#37AFD4"/>
<path d="M95.2484 248.467H94.152C94.152 247.875 93.7643 247.335 93.2096 247.155C71.9151 240.233 54.275 245.372 49.3761 247.112C48.8356 247.304 48.4725 247.823 48.4725 248.405H47.375C47.375 247.36 48.0307 246.426 49.0083 246.079C53.9906 244.311 71.9268 239.086 93.5481 246.113C94.5645 246.441 95.2484 247.388 95.2484 248.467Z" fill="#37AFD4"/>
<path d="M95.2495 260.415H94.1532C94.1532 259.822 93.7654 259.283 93.2096 259.103C71.9174 252.183 54.2762 257.319 49.3761 259.06C48.8356 259.251 48.4725 259.771 48.4725 260.352H47.375C47.375 259.308 48.0307 258.373 49.0083 258.027C53.9906 256.258 71.9268 251.035 93.5481 258.061C94.5657 258.391 95.2495 259.337 95.2495 260.415Z" fill="#37AFD4"/>
<path d="M95.2495 272.355H94.1532C94.1532 271.763 93.7654 271.224 93.2096 271.044C71.9174 264.124 54.2762 269.261 49.3761 271C48.8356 271.192 48.4725 271.711 48.4725 272.293H47.375C47.375 271.248 48.0307 270.314 49.0083 269.967C53.9906 268.2 71.9268 262.975 93.5481 270.002C94.5657 270.331 95.2495 271.276 95.2495 272.355Z" fill="#37AFD4"/>
<path d="M95.2495 284.298H94.1532C94.1532 283.706 93.7654 283.166 93.2096 282.985C71.9174 276.064 54.2762 281.201 49.3761 282.942C48.8356 283.134 48.4725 283.654 48.4725 284.234H47.375C47.375 283.191 48.0307 282.256 49.0083 281.909C53.9906 280.142 71.9268 274.916 93.5481 281.943C94.5657 282.273 95.2495 283.219 95.2495 284.298Z" fill="#37AFD4"/>
<path d="M95.2495 296.248H94.1532C94.1532 295.657 93.7654 295.116 93.2096 294.935C71.9151 288.014 54.2738 293.153 49.3761 294.892C48.8356 295.083 48.4725 295.603 48.4725 296.184H47.375C47.375 295.138 48.0319 294.204 49.0083 293.858C53.9883 292.09 71.921 286.864 93.5469 293.892C94.5657 294.224 95.2495 295.17 95.2495 296.248Z" fill="#37AFD4"/>
<path d="M95.2484 308.187H94.152C94.152 307.595 93.7643 307.055 93.2096 306.875C71.9198 299.955 54.2762 305.091 49.375 306.831C48.8356 307.023 48.4725 307.542 48.4725 308.123H47.375C47.375 307.079 48.0307 306.144 49.0083 305.797C53.9918 304.029 71.9292 298.806 93.5481 305.831C94.5645 306.162 95.2484 307.109 95.2484 308.187Z" fill="#37AFD4"/>
<path d="M95.2495 320.129H94.1532C94.1532 319.538 93.7654 318.997 93.2096 318.816C71.9116 311.895 54.2738 317.033 49.3761 318.773C48.8356 318.966 48.4725 319.485 48.4725 320.066H47.375C47.375 319.022 48.0307 318.087 49.0083 317.74C53.9906 315.972 71.9221 310.746 93.5481 317.773C94.5657 318.106 95.2495 319.051 95.2495 320.129Z" fill="#37AFD4"/>
<path d="M95.2484 332.069H94.152C94.152 331.477 93.7643 330.937 93.2096 330.757C71.9151 323.836 54.275 328.976 49.3761 330.713C48.8356 330.905 48.4725 331.424 48.4725 332.006H47.375C47.375 330.96 48.0319 330.026 49.0083 329.679C53.9894 327.912 71.9245 322.687 93.5481 329.713C94.5645 330.044 95.2484 330.991 95.2484 332.069Z" fill="#37AFD4"/>
<path d="M95.2484 344.017H94.152C94.152 343.425 93.7643 342.885 93.2096 342.705C71.9198 335.786 54.2762 340.922 49.375 342.662C48.8356 342.854 48.4725 343.373 48.4725 343.953H47.375C47.375 342.91 48.0307 341.975 49.0083 341.628C53.9918 339.859 71.9292 334.635 93.5481 341.662C94.5645 341.992 95.2484 342.939 95.2484 344.017Z" fill="#37AFD4"/>
<path d="M95.2495 355.947H94.1532C94.1532 355.356 93.7654 354.815 93.2096 354.634C71.9116 347.712 54.2738 352.852 49.3761 354.591C48.8356 354.782 48.4725 355.302 48.4725 355.883H47.375C47.375 354.838 48.0319 353.903 49.0083 353.557C53.9883 351.788 71.9198 346.562 93.5469 353.591C94.5657 353.923 95.2495 354.869 95.2495 355.947Z" fill="#37AFD4"/>
<path d="M71.8117 54H70.8164V91.8195H71.8117V54Z" fill="#92E5FF"/>
<path d="M72.8062 78.3927C72.8062 79.2176 72.1375 79.8862 71.3138 79.8862C70.4889 79.8862 69.8203 79.2176 69.8203 78.3927C69.8203 77.5678 70.4889 76.9004 71.3138 76.9004C72.1375 76.8992 72.8062 77.5678 72.8062 78.3927Z" fill="#92E5FF"/>
<path d="M56.9183 143.575H56.6445V369.495H56.9183V143.575Z" fill="#37AFD4"/>
<path d="M83.7894 143.575H83.5156V369.495H83.7894V143.575Z" fill="#37AFD4"/>
<path d="M70.8519 92.8203H70.5781V369.498H70.8519V92.8203Z" fill="#37AFD4"/>
<path d="M171.223 94.5604L177.104 84.5524L182.44 81.8838V94.336L171.223 94.5604Z" fill="#92E5FF"/>
<path d="M194.064 94.5875L188.213 84.5618L182.885 81.8779L182.848 94.3301L194.064 94.5875Z" fill="#92E5FF"/>
<path d="M170.074 95.7043V128.6C170.074 129.177 170.542 129.645 171.119 129.645H194.439C195.016 129.645 195.484 129.177 195.484 128.6V95.7384C195.484 95.2883 195.195 94.8818 194.766 94.7419C183.066 90.9394 173.368 93.796 170.763 94.7208C170.347 94.87 170.074 95.2637 170.074 95.7043Z" fill="#99ECFF"/>
<path d="M165.953 119.52V163.084C165.953 163.848 166.572 164.468 167.337 164.468H198.22C198.984 164.468 199.605 163.849 199.605 163.084V119.565C199.605 118.968 199.222 118.431 198.654 118.246C183.16 113.211 170.317 116.993 166.866 118.218C166.315 118.414 165.953 118.935 165.953 119.52Z" fill="#92E5FF"/>
<path d="M163.891 145.871V194.77C163.891 195.628 164.586 196.324 165.444 196.324H200.109C200.966 196.324 201.662 195.628 201.662 194.77V145.923C201.662 145.253 201.232 144.649 200.595 144.442C183.204 138.79 168.788 143.036 164.915 144.411C164.296 144.63 163.891 145.216 163.891 145.871Z" fill="#99ECFF"/>
<path d="M159.391 188.698V367.577C159.391 368.639 160.252 369.501 161.314 369.501H204.243C205.305 369.501 206.167 368.639 206.167 367.577V188.761C206.167 187.932 205.634 187.184 204.845 186.928C183.307 179.928 165.454 185.187 160.659 186.889C159.894 187.161 159.391 187.887 159.391 188.698Z" fill="#92E5FF"/>
<path d="M206.713 188.755H205.617C205.617 188.163 205.229 187.623 204.674 187.444C183.38 180.522 165.74 185.66 160.841 187.4C160.3 187.592 159.937 188.111 159.937 188.693H158.84C158.84 187.648 159.496 186.714 160.473 186.367C165.457 184.599 183.391 179.374 205.013 186.401C206.031 186.73 206.713 187.677 206.713 188.755Z" fill="#37AFD4"/>
<path d="M201.737 177.247H200.641C200.641 176.831 200.368 176.451 199.979 176.325C183.252 170.887 169.397 174.924 165.548 176.29C165.169 176.424 164.914 176.79 164.914 177.197H163.816C163.816 176.325 164.364 175.545 165.181 175.256C169.111 173.86 183.26 169.739 200.319 175.282C201.167 175.557 201.737 176.347 201.737 177.247Z" fill="#37AFD4"/>
<path d="M201.737 164.297H200.641C200.641 163.881 200.368 163.501 199.979 163.376C183.254 157.94 169.397 161.974 165.548 163.339C165.169 163.474 164.914 163.839 164.914 164.248H163.816C163.816 163.376 164.364 162.597 165.179 162.306C169.11 160.913 183.263 156.789 200.318 162.332C201.167 162.608 201.737 163.398 201.737 164.297Z" fill="#37AFD4"/>
<path d="M201.737 151.349H200.641C200.641 150.933 200.368 150.553 199.979 150.428C183.252 144.992 169.396 149.026 165.548 150.392C165.169 150.526 164.914 150.892 164.914 151.299H163.816C163.816 150.428 164.364 149.647 165.181 149.358C169.11 147.962 183.259 143.84 200.318 149.384C201.167 149.66 201.737 150.45 201.737 151.349Z" fill="#37AFD4"/>
<path d="M200.745 139.3H199.647C199.647 138.919 199.398 138.571 199.041 138.456C183.227 133.315 170.129 137.13 166.489 138.422C166.143 138.545 165.91 138.879 165.91 139.253H164.812C164.812 138.416 165.339 137.666 166.122 137.388C169.843 136.067 183.238 132.167 199.379 137.412C200.197 137.678 200.745 138.436 200.745 139.3Z" fill="#37AFD4"/>
<path d="M200.745 131.345H199.647C199.647 130.964 199.398 130.616 199.041 130.501C183.227 125.361 170.129 129.175 166.489 130.467C166.143 130.59 165.91 130.924 165.91 131.296H164.812C164.812 130.46 165.339 129.71 166.122 129.433C169.843 128.111 183.238 124.211 199.379 129.456C200.197 129.723 200.745 130.481 200.745 131.345Z" fill="#37AFD4"/>
<path d="M200.745 123.373H199.647C199.647 122.993 199.398 122.646 199.041 122.53C183.223 117.389 170.126 121.204 166.489 122.496C166.143 122.619 165.91 122.953 165.91 123.325H164.812C164.812 122.489 165.339 121.739 166.122 121.462C169.841 120.142 183.235 116.241 199.379 121.486C200.197 121.752 200.745 122.51 200.745 123.373Z" fill="#37AFD4"/>
<path d="M195.766 114.854H194.67C194.67 114.648 194.536 114.461 194.346 114.4C183.094 110.742 173.781 113.455 171.196 114.374C171.01 114.44 170.885 114.619 170.885 114.82H169.789C169.789 114.156 170.206 113.562 170.829 113.341C173.5 112.396 183.107 109.597 194.685 113.358C195.33 113.567 195.766 114.169 195.766 114.854Z" fill="#37AFD4"/>
<path d="M195.766 108.867H194.67C194.67 108.662 194.536 108.476 194.346 108.414C183.096 104.757 173.782 107.469 171.196 108.388C171.01 108.454 170.885 108.632 170.885 108.833H169.789C169.789 108.169 170.206 107.575 170.829 107.354C173.5 106.408 183.107 103.608 194.685 107.37C195.33 107.582 195.766 108.182 195.766 108.867Z" fill="#37AFD4"/>
<path d="M195.766 102.905H194.67C194.67 102.7 194.536 102.514 194.346 102.452C183.098 98.7961 173.783 101.508 171.196 102.427C171.01 102.493 170.885 102.671 170.885 102.872H169.789C169.789 102.208 170.207 101.614 170.829 101.394C173.499 100.446 183.108 97.6469 194.684 101.409C195.33 101.62 195.766 102.221 195.766 102.905Z" fill="#37AFD4"/>
<path d="M195.766 96.9261H194.67C194.67 96.7204 194.536 96.5336 194.346 96.4725C183.094 92.8157 173.781 95.5289 171.196 96.4466C171.01 96.5124 170.885 96.6911 170.885 96.892H169.789C169.789 96.2281 170.206 95.6335 170.829 95.4126C173.5 94.4655 183.107 91.6665 194.685 95.429C195.33 95.6394 195.766 96.241 195.766 96.9261Z" fill="#37AFD4"/>
<path d="M206.714 200.695H205.618C205.618 200.103 205.23 199.563 204.674 199.383C183.382 192.464 165.74 197.601 160.841 199.34C160.3 199.532 159.937 200.051 159.937 200.633H158.84C158.84 199.588 159.496 198.654 160.473 198.307C165.457 196.539 183.39 191.315 205.013 198.341C206.032 198.671 206.714 199.617 206.714 200.695Z" fill="#37AFD4"/>
<path d="M206.714 212.644H205.618C205.618 212.052 205.23 211.512 204.674 211.333C183.382 204.412 165.74 209.549 160.841 211.289C160.3 211.481 159.937 212 159.937 212.582H158.84C158.84 211.537 159.496 210.603 160.473 210.256C165.457 208.488 183.393 203.265 205.013 210.29C206.032 210.621 206.714 211.568 206.714 212.644Z" fill="#37AFD4"/>
<path d="M206.714 224.586H205.618C205.618 223.994 205.23 223.454 204.674 223.273C183.382 216.352 165.74 221.49 160.841 223.23C160.3 223.423 159.937 223.942 159.937 224.522H158.84C158.84 223.479 159.496 222.544 160.473 222.197C165.457 220.43 183.393 215.204 205.013 222.231C206.032 222.562 206.714 223.508 206.714 224.586Z" fill="#37AFD4"/>
<path d="M206.714 236.523H205.618C205.618 235.931 205.23 235.392 204.674 235.211C183.38 228.29 165.74 233.427 160.841 235.167C160.3 235.359 159.937 235.878 159.937 236.459H158.84C158.84 235.415 159.496 234.48 160.473 234.133C165.454 232.364 183.387 227.138 205.013 234.167C206.032 234.499 206.714 235.445 206.714 236.523Z" fill="#37AFD4"/>
<path d="M206.713 248.467H205.617C205.617 247.875 205.229 247.335 204.674 247.155C183.38 240.233 165.74 245.372 160.841 247.112C160.3 247.304 159.937 247.823 159.937 248.405H158.84C158.84 247.36 159.496 246.426 160.473 246.079C165.457 244.311 183.391 239.086 205.013 246.113C206.031 246.441 206.713 247.388 206.713 248.467Z" fill="#37AFD4"/>
<path d="M206.714 260.415H205.618C205.618 259.822 205.23 259.283 204.674 259.103C183.382 252.183 165.74 257.319 160.841 259.06C160.3 259.251 159.937 259.771 159.937 260.352H158.84C158.84 259.308 159.496 258.373 160.473 258.027C165.457 256.258 183.39 251.035 205.013 258.061C206.032 258.391 206.714 259.337 206.714 260.415Z" fill="#37AFD4"/>
<path d="M206.714 272.355H205.618C205.618 271.763 205.23 271.224 204.674 271.044C183.382 264.124 165.74 269.261 160.841 271C160.3 271.192 159.937 271.711 159.937 272.293H158.84C158.84 271.248 159.496 270.314 160.473 269.967C165.457 268.2 183.393 262.975 205.013 270.002C206.032 270.331 206.714 271.276 206.714 272.355Z" fill="#37AFD4"/>
<path d="M206.714 284.298H205.618C205.618 283.706 205.23 283.166 204.674 282.985C183.382 276.064 165.74 281.201 160.841 282.942C160.3 283.134 159.937 283.654 159.937 284.234H158.84C158.84 283.191 159.496 282.256 160.473 281.909C165.457 280.142 183.393 274.916 205.013 281.943C206.032 282.273 206.714 283.219 206.714 284.298Z" fill="#37AFD4"/>
<path d="M206.714 296.248H205.618C205.618 295.657 205.23 295.116 204.674 294.935C183.38 288.014 165.74 293.153 160.841 294.892C160.3 295.083 159.937 295.603 159.937 296.184H158.84C158.84 295.138 159.497 294.204 160.473 293.858C165.453 292.09 183.386 286.864 205.012 293.892C206.032 294.224 206.714 295.17 206.714 296.248Z" fill="#37AFD4"/>
<path d="M206.713 308.187H205.617C205.617 307.595 205.229 307.055 204.674 306.875C183.385 299.955 165.741 305.091 160.84 306.831C160.3 307.023 159.937 307.542 159.937 308.123H158.84C158.84 307.079 159.496 306.144 160.473 305.797C165.457 304.029 183.394 298.806 205.013 305.831C206.031 306.162 206.713 307.109 206.713 308.187Z" fill="#37AFD4"/>
<path d="M206.714 320.129H205.618C205.618 319.538 205.23 318.997 204.674 318.816C183.376 311.895 165.739 317.033 160.841 318.773C160.3 318.966 159.937 319.485 159.937 320.066H158.84C158.84 319.022 159.496 318.087 160.473 317.74C165.455 315.972 183.388 310.746 205.013 317.773C206.032 318.106 206.714 319.051 206.714 320.129Z" fill="#37AFD4"/>
<path d="M206.713 332.069H205.617C205.617 331.477 205.229 330.937 204.674 330.757C183.38 323.836 165.74 328.976 160.841 330.713C160.3 330.905 159.937 331.424 159.937 332.006H158.84C158.84 330.96 159.497 330.026 160.473 329.679C165.454 327.912 183.389 322.687 205.013 329.713C206.031 330.044 206.713 330.991 206.713 332.069Z" fill="#37AFD4"/>
<path d="M206.713 344.017H205.617C205.617 343.425 205.229 342.885 204.674 342.705C183.385 335.786 165.741 340.922 160.84 342.662C160.3 342.854 159.937 343.373 159.937 343.953H158.84C158.84 342.91 159.496 341.975 160.473 341.628C165.457 339.859 183.394 334.635 205.013 341.662C206.031 341.992 206.713 342.939 206.713 344.017Z" fill="#37AFD4"/>
<path d="M206.714 355.947H205.618C205.618 355.356 205.23 354.815 204.674 354.634C183.376 347.712 165.739 352.852 160.841 354.591C160.3 354.782 159.937 355.302 159.937 355.883H158.84C158.84 354.838 159.497 353.903 160.473 353.557C165.453 351.788 183.385 346.562 205.012 353.591C206.032 353.923 206.714 354.869 206.714 355.947Z" fill="#37AFD4"/>
<path d="M183.277 54H182.281V91.8195H183.277V54Z" fill="#92E5FF"/>
<path d="M184.271 78.3927C184.271 79.2176 183.602 79.8862 182.777 79.8862C181.953 79.8862 181.285 79.2176 181.285 78.3927C181.285 77.5678 181.954 76.9004 182.777 76.9004C183.602 76.8992 184.271 77.5678 184.271 78.3927Z" fill="#92E5FF"/>
<path d="M168.383 143.575H168.109V369.495H168.383V143.575Z" fill="#37AFD4"/>
<path d="M195.254 143.575H194.98V369.495H195.254V143.575Z" fill="#37AFD4"/>
<path d="M182.317 92.8203H182.043V369.498H182.317V92.8203Z" fill="#37AFD4"/>
<path d="M68.8242 402.841C68.8242 370.136 95.3361 343.623 128.042 343.623C160.746 343.623 187.259 370.136 187.259 402.841" fill="#99ECFF"/>
<path d="M235.03 419.26H23.043V361.89C23.043 358.396 25.8749 355.564 29.3684 355.564H228.704C232.198 355.564 235.03 358.396 235.03 361.89V419.26Z" fill="#99ECFF"/>
<path d="M155.413 367.746H94.7031V419.257H155.413V367.746Z" fill="#92E5FF"/>
<g opacity="0.51">
<path d="M235.03 367.513H23.043V403.342H235.03V367.513Z" fill="#92E5FF"/>
</g>
<path d="M142.252 367.513H141.703V419.265H142.252V367.513Z" fill="#37AFD4"/>
<path d="M124.334 367.513H123.785V419.265H124.334V367.513Z" fill="#37AFD4"/>
<path d="M106.42 367.513H105.871V419.265H106.42V367.513Z" fill="#37AFD4"/>
<path d="M37.1191 380.45H23.043V402.345H37.1191V380.45Z" fill="#31C9ED"/>
<path d="M56.3144 380.45H42.2383V402.345H56.3144V380.45Z" fill="#31C9ED"/>
<path d="M75.5058 380.45H61.4297V402.345H75.5058V380.45Z" fill="#31C9ED"/>
<path d="M94.7011 380.45H80.625V402.345H94.7011V380.45Z" fill="#31C9ED"/>
<path d="M171.049 380.45H155.41V402.345H171.049V380.45Z" fill="#31C9ED"/>
<path d="M192.377 380.45H176.738V402.345H192.377V380.45Z" fill="#31C9ED"/>
<path d="M213.701 380.45H198.062V402.345H213.701V380.45Z" fill="#31C9ED"/>
<path d="M235.03 380.45H219.391V402.345H235.03V380.45Z" fill="#31C9ED"/>
<path d="M164.369 231.161H92.7109V241.114H164.369V231.161Z" fill="#92E5FF"/>
<path d="M122.664 238.402L94.0898 252.846L94.7318 254.116L123.306 239.672L122.664 238.402Z" fill="#92E5FF"/>
<path d="M132.016 239.69L160.59 254.134L161.232 252.864L132.658 238.42L132.016 239.69Z" fill="#92E5FF"/>
<path d="M12.2031 417.697C12.2031 417.697 13.2309 411.03 23.255 411.746C33.279 412.461 35.6901 410.541 39.5412 406.241C44.5086 400.694 66.0325 394.784 68.8967 417.697H12.2031Z" fill="#2BA4C9"/>
<path d="M32.8706 418.413C32.8706 418.413 32.1547 410.537 42.1788 411.253C52.2028 411.968 56.9441 410.541 60.7952 406.24C65.7626 400.694 87.2866 394.784 90.1507 417.697L32.8706 418.413Z" fill="#2BA4C9"/>
<path d="M387.684 420.485C387.684 420.485 388.775 408.483 373.501 409.575C358.227 410.666 351.003 408.49 345.134 401.938C337.565 393.486 304.766 384.481 300.402 419.394L387.684 420.485Z" fill="#2BA4C9"/>
<path d="M571.598 419.395C571.598 419.395 564.81 412.211 557.145 412.594C541.851 413.357 538.034 410.191 532.166 403.639C524.596 395.187 491.797 386.182 487.434 421.095L571.598 419.395Z" fill="#2BA4C9"/>
<path d="M147.047 419.226C147.047 419.226 146.224 409.563 158.512 410.511C170.8 411.458 176.623 409.74 181.376 404.494C187.508 397.726 213.944 390.629 217.297 418.748L147.047 419.226Z" fill="#2BA4C9"/>
<path d="M496.763 250.267C496.763 253.167 494.412 255.518 491.512 255.518C488.612 255.518 486.262 253.167 486.262 250.267C486.262 247.367 488.612 245.017 491.512 245.017C494.412 245.017 496.763 247.367 496.763 250.267Z" fill="#37AFD4"/>
<path d="M499.388 261.092H482.98V269.295H499.388V261.092Z" fill="#37AFD4"/>
<path d="M470.426 268.288V271.733L473.06 273.759L473.174 287.275H478.329V268.288H470.426Z" fill="#37AFD4"/>
<path d="M474.48 268.288V271.733L477.115 273.759V287.275H482.383V268.288H474.48Z" fill="#68C3DF"/>
<path d="M477.52 268.288V271.733L480.153 273.759V287.275H499.807V268.288H477.52Z" fill="#46B5D7"/>
<path d="M477.96 268.487C477.96 268.487 476.743 268.081 476.947 267.271C477.149 266.46 478.568 266.663 478.365 265.244C478.163 263.826 475.326 262.407 475.326 262.407C475.326 262.407 476.339 263.826 475.124 265.041C473.908 266.257 474.032 268.486 475.124 268.486C475.528 268.487 477.96 268.487 477.96 268.487Z" fill="#68C3DF"/>
<path d="M473.706 268.487C473.706 268.487 472.491 268.081 472.693 267.271C472.895 266.46 474.314 266.663 474.111 265.244C473.909 263.826 471.072 262.407 471.072 262.407C471.072 262.407 472.085 263.826 470.87 265.041C469.654 266.257 469.779 268.486 470.87 268.486C471.274 268.487 473.706 268.487 473.706 268.487Z" fill="#37AFD4"/>
<path d="M481.201 268.487C481.201 268.487 479.985 268.081 480.189 267.271C480.391 266.46 481.809 266.663 481.607 265.244C481.405 263.826 478.568 262.407 478.568 262.407C478.568 262.407 479.581 263.826 478.365 265.041C477.15 266.256 477.274 268.486 478.365 268.486C478.769 268.487 481.201 268.487 481.201 268.487Z" fill="#46B5D7"/>
<path d="M487.077 268.487C487.077 268.487 485.861 268.081 486.064 267.271C486.266 266.46 487.685 266.663 487.483 265.244C487.28 263.826 484.443 262.407 484.443 262.407C484.443 262.407 485.456 263.826 484.241 265.041C483.025 266.257 483.15 268.486 484.241 268.486C484.646 268.487 487.077 268.487 487.077 268.487Z" fill="#46B5D7"/>
<path d="M511.999 268.288V271.733L509.365 273.759L509.67 287.275H504.098V268.288H511.999Z" fill="#37AFD4"/>
<path d="M507.95 268.288V271.733L505.315 273.759V287.275H500.047V268.288H507.95Z" fill="#68C3DF"/>
<path d="M504.911 268.288V271.733L502.276 273.759V287.275H497.008V268.288H504.911Z" fill="#46B5D7"/>
<path d="M504.468 268.487C504.468 268.487 505.684 268.081 505.481 267.271C505.279 266.46 503.86 266.663 504.063 265.244C504.265 263.826 507.102 262.407 507.102 262.407C507.102 262.407 506.089 263.826 507.304 265.041C508.519 266.256 508.395 268.486 507.304 268.486C506.9 268.487 504.468 268.487 504.468 268.487Z" fill="#68C3DF"/>
<path d="M508.722 268.487C508.722 268.487 509.938 268.081 509.735 267.271C509.533 266.46 508.114 266.663 508.317 265.244C508.519 263.826 511.356 262.407 511.356 262.407C511.356 262.407 510.343 263.826 511.558 265.041C512.773 266.256 512.649 268.486 511.558 268.486C511.154 268.487 508.722 268.487 508.722 268.487Z" fill="#37AFD4"/>
<path d="M501.226 268.487C501.226 268.487 502.442 268.081 502.239 267.271C502.037 266.46 500.618 266.663 500.82 265.244C501.023 263.826 503.86 262.407 503.86 262.407C503.86 262.407 502.847 263.826 504.062 265.041C505.277 266.256 505.153 268.486 504.062 268.486C503.658 268.487 501.226 268.487 501.226 268.487Z" fill="#46B5D7"/>
<path d="M495.351 268.487C495.351 268.487 496.567 268.081 496.364 267.271C496.162 266.46 494.743 266.663 494.945 265.244C495.148 263.826 497.985 262.407 497.985 262.407C497.985 262.407 496.972 263.826 498.187 265.041C499.402 266.256 499.278 268.486 498.187 268.486C497.782 268.487 495.351 268.487 495.351 268.487Z" fill="#46B5D7"/>
<path d="M477.52 271.729L480.153 273.755H502.239L504.872 271.729H477.52Z" fill="#68C3DF"/>
<path d="M504.966 276.847H477.402V284.066H504.966V276.847Z" fill="#68C3DF"/>
<path d="M467.406 283.927V287.871L470.423 290.191L470.554 305.67H476.456V283.927H467.406Z" fill="#37AFD4"/>
<path d="M472.047 283.927V287.871L475.063 290.191V305.67H481.097V283.927H472.047Z" fill="#68C3DF"/>
<path d="M475.531 283.927V287.871L478.548 290.191V305.67H501.054V283.927H475.531Z" fill="#46B5D7"/>
<path d="M476.033 284.162C476.033 284.162 474.641 283.699 474.873 282.771C475.105 281.843 476.729 282.075 476.497 280.45C476.264 278.826 473.017 277.201 473.017 277.201C473.017 277.201 474.177 278.825 472.784 280.218C471.392 281.61 471.535 284.162 472.784 284.162C473.248 284.162 476.033 284.162 476.033 284.162Z" fill="#68C3DF"/>
<path d="M471.162 284.162C471.162 284.162 469.769 283.699 470.002 282.771C470.234 281.843 471.858 282.075 471.626 280.45C471.393 278.826 468.146 277.201 468.146 277.201C468.146 277.201 469.306 278.825 467.913 280.218C466.521 281.61 466.664 284.162 467.913 284.162C468.378 284.162 471.162 284.162 471.162 284.162Z" fill="#37AFD4"/>
<path d="M479.748 284.162C479.748 284.162 478.355 283.699 478.588 282.771C478.82 281.843 480.444 282.075 480.212 280.45C479.979 278.826 476.731 277.201 476.731 277.201C476.731 277.201 477.892 278.825 476.499 280.218C475.107 281.61 475.25 284.162 476.499 284.162C476.964 284.162 479.748 284.162 479.748 284.162Z" fill="#46B5D7"/>
<path d="M486.479 284.162C486.479 284.162 485.086 283.699 485.318 282.771C485.55 281.843 487.174 282.075 486.942 280.45C486.71 278.826 483.462 277.201 483.462 277.201C483.462 277.201 484.622 278.825 483.23 280.218C481.837 281.61 481.981 284.162 483.23 284.162C483.694 284.162 486.479 284.162 486.479 284.162Z" fill="#46B5D7"/>
<path d="M515.015 283.927V287.871L511.998 290.191L512.347 305.67H505.965V283.927H515.015Z" fill="#37AFD4"/>
<path d="M510.374 283.927V287.871L507.357 290.191V305.67H501.324V283.927H510.374Z" fill="#68C3DF"/>
<path d="M506.892 283.927V287.871L503.877 290.191V305.67H497.844V283.927H506.892Z" fill="#46B5D7"/>
<path d="M506.389 284.162C506.389 284.162 507.781 283.699 507.549 282.771C507.317 281.843 505.693 282.075 505.925 280.45C506.157 278.826 509.405 277.201 509.405 277.201C509.405 277.201 508.245 278.825 509.637 280.218C511.03 281.61 510.887 284.162 509.637 284.162C509.174 284.162 506.389 284.162 506.389 284.162Z" fill="#68C3DF"/>
<path d="M511.26 284.162C511.26 284.162 512.652 283.699 512.42 282.771C512.188 281.843 510.564 282.075 510.796 280.45C511.028 278.826 514.276 277.201 514.276 277.201C514.276 277.201 513.116 278.825 514.509 280.218C515.901 281.61 515.758 284.162 514.509 284.162C514.044 284.162 511.26 284.162 511.26 284.162Z" fill="#37AFD4"/>
<path d="M502.678 284.162C502.678 284.162 504.07 283.699 503.838 282.771C503.606 281.843 501.982 282.075 502.214 280.45C502.446 278.826 505.694 277.201 505.694 277.201C505.694 277.201 504.534 278.825 505.926 280.218C507.319 281.61 507.176 284.162 505.926 284.162C505.462 284.162 502.678 284.162 502.678 284.162Z" fill="#46B5D7"/>
<path d="M495.947 284.162C495.947 284.162 497.34 283.699 497.108 282.771C496.875 281.843 495.251 282.075 495.484 280.45C495.716 278.826 498.964 277.201 498.964 277.201C498.964 277.201 497.803 278.825 499.196 280.218C500.589 281.61 500.445 284.162 499.196 284.162C498.731 284.162 495.947 284.162 495.947 284.162Z" fill="#46B5D7"/>
<path d="M475.531 287.861L478.548 290.181H503.839L506.855 287.861H475.531Z" fill="#68C3DF"/>
<path d="M504.966 294.575H477.402V305.404H504.966V294.575Z" fill="#68C3DF"/>
<path d="M462.316 303.161V308.086L466.082 310.982L466.246 330.306H473.614V303.161H462.316Z" fill="#37AFD4"/>
<path d="M468.109 303.161V308.086L471.875 310.982V330.306H479.407V303.161H468.109Z" fill="#68C3DF"/>
<path d="M472.453 303.161V308.086L476.218 310.982V330.306H504.317V303.161H472.453Z" fill="#46B5D7"/>
<path d="M473.083 303.446C473.083 303.446 471.344 302.867 471.634 301.708C471.924 300.55 473.952 300.839 473.662 298.811C473.372 296.783 469.317 294.756 469.317 294.756C469.317 294.756 470.765 296.783 469.026 298.522C467.289 300.26 467.467 303.446 469.026 303.446C469.607 303.446 473.083 303.446 473.083 303.446Z" fill="#68C3DF"/>
<path d="M467.001 303.446C467.001 303.446 465.263 302.867 465.553 301.708C465.843 300.55 467.87 300.839 467.58 298.811C467.29 296.783 463.235 294.756 463.235 294.756C463.235 294.756 464.683 296.783 462.945 298.522C461.206 300.26 461.385 303.446 462.945 303.446C463.524 303.446 467.001 303.446 467.001 303.446Z" fill="#37AFD4"/>
<path d="M477.72 303.446C477.72 303.446 475.981 302.867 476.271 301.708C476.561 300.55 478.589 300.839 478.299 298.811C478.009 296.783 473.954 294.756 473.954 294.756C473.954 294.756 475.402 296.783 473.664 298.522C471.925 300.26 472.104 303.446 473.664 303.446C474.243 303.446 477.72 303.446 477.72 303.446Z" fill="#46B5D7"/>
<path d="M486.118 303.446C486.118 303.446 484.38 302.867 484.67 301.708C484.96 300.55 486.987 300.839 486.697 298.811C486.407 296.783 482.352 294.756 482.352 294.756C482.352 294.756 483.801 296.783 482.062 298.522C480.324 300.26 480.502 303.446 482.062 303.446C482.641 303.446 486.118 303.446 486.118 303.446Z" fill="#46B5D7"/>
<path d="M521.75 303.161V308.086L517.985 310.982L518.421 330.306H510.453V303.161H521.75Z" fill="#37AFD4"/>
<path d="M515.958 303.161V308.086L512.192 310.982V330.306H504.66V303.161H515.958Z" fill="#68C3DF"/>
<path d="M511.614 303.161V308.086L507.847 310.982V330.306H500.316V303.161H511.614Z" fill="#46B5D7"/>
<path d="M510.983 303.446C510.983 303.446 512.721 302.867 512.431 301.708C512.141 300.55 510.113 300.839 510.403 298.811C510.693 296.783 514.749 294.756 514.749 294.756C514.749 294.756 513.3 296.783 515.039 298.522C516.777 300.26 516.599 303.446 515.039 303.446C514.459 303.446 510.983 303.446 510.983 303.446Z" fill="#68C3DF"/>
<path d="M517.065 303.446C517.065 303.446 518.803 302.867 518.513 301.708C518.223 300.55 516.195 300.839 516.485 298.811C516.775 296.783 520.831 294.756 520.831 294.756C520.831 294.756 519.382 296.783 521.121 298.522C522.859 300.26 522.681 303.446 521.121 303.446C520.54 303.446 517.065 303.446 517.065 303.446Z" fill="#37AFD4"/>
<path d="M506.346 303.446C506.346 303.446 508.084 302.867 507.794 301.708C507.504 300.55 505.477 300.839 505.767 298.811C506.057 296.783 510.112 294.756 510.112 294.756C510.112 294.756 508.663 296.783 510.402 298.522C512.14 300.26 511.962 303.446 510.402 303.446C509.822 303.446 506.346 303.446 506.346 303.446Z" fill="#46B5D7"/>
<path d="M497.947 303.446C497.947 303.446 499.685 302.867 499.396 301.708C499.106 300.55 497.078 300.839 497.368 298.811C497.658 296.783 501.713 294.756 501.713 294.756C501.713 294.756 500.265 296.783 502.003 298.522C503.742 300.26 503.563 303.446 502.003 303.446C501.423 303.446 497.947 303.446 497.947 303.446Z" fill="#46B5D7"/>
<path d="M472.453 308.086L476.218 310.983H507.793L511.559 308.086H472.453Z" fill="#68C3DF"/>
<path d="M508.576 315.889H475.434V329.671H508.576V315.889Z" fill="#68C3DF"/>
<path d="M501.356 349.036H481.34V353.302H501.356V349.036Z" fill="#37AFD4"/>
<path d="M481.993 340.823H464.93V388.076H481.993V340.823Z" fill="#37AFD4"/>
<path d="M470.512 340.823V349.355L472.809 352.637H477.403V340.823H470.512Z" fill="#68C3DF"/>
<path d="M477.403 352.645H472.809V388.084H477.403V352.645Z" fill="#68C3DF"/>
<path d="M481.996 352.645H477.402V388.084H481.996V352.645Z" fill="#46B5D7"/>
<path d="M457.711 327.371V332.949L461.978 336.231L464.93 342.137H470.509V327.371H457.711Z" fill="#37AFD4"/>
<path d="M464.277 327.371V332.949L468.543 336.231V342.137H477.075V327.371H464.277Z" fill="#68C3DF"/>
<path d="M475.102 340.823V349.355L477.399 352.637H481.993V340.823H475.102Z" fill="#46B5D7"/>
<path d="M469.195 327.371V332.949L473.462 336.231V342.137H505.291V327.371H469.195Z" fill="#46B5D7"/>
<path d="M464.601 390.381L459.844 395.139V398.912H472.805V390.381H464.601Z" fill="#37AFD4"/>
<path d="M468.539 390.381L463.781 395.139V398.912H476.743V390.381H468.539Z" fill="#68C3DF"/>
<path d="M473.789 390.381L469.031 395.139V398.912H481.994V390.381H473.789Z" fill="#46B5D7"/>
<path d="M481.994 390.383H463.946L462.961 387.758H481.994V390.383Z" fill="#37AFD4"/>
<path d="M469.91 327.7C469.91 327.7 467.941 327.044 468.27 325.731C468.598 324.419 470.895 324.747 470.567 322.45C470.238 320.152 465.644 317.855 465.644 317.855C465.644 317.855 467.285 320.153 465.316 322.121C463.347 324.09 463.549 327.699 465.316 327.699C465.972 327.7 469.91 327.7 469.91 327.7Z" fill="#46B5D7"/>
<path d="M463.02 327.7C463.02 327.7 461.051 327.044 461.379 325.731C461.707 324.419 464.004 324.747 463.676 322.45C463.348 320.152 458.754 317.855 458.754 317.855C458.754 317.855 460.394 320.153 458.426 322.121C456.457 324.09 456.658 327.699 458.426 327.699C459.082 327.7 463.02 327.7 463.02 327.7Z" fill="#37AFD4"/>
<path d="M475.16 327.7C475.16 327.7 473.191 327.044 473.52 325.731C473.848 324.419 476.145 324.747 475.817 322.45C475.488 320.152 470.894 317.855 470.894 317.855C470.894 317.855 472.535 320.153 470.566 322.121C468.597 324.09 468.799 327.699 470.566 327.699C471.223 327.7 475.16 327.7 475.16 327.7Z" fill="#46B5D7"/>
<path d="M484.676 327.7C484.676 327.7 482.707 327.044 483.035 325.731C483.364 324.419 485.661 324.747 485.332 322.45C485.004 320.152 480.41 317.855 480.41 317.855C480.41 317.855 482.05 320.153 480.082 322.121C478.113 324.09 478.314 327.699 480.082 327.699C480.738 327.7 484.676 327.7 484.676 327.7Z" fill="#46B5D7"/>
<path d="M517.821 340.823H500.758V388.076H517.821V340.823Z" fill="#37AFD4"/>
<path d="M512.243 340.823V349.355L509.946 352.637H505.352V340.823H512.243Z" fill="#68C3DF"/>
<path d="M509.946 352.645H505.352V388.084H509.946V352.645Z" fill="#68C3DF"/>
<path d="M500.758 388.089H505.352V352.65H500.758V388.089Z" fill="#46B5D7"/>
<path d="M525.039 327.371V332.949L520.774 336.231L517.821 342.137H512.242V327.371H525.039Z" fill="#37AFD4"/>
<path d="M518.477 327.371V332.949L514.211 336.231V342.137H505.68V327.371H518.477Z" fill="#68C3DF"/>
<path d="M507.649 340.823V349.355L505.352 352.637H500.758V340.823H507.649Z" fill="#46B5D7"/>
<path d="M513.555 327.371V332.949L509.289 336.231V342.137H500.758V327.371H513.555Z" fill="#46B5D7"/>
<path d="M518.149 390.381L522.907 395.139V398.912H509.945V390.381H518.149Z" fill="#37AFD4"/>
<path d="M514.211 390.381L518.969 395.139V398.912H506.008V390.381H514.211Z" fill="#68C3DF"/>
<path d="M508.961 390.381L513.719 395.139V398.912H500.758V390.381H508.961Z" fill="#46B5D7"/>
<path d="M500.758 390.383H518.806L519.79 387.758H500.758V390.383Z" fill="#37AFD4"/>
<path d="M512.841 327.7C512.841 327.7 514.81 327.044 514.481 325.731C514.153 324.419 511.856 324.747 512.184 322.45C512.513 320.152 517.107 317.855 517.107 317.855C517.107 317.855 515.466 320.153 517.435 322.121C519.404 324.09 519.202 327.699 517.435 327.699C516.778 327.7 512.841 327.7 512.841 327.7Z" fill="#46B5D7"/>
<path d="M519.732 327.7C519.732 327.7 521.7 327.044 521.372 325.731C521.044 324.419 518.747 324.747 519.075 322.45C519.403 320.152 523.997 317.855 523.997 317.855C523.997 317.855 522.357 320.153 524.326 322.121C526.294 324.09 526.093 327.699 524.326 327.699C523.669 327.7 519.732 327.7 519.732 327.7Z" fill="#37AFD4"/>
<path d="M507.591 327.7C507.591 327.7 509.56 327.044 509.231 325.731C508.903 324.419 506.606 324.747 506.934 322.45C507.263 320.152 511.857 317.855 511.857 317.855C511.857 317.855 510.216 320.153 512.185 322.121C514.154 324.09 513.952 327.699 512.185 327.699C511.528 327.7 507.591 327.7 507.591 327.7Z" fill="#46B5D7"/>
<path d="M498.075 327.7C498.075 327.7 500.044 327.044 499.716 325.731C499.387 324.419 497.09 324.747 497.419 322.45C497.747 320.152 502.341 317.855 502.341 317.855C502.341 317.855 500.701 320.153 502.669 322.121C504.638 324.09 504.437 327.699 502.669 327.699C502.013 327.7 498.075 327.7 498.075 327.7Z" fill="#46B5D7"/>
<path d="M502.997 340.835H481.34V349.038H502.997V340.835Z" fill="#68C3DF"/>
<path d="M469.199 332.961L473.466 336.243H509.233L513.499 332.961H469.199Z" fill="#68C3DF"/>
<path d="M498.403 262.413H484.293C481.937 262.413 480.027 260.503 480.027 258.148C480.027 255.792 481.937 253.882 484.293 253.882H498.403C500.759 253.882 502.669 255.792 502.669 258.148C502.669 260.503 500.759 262.413 498.403 262.413Z" fill="#68C3DF"/>
<path d="M496.234 254.535H486.465C484.834 254.535 483.512 253.213 483.512 251.582C483.512 249.95 484.834 248.628 486.465 248.628H496.234C497.865 248.628 499.187 249.95 499.187 251.582C499.186 253.213 497.865 254.535 496.234 254.535Z" fill="#68C3DF"/>
<path d="M491.84 238.124H491.512V245.999H491.84V238.124Z" fill="#37AFD4"/>
<path d="M483.587 254.547H483.504V261.417H483.587V254.547Z" fill="#37AFD4"/>
<path d="M486.753 254.547H486.672V261.417H486.753V254.547Z" fill="#37AFD4"/>
<path d="M489.921 254.547H489.84V261.417H489.921V254.547Z" fill="#37AFD4"/>
<path d="M493.089 254.547H493.008V261.417H493.089V254.547Z" fill="#37AFD4"/>
<path d="M496.257 254.547H496.176V261.417H496.257V254.547Z" fill="#37AFD4"/>
<path d="M499.425 254.547H499.344V261.417H499.425V254.547Z" fill="#37AFD4"/>
<path d="M486.613 249.282H486.531V253.527H486.613V249.282Z" fill="#37AFD4"/>
<path d="M488.57 249.282H488.488V253.527H488.57V249.282Z" fill="#37AFD4"/>
<path d="M490.527 249.282H490.445V253.527H490.527V249.282Z" fill="#37AFD4"/>
<path d="M492.484 249.282H492.402V253.527H492.484V249.282Z" fill="#37AFD4"/>
<path d="M494.441 249.282H494.359V253.527H494.441V249.282Z" fill="#37AFD4"/>
<path d="M496.398 249.282H496.316V253.527H496.398V249.282Z" fill="#37AFD4"/>
<path d="M549.924 398.907H432.121V403.83H549.924V398.907Z" fill="#46B5D7"/>
<path d="M551.237 398.254H430.48V399.894H551.237V398.254Z" fill="#37AFD4"/>
<path d="M560.193 404.119H421.902V409.897H560.193V404.119Z" fill="#46B5D7"/>
<path d="M561.734 403.348H419.977V405.274H561.734V403.348Z" fill="#37AFD4"/>
<path d="M589.8 411.006H392.457V419.251H589.8V411.006Z" fill="#46B5D7"/>
<path d="M592.001 409.918H389.711V412.666H592.001V409.918Z" fill="#37AFD4"/>
<path d="M482.483 398.255V405.34H470.308V410.907H459.703V415.461H443.602V419.256H491.909V398.255H482.483Z" fill="#68C3DF"/>
<path d="M500.868 398.255V405.34H513.043V410.907H523.647V415.461H539.749V419.256H491.441V398.255H500.868Z" fill="#68C3DF"/>
<path d="M501.029 398.255H482.324V400.224H501.029V398.255Z" fill="#005D7A"/>
<path d="M501.029 401.863H482.324V403.832H501.029V401.863Z" fill="#005D7A"/>
<path d="M513.17 405.476H470.184V407.444H513.17V405.476Z" fill="#005D7A"/>
<path d="M513.17 409.084H470.184V411.053H513.17V409.084Z" fill="#005D7A"/>
<path d="M523.668 412.707H459.68V414.676H523.668V412.707Z" fill="#005D7A"/>
<path d="M539.748 416.315H443.602V418.284H539.748V416.315Z" fill="#005D7A"/>
<path d="M327.645 324.695L328.818 322.351L327.645 319.225L328.036 316.099L327.254 312.192L324.91 313.755L322.566 312.192L324.91 308.285L323.347 305.159L321.003 306.332V304.377H322.957L318.659 300.861V293.388C319.61 292.35 320.222 290.748 320.222 288.944C320.222 286.281 318.89 284.053 317.097 283.447V270.775H319.832C317.097 265.306 316.706 255.928 316.706 255.928C316.706 260.617 313.189 270.775 313.189 270.775H315.533V283.343C313.546 283.736 312.017 286.09 312.017 288.944C312.017 291.202 312.976 293.147 314.361 294.057V300.861L310.063 304.377H312.017V306.332L309.673 305.159L308.111 308.285L310.455 312.192L308.111 313.755L305.767 312.192L304.985 316.099L305.376 319.225L304.203 322.351L305.376 324.695V335.244H303.812V336.416H305.376V341.886H315.925H317.098H327.647V336.416H328.82V335.244H327.647V324.695H327.645Z" fill="#46B5D7"/>
<path d="M264.347 322.351L263.174 319.225L263.565 316.099L262.784 312.192L260.44 313.755L258.096 312.192L260.44 308.285L258.876 305.159L256.532 306.332V304.377H258.485L254.187 300.861V293.388C255.138 292.35 255.751 290.748 255.751 288.944C255.751 286.281 254.418 284.053 252.625 283.447V270.775H255.36C252.625 265.306 252.234 255.928 252.234 255.928C252.234 260.617 248.718 270.775 248.718 270.775H251.062V283.343C249.074 283.736 247.545 286.09 247.545 288.944C247.545 291.202 248.505 293.147 249.889 294.057V300.861L245.591 304.377H247.544V306.332L245.2 305.159L243.637 308.285L245.981 312.192L243.637 313.755L241.293 312.192L240.511 316.099L240.902 319.225L239.73 322.351L240.902 324.695V335.244H239.34V336.416H240.902V341.886H251.452H252.624H263.173V336.416H264.346V335.244H263.173V324.695L264.347 322.351Z" fill="#46B5D7"/>
<path d="M218.633 341.884V335.242L224.102 331.726H240.904L245.593 334.851V341.884H218.633Z" fill="#2BA4C9"/>
<path d="M243.247 313.757L243.638 310.631L242.857 306.724L240.513 308.286L238.169 306.724L240.513 302.817L238.949 299.691L236.605 300.864V298.91H238.558L234.261 295.393V286.797H232.698H231.526H229.963V295.393L225.665 298.91H227.619V300.864L225.274 299.691L223.712 302.817L226.056 306.724L223.712 308.286L221.367 306.724L220.585 310.631L220.976 313.757L219.805 316.883L220.976 319.227V336.419H231.526H232.698H243.247V319.227L244.42 316.883L243.247 313.757Z" fill="#68C3DF"/>
<path d="M236.608 298.907H227.621V300.861H236.608V298.907Z" fill="#BFE2EE"/>
<path d="M240.512 308.284H223.711L226.055 306.722H238.168L240.512 308.284Z" fill="#BFE2EE"/>
<path d="M232.306 305.934L226.445 313.748L228.789 317.265V329.768H232.306V305.934Z" fill="#BFE2EE"/>
<path d="M232.305 305.934L238.166 313.748L235.821 317.265V329.768H232.305V305.934Z" fill="#BFE2EE"/>
<path d="M244.811 329.778H219.805V330.951H244.811V329.778Z" fill="#BFE2EE"/>
<path d="M233.091 264.138H231.527V286.8H233.091V264.138Z" fill="#BFE2EE"/>
<path d="M228.789 265.305H235.431C235.431 265.305 231.915 255.146 231.915 250.457C231.915 250.457 231.524 259.835 228.789 265.305Z" fill="#68C3DF"/>
<path d="M236.604 283.474C236.604 286.602 234.768 289.14 232.501 289.14C230.236 289.14 228.398 286.603 228.398 283.474C228.398 280.345 230.236 277.809 232.501 277.809C234.768 277.809 236.604 280.345 236.604 283.474Z" fill="#68C3DF"/>
<path d="M305.218 279.718L305.98 273.622L304.456 266.003L299.885 269.051L295.313 266.003L299.885 258.385L296.837 252.289L292.266 254.575V250.766H296.075L287.694 243.909V227.146H284.646H282.36H279.313V243.909L270.932 250.766H274.741V254.575L270.17 252.289L267.122 258.385L271.694 266.003L267.122 269.051L262.551 266.003L261.027 273.622L261.789 279.718L259.504 285.814L261.789 290.385V323.909H282.36H284.646H305.218V290.385L307.504 285.814L305.218 279.718Z" fill="#68C3DF"/>
<path d="M292.266 250.771H274.742V254.581H292.266V250.771Z" fill="#BFE2EE"/>
<path d="M299.884 269.052H267.121L271.693 266.004H295.312L299.884 269.052Z" fill="#BFE2EE"/>
<path d="M283.885 264.48L272.457 279.718L277.028 286.575V310.956H283.885V264.48Z" fill="#BFE2EE"/>
<path d="M283.887 264.48L295.315 279.718L290.744 286.575V310.956H283.887V264.48Z" fill="#BFE2EE"/>
<path d="M308.266 310.961H259.504V313.247H308.266V310.961Z" fill="#BFE2EE"/>
<path d="M284.853 195.869H282.695V227.145H284.853V195.869Z" fill="#BFE2EE"/>
<path d="M278.918 197.491H288.085C288.085 197.491 283.232 183.471 283.232 177C283.232 177 282.693 189.942 278.918 197.491Z" fill="#68C3DF"/>
<path d="M288.584 223.892C288.584 227.782 286.3 230.935 283.483 230.935C280.667 230.935 278.383 227.782 278.383 223.892C278.383 220.003 280.666 216.85 283.483 216.85C286.3 216.851 288.584 220.003 288.584 223.892Z" fill="#68C3DF"/>
<path d="M270.599 398.937H231.918V419.255H270.599V398.937Z" fill="#64BFDC"/>
<path d="M270.99 352.436H231.918V398.931H270.99V352.436Z" fill="#BFE2EE"/>
<path d="M228.01 361.424L215.312 348.725V340.325H285.447V361.424H228.01Z" fill="#BFE2EE"/>
<path d="M258.097 370.799H245.594V383.302H258.097V370.799Z" fill="#BFE2EE"/>
<path d="M220.194 386.826H209.254V419.256H220.194V386.826Z" fill="#68C3DF"/>
<path d="M224.102 361.032L213.553 357.124L212.772 352.436L205.738 386.038L209.646 389.554H213.162H224.102V361.032Z" fill="#46B5D7"/>
<path d="M218.633 419.253V374.319L222.931 370.022V361.035H231.917V419.253H218.633Z" fill="#68C3DF"/>
<path d="M209.065 407.136H231.915V408.699H209.065C208.738 408.699 208.473 408.434 208.473 408.107V407.729C208.473 407.401 208.738 407.136 209.065 407.136Z" fill="#37AFD4"/>
<path d="M209.065 392.282H218.631V393.846H209.065C208.738 393.846 208.473 393.58 208.473 393.253V392.875C208.473 392.547 208.738 392.282 209.065 392.282Z" fill="#37AFD4"/>
<path d="M209.065 389.548H218.631V391.111H209.065C208.738 391.111 208.473 390.846 208.473 390.519V390.14C208.473 389.813 208.738 389.548 209.065 389.548Z" fill="#37AFD4"/>
<path d="M207.112 410.258H231.916V411.821H207.112C206.785 411.821 206.52 411.556 206.52 411.229V410.851C206.519 410.524 206.784 410.258 207.112 410.258Z" fill="#37AFD4"/>
<path d="M207.556 413.38H231.916V416.115H207.556C206.984 416.115 206.52 415.65 206.52 415.078V414.416C206.52 413.843 206.984 413.38 207.556 413.38Z" fill="#37AFD4"/>
<path opacity="0.67" d="M212.772 352.436L206.129 385.256L214.725 385.647L217.069 374.316H219.023L220.586 364.939L224.493 362.985L225.274 361.423L213.553 357.124L212.772 352.436Z" fill="#37AFD4"/>
<path opacity="0.67" d="M270.99 360.639H231.918V362.593H270.99V360.639Z" fill="#37AFD4"/>
<path d="M257.316 386.042H245.594V409.486H257.316V386.042Z" fill="#DFF0F6"/>
<path d="M257.51 389.949H249.109V409.486H257.51V389.949Z" fill="#37AFD4"/>
<path d="M262.392 382.909H240.512V386.035H262.392V382.909Z" fill="#37AFD4"/>
<path d="M245.591 386.041H240.512V409.094H245.591V386.041Z" fill="#37AFD4"/>
<path d="M262.392 386.041H257.312V409.094H262.392V386.041Z" fill="#37AFD4"/>
<path d="M239.339 380.18C239.339 380.18 237.776 378.617 238.948 376.273C238.948 376.273 238.557 375.491 238.166 373.538C237.776 371.584 239.339 370.022 239.73 370.022C240.121 370.022 238.948 373.538 240.902 373.929C242.856 374.32 242.075 366.896 249.889 361.816V361.035C249.889 361.035 248.326 360.253 249.498 358.691C250.671 357.129 251.453 355.956 251.453 355.956V371.585C251.453 371.585 247.154 373.148 246.373 376.665C245.591 380.181 247.545 379.4 247.545 382.916H240.512C240.512 382.916 238.168 382.525 237.387 381.353V380.18H239.339Z" fill="#37AFD4"/>
<path d="M263.566 380.18C263.566 380.18 265.129 378.617 263.957 376.273C263.957 376.273 264.347 375.491 264.738 373.538C265.129 371.584 263.566 370.022 263.175 370.022C262.784 370.022 263.957 373.538 262.003 373.929C260.048 374.32 260.83 366.896 253.015 361.816V361.035C253.015 361.035 254.579 360.253 253.406 358.691C252.234 357.129 251.453 355.956 251.453 355.956V371.585C251.453 371.585 255.751 373.148 256.533 376.665C257.315 380.181 255.36 379.4 255.36 382.916H262.393C262.393 382.916 264.737 382.525 265.519 381.353V380.18H263.566Z" fill="#37AFD4"/>
<path d="M247.945 380.953C247.945 380.953 247.492 380.5 247.832 379.821C247.832 379.821 247.719 379.594 247.605 379.028C247.492 378.462 247.945 378.009 248.057 378.009C248.17 378.009 247.831 379.028 248.397 379.141C248.964 379.254 248.737 377.102 251.002 375.63V375.404C251.002 375.404 250.55 375.177 250.889 374.724C251.229 374.271 251.456 373.932 251.456 373.932V378.462C251.456 378.462 250.21 378.914 249.984 379.933C249.757 380.953 250.324 380.726 250.324 381.745H248.285C248.285 381.745 247.606 381.632 247.379 381.293V380.953H247.945Z" fill="#37AFD4"/>
<path d="M254.965 380.953C254.965 380.953 255.417 380.5 255.078 379.821C255.078 379.821 255.191 379.594 255.304 379.028C255.417 378.462 254.965 378.009 254.852 378.009C254.739 378.009 255.079 379.028 254.512 379.141C253.945 379.254 254.172 377.102 251.907 375.63V375.404C251.907 375.404 252.359 375.177 252.02 374.724C251.68 374.271 251.453 373.932 251.453 373.932V378.462C251.453 378.462 252.699 378.914 252.925 379.933C253.152 380.953 252.585 380.726 252.585 381.745H254.624C254.624 381.745 255.303 381.632 255.53 381.293V380.953H254.965Z" fill="#37AFD4"/>
<path d="M239.205 381.357H251.923V384.092H239.205C238.632 384.092 238.168 383.628 238.168 383.055V382.393C238.169 381.822 238.632 381.357 239.205 381.357Z" fill="#37AFD4"/>
<path d="M263.312 384.092H250.594V381.357H263.312C263.885 381.357 264.349 381.822 264.349 382.394V383.056C264.348 383.628 263.885 384.092 263.312 384.092Z" fill="#37AFD4"/>
<path d="M244.027 375.889C244.027 375.889 245.591 368.856 250.279 365.73C250.279 366.722 249.917 367.678 249.261 368.422C247.64 370.261 244.595 373.901 244.027 375.889Z" fill="#DFF0F6"/>
<path d="M259.267 375.889C259.267 375.889 257.704 368.856 253.016 365.73C253.016 366.722 253.377 367.678 254.033 368.422C255.653 370.261 258.698 373.901 259.267 375.889Z" fill="#DFF0F6"/>
<path opacity="0.67" d="M285.447 340.325H215.508V348.531H285.447V340.325Z" fill="#37AFD4"/>
<path d="M270.597 408.7H209.254V410.264H270.597V408.7Z" fill="#64BFDC"/>
<path d="M351.089 341.884V335.242L345.618 331.726H328.818L324.129 334.851V341.884H351.089Z" fill="#2BA4C9"/>
<path d="M326.472 313.757L326.081 310.631L326.863 306.724L329.208 308.286L331.552 306.724L329.208 302.817L330.77 299.691L333.115 300.864V298.91H331.161L335.459 295.393V286.797H337.023H338.194H339.757V295.393L344.056 298.91H342.101V300.864L344.446 299.691L346.009 302.817L343.665 306.724L346.009 308.286L348.353 306.724L349.134 310.631L348.743 313.757L349.916 316.883L348.743 319.227V336.419H338.194H337.023H326.472V319.227L325.301 316.883L326.472 313.757Z" fill="#68C3DF"/>
<path d="M333.115 300.856H342.102V298.902H333.115V300.856Z" fill="#BFE2EE"/>
<path d="M329.207 308.284H346.008L343.664 306.722H331.551L329.207 308.284Z" fill="#BFE2EE"/>
<path d="M337.414 305.934L343.275 313.748L340.931 317.265V329.768H337.414V305.934Z" fill="#BFE2EE"/>
<path d="M337.415 305.934L331.555 313.748L333.899 317.265V329.768H337.415V305.934Z" fill="#BFE2EE"/>
<path d="M324.912 330.951H349.918V329.779H324.912V330.951Z" fill="#BFE2EE"/>
<path d="M336.632 286.788H338.195V264.126H336.632V286.788Z" fill="#BFE2EE"/>
<path d="M340.931 265.305H334.289C334.289 265.305 337.806 255.146 337.806 250.457C337.806 250.457 338.196 259.835 340.931 265.305Z" fill="#68C3DF"/>
<path d="M333.117 283.474C333.117 286.602 334.953 289.14 337.22 289.14C339.486 289.14 341.323 286.603 341.323 283.474C341.323 280.345 339.485 277.809 337.22 277.809C334.954 277.809 333.117 280.345 333.117 283.474Z" fill="#68C3DF"/>
<path d="M299.12 419.249H337.801V398.931H299.12V419.249Z" fill="#64BFDC"/>
<path d="M298.729 398.937H337.801V352.441H298.729V398.937Z" fill="#BFE2EE"/>
<path d="M341.709 361.424L354.408 348.725V340.325H284.273V361.424H341.709Z" fill="#BFE2EE"/>
<path d="M311.625 383.307H324.129V370.803H311.625V383.307Z" fill="#BFE2EE"/>
<path d="M349.525 419.249H360.465V386.819H349.525V419.249Z" fill="#68C3DF"/>
<path d="M345.617 361.032L356.167 357.124L356.948 352.436L363.981 386.038L360.074 389.554H356.557H345.617V361.032Z" fill="#46B5D7"/>
<path d="M351.086 419.253V374.319L346.788 370.022V361.035H337.801V419.253H351.086Z" fill="#68C3DF"/>
<path d="M360.651 407.136H337.801V408.699H360.651C360.978 408.699 361.243 408.434 361.243 408.107V407.729C361.243 407.401 360.978 407.136 360.651 407.136Z" fill="#37AFD4"/>
<path d="M360.652 392.282H351.086V393.846H360.652C360.979 393.846 361.244 393.58 361.244 393.253V392.875C361.244 392.547 360.979 392.282 360.652 392.282Z" fill="#37AFD4"/>
<path d="M360.652 389.548H351.086V391.111H360.652C360.979 391.111 361.244 390.846 361.244 390.519V390.14C361.244 389.813 360.979 389.548 360.652 389.548Z" fill="#37AFD4"/>
<path d="M362.605 410.258H337.801V411.821H362.605C362.932 411.821 363.198 411.556 363.198 411.229V410.851C363.198 410.524 362.932 410.258 362.605 410.258Z" fill="#37AFD4"/>
<path d="M362.161 413.38H337.801V416.115H362.161C362.733 416.115 363.198 415.65 363.198 415.078V414.416C363.197 413.843 362.733 413.38 362.161 413.38Z" fill="#37AFD4"/>
<path opacity="0.67" d="M356.948 352.436L363.59 385.256L354.995 385.647L352.65 374.316H350.697L349.133 364.939L345.226 362.985L344.445 361.423L356.166 357.124L356.948 352.436Z" fill="#37AFD4"/>
<path opacity="0.67" d="M298.729 362.597H337.801V360.643H298.729V362.597Z" fill="#37AFD4"/>
<path d="M312.407 409.497H324.129V386.053H312.407V409.497Z" fill="#DFF0F6"/>
<path d="M312.212 409.497H320.613V389.961H312.212V409.497Z" fill="#37AFD4"/>
<path d="M307.327 386.041H329.207V382.915H307.327V386.041Z" fill="#37AFD4"/>
<path d="M324.127 409.097H329.207V386.044H324.127V409.097Z" fill="#37AFD4"/>
<path d="M307.326 409.097H312.406V386.044H307.326V409.097Z" fill="#37AFD4"/>
<path d="M330.382 380.18C330.382 380.18 331.946 378.617 330.773 376.273C330.773 376.273 331.164 375.491 331.555 373.538C331.946 371.584 330.382 370.022 329.991 370.022C329.601 370.022 330.773 373.538 328.819 373.929C326.865 374.32 327.646 366.896 319.832 361.816V361.035C319.832 361.035 321.395 360.253 320.223 358.691C319.05 357.129 318.27 355.956 318.27 355.956V371.585C318.27 371.585 322.568 373.148 323.349 376.665C324.131 380.181 322.177 379.4 322.177 382.916H329.21C329.21 382.916 331.554 382.525 332.335 381.353V380.18H330.382Z" fill="#37AFD4"/>
<path d="M306.156 380.18C306.156 380.18 304.593 378.617 305.765 376.273C305.765 376.273 305.375 375.491 304.984 373.538C304.593 371.584 306.156 370.022 306.547 370.022C306.938 370.022 305.765 373.538 307.72 373.929C309.673 374.32 308.892 366.896 316.706 361.816V361.035C316.706 361.035 315.142 360.253 316.315 358.691C317.487 357.129 318.269 355.956 318.269 355.956V371.585C318.269 371.585 313.971 373.148 313.189 376.665C312.408 380.181 314.362 379.4 314.362 382.916H307.329C307.329 382.916 304.985 382.525 304.203 381.353V380.18H306.156Z" fill="#37AFD4"/>
<path d="M321.781 380.953C321.781 380.953 322.234 380.5 321.894 379.821C321.894 379.821 322.007 379.594 322.121 379.028C322.234 378.462 321.781 378.009 321.668 378.009C321.555 378.009 321.895 379.028 321.328 379.141C320.762 379.254 320.989 377.102 318.723 375.63V375.404C318.723 375.404 319.176 375.177 318.836 374.724C318.496 374.271 318.27 373.932 318.27 373.932V378.462C318.27 378.462 319.516 378.914 319.742 379.933C319.968 380.953 319.402 380.726 319.402 381.745H321.44C321.44 381.745 322.12 381.632 322.347 381.293V380.953H321.781Z" fill="#37AFD4"/>
<path d="M314.757 380.953C314.757 380.953 314.304 380.5 314.644 379.821C314.644 379.821 314.531 379.594 314.417 379.028C314.304 378.462 314.757 378.009 314.87 378.009C314.983 378.009 314.643 379.028 315.21 379.141C315.776 379.254 315.549 377.102 317.815 375.63V375.404C317.815 375.404 317.362 375.177 317.702 374.724C318.042 374.271 318.269 373.932 318.269 373.932V378.462C318.269 378.462 317.022 378.914 316.797 379.933C316.57 380.953 317.136 380.726 317.136 381.745H315.098C315.098 381.745 314.418 381.632 314.191 381.293V380.953H314.757Z" fill="#37AFD4"/>
<path d="M330.514 381.357H317.797V384.092H330.514C331.087 384.092 331.551 383.628 331.551 383.055V382.393C331.551 381.822 331.087 381.357 330.514 381.357Z" fill="#37AFD4"/>
<path d="M306.408 384.092H319.127V381.357H306.408C305.836 381.357 305.371 381.822 305.371 382.394V383.056C305.371 383.628 305.836 384.092 306.408 384.092Z" fill="#37AFD4"/>
<path d="M325.693 375.889C325.693 375.889 324.13 368.856 319.441 365.73C319.441 366.722 319.803 367.678 320.459 368.422C322.079 370.261 325.124 373.901 325.693 375.889Z" fill="#DFF0F6"/>
<path d="M310.453 375.889C310.453 375.889 312.016 368.856 316.704 365.73C316.704 366.722 316.343 367.678 315.687 368.422C314.066 370.261 311.021 373.901 310.453 375.889Z" fill="#DFF0F6"/>
<path opacity="0.67" d="M284.275 348.528H354.215V340.323H284.275V348.528Z" fill="#37AFD4"/>
<path d="M299.122 410.261H360.465V408.697H299.122V410.261Z" fill="#64BFDC"/>
<path d="M317.485 318.451H251.844V340.722H317.485V318.451Z" fill="#37AFD4"/>
<path d="M317.485 322.746H251.844V325.09H317.485V322.746Z" fill="#DFF0F6"/>
<path d="M317.485 329.388H251.844V331.732H317.485V329.388Z" fill="#DFF0F6"/>
<path d="M317.485 336.03H251.844V338.374H317.485V336.03Z" fill="#DFF0F6"/>
<path d="M295.451 347.517H272.945V370.023H295.451V347.517Z" fill="#BFE2EE"/>
<path d="M261.692 364.392C261.692 364.392 258.879 361.578 260.989 357.359C260.989 357.359 260.286 355.953 259.582 352.436C258.879 348.92 261.692 346.106 262.395 346.106C263.098 346.106 260.989 352.436 264.506 353.139C268.022 353.842 266.616 340.48 280.682 331.336V329.93C280.682 329.93 277.868 328.524 279.979 325.711C282.089 322.897 283.495 320.787 283.495 320.787V348.919C283.495 348.919 275.759 351.732 274.352 358.062C272.946 364.392 276.462 362.985 276.462 369.314H263.802C263.802 369.314 259.583 368.611 258.176 366.501V364.391H261.692V364.392Z" fill="#37AFD4"/>
<path d="M305.296 364.392C305.296 364.392 308.109 361.578 305.999 357.359C305.999 357.359 306.702 355.953 307.405 352.436C308.108 348.92 305.295 346.106 304.592 346.106C303.889 346.106 305.998 352.436 302.482 353.139C298.965 353.842 300.371 340.48 286.306 331.336V329.93C286.306 329.93 289.119 328.524 287.009 325.711C284.898 322.897 283.492 320.787 283.492 320.787V348.919C283.492 348.919 291.228 351.732 292.635 358.062C294.042 364.392 290.525 362.985 290.525 369.314H303.185C303.185 369.314 307.404 368.611 308.811 366.501V364.391H305.296V364.392Z" fill="#37AFD4"/>
<path d="M277.177 369.3C277.177 369.3 276.361 368.485 276.972 367.262C276.972 367.262 276.768 366.854 276.565 365.835C276.36 364.815 277.177 364 277.38 364C277.584 364 276.972 365.835 277.992 366.039C279.011 366.243 278.603 362.369 282.681 359.719V359.311C282.681 359.311 281.865 358.904 282.476 358.088C283.088 357.273 283.496 356.661 283.496 356.661V364.815C283.496 364.815 281.253 365.63 280.845 367.466C280.438 369.301 281.457 368.893 281.457 370.728H277.787C277.787 370.728 276.564 370.525 276.156 369.913V369.301H277.177V369.3Z" fill="#37AFD4"/>
<path d="M289.815 369.3C289.815 369.3 290.63 368.485 290.019 367.262C290.019 367.262 290.224 366.854 290.427 365.835C290.631 364.815 289.815 364 289.612 364C289.409 364 290.019 365.835 289 366.039C287.981 366.243 288.388 362.369 284.311 359.719V359.311C284.311 359.311 285.126 358.904 284.515 358.088C283.904 357.273 283.496 356.661 283.496 356.661V364.815C283.496 364.815 285.739 365.63 286.146 367.466C286.554 369.3 285.535 368.893 285.535 370.728H289.204C289.204 370.728 290.428 370.525 290.835 369.913V369.301H289.815V369.3Z" fill="#37AFD4"/>
<path d="M270.133 356.652C270.133 356.652 272.946 343.992 281.385 338.366C281.385 340.151 280.734 341.871 279.554 343.211C276.636 346.522 271.155 353.073 270.133 356.652Z" fill="#DFF0F6"/>
<path d="M297.561 356.652C297.561 356.652 294.748 343.992 286.309 338.366C286.309 340.151 286.96 341.871 288.14 343.211C291.057 346.522 296.539 353.073 297.561 356.652Z" fill="#DFF0F6"/>
<path d="M301.211 371.973H268.957V369.238H301.211C301.784 369.238 302.248 369.703 302.248 370.275V370.937C302.248 371.509 301.784 371.973 301.211 371.973Z" fill="#37AFD4"/>
<path d="M299.12 370.799H270.598V400.103H299.12V370.799Z" fill="#DFF0F6"/>
<path d="M299.12 400.101H270.598V419.246H299.12V400.101Z" fill="#68C3DF"/>
<path d="M299.12 400.101H270.598V401.841H299.12V400.101Z" fill="#005D7A"/>
<path d="M299.12 403.583H270.598V405.323H299.12V403.583Z" fill="#005D7A"/>
<path d="M299.12 407.066H270.598V408.807H299.12V407.066Z" fill="#005D7A"/>
<path d="M299.12 410.541H270.598V412.281H299.12V410.541Z" fill="#005D7A"/>
<path d="M299.12 414.024H270.598V415.764H299.12V414.024Z" fill="#005D7A"/>
<path d="M299.12 417.508H270.598V419.249H299.12V417.508Z" fill="#CE974E"/>
<path d="M287.009 283.673H281.539V311.024H287.009V283.673Z" fill="#005D7A"/>
<path d="M292.21 374.707H278.535V399.713H292.21V374.707Z" fill="#005D7A"/>
<path d="M429.977 270.253C429.977 270.253 419.916 270.253 419.916 263.546C419.916 263.546 418.24 268.575 409.017 268.575C401.177 268.575 398.184 259.487 397.464 256.764V256C397.464 256 397.435 256.145 397.372 256.403C397.31 256.146 397.28 256 397.28 256V256.764C396.559 259.487 393.567 268.575 385.727 268.575C376.506 268.575 374.828 263.546 374.828 263.546C374.828 270.253 364.768 270.253 364.768 270.253C358.061 266.061 348 263.546 348 263.546C363.929 272.768 373.151 306.303 373.151 306.303V279.278L397.372 278.62L420.734 279.31L421.592 306.303C421.592 306.303 430.814 272.768 446.743 263.546C446.743 263.546 436.684 266.061 429.977 270.253Z" fill="#37AFD4"/>
<path d="M371.269 420.391L367.82 420.202L372.423 280.833L375.872 281.022L371.269 420.391Z" fill="#37AFD4"/>
<path d="M422.232 420.008L417.629 280.639L421.078 280.45L425.681 419.819L422.232 420.008Z" fill="#37AFD4"/>
<path d="M375.272 420.148L365.383 419.747L366.679 387.749C366.789 385.019 369.093 382.894 371.824 383.005C374.554 383.116 376.678 385.419 376.568 388.15L375.272 420.148Z" fill="#37AFD4"/>
<path d="M418.667 420.148L428.556 419.747L427.26 387.749C427.15 385.019 424.846 382.894 422.115 383.005C419.385 383.116 417.26 385.419 417.371 388.15L418.667 420.148Z" fill="#37AFD4"/>
<path d="M423.037 277.465H369.637V281.147H423.037V277.465Z" fill="#37AFD4"/>
<path d="M420.734 287.617H374.699V290.792H420.734V287.617Z" fill="#37AFD4"/>
<path d="M184.934 362.17L186.597 361.867C186.597 361.867 185.409 345.498 185.409 340.312H184.934H184.815H184.34C184.34 345.498 183.152 361.867 183.152 361.867L184.815 362.17V362.191L184.875 362.18L184.935 362.191V362.17H184.934Z" fill="#009BCC"/>
<path d="M191.163 376.451L187.332 361.306C187.332 361.306 186.851 360.186 185.142 360.043V360.028C185.079 360.028 185.021 360.033 184.96 360.035C184.899 360.032 184.842 360.028 184.778 360.028V360.043C183.069 360.186 182.588 361.306 182.588 361.306L178.757 376.451L176.75 377.729V379.736H184.779H185.143H193.172V377.729L191.163 376.451Z" fill="#37AFD4"/>
<path d="M184.96 341.15C185.421 341.15 185.795 340.776 185.795 340.315C185.795 339.853 185.421 339.479 184.96 339.479C184.499 339.479 184.125 339.853 184.125 340.315C184.125 340.776 184.499 341.15 184.96 341.15Z" fill="#009BCC"/>
<path d="M197.879 380.983H173.281V403.841H197.879V380.983Z" fill="#68C3DF"/>
<path d="M195.222 378.373H175.859V381.852H195.222V378.373Z" fill="#68C3DF"/>
<path d="M197.879 384.71H173.281V387.194H197.879V384.71Z" fill="#37AFD4"/>
<path d="M69.6538 362.17L71.316 361.867C71.316 361.867 70.1281 345.498 70.1281 340.312H69.6528H69.5342H69.0589C69.0589 345.498 67.8711 361.867 67.8711 361.867L69.5332 362.17V362.191L69.593 362.18L69.6528 362.191L69.6538 362.17Z" fill="#009BCC"/>
<path d="M75.882 376.451L72.0505 361.306C72.0505 361.306 71.5702 360.186 69.8612 360.043V360.028C69.7974 360.028 69.7396 360.033 69.6788 360.035C69.618 360.032 69.5603 360.028 69.4965 360.028V360.043C67.7875 360.186 67.3072 361.306 67.3072 361.306L63.4757 376.451L61.4688 377.729V379.736H69.4975H69.8622H77.8909V377.729L75.882 376.451Z" fill="#37AFD4"/>
<path d="M69.6788 341.15C70.14 341.15 70.5139 340.776 70.5139 340.315C70.5139 339.853 70.14 339.479 69.6788 339.479C69.2176 339.479 68.8438 339.853 68.8438 340.315C68.8438 340.776 69.2176 341.15 69.6788 341.15Z" fill="#009BCC"/>
<path d="M82.6013 380.983H58.0039V403.841H82.6013V380.983Z" fill="#68C3DF"/>
<path d="M79.9409 378.373H60.5781V381.852H79.9409V378.373Z" fill="#68C3DF"/>
<path d="M128.964 289.442L132.001 288.89C132.001 288.89 129.832 259 129.832 249.529H128.964H128.747H127.879C127.879 259 125.711 288.89 125.711 288.89L128.747 289.442V289.482L128.856 289.462L128.964 289.482V289.442Z" fill="#009BCC"/>
<path d="M140.339 315.506L133.342 287.849C133.342 287.849 132.465 285.805 129.343 285.544V285.518C129.226 285.518 129.12 285.527 129.01 285.531C128.899 285.526 128.793 285.518 128.677 285.518V285.544C125.556 285.805 124.678 287.849 124.678 287.849L117.681 315.506L114.016 317.839V321.504H128.677H129.344H144.005V317.839L140.339 315.506Z" fill="#37AFD4"/>
<path d="M156.761 354.436C156.761 354.436 153.101 339.798 152.491 334.003C151.893 328.32 144.834 317.657 129.312 317.249V317.229C129.157 317.229 129.008 317.237 128.855 317.239C128.701 317.237 128.553 317.229 128.398 317.229V317.249C112.876 317.657 105.818 328.32 105.219 334.003C104.609 339.798 100.949 354.436 100.949 354.436C111.174 347.095 124.78 346.742 128.398 346.786V346.811C128.398 346.811 128.558 346.802 128.855 346.794C129.152 346.802 129.312 346.811 129.312 346.811V346.786C132.93 346.742 146.536 347.095 156.761 354.436Z" fill="#009BCC"/>
<path d="M96.375 357.178C96.375 357.178 103.389 344.674 127.787 344.674C152.185 344.674 162.25 356.263 162.25 356.263V357.178C162.25 359.367 160.475 361.143 158.285 361.143H100.34C98.1497 361.142 96.375 359.367 96.375 357.178Z" fill="#37AFD4"/>
<path d="M182.379 393.472C182.074 393.472 172.315 389.507 172.315 389.507V383.713L161.64 365.109C161.64 365.109 157.471 351.557 130.838 350.544V350.471C130.163 350.471 129.505 350.479 128.856 350.491C128.206 350.479 127.548 350.471 126.874 350.471C100.24 351.483 96.0712 365.109 96.0712 365.109L85.3968 383.713V389.507C85.3968 389.507 75.6372 393.472 75.3322 393.472C75.0273 393.472 72.5869 400.182 72.5869 400.182L71.3672 407.196H126.873H130.838H187.258L185.733 401.401C185.733 401.401 182.684 393.472 182.379 393.472Z" fill="#009BCC"/>
<path d="M72.2852 401.406L73.8098 395.306L76.5551 391.951L84.4842 388.596C84.4842 388.596 98.5128 384.326 113.457 384.326V394.086C113.457 394.086 90.2788 392.867 72.2852 401.406Z" fill="#37AFD4"/>
<path d="M135.719 351.688H122.91V403.84H135.719V351.688Z" fill="#005D7A"/>
<path d="M185.734 401.406L184.209 395.306L181.465 391.951L173.535 388.596C173.535 388.596 159.507 384.326 144.563 384.326V394.086C144.563 394.086 167.74 392.867 185.734 401.406Z" fill="#37AFD4"/>
<path d="M122.909 363.875H112.539V403.827H122.909V363.875Z" fill="#68C3DF"/>
<path d="M122.3 365.707L129.314 353.508V339.479L110.711 365.707H122.3Z" fill="#68C3DF"/>
<path d="M135.72 403.828H146.09V363.876H135.72V403.828Z" fill="#68C3DF"/>
<path d="M136.327 365.707L129.312 353.508V339.479L147.916 365.707H136.327Z" fill="#68C3DF"/>
<path d="M123.825 363.282H110.102V372.126H123.825V363.282Z" fill="#37AFD4"/>
<path d="M148.528 363.282H134.805V372.126H148.528V363.282Z" fill="#37AFD4"/>
<path d="M115.896 357.786C115.896 357.786 110.407 355.346 111.321 351.991C111.321 351.991 109.797 354.126 111.931 356.871C111.931 356.871 112.541 358.701 111.321 359.31C110.102 359.92 110.407 357.786 110.407 357.786C110.407 357.786 109.492 358.701 110.407 360.531C111.321 362.361 112.236 363.275 112.236 363.275H116.811L115.896 357.786Z" fill="#68C3DF"/>
<path d="M141.716 357.786C141.716 357.786 147.205 355.346 146.29 351.991C146.29 351.991 147.815 354.126 145.681 356.871C145.681 356.871 145.071 358.701 146.29 359.31C147.51 359.92 147.205 357.786 147.205 357.786C147.205 357.786 148.12 358.701 147.205 360.531C146.29 362.361 145.376 363.275 145.376 363.275H140.801L141.716 357.786Z" fill="#68C3DF"/>
<path d="M132.975 344.681L131.45 338.886C131.45 338.886 130.656 337.301 129.316 337.083V337.056C129.264 337.056 129.214 337.063 129.163 337.067C129.112 337.063 129.063 337.056 129.011 337.056V337.083C127.67 337.301 126.876 338.886 126.876 338.886L125.352 344.681L129.164 344.388L132.975 344.681Z" fill="#68C3DF"/>
<path d="M129.189 326.076H128.83C128.624 326.076 128.457 326.243 128.457 326.449V337.665H129.561V326.449C129.562 326.243 129.396 326.076 129.189 326.076Z" fill="#68C3DF"/>
<path d="M130.534 249.525C130.534 250.367 129.851 251.049 129.009 251.049C128.167 251.049 127.484 250.367 127.484 249.525C127.484 248.683 128.167 248 129.009 248C129.851 248 130.534 248.683 130.534 249.525Z" fill="#009BCC"/>
<path d="M119.555 370.297H115.59V403.845H119.555V370.297Z" fill="#37AFD4"/>
<path d="M142.735 370.297H138.77V403.845H142.735V370.297Z" fill="#37AFD4"/>
<path d="M125.047 400.488H108.883V419.397H125.047V400.488Z" fill="#37AFD4"/>
<path d="M108.881 403.235H53.375V419.399H108.881V403.235Z" fill="#37AFD4"/>
<path d="M203.119 403.235H147.613V419.399H203.119V403.235Z" fill="#37AFD4"/>
<path d="M150.969 400.488H134.805V419.397H150.969V400.488Z" fill="#37AFD4"/>
<path d="M135.108 402.32H125.043V419.399H135.108V402.32Z" fill="#68C3DF"/>
<path d="M135.108 417.329H125.043V419.085H135.108V417.329Z" fill="#F2B770"/>
<path d="M135.108 413.821H125.043V415.577H135.108V413.821Z" fill="#005D7A"/>
<path d="M135.108 410.314H125.043V412.07H135.108V410.314Z" fill="#005D7A"/>
<path d="M135.108 407.045H125.043V408.801H135.108V407.045Z" fill="#005D7A"/>
<path d="M135.108 403.538H125.043V405.294H135.108V403.538Z" fill="#005D7A"/>
<path d="M82.6013 384.71H58.0039V387.194H82.6013V384.71Z" fill="#37AFD4"/>
<path d="M233.892 419.904C233.892 419.904 234.267 415.784 229.023 416.159C223.78 416.533 221.3 415.786 219.286 413.537C216.687 410.635 205.428 407.544 203.93 419.529L233.892 419.904Z" fill="#2BA4C9"/>
<path d="M431.123 419.771C431.123 419.771 431.498 415.652 426.255 416.026C421.011 416.4 418.531 415.653 416.516 413.404C413.917 410.502 402.659 407.411 401.16 419.397L431.123 419.771Z" fill="#2BA4C9"/>
<path d="M176.301 419.772C176.301 419.772 176.038 416.879 179.72 417.142C183.402 417.404 185.143 416.88 186.558 415.301C188.382 413.263 196.289 411.093 197.341 419.509L176.301 419.772Z" fill="#2BA4C9"/>
<path d="M219.439 419.904C219.439 419.904 219.814 415.784 214.57 416.159C209.327 416.533 206.847 415.786 204.833 413.537C202.234 410.635 190.975 407.544 189.477 419.529L219.439 419.904Z" fill="#2BA4C9"/>
<path d="M411.382 206.764C433.684 206.764 451.764 188.684 451.764 166.382C451.764 144.08 433.684 126 411.382 126C389.08 126 371 144.08 371 166.382C371 188.684 389.08 206.764 411.382 206.764Z" fill="#37AFD4"/>
<path d="M2 418.547L592 420.672" stroke="#005D7A" stroke-width="3.40058" stroke-miterlimit="10" stroke-linecap="round" stroke-linejoin="round"/>
</svg>
