<svg width="545" height="545" viewBox="0 0 545 545" fill="none" xmlns="http://www.w3.org/2000/svg">
<path d="M116.247 165.674C116.247 176.404 107.549 185.102 96.8188 185.102C86.0888 185.102 77.3906 176.404 77.3906 165.674C77.3906 154.944 86.0888 146.246 96.8188 146.246C107.549 146.247 116.247 154.945 116.247 165.674Z" fill="#8AD0E6"/>
<path d="M202.537 74.8426C202.537 79.5525 198.719 83.3708 194.009 83.3708C189.299 83.3708 185.48 79.5525 185.48 74.8426C185.48 70.1327 189.299 66.3145 194.009 66.3145C198.72 66.3145 202.537 70.1327 202.537 74.8426Z" fill="#8AD0E6"/>
<path d="M248.231 45.302C248.231 48.911 245.305 51.8355 241.698 51.8355C238.09 51.8355 235.164 48.9099 235.164 45.302C235.164 41.6941 238.09 38.7686 241.698 38.7686C245.307 38.7686 248.231 41.6941 248.231 45.302Z" fill="#8AD0E6"/>
<path d="M89.5759 209.462C89.5759 214.172 85.7576 217.99 81.0477 217.99C76.3378 217.99 72.5195 214.172 72.5195 209.462C72.5195 204.752 76.3378 200.934 81.0477 200.934C85.7576 200.935 89.5759 204.753 89.5759 209.462Z" fill="#8AD0E6"/>
<path d="M447.501 387.689C452.211 387.689 456.029 383.871 456.029 379.161C456.029 374.451 452.211 370.633 447.501 370.633C442.791 370.633 438.973 374.451 438.973 379.161C438.973 383.871 442.791 387.689 447.501 387.689Z" fill="#8AD0E6"/>
<path d="M359.809 85.2203C359.809 91.0234 355.105 95.7268 349.302 95.7268C343.5 95.7268 338.797 91.0223 338.797 85.2203C338.797 79.4182 343.5 74.7148 349.302 74.7148C355.104 74.7148 359.809 79.4182 359.809 85.2203Z" fill="#8AD0E6"/>
<path d="M299.348 66.3121C299.348 72.1152 294.645 76.8186 288.841 76.8186C283.039 76.8186 278.336 72.1152 278.336 66.3121C278.336 60.51 283.038 55.8066 288.841 55.8066C294.643 55.8066 299.348 60.51 299.348 66.3121Z" fill="#8AD0E6"/>
<path d="M464.394 64.8893C464.394 75.7097 455.623 84.4809 444.803 84.4809C433.984 84.4809 425.215 75.7097 425.215 64.8893C425.215 54.071 433.984 45.2998 444.803 45.2998C455.623 45.2998 464.394 54.071 464.394 64.8893Z" fill="#8AD0E6"/>
<path d="M500.658 236.997C500.658 244.205 494.815 250.047 487.607 250.047C480.401 250.047 474.559 244.205 474.559 236.997C474.559 229.791 480.4 223.947 487.607 223.947C494.815 223.947 500.658 229.791 500.658 236.997Z" fill="#8AD0E6"/>
<path d="M132.24 68.8561C132.24 76.0643 126.397 81.9067 119.189 81.9067C111.983 81.9067 106.141 76.0643 106.141 68.8561C106.141 61.6501 111.982 55.8066 119.189 55.8066C126.396 55.8066 132.24 61.649 132.24 68.8561Z" fill="#8AD0E6"/>
<path d="M393.702 108.886C393.702 108.886 377.24 133.613 324.317 111.429C271.392 89.2434 227.147 90.5002 187.889 116.484C148.213 142.746 124.792 161.434 137.974 209.784C143.197 228.945 169.15 254.732 137.564 276.84C111.481 295.094 106.429 325.77 138.854 348.877C171.28 371.984 211.55 364.561 228.694 366.921C245.839 369.281 288.392 415.473 347.889 362.103C407.387 308.732 371.066 269.159 414.503 256.142C457.94 243.125 521.951 196.255 505.28 131.918C495.95 95.911 444.72 72.476 393.702 108.886Z" fill="#DDF2F8"/>
<path d="M125.017 362.471C125.017 362.471 182.299 345.634 205.739 385.522C237.355 439.321 265.507 478.5 316.697 478.279C368.435 478.056 400.874 475.028 417.717 423.202C424.392 402.665 405.596 366.192 447.5 364.921C482.101 363.873 515.559 336.544 499.852 296.197C484.145 255.851 445.196 250.984 431.014 238.615C416.831 226.246 406.655 160.611 317.657 159.533C230.753 158.481 241.164 230.229 193.904 216.167C146.645 202.105 62.1297 215.731 47.2872 282.272C31.553 352.807 77.9413 384.52 125.017 362.471Z" fill="#D5EEF6"/>
<path d="M96.477 487.017L62.1354 444.192L53.2617 451.515L84.6897 490.808L96.477 487.017Z" fill="#A3DAEB"/>
<path d="M448.15 525.991L492.151 485.494L486.279 479.006L436.766 524.489L448.15 525.991Z" fill="#A3DAEB"/>
<path d="M107.884 479.476L79.247 444.771L66.8047 455.038L91.3558 484.791L107.884 479.476Z" fill="#A3DAEB"/>
<path d="M111.285 474.579L78.7057 413.912L69.1094 419.969L99.3482 476.511L111.285 474.579Z" fill="#89D0E6"/>
<path d="M126.716 484.51L98.88 417.938L83.2461 424.476L108.48 484.826L126.716 484.51Z" fill="#68C3DE"/>
<path d="M446.4 519.539L475.942 491.704L468.022 483.3L431.344 517.858L446.4 519.539Z" fill="#A3DAEB"/>
<path d="M446.162 508.817L495.679 447.378L486.748 440.058L431.016 509.08L446.162 508.817Z" fill="#68C3DE"/>
<path d="M220.975 446.913L230.92 321.536L211.492 319.828L201.547 445.205L220.975 446.913Z" fill="#46B5D7"/>
<path d="M225.463 351.85L216.887 449.382L234.379 450.92L242.955 353.388L225.463 351.85Z" fill="#43B5AA"/>
<path d="M141.523 478.356L101.731 359.268L81.0469 366.18L118.662 478.751L141.523 478.356Z" fill="#46B5D7"/>
<path d="M263.326 453.476L274.208 329.759L256.891 346.028L247.562 452.087L263.326 453.476Z" fill="#2BA4C9"/>
<path d="M296.299 370.075L291.812 421.1L303.34 422.113L307.827 371.089L296.299 370.075Z" fill="#DDA96B"/>
<path d="M325.091 343.699L317.41 431.052L335.531 432.645L343.212 345.292L325.091 343.699Z" fill="#68C3DE"/>
<path d="M381.628 448.915L407.024 308.261L378.14 334L358.156 444.679L381.628 448.915Z" fill="#2BA4C9"/>
<path d="M413.595 348.552L374.449 465.424L396.569 472.833L435.715 355.961L413.595 348.552Z" fill="#2BA4C9"/>
<path d="M404.809 508.336L447.503 417.506L426.389 407.583L378.816 508.786L404.809 508.336Z" fill="#46B5D7"/>
<path d="M439.316 508.927L468.814 456.805L454.564 448.739L420.312 509.256L439.316 508.927Z" fill="#46B5D7"/>
<path d="M346.261 400.809L341.031 460.286L359.152 461.88L364.382 402.403L346.261 400.809Z" fill="#DDA96B"/>
<path d="M368.962 384.752L362.156 462.147L374.728 463.253L381.534 385.857L368.962 384.752Z" fill="#DDA96B"/>
<path d="M237.162 397.239L232.457 450.745L252.221 452.483L256.926 398.977L237.162 397.239Z" fill="#DDA96B"/>
<path d="M280.048 409.84L276.113 454.585L295.882 456.323L299.817 411.578L280.048 409.84Z" fill="#DDA96B"/>
<path d="M307.493 401.863L302.652 456.916L322.422 458.654L327.263 403.601L307.493 401.863Z" fill="#DDA96B"/>
<path d="M327.014 433.088L324.746 458.879L344.505 460.616L346.773 434.825L327.014 433.088Z" fill="#DDA96B"/>
<path d="M356.528 443.686L354.961 461.513L369.802 462.818L371.37 444.991L356.528 443.686Z" fill="#DDA96B"/>
<path d="M374.184 421.069L370.508 462.877L385.355 464.183L389.031 422.375L374.184 421.069Z" fill="#DDA96B"/>
<path d="M349.942 505.639L383.836 275.905L381.449 275.555L383.189 263.775L380.162 263.328L381.708 252.846L379.639 252.541L380.812 244.58L360.027 241.514L358.852 249.475L356.777 249.168L355.23 259.649L352.212 259.204L350.475 270.984L348.082 270.631L314.188 500.362L349.942 505.639Z" fill="#46B5D7"/>
<path d="M435.819 491.352L470.776 416.988L469.433 416.358L472.548 409.73L470.846 408.93L473.618 403.032L472.455 402.486L474.56 398.005L462.863 392.507L460.758 396.987L459.591 396.437L456.818 402.335L455.121 401.536L452.005 408.167L450.656 407.534L406.656 501.139L435.819 491.352Z" fill="#2BA4C9"/>
<path d="M174.673 448.895L163.382 362.625L161.913 362.817L160.961 355.553L159.096 355.799L158.249 349.337L156.974 349.505L156.332 344.596L143.518 346.273L144.16 351.181L142.881 351.349L143.726 357.811L141.865 358.054L142.816 365.315L141.34 365.51L152.632 451.78L174.673 448.895Z" fill="#2BA4C9"/>
<path d="M167.545 488.453L144.534 392.185L142.596 392.649L140.309 383.074L137.846 383.663L135.811 375.142L134.129 375.545L132.583 369.075L115.69 373.114L117.235 379.584L115.55 379.988L117.586 388.506L115.133 389.091L117.421 398.668L115.476 399.131L138.488 495.396L167.545 488.453Z" fill="#46B5D7"/>
<path d="M244.769 361.269L236.867 451.135L252.574 452.516L260.476 362.65L244.769 361.269Z" fill="#46B5D7"/>
<path d="M195.884 341.898L193.996 447.953L213.493 448.3L215.382 342.245L195.884 341.898Z" fill="#68C3DE"/>
<path d="M188.278 330.508L168.789 331.253L173.287 448.929L192.776 448.184L188.278 330.508Z" fill="#68C3DE"/>
<path d="M184.933 439.767L184.336 446.553L215.736 449.317L216.333 442.531L184.933 439.767Z" fill="#DDA96B"/>
<path d="M355.722 360.086L324.75 447.494L369.12 463.216L400.092 375.808L355.722 360.086Z" fill="#68C2DE"/>
<path d="M395.889 381.589L355.359 367.226L355.618 366.502L396.145 380.865L395.889 381.589Z" fill="#2489A8"/>
<path d="M379.163 373.238C378.568 374.919 376.721 375.803 375.039 375.205C373.359 374.611 372.478 372.761 373.072 371.08C373.669 369.399 375.517 368.517 377.198 369.113C378.88 369.71 379.758 371.556 379.163 373.238Z" fill="#2489A8"/>
<path d="M367.55 367.288C367.343 367.869 366.706 368.171 366.123 367.965C365.543 367.758 365.238 367.122 365.443 366.541C365.649 365.963 366.287 365.66 366.867 365.866C367.449 366.073 367.756 366.708 367.55 367.288Z" fill="#2489A8"/>
<path d="M388.482 374.707C388.277 375.288 387.638 375.589 387.058 375.385C386.479 375.179 386.174 374.544 386.382 373.962C386.587 373.382 387.222 373.08 387.801 373.285C388.381 373.49 388.688 374.127 388.482 374.707Z" fill="#418E30"/>
<path d="M360.137 360.709L396.279 373.518L381.09 358.42L360.137 360.709Z" fill="#68C2DE"/>
<path d="M390.98 372.344L380.061 361.486L364.988 363.134L390.98 372.344Z" fill="#2489A8"/>
<path d="M383.528 361.77C382.932 363.45 381.09 364.332 379.408 363.735C377.723 363.139 376.846 361.293 377.44 359.613L377.891 358.344C378.486 356.662 380.333 355.78 382.013 356.375C383.698 356.972 384.574 358.819 383.979 360.5L383.528 361.77Z" fill="#68C2DE"/>
<path d="M383.478 356.188C383.28 356.749 382.672 357.04 382.109 356.842L381.643 356.676C381.085 356.479 380.794 355.868 380.992 355.307C381.189 354.749 381.801 354.459 382.359 354.657L382.824 354.82C383.387 355.02 383.677 355.631 383.478 356.188Z" fill="#68C2DE"/>
<path d="M353.604 358.091L352.988 359.827L402.373 377.326L402.988 375.59L353.604 358.091Z" fill="#68C2DE"/>
<path d="M394.141 393.002L369.254 463.238L400.718 474.387L425.606 404.151L394.141 393.002Z" fill="#2489A8"/>
<path d="M395.812 396.145L417.875 376.033L422.351 405.548L395.812 396.145Z" fill="#2489A8"/>
<path d="M415.435 374.02L413.148 380.471L418.745 382.455L421.032 376.004L415.435 374.02Z" fill="#2489A8"/>
<path d="M343.118 371.784L330.445 367.295L337.449 347.532L344.923 346.606L350.122 352.024L343.118 371.784Z" fill="#2BA4C9"/>
<path d="M322.696 359.301L295.164 437.002L326.627 448.151L354.16 370.45L322.696 359.301Z" fill="#2BA4C9"/>
<path d="M322.387 370.671L321.078 374.361L323.399 375.184L324.707 371.494L322.387 370.671Z" fill="#EBFFFB"/>
<path d="M325.698 371.825L324.391 375.516L326.711 376.338L328.018 372.647L325.698 371.825Z" fill="#EBFFFB"/>
<path d="M320.574 375.758L319.266 379.449L321.586 380.272L322.895 376.581L320.574 375.758Z" fill="#EBFFFB"/>
<path d="M323.879 376.92L322.57 380.61L324.89 381.433L326.198 377.743L323.879 376.92Z" fill="#EBFFFB"/>
<path d="M331.981 374.044L330.676 377.734L332.995 378.555L334.3 374.865L331.981 374.044Z" fill="#EBFFFB"/>
<path d="M335.296 375.216L333.988 378.904L336.305 379.725L337.612 376.037L335.296 375.216Z" fill="#EBFFFB"/>
<path d="M330.212 379.123L328.902 382.815L331.222 383.638L332.532 379.946L330.212 379.123Z" fill="#EBFFFB"/>
<path d="M333.509 380.359L332.199 384.05L334.516 384.872L335.825 381.181L333.509 380.359Z" fill="#EBFFFB"/>
<path d="M341.614 377.483L340.309 381.174L342.634 381.996L343.94 378.306L341.614 377.483Z" fill="#EBFFFB"/>
<path d="M344.932 378.639L343.625 382.328L345.947 383.151L347.254 379.461L344.932 378.639Z" fill="#EBFFFB"/>
<path d="M339.84 382.606L338.531 386.297L340.855 387.121L342.164 383.43L339.84 382.606Z" fill="#EBFFFB"/>
<path d="M343.122 383.745L341.816 387.438L344.138 388.258L345.443 384.566L343.122 383.745Z" fill="#EBFFFB"/>
<path d="M316.455 387.399L315.148 391.088L317.467 391.91L318.774 388.221L316.455 387.399Z" fill="#EBFFFB"/>
<path d="M319.764 388.584L318.457 392.271L320.777 393.094L322.084 389.406L319.764 388.584Z" fill="#EBFFFB"/>
<path d="M314.641 392.513L313.332 396.204L315.652 397.027L316.961 393.335L314.641 392.513Z" fill="#EBFFFB"/>
<path d="M317.957 393.682L316.648 397.374L318.968 398.196L320.276 394.505L317.957 393.682Z" fill="#EBFFFB"/>
<path d="M326.067 390.833L324.762 394.522L327.081 395.343L328.387 391.653L326.067 390.833Z" fill="#EBFFFB"/>
<path d="M329.373 391.951L328.066 395.641L330.382 396.46L331.689 392.771L329.373 391.951Z" fill="#EBFFFB"/>
<path d="M324.258 395.898L322.949 399.588L325.267 400.41L326.575 396.72L324.258 395.898Z" fill="#EBFFFB"/>
<path d="M327.563 397.111L326.254 400.801L328.569 401.622L329.879 397.933L327.563 397.111Z" fill="#EBFFFB"/>
<path d="M335.698 394.235L334.391 397.922L336.714 398.746L338.022 395.059L335.698 394.235Z" fill="#EBFFFB"/>
<path d="M338.995 395.431L337.688 399.119L340.009 399.942L341.317 396.254L338.995 395.431Z" fill="#EBFFFB"/>
<path d="M333.891 399.331L332.582 403.023L334.907 403.848L336.216 400.156L333.891 399.331Z" fill="#EBFFFB"/>
<path d="M337.208 400.517L335.898 404.207L338.219 405.031L339.529 401.341L337.208 400.517Z" fill="#EBFFFB"/>
<path d="M310.511 404.175L309.203 407.86L311.523 408.684L312.831 404.998L310.511 404.175Z" fill="#EBFFFB"/>
<path d="M313.798 405.35L312.488 409.037L314.808 409.861L316.117 406.174L313.798 405.35Z" fill="#EBFFFB"/>
<path d="M308.7 409.251L307.395 412.941L309.715 413.762L311.02 410.072L308.7 409.251Z" fill="#EBFFFB"/>
<path d="M312.006 410.464L310.699 414.153L313.019 414.975L314.326 411.286L312.006 410.464Z" fill="#EBFFFB"/>
<path d="M320.136 407.534L318.828 411.22L321.147 412.042L322.454 408.356L320.136 407.534Z" fill="#EBFFFB"/>
<path d="M323.441 408.738L322.133 412.425L324.449 413.247L325.758 409.56L323.441 408.738Z" fill="#EBFFFB"/>
<path d="M318.317 412.681L317.012 416.372L319.331 417.192L320.636 413.501L318.317 412.681Z" fill="#EBFFFB"/>
<path d="M321.629 413.815L320.324 417.505L322.642 418.324L323.947 414.634L321.629 413.815Z" fill="#EBFFFB"/>
<path d="M315.071 421.893L313.766 425.582L316.085 426.403L317.391 422.714L315.071 421.893Z" fill="#EBFFFB"/>
<path d="M318.35 423.078L317.043 426.766L319.359 427.586L320.666 423.898L318.35 423.078Z" fill="#EBFFFB"/>
<path d="M313.262 427.006L310.926 433.607L313.245 434.428L315.582 427.827L313.262 427.006Z" fill="#EBFFFB"/>
<path d="M316.573 428.182L314.234 434.783L316.551 435.604L318.89 429.003L316.573 428.182Z" fill="#EBFFFB"/>
<path d="M339.108 355.496L337.801 359.187L340.124 360.009L341.431 356.319L339.108 355.496Z" fill="#EBFFFB"/>
<path d="M342.432 356.644L341.125 360.334L343.446 361.156L344.753 357.467L342.432 356.644Z" fill="#EBFFFB"/>
<path d="M337.308 360.578L334.969 367.183L337.292 368.006L339.631 361.401L337.308 360.578Z" fill="#EBFFFB"/>
<path d="M340.619 361.756L338.277 368.359L340.598 369.182L342.94 362.579L340.619 361.756Z" fill="#EBFFFB"/>
<path d="M322.925 424.698L321.617 428.386L323.936 429.208L325.243 425.52L322.925 424.698Z" fill="#EBFFFB"/>
<path d="M326.251 425.845L324.945 429.533L327.261 430.353L328.567 426.665L326.251 425.845Z" fill="#EBFFFB"/>
<path d="M321.129 429.808L318.793 436.41L321.112 437.231L323.448 430.629L321.129 429.808Z" fill="#EBFFFB"/>
<path d="M324.432 430.994L322.09 437.594L324.406 438.416L326.748 431.816L324.432 430.994Z" fill="#EBFFFB"/>
<path d="M329.768 410.965L328.461 414.652L330.786 415.476L332.093 411.789L329.768 410.965Z" fill="#EBFFFB"/>
<path d="M333.052 412.134L331.746 415.821L334.067 416.643L335.373 412.956L333.052 412.134Z" fill="#EBFFFB"/>
<path d="M327.957 416.071L326.652 419.762L328.977 420.584L330.282 416.893L327.957 416.071Z" fill="#EBFFFB"/>
<path d="M331.249 417.271L329.941 420.96L332.263 421.783L333.571 418.094L331.249 417.271Z" fill="#EBFFFB"/>
<path d="M327.172 364.419L325.527 369.054L328.638 370.157L330.282 365.523L327.172 364.419Z" fill="#EBFFFB"/>
<path d="M345.873 371.058L344.23 375.693L347.337 376.794L348.98 372.158L345.873 371.058Z" fill="#EBFFFB"/>
<path d="M305.606 418.556L300.281 433.589L306.81 435.901L312.135 420.869L305.606 418.556Z" fill="#EBFFFB"/>
<path d="M355.109 372.034L354.191 374.625L360.202 376.754L361.12 374.163L355.109 372.034Z" fill="#EBFFFB"/>
<path d="M353.858 375.608L350.957 383.798L353.288 384.624L356.189 376.434L353.858 375.608Z" fill="#EBFFFB"/>
<path d="M357.482 376.886L354.582 385.075L356.938 385.909L359.838 377.72L357.482 376.886Z" fill="#EBFFFB"/>
<path d="M365.563 375.749L364.645 378.34L370.654 380.47L371.573 377.879L365.563 375.749Z" fill="#EBFFFB"/>
<path d="M364.316 379.309L361.418 387.498L363.748 388.323L366.647 380.133L364.316 379.309Z" fill="#EBFFFB"/>
<path d="M367.967 380.587L365.066 388.775L367.425 389.611L370.326 381.422L367.967 380.587Z" fill="#EBFFFB"/>
<path d="M376.051 379.416L375.133 382.008L381.145 384.138L382.064 381.546L376.051 379.416Z" fill="#EBFFFB"/>
<path d="M374.797 382.991L371.898 391.181L374.232 392.007L377.131 383.817L374.797 382.991Z" fill="#EBFFFB"/>
<path d="M378.44 384.303L375.539 392.494L377.898 393.33L380.799 385.139L378.44 384.303Z" fill="#EBFFFB"/>
<path d="M386.504 383.179L385.586 385.77L391.599 387.901L392.517 385.31L386.504 383.179Z" fill="#EBFFFB"/>
<path d="M385.257 386.747L382.352 394.935L384.683 395.762L387.589 387.574L385.257 386.747Z" fill="#EBFFFB"/>
<path d="M388.908 388.025L386 396.212L388.356 397.049L391.264 388.862L388.908 388.025Z" fill="#EBFFFB"/>
<path d="M348.872 389.61L347.953 392.202L353.964 394.332L354.882 391.74L348.872 389.61Z" fill="#EBFFFB"/>
<path d="M347.616 393.227L344.715 401.418L347.047 402.244L349.949 394.053L347.616 393.227Z" fill="#EBFFFB"/>
<path d="M351.271 394.513L348.367 402.703L350.722 403.538L353.626 395.348L351.271 394.513Z" fill="#EBFFFB"/>
<path d="M359.345 393.318L358.426 395.91L364.436 398.042L365.355 395.45L359.345 393.318Z" fill="#EBFFFB"/>
<path d="M358.077 396.938L355.172 405.126L357.503 405.953L360.408 397.765L358.077 396.938Z" fill="#EBFFFB"/>
<path d="M361.718 398.201L358.812 406.389L361.17 407.225L364.075 399.037L361.718 398.201Z" fill="#EBFFFB"/>
<path d="M369.793 397.032L368.875 399.624L374.888 401.754L375.806 399.162L369.793 397.032Z" fill="#EBFFFB"/>
<path d="M368.556 400.598L365.656 408.789L367.99 409.615L370.89 401.424L368.556 400.598Z" fill="#EBFFFB"/>
<path d="M372.188 401.883L369.289 410.074L371.649 410.909L374.548 402.718L372.188 401.883Z" fill="#EBFFFB"/>
<path d="M380.266 400.748L379.348 403.339L385.36 405.469L386.278 402.878L380.266 400.748Z" fill="#EBFFFB"/>
<path d="M378.991 404.312L376.09 412.504L378.421 413.329L381.322 405.138L378.991 404.312Z" fill="#EBFFFB"/>
<path d="M382.681 405.635L379.777 413.825L382.134 414.661L385.038 406.471L382.681 405.635Z" fill="#EBFFFB"/>
<path d="M342.64 407.244L341.723 409.833L347.733 411.963L348.651 409.374L342.64 407.244Z" fill="#EBFFFB"/>
<path d="M341.365 410.828L338.461 419.013L340.792 419.84L343.696 411.655L341.365 410.828Z" fill="#EBFFFB"/>
<path d="M345.021 412.096L342.121 420.283L344.476 421.117L347.376 412.93L345.021 412.096Z" fill="#EBFFFB"/>
<path d="M353.098 410.958L352.18 413.548L358.19 415.679L359.108 413.089L353.098 410.958Z" fill="#EBFFFB"/>
<path d="M351.814 414.504L348.914 422.691L351.246 423.517L354.146 415.33L351.814 414.504Z" fill="#EBFFFB"/>
<path d="M355.5 415.819L352.598 424.005L354.955 424.841L357.858 416.655L355.5 415.819Z" fill="#EBFFFB"/>
<path d="M363.555 414.692L362.637 417.283L368.649 419.414L369.567 416.823L363.555 414.692Z" fill="#EBFFFB"/>
<path d="M362.292 418.234L359.391 426.42L361.724 427.247L364.625 419.061L362.292 418.234Z" fill="#EBFFFB"/>
<path d="M365.962 419.501L363.066 427.689L365.427 428.524L368.323 420.336L365.962 419.501Z" fill="#EBFFFB"/>
<path d="M374.042 418.341L373.125 420.93L379.139 423.061L380.056 420.471L374.042 418.341Z" fill="#EBFFFB"/>
<path d="M372.787 421.959L369.887 430.146L372.218 430.971L375.118 422.785L372.787 421.959Z" fill="#EBFFFB"/>
<path d="M376.42 423.215L373.516 431.401L375.873 432.238L378.778 424.052L376.42 423.215Z" fill="#EBFFFB"/>
<path d="M334.98 430.405L330.141 444.063L335.923 446.112L340.763 432.454L334.98 430.405Z" fill="#EBFFFB"/>
<path d="M341.435 430.55L341.679 429.863C342.246 428.266 341.411 426.515 339.812 425.947C338.215 425.38 336.463 426.217 335.897 427.813L335.652 428.501L341.435 430.55Z" fill="#EBFFFB"/>
<path d="M344.939 433.963L340.098 447.62L345.877 449.669L350.719 436.012L344.939 433.963Z" fill="#EBFFFB"/>
<path d="M351.413 434.076L351.657 433.388C352.224 431.792 351.387 430.04 349.796 429.473C348.196 428.909 346.443 429.744 345.878 431.339L345.633 432.026L351.413 434.076Z" fill="#EBFFFB"/>
<path d="M355.427 437.634L352.434 446.08L358.214 448.128L361.207 439.682L355.427 437.634Z" fill="#EBFFFB"/>
<path d="M361.88 437.788L362.125 437.101C362.692 435.506 361.855 433.753 360.261 433.188C358.666 432.621 356.913 433.457 356.346 435.053L356.102 435.742L361.88 437.788Z" fill="#EBFFFB"/>
<path d="M366.338 441.531L363.344 449.978L369.12 452.025L372.115 443.579L366.338 441.531Z" fill="#EBFFFB"/>
<path d="M372.821 441.665L373.065 440.977C373.63 439.382 372.798 437.632 371.201 437.065C369.602 436.497 367.853 437.333 367.286 438.93L367.043 439.619L372.821 441.665Z" fill="#EBFFFB"/>
<path d="M394.444 402.521L393.137 406.209L395.458 407.032L396.766 403.344L394.444 402.521Z" fill="#EBFFFB"/>
<path d="M397.762 403.669L396.453 407.356L398.775 408.18L400.084 404.493L397.762 403.669Z" fill="#EBFFFB"/>
<path d="M392.636 407.62L391.328 411.31L393.65 412.133L394.958 408.443L392.636 407.62Z" fill="#EBFFFB"/>
<path d="M395.953 408.727L394.645 412.415L396.967 413.239L398.275 409.551L395.953 408.727Z" fill="#EBFFFB"/>
<path d="M404.069 405.92L402.762 409.609L405.082 410.432L406.39 406.743L404.069 405.92Z" fill="#EBFFFB"/>
<path d="M407.391 407.069L406.082 410.757L408.4 411.58L409.709 407.892L407.391 407.069Z" fill="#EBFFFB"/>
<path d="M402.25 410.987L400.941 414.675L403.263 415.499L404.571 411.811L402.25 410.987Z" fill="#EBFFFB"/>
<path d="M405.6 412.177L404.293 415.866L406.613 416.688L407.92 412.999L405.6 412.177Z" fill="#EBFFFB"/>
<path d="M413.716 409.302L412.41 412.99L414.729 413.811L416.035 410.123L413.716 409.302Z" fill="#EBFFFB"/>
<path d="M417.024 410.479L415.719 414.167L418.038 414.988L419.343 411.3L417.024 410.479Z" fill="#EBFFFB"/>
<path d="M411.898 414.405L410.59 418.093L412.911 418.916L414.218 415.228L411.898 414.405Z" fill="#EBFFFB"/>
<path d="M415.202 415.581L413.895 419.27L416.215 420.092L417.523 416.404L415.202 415.581Z" fill="#EBFFFB"/>
<path d="M388.651 418.886L384.793 429.774L390.42 431.768L394.279 420.88L388.651 418.886Z" fill="#EBFFFB"/>
<path d="M398.253 422.31L394.395 433.195L400.019 435.189L403.878 424.304L398.253 422.31Z" fill="#EBFFFB"/>
<path d="M407.905 425.685L404.047 436.572L409.671 438.565L413.529 427.677L407.905 425.685Z" fill="#EBFFFB"/>
<path d="M381.822 438.045L374.473 458.778L380.099 460.773L387.449 440.039L381.822 438.045Z" fill="#EBFFFB"/>
<path d="M391.485 441.46L389.391 447.37L391.686 448.183L393.78 442.274L391.485 441.46Z" fill="#EBFFFB"/>
<path d="M394.967 442.711L392.871 448.618L395.163 449.431L397.259 443.524L394.967 442.711Z" fill="#EBFFFB"/>
<path d="M388.959 448.514L385.113 459.36L387.408 460.174L391.254 449.328L388.959 448.514Z" fill="#EBFFFB"/>
<path d="M392.447 449.781L388.609 460.63L390.903 461.441L394.741 450.592L392.447 449.781Z" fill="#EBFFFB"/>
<path d="M401.037 444.817L398.945 450.729L401.238 451.54L403.329 445.628L401.037 444.817Z" fill="#EBFFFB"/>
<path d="M404.562 446.082L402.469 451.992L404.759 452.803L406.852 446.893L404.562 446.082Z" fill="#EBFFFB"/>
<path d="M398.507 451.926L394.664 462.773L396.957 463.586L400.8 452.738L398.507 451.926Z" fill="#EBFFFB"/>
<path d="M402.011 453.179L398.176 464.029L400.467 464.839L404.303 453.99L402.011 453.179Z" fill="#EBFFFB"/>
<path d="M412.339 382.531L409.988 389.166L415.392 391.081L417.743 384.445L412.339 382.531Z" fill="#EBFFFB"/>
<path d="M407.507 391.345L403.871 401.607L412.061 404.509L415.697 394.247L407.507 391.345Z" fill="#EBFFFB"/>
<path d="M339.976 215.724L297.016 209.455L296.518 212.864L339.478 219.134L339.976 215.724Z" fill="#2489A8"/>
<path d="M340.509 218.704L295.66 212.154L294.306 221.424L339.155 227.974L340.509 218.704Z" fill="#45AEC3"/>
<path d="M304.529 463.353L260.238 456.885L287.09 272.946L331.358 279.405L304.529 463.353Z" fill="#2489A8"/>
<path d="M313.391 176.272C313.391 176.272 320.373 159.996 322.363 154.406C325.013 146.923 331.913 123.952 331.913 123.952C331.913 123.952 331.773 148.163 331.989 154.986C332.388 168.117 334.73 179.384 334.73 179.384L313.391 176.272Z" fill="#45AEC3"/>
<path d="M333.465 178.977C333.465 178.977 334.656 174.209 335.033 172.582C335.511 170.401 336.873 163.745 336.873 163.745C336.873 163.745 336.248 170.582 336.098 172.502C335.813 176.196 335.794 179.319 335.794 179.319L333.465 178.977Z" fill="#2489A8"/>
<path d="M314.135 176.194C314.135 176.194 314.356 171.279 314.469 169.612C314.62 167.384 315.226 160.612 315.226 160.612C315.226 160.612 313.871 167.345 313.465 169.235C312.687 172.857 311.809 175.852 311.809 175.852L314.135 176.194Z" fill="#2489A8"/>
<path d="M310.524 190.757L332.97 194.024C332.97 194.024 329.958 208.569 339.98 215.733C328.103 214 297.02 209.461 297.02 209.461C297.02 209.461 307.63 206.616 310.524 190.757Z" fill="#2489A8"/>
<path d="M332.838 194.78C332.915 194.302 332.969 194.024 332.969 194.024L310.523 190.757C310.471 191.008 310.405 191.253 310.367 191.507L332.838 194.78Z" fill="#2489A8"/>
<path d="M335.042 179.205L312.562 175.922L310.402 190.72L332.881 194.002L335.042 179.205Z" fill="#2489A8"/>
<path d="M335.504 181.347L311.512 177.847L311.814 175.822L335.796 179.319L335.504 181.347Z" fill="#2489A8"/>
<path d="M334.598 192.472L309.137 188.759L308.841 190.786L334.302 194.5L334.598 192.472Z" fill="#2489A8"/>
<path d="M300.553 221.39L296.859 220.852L297.481 216.543C297.63 215.522 298.577 214.818 299.597 214.97C300.621 215.121 301.324 216.067 301.174 217.084L300.553 221.39Z" fill="#EBFFFB"/>
<path d="M305.765 222.145L302.082 221.614L302.702 217.305C302.854 216.292 303.801 215.579 304.818 215.726C305.839 215.88 306.547 216.827 306.393 217.847L305.765 222.145Z" fill="#EBFFFB"/>
<path d="M310.985 222.912L307.293 222.378L307.914 218.067C308.071 217.051 309.015 216.337 310.036 216.484C311.049 216.639 311.764 217.59 311.606 218.606L310.985 222.912Z" fill="#EBFFFB"/>
<path d="M316.195 223.668L312.508 223.127L313.132 218.823C313.282 217.806 314.229 217.102 315.252 217.249C316.274 217.396 316.971 218.347 316.824 219.362L316.195 223.668Z" fill="#EBFFFB"/>
<path d="M321.407 224.431L317.715 223.892L318.349 219.59C318.499 218.566 319.447 217.866 320.467 218.015C321.486 218.162 322.19 219.104 322.043 220.122L321.407 224.431Z" fill="#EBFFFB"/>
<path d="M326.632 225.194L322.938 224.651L323.568 220.346C323.715 219.323 324.662 218.619 325.678 218.773C326.705 218.923 327.409 219.864 327.254 220.882L326.632 225.194Z" fill="#EBFFFB"/>
<path d="M331.849 225.954L328.156 225.413L328.782 221.104C328.933 220.088 329.878 219.383 330.894 219.529C331.915 219.68 332.621 220.623 332.473 221.648L331.849 225.954Z" fill="#EBFFFB"/>
<path d="M337.059 226.722L333.367 226.19L334 221.878C334.149 220.865 335.097 220.156 336.109 220.301C337.123 220.448 337.831 221.399 337.685 222.415L337.059 226.722Z" fill="#EBFFFB"/>
<path d="M293.554 221.319L289.738 225.792L283.176 270.757L285.919 275.289L331.828 281.99L335.688 278.715L342.261 233.647L340.287 228.141L293.554 221.319Z" fill="#45AEC3"/>
<path d="M321.956 314.768L320.055 314.493L324.202 286.107L326.098 286.381L321.956 314.768Z" fill="#EBFFFB"/>
<path d="M318.207 314.231L316.309 313.954L320.447 285.566L322.355 285.845L318.207 314.231Z" fill="#EBFFFB"/>
<path d="M314.46 313.681L312.566 313.409L316.705 285.018L318.606 285.298L314.46 313.681Z" fill="#EBFFFB"/>
<path d="M312.993 284.465L308.836 312.853L310.73 313.13L314.887 284.742L312.993 284.465Z" fill="#EBFFFB"/>
<path d="M306.968 312.588L305.074 312.311L309.206 283.921L311.117 284.199L306.968 312.588Z" fill="#EBFFFB"/>
<path d="M303.213 312.038L301.309 311.764L305.457 283.372L307.357 283.653L303.213 312.038Z" fill="#EBFFFB"/>
<path d="M299.463 311.492L297.566 311.217L301.707 282.831L303.608 283.106L299.463 311.492Z" fill="#EBFFFB"/>
<path d="M295.725 310.937L293.82 310.664L297.963 282.282L299.862 282.555L295.725 310.937Z" fill="#EBFFFB"/>
<path d="M291.975 310.405L290.074 310.125L294.213 281.741L296.111 282.015L291.975 310.405Z" fill="#EBFFFB"/>
<path d="M288.229 309.849L286.328 309.575L290.47 281.186L292.371 281.469L288.229 309.849Z" fill="#EBFFFB"/>
<path d="M321.114 320.557L319.215 320.278L315.047 348.658L316.946 348.936L321.114 320.557Z" fill="#EBFFFB"/>
<path d="M313.224 348.387L311.328 348.114L315.473 319.723L317.369 320.003L313.224 348.387Z" fill="#EBFFFB"/>
<path d="M311.717 319.17L307.605 347.564L309.51 347.84L313.621 319.446L311.717 319.17Z" fill="#EBFFFB"/>
<path d="M305.729 347.281L303.828 347.006L307.98 318.625L309.878 318.898L305.729 347.281Z" fill="#EBFFFB"/>
<path d="M304.197 318.094L300.098 346.481L302.005 346.757L306.104 318.369L304.197 318.094Z" fill="#EBFFFB"/>
<path d="M298.236 346.194L296.336 345.913L300.477 317.528L302.37 317.801L298.236 346.194Z" fill="#EBFFFB"/>
<path d="M294.489 345.648L292.59 345.374L296.739 316.987L298.63 317.269L294.489 345.648Z" fill="#EBFFFB"/>
<path d="M292.986 316.416L288.852 344.808L290.751 345.084L294.885 316.693L292.986 316.416Z" fill="#EBFFFB"/>
<path d="M286.995 344.557L285.086 344.274L289.229 315.891L291.129 316.164L286.995 344.557Z" fill="#EBFFFB"/>
<path d="M283.245 344.007L281.344 343.733L285.485 315.342L287.382 315.614L283.245 344.007Z" fill="#EBFFFB"/>
<path d="M311.983 383.076L310.09 382.797L314.226 354.412L316.124 354.686L311.983 383.076Z" fill="#EBFFFB"/>
<path d="M308.234 382.527L306.344 382.253L310.482 353.864L312.385 354.141L308.234 382.527Z" fill="#EBFFFB"/>
<path d="M304.489 381.984L302.594 381.71L306.735 353.315L308.631 353.6L304.489 381.984Z" fill="#EBFFFB"/>
<path d="M300.741 381.432L298.848 381.158L302.984 352.774L304.89 353.048L300.741 381.432Z" fill="#EBFFFB"/>
<path d="M296.998 380.893L295.102 380.614L299.239 352.226L301.139 352.5L296.998 380.893Z" fill="#EBFFFB"/>
<path d="M293.25 380.341L291.348 380.062L295.495 351.678L297.393 351.951L293.25 380.341Z" fill="#EBFFFB"/>
<path d="M291.721 351.127L287.613 379.52L289.515 379.795L293.623 351.403L291.721 351.127Z" fill="#EBFFFB"/>
<path d="M287.966 350.595L283.867 378.985L285.763 379.259L289.862 350.869L287.966 350.595Z" fill="#EBFFFB"/>
<path d="M282.006 378.698L280.105 378.418L284.247 350.032L286.145 350.305L282.006 378.698Z" fill="#EBFFFB"/>
<path d="M278.257 378.157L276.363 377.883L280.509 349.498L282.399 349.771L278.257 378.157Z" fill="#EBFFFB"/>
<path d="M307.001 417.234L305.098 416.96L309.247 388.577L311.143 388.857L307.001 417.234Z" fill="#EBFFFB"/>
<path d="M303.25 416.688L301.352 416.414L305.495 388.021L307.401 388.307L303.25 416.688Z" fill="#EBFFFB"/>
<path d="M299.506 416.155L297.605 415.873L301.747 387.488L303.65 387.762L299.506 416.155Z" fill="#EBFFFB"/>
<path d="M298.033 386.911L293.859 415.294L295.755 415.573L299.929 387.19L298.033 386.911Z" fill="#EBFFFB"/>
<path d="M292.011 415.048L290.113 414.774L294.252 386.384L296.161 386.661L292.011 415.048Z" fill="#EBFFFB"/>
<path d="M288.261 414.501L286.367 414.219L290.498 385.835L292.407 386.118L288.261 414.501Z" fill="#EBFFFB"/>
<path d="M284.504 413.951L282.609 413.678L286.757 385.294L288.652 385.566L284.504 413.951Z" fill="#EBFFFB"/>
<path d="M280.766 413.409L278.871 413.135L283.004 384.753L284.911 385.027L280.766 413.409Z" fill="#EBFFFB"/>
<path d="M279.269 384.188L275.121 412.573L277.02 412.851L281.168 384.465L279.269 384.188Z" fill="#EBFFFB"/>
<path d="M277.408 383.903L275.508 383.627L271.389 412.013L273.289 412.289L277.408 383.903Z" fill="#EBFFFB"/>
<path d="M306.143 423.037L304.246 422.762L300.13 451.151L302.026 451.426L306.143 423.037Z" fill="#EBFFFB"/>
<path d="M298.269 450.851L296.375 450.577L300.517 422.192L302.408 422.466L298.269 450.851Z" fill="#EBFFFB"/>
<path d="M296.789 421.634L292.617 450.02L294.517 450.299L298.689 421.913L296.789 421.634Z" fill="#EBFFFB"/>
<path d="M292.978 421.062L288.891 449.456L290.791 449.73L294.878 421.336L292.978 421.062Z" fill="#EBFFFB"/>
<path d="M287.025 449.212L285.125 448.93L289.271 420.547L291.172 420.822L287.025 449.212Z" fill="#EBFFFB"/>
<path d="M283.279 448.665L281.379 448.391L285.524 419.998L287.425 420.279L283.279 448.665Z" fill="#EBFFFB"/>
<path d="M279.534 448.112L277.633 447.837L281.778 419.457L283.675 419.732L279.534 448.112Z" fill="#EBFFFB"/>
<path d="M275.787 447.569L273.887 447.296L278.032 418.901L279.932 419.19L275.787 447.569Z" fill="#EBFFFB"/>
<path d="M272.038 447.027L270.133 446.751L274.28 418.367L276.168 418.64L272.038 447.027Z" fill="#EBFFFB"/>
<path d="M268.289 446.479L266.395 446.199L270.534 417.812L272.427 418.085L268.289 446.479Z" fill="#EBFFFB"/>
<path d="M325.453 319.91L281.168 313.442C280.447 313.337 279.947 312.674 280.053 311.944L280.165 311.162C280.268 310.437 280.943 309.935 281.667 310.039L325.955 316.5C326.676 316.604 327.183 317.282 327.078 318.008L326.956 318.785C326.849 319.512 326.182 320.017 325.453 319.91Z" fill="#45AEC3"/>
<path d="M320.467 354.11L276.176 347.648C275.459 347.545 274.955 346.874 275.061 346.144L275.175 345.37C275.278 344.639 275.955 344.135 276.675 344.239L320.958 350.706C321.685 350.812 322.187 351.482 322.083 352.204L321.97 352.991C321.857 353.708 321.184 354.213 320.467 354.11Z" fill="#45AEC3"/>
<path d="M315.475 388.321L271.183 381.859C270.459 381.753 269.958 381.079 270.065 380.35L270.183 379.573C270.287 378.846 270.959 378.347 271.69 378.454L315.966 384.913C316.688 385.024 317.193 385.69 317.086 386.417L316.975 387.197C316.868 387.925 316.196 388.426 315.475 388.321Z" fill="#45AEC3"/>
<path d="M310.483 422.527L266.199 416.065C265.469 415.953 264.968 415.287 265.078 414.556L265.187 413.773C265.296 413.052 265.973 412.557 266.697 412.66L310.979 419.112C311.701 419.225 312.209 419.9 312.105 420.619L311.991 421.402C311.884 422.133 311.21 422.63 310.483 422.527Z" fill="#45AEC3"/>
<path d="M337.505 232.359L294.637 226.104L288.381 268.973L331.249 275.229L337.505 232.359Z" fill="#2489A8"/>
<path d="M294.633 226.11L294.488 227.107L336.168 233.19L330.064 275.059L331.247 275.238L337.503 232.366L294.633 226.11Z" fill="#2489A8"/>
<path d="M333.52 192.664C333.52 192.664 334.127 190.291 334.279 189.595C334.482 188.663 335.067 185.82 335.067 185.82C335.067 185.82 334.798 188.735 334.737 189.56C334.619 191.136 334.605 192.475 334.605 192.475L333.52 192.664Z" fill="#2489A8"/>
<path d="M310.154 189.324C310.154 189.324 310.231 186.813 310.282 186.101C310.347 185.148 310.597 182.255 310.597 182.255C310.597 182.255 310.027 185.137 309.851 185.936C309.512 187.48 309.141 188.763 309.141 188.763L310.154 189.324Z" fill="#2489A8"/>
<path d="M314.175 188.665L312.375 188.406L313.412 181.305C313.481 180.811 313.944 180.467 314.436 180.541C314.93 180.61 315.283 181.073 315.212 181.571L314.175 188.665Z" fill="#EBFFFB"/>
<path d="M317.702 189.185L315.898 188.913L316.944 181.824C317.015 181.329 317.47 180.981 317.971 181.053C318.464 181.125 318.805 181.587 318.732 182.083L317.702 189.185Z" fill="#EBFFFB"/>
<path d="M321.225 189.691L319.43 189.43L320.462 182.338C320.534 181.837 320.999 181.497 321.493 181.564C321.985 181.639 322.337 182.106 322.264 182.602L321.225 189.691Z" fill="#EBFFFB"/>
<path d="M324.758 190.211L322.953 189.943L323.994 182.85C324.065 182.355 324.525 182.011 325.026 182.085C325.516 182.154 325.863 182.613 325.796 183.12L324.758 190.211Z" fill="#EBFFFB"/>
<path d="M328.289 190.716L326.48 190.453L327.526 183.364C327.593 182.861 328.057 182.515 328.557 182.592C329.051 182.662 329.393 183.126 329.321 183.624L328.289 190.716Z" fill="#EBFFFB"/>
<path d="M331.81 191.237L330.012 190.974L331.047 183.879C331.119 183.383 331.582 183.041 332.081 183.109C332.578 183.18 332.921 183.648 332.849 184.147L331.81 191.237Z" fill="#EBFFFB"/>
<path d="M317.681 174.343L316.285 174.14L316.511 172.606C316.565 172.233 316.91 171.968 317.289 172.023L317.328 172.028C317.699 172.082 317.965 172.437 317.908 172.811L317.681 174.343Z" fill="#EBFFFB"/>
<path d="M322.583 175.053L321.184 174.847L321.406 173.32C321.472 172.949 321.816 172.685 322.186 172.737L322.222 172.743C322.6 172.796 322.858 173.148 322.807 173.527L322.583 175.053Z" fill="#EBFFFB"/>
<path d="M327.481 175.765L326.094 175.565L326.314 174.032C326.37 173.653 326.717 173.395 327.097 173.452L327.13 173.453C327.502 173.51 327.768 173.86 327.71 174.237L327.481 175.765Z" fill="#EBFFFB"/>
<path d="M332.271 176.466L330.859 176.263L331.094 174.738C331.148 174.358 331.506 174.099 331.87 174.151L331.911 174.161C332.284 174.216 332.547 174.561 332.492 174.938L332.271 176.466Z" fill="#EBFFFB"/>
<path d="M320.963 169.065L319.574 168.865L319.795 167.334C319.85 166.958 320.2 166.701 320.574 166.754L320.606 166.753C320.985 166.818 321.255 167.167 321.192 167.537L320.963 169.065Z" fill="#EBFFFB"/>
<path d="M325.862 169.775L324.473 169.572L324.698 168.04C324.753 167.667 325.095 167.407 325.475 167.461L325.504 167.466C325.876 167.515 326.14 167.868 326.086 168.244L325.862 169.775Z" fill="#EBFFFB"/>
<path d="M327.413 159.194L326.012 158.991L326.243 157.461C326.301 157.086 326.642 156.829 327.012 156.882L327.052 156.884C327.427 156.942 327.69 157.286 327.636 157.667L327.413 159.194Z" fill="#EBFFFB"/>
<path d="M330.462 170.443L329.066 170.238L329.287 168.708C329.343 168.338 329.684 168.076 330.068 168.134L330.102 168.136C330.475 168.192 330.741 168.543 330.683 168.916L330.462 170.443Z" fill="#EBFFFB"/>
<path d="M324.202 163.952L322.805 163.745L323.026 162.216C323.084 161.843 323.439 161.582 323.815 161.636L323.845 161.64C324.221 161.696 324.48 162.044 324.433 162.421L324.202 163.952Z" fill="#EBFFFB"/>
<path d="M329.095 164.66L327.711 164.461L327.931 162.931C327.986 162.557 328.327 162.294 328.72 162.352L328.752 162.355C329.123 162.409 329.382 162.758 329.329 163.132L329.095 164.66Z" fill="#EBFFFB"/>
<path d="M328.132 251.876C326.921 260.185 319.198 265.938 310.896 264.732C302.579 263.513 296.834 255.794 298.044 247.485C299.251 239.175 306.974 233.422 315.273 234.636C323.589 235.85 329.347 243.566 328.132 251.876Z" fill="white"/>
<path d="M302.915 254.02L303.11 254.523L299.947 255.78L299.746 255.284L302.915 254.02Z" fill="#2489A8"/>
<path d="M302.603 253.23L299.449 254.511L299.651 255.009L302.806 253.728L302.603 253.23Z" fill="#2489A8"/>
<path d="M326.504 244.646L326.707 245.143L323.538 246.403L323.34 245.906L326.504 244.646Z" fill="#2489A8"/>
<path d="M326.195 243.859L326.389 244.355L323.232 245.614L323.027 245.117L326.195 243.859Z" fill="#2489A8"/>
<path d="M308.859 239.656L308.361 239.854L307.105 236.69L307.608 236.486L308.859 239.656Z" fill="#2489A8"/>
<path d="M309.654 239.35L309.146 239.548L307.887 236.382L308.385 236.184L309.654 239.35Z" fill="#2489A8"/>
<path d="M316.989 260.079L316.484 260.278L317.739 263.447L318.243 263.248L316.989 260.079Z" fill="#2489A8"/>
<path d="M319.043 262.928L318.532 263.132L317.273 259.963L317.777 259.766L319.043 262.928Z" fill="#2489A8"/>
<path d="M306.381 258.539L306.802 258.865L304.693 261.539L304.266 261.211L306.381 258.539Z" fill="#2489A8"/>
<path d="M305.718 258.013L306.134 258.341L304.031 261.019L303.598 260.685L305.718 258.013Z" fill="#2489A8"/>
<path d="M322.107 238.625L322.533 238.953L320.425 241.629L320.008 241.295L322.107 238.625Z" fill="#2489A8"/>
<path d="M321.449 238.091L321.88 238.427L319.759 241.099L319.344 240.77L321.449 238.091Z" fill="#2489A8"/>
<path d="M301.687 241.01L301.352 241.433L304.019 243.545L304.354 243.122L301.687 241.01Z" fill="#2489A8"/>
<path d="M304.872 242.463L304.542 242.889L301.867 240.777L302.204 240.357L304.872 242.463Z" fill="#2489A8"/>
<path d="M324.272 258.862L323.939 259.282L321.27 257.169L321.604 256.752L324.272 258.862Z" fill="#2489A8"/>
<path d="M324.802 258.201L324.468 258.618L321.797 256.511L322.123 256.088L324.802 258.201Z" fill="#2489A8"/>
<path d="M302.162 248.386L302.092 248.918L298.723 248.425L298.804 247.895L302.162 248.386Z" fill="#2489A8"/>
<path d="M302.29 247.556L302.209 248.085L298.84 247.594L298.924 247.058L302.29 247.556Z" fill="#2489A8"/>
<path d="M327.286 252.042L327.21 252.574L323.84 252.088L323.919 251.548L327.286 252.042Z" fill="#2489A8"/>
<path d="M327.416 251.212L327.333 251.749L323.965 251.259L324.048 250.726L327.416 251.212Z" fill="#2489A8"/>
<path d="M314.506 238.931L313.969 238.853L314.468 235.487L314.991 235.563L314.506 238.931Z" fill="#2489A8"/>
<path d="M315.336 239.051L314.809 238.983L315.307 235.617L315.83 235.683L315.336 239.051Z" fill="#2489A8"/>
<path d="M310.839 264.059L310.309 263.975L310.796 260.604L311.328 260.688L310.839 264.059Z" fill="#2489A8"/>
<path d="M311.672 264.182L311.145 264.097L311.628 260.728L312.166 260.81L311.672 264.182Z" fill="#2489A8"/>
<path d="M314.596 249.904C314.476 250.739 313.704 251.319 312.861 251.197C312.022 251.071 311.454 250.3 311.575 249.465C311.699 248.627 312.475 248.042 313.306 248.162C314.146 248.292 314.723 249.063 314.596 249.904Z" fill="#2489A8"/>
<path d="M314.339 241.284C314.343 241.192 314.337 241.106 314.347 241.017C314.327 241.104 314.297 241.184 314.274 241.274C313.602 243.585 312.005 244.922 312.599 245.714C313.23 246.572 312.842 248.634 312.842 248.634L313.203 248.685L313.263 248.693L313.612 248.744C313.612 248.744 313.839 246.657 314.697 246.016C315.473 245.422 314.333 243.691 314.339 241.284Z" fill="#2489A8"/>
<path d="M301.031 248.029C300.902 248.019 300.773 248.009 300.637 247.988C300.773 248.016 300.899 248.043 301.026 248.065C304.557 248.785 306.754 249.926 307.863 249.672C309.059 249.402 312.179 249.906 312.179 249.906L312.213 249.695L312.218 249.658L312.244 249.449C312.244 249.449 309.105 249.041 308.036 248.445C307.048 247.881 304.621 248.353 301.031 248.029Z" fill="#2489A8"/>
<path d="M513.329 544.995C483.731 495.529 411.995 453.069 319.914 437.978C175.194 414.261 68.4989 475.898 33.8325 535.754C32.2269 538.527 30.7587 541.843 29.8398 544.995H513.329Z" fill="#37AFD4"/>
<path d="M338.442 452.735C396.157 462.194 445.875 482.409 482.239 508.357C445.217 475.392 388.164 449.162 319.914 437.978C175.193 414.261 68.4989 475.898 33.8325 535.754C32.2269 538.527 30.7587 541.843 29.8398 544.995H55.759C93.6179 486.951 198.165 429.747 338.442 452.735Z" fill="#68C3DF"/>
<path d="M249.534 486.115C249.534 491.695 232.391 496.22 211.245 496.22C190.099 496.22 172.957 491.695 172.957 486.115C172.957 480.533 190.1 476.008 211.245 476.008C232.391 476.007 249.534 480.532 249.534 486.115Z" fill="#2BA4C9"/>
<path d="M219.477 276.347C219.477 276.347 223.699 273.427 224.629 273.257C225.559 273.088 233.688 274.514 236.852 281.054C236.121 285.646 234.767 289.282 234.767 289.282L219.484 276.635" fill="#2A6484"/>
<path d="M240.753 292.851C240.056 299.056 231.46 301.927 221.554 299.266C211.649 296.605 204.184 289.418 204.881 283.214C205.579 277.009 214.174 274.138 224.08 276.799C233.986 279.46 241.45 286.648 240.753 292.851Z" fill="#204E6D"/>
<path d="M194.919 312.798C194.919 312.798 195.09 312.855 194.689 312.448C194.287 312.042 192.978 312.15 192.327 313.283C191.675 314.415 190.146 320.469 189.279 321.615C188.412 322.761 188.737 324.684 189.994 324.761C191.25 324.839 194.073 323.802 195.379 322.496C196.685 321.19 194.919 312.798 194.919 312.798Z" fill="#0968B5"/>
<path d="M225.813 370.102C226.001 376.913 221.798 382.556 216.426 382.704C211.054 382.853 206.546 377.451 206.358 370.639C206.169 363.828 210.372 358.186 215.744 358.037C221.116 357.889 225.625 363.29 225.813 370.102Z" fill="#FF9A7B"/>
<path d="M219.592 472.061L218.863 476.921L226.478 476.712L226.363 472.544L219.592 472.061Z" fill="#FFBC9F"/>
<path d="M202.71 472.51C202.71 472.51 202.802 475.85 202.85 477.574C200.784 479.573 195.117 480.017 193.727 477.827C194.474 475.61 194.645 473.344 194.645 473.344L202.71 472.51Z" fill="#FFA788"/>
<path d="M203.121 476.982C203.121 476.982 203.086 479.468 203.621 480.77C204.156 482.072 205.383 484.79 198.937 485.425C192.66 486.042 190.179 486.861 185.904 488.177C181.629 489.493 175.532 489.155 174.257 485.051C173.244 482.687 176.862 481.31 179.344 481.139C185.132 480.739 191.836 477.064 193.128 475.855C194.543 474.843 195.59 476.404 195.467 477.784C195.344 479.165 201.337 478.976 203.121 476.982Z" fill="#F9F9F9"/>
<path d="M198.884 483.453C192.606 484.07 190.125 484.888 185.851 486.205C181.688 487.487 175.807 487.189 174.325 483.38C174.052 483.863 173.99 484.418 174.258 485.043C175.534 489.148 181.631 489.485 185.906 488.169C190.18 486.853 192.662 486.034 198.938 485.417C204.523 484.868 204.348 482.754 203.854 481.353C203.433 482.283 202.135 483.133 198.884 483.453Z" fill="#D1D1D1"/>
<path d="M221.551 376.595C221.551 376.595 222.312 392.803 216.402 396.094C215.421 397.716 205.721 418.541 206.703 425.362C208.901 441.737 203.447 467.984 203.745 473.586C199.715 476.017 194.095 474.162 194.095 474.162C194.095 474.162 192.507 429.406 192.743 424.36C193.06 417.565 194.077 406.789 194.91 402.584C197.532 389.344 198.562 376.123 199.524 373.275C204.763 372.433 207.992 372.201 207.992 372.201L221.551 376.595Z" fill="#183A56"/>
<path d="M213.574 375.715C213.574 375.715 211.881 390.76 218.096 393.656C216.992 388.414 218.079 379.182 218.59 376.867C217.103 375.086 213.574 375.715 213.574 375.715Z" fill="#204E6D"/>
<path d="M196.399 423.715C196.717 416.92 198.215 407.681 199.048 403.475C201.584 390.674 206.888 375.634 207.992 372.201C206.745 372.36 201.254 372.996 199.524 373.275C198.562 376.123 197.532 389.344 194.91 402.584C194.077 406.789 193.06 417.565 192.743 424.36C192.507 429.406 194.095 474.162 194.095 474.162C194.095 474.162 195.899 474.756 198.195 474.831C197.897 471.237 196.173 428.549 196.399 423.715Z" fill="#204E6D"/>
<path d="M237.029 370.619C237.029 370.619 240.48 384.248 237.132 398.174C233.784 412.1 232.481 420.59 232.259 424.439C232.035 428.288 232.16 443.553 230.216 449.837C228.272 456.122 227.229 473.802 227.229 473.802C227.229 473.802 220.548 472.962 218.538 473.31C219.008 462.757 217.5 449.28 219.09 438.601C220.68 427.921 218.812 401.425 217.934 396.765C217.055 392.104 218.737 374.053 218.737 374.053L237.029 370.619Z" fill="#183A56"/>
<path d="M223.228 437.105C224.818 426.425 218.812 401.418 217.934 396.758C218.812 401.418 220.679 427.914 219.09 438.594C217.499 449.274 219.008 462.751 218.537 473.303C219.182 473.191 220.31 473.202 221.542 473.268C221.97 462.733 221.671 447.56 223.228 437.105Z" fill="#204E6D"/>
<path d="M218.107 480.33C218.107 480.33 217.927 473.802 221.112 473.186C223.33 472.758 224.836 472.843 226.06 474.786C227.285 476.728 229.148 480.555 230.065 481.994C230.984 483.432 231.906 487.653 230.692 488.784C229.479 489.916 227.862 490.805 224.891 490.78C222.171 490.759 218.955 489.292 218.807 487.763C218.549 485.1 218.251 482.888 218.107 480.33Z" fill="#F9F9F9"/>
<path d="M230.877 486.363C229.664 487.495 228.047 488.384 225.076 488.36C222.356 488.338 219.139 486.871 218.992 485.342C218.734 482.679 218.436 480.466 218.292 477.909C218.292 477.909 218.29 477.827 218.29 477.685C218.074 479.112 218.107 480.323 218.107 480.323C218.252 482.88 218.549 485.092 218.807 487.755C218.954 489.284 222.171 490.752 224.891 490.773C227.863 490.797 229.479 489.908 230.692 488.777C231.248 488.258 231.352 487.091 231.218 485.842C231.131 486.05 231.02 486.23 230.877 486.363Z" fill="#D1D1D1"/>
<path d="M209.291 372.159C209.291 372.159 221.538 374.346 226.878 372.881C230.345 375.2 229.071 376.745 229.071 376.745C229.071 376.745 219.039 379.246 209.401 376.109C206.816 373.983 209.291 372.159 209.291 372.159Z" fill="#183A56"/>
<path d="M222.479 378.705L222.437 378.705L215.946 378.692C215.565 378.691 215.206 378.542 214.936 378.272C214.667 378.001 214.519 377.643 214.52 377.261L214.527 373.797C214.528 373.02 215.138 372.393 215.916 372.372L222.449 372.385C222.83 372.385 223.189 372.534 223.459 372.804C223.728 373.075 223.876 373.434 223.875 373.816L223.868 377.279C223.867 378.057 223.257 378.683 222.479 378.705ZM215.956 373.522C215.796 373.526 215.677 373.648 215.676 373.801L215.669 377.265C215.669 377.365 215.721 377.431 215.751 377.462C215.781 377.492 215.847 377.543 215.948 377.543L222.439 377.556L222.463 378.131L222.447 377.556C222.599 377.552 222.718 377.43 222.718 377.278L222.724 373.815C222.724 373.715 222.674 373.648 222.644 373.617C222.613 373.586 222.547 373.535 222.446 373.535L215.956 373.522Z" fill="#D1D1D1"/>
<path d="M228.907 297.287C228.907 297.287 227.699 309.178 229.681 312.71C227.155 315.342 223.088 316.479 223.088 316.479C223.088 316.479 217.714 313.407 217.104 312.18C216.494 310.952 228.907 297.287 228.907 297.287Z" fill="#FFA788"/>
<path d="M197.481 314.184C197.481 314.184 192.636 313.66 190.149 311.093C187.663 308.526 180.454 293.967 180.059 291.586C179.664 289.204 179.387 283.173 178.902 281.54C176.279 281.942 171.047 287.32 171.047 287.32C171.047 287.32 174.205 290.38 174.558 292.529C174.91 294.679 179.544 311.385 181.729 316.302C183.915 321.219 195.021 323.181 195.021 323.181L197.481 314.184Z" fill="#FFB69F"/>
<path d="M197.481 314.184C197.481 314.184 192.636 313.66 190.149 311.093C187.663 308.526 180.454 293.967 180.059 291.586C179.664 289.204 179.387 283.173 178.902 281.54C176.279 281.942 171.047 287.32 171.047 287.32C171.047 287.32 175.685 290.664 176.038 292.813C176.39 294.963 180.757 310.163 182.943 315.08C185.128 319.997 195.022 323.181 195.022 323.181L197.481 314.184Z" fill="#FFA788"/>
<path d="M174.145 274.703C174.145 274.703 186.099 273.211 187.595 273.028C189.09 272.844 189.186 273.684 189.37 275.033C189.554 276.382 190.039 280.686 190.058 281.381C190.077 282.077 190.243 282.767 186.956 283.041C183.67 283.315 173.414 284.294 173.414 284.294L171.445 284.568C171.445 284.568 166.78 275.436 174.145 274.703Z" fill="#204E6D"/>
<path d="M171.985 276.315C171.985 276.315 176.126 275.176 176.636 275.088C177.145 275.001 177.546 273.6 176.005 273.422C174.462 273.246 171.909 273.536 170.693 274.594C169.478 275.652 168.784 279.642 168.216 282.942C167.648 286.242 169.447 287.44 173.323 289.983C171.602 287.615 173.232 285.685 175.964 285.207C178.696 284.729 180.23 284.651 180.54 283.947C180.85 283.243 179.702 282.534 177.944 282.701C176.186 282.868 172.707 283.907 171.99 284.477C171.956 283.232 173.999 281.676 174.611 281.293C175.222 280.91 178.572 280.269 179.743 280.273C180.914 280.277 180.785 278.268 179.535 278.047C178.284 277.825 173.971 278.017 171.719 279.946C171.995 279.316 174.302 278.045 176.088 277.776C177.873 277.507 178.902 277.662 179.661 277.311C180.42 276.961 179.796 275.551 178.438 275.405C177.08 275.26 172.995 275.738 171.985 276.315Z" fill="#FFB39C"/>
<path d="M252.811 340.474C252.811 340.474 247.962 325.31 246.351 322.61C244.739 319.91 236.238 316.877 233.842 315.673C231.445 314.469 230.606 313.054 230.606 313.054C230.606 313.054 226.004 317.372 221.973 316.513C217.942 315.654 214.637 310.888 214.637 310.888C214.637 310.888 211.677 314.09 209.703 314.144C207.728 314.199 207.88 312.284 205.865 313.01C204.435 313.526 201.738 314.657 200.847 314.169C199.955 313.682 197.18 313.249 194.688 312.454C195.422 319.186 194.776 321.593 192.92 323.435C191.457 324.888 189.992 324.768 189.992 324.768C189.992 324.768 196.988 328.146 197.907 329.658C198.828 331.169 200.963 336.93 198.939 343.134C196.914 349.338 192.595 375.807 192.595 375.807C192.595 375.807 210.334 378.831 213.965 376.754C215.726 370.557 219.267 365.189 219.267 365.189L224.806 378.43C224.806 378.43 238.059 373.526 240.323 370.682C237.967 364.892 235.924 359.824 237.022 357.159C238.119 354.494 237.464 352.023 237.112 349.838C236.759 347.652 239.783 340.541 239.783 340.541L241.546 346.056C241.546 346.056 250.598 341.213 252.811 340.474Z" fill="#2BA4C9"/>
<path d="M252.811 340.474C252.811 340.474 247.962 325.31 246.351 322.61C244.739 319.91 236.238 316.877 233.842 315.673C231.445 314.469 230.606 313.054 230.606 313.054C230.606 313.054 226.004 317.372 221.973 316.513C217.942 315.654 214.637 310.888 214.637 310.888C214.637 310.888 211.677 314.09 209.703 314.144C207.728 314.199 207.88 312.284 205.865 313.01C204.435 313.526 201.738 314.657 200.847 314.169C199.955 313.682 197.18 313.249 194.688 312.454C195.422 319.186 194.776 321.593 192.92 323.435C191.457 324.888 189.992 324.768 189.992 324.768C189.992 324.768 196.988 328.146 197.907 329.658C198.828 331.169 200.963 336.93 198.939 343.134C196.914 349.338 192.595 375.807 192.595 375.807C192.595 375.807 210.334 378.831 213.965 376.754C215.726 370.557 219.267 365.189 219.267 365.189L224.806 378.43C224.806 378.43 238.059 373.526 240.323 370.682C237.967 364.892 235.924 359.824 237.022 357.159C238.119 354.494 237.574 351.671 238.132 349.528C240.252 341.396 240.979 332.865 240.979 332.865L244.553 345.132C244.553 345.132 250.598 341.213 252.811 340.474Z" fill="#37AFD4"/>
<path d="M192.595 375.811C192.595 375.811 195.297 376.271 198.803 376.708C199.316 371.878 201.921 347.951 203.738 342.381C205.763 336.176 199.996 331.272 199.076 329.761C198.157 328.249 189.992 324.771 189.992 324.771C189.992 324.771 196.988 328.149 197.907 329.661C198.828 331.173 200.963 336.933 198.939 343.137C196.914 349.342 192.595 375.811 192.595 375.811Z" fill="#16ADDB"/>
<path d="M250.3 341.562C250.3 341.562 253.878 352.698 254.295 355.871C254.712 359.043 251.966 362.962 249.146 368.199C246.326 373.438 240.438 378.871 239.408 381.315C238.387 384.088 238.41 384.966 238.41 384.966C238.41 384.966 234.093 382.559 232.109 379.43C235.458 377.472 238.388 374.525 239.542 371.424C240.695 368.324 243.933 358.353 245.317 356.778C246.701 355.202 243.415 345.032 243.415 345.032C243.415 345.032 246.314 343.416 247.308 342.93C248.052 342.567 250.3 341.562 250.3 341.562Z" fill="#FFB69F"/>
<path d="M250.3 341.562C250.3 341.562 253.878 352.698 254.295 355.871C254.712 359.043 251.966 362.962 249.146 368.199C246.326 373.438 240.438 378.871 239.408 381.315C238.387 384.088 238.41 384.966 238.41 384.966C238.41 384.966 234.093 382.559 232.109 379.43C235.458 377.472 238.951 376.257 240.105 373.156C241.259 370.056 245.949 360.025 247.332 358.449C248.716 356.873 245.156 344.15 245.156 344.15C245.156 344.15 246.314 343.418 247.308 342.931C248.052 342.567 250.3 341.562 250.3 341.562Z" fill="#FFA788"/>
<path d="M226.377 321.66L222.663 316.932L218.027 321.452C218.027 321.452 212.9 313.396 214.868 310.414C217.879 313.032 223.087 316.481 223.087 316.481C223.087 316.481 229.334 313.448 228.921 310.025C231.687 312.511 231.581 313.978 231.581 313.978C231.581 313.978 230.134 319.873 226.377 321.66Z" fill="#2BA4C9"/>
<path d="M216.017 293.183L209.582 291.566L209.68 291.139L216.909 292.818L216.017 293.183Z" fill="#28607F"/>
<path d="M223.807 281.622C223.807 281.622 216.978 280.823 214.847 283.187C212.717 285.552 211.48 288.477 211.935 291.685C211.272 294.192 212.033 294.318 212.044 297.83C212.055 301.344 212.173 305.586 212.649 306.963C213.127 308.341 218.634 308.994 220.931 307.32C223.226 305.646 227.256 303.119 227.593 299.45C229.644 302.175 232.086 297.789 232.397 295.804C232.707 293.819 230.15 291.328 228.52 293.276C229.446 289.664 229.83 281.45 223.807 281.622Z" fill="#FFA788"/>
<path d="M223.654 281.606C222.642 281.506 216.79 281.031 214.847 283.188C212.717 285.552 211.48 288.477 211.935 291.686C211.272 294.193 212.033 294.318 212.044 297.831C212.055 301.344 212.173 305.586 212.649 306.963C212.98 307.918 215.725 308.523 218.145 308.248C220.951 303.91 222.9 298.821 224.208 294.371C225.657 290.025 225.29 285.679 223.654 281.606Z" fill="#FFBBA6"/>
<path d="M213.908 299.084C213.908 299.084 217.444 299.298 218.392 299.084C219.341 298.87 219.662 299.179 219.662 299.179C219.662 299.179 217.949 300.813 215.621 300.578C213.292 300.341 213.801 299.008 213.801 299.008" fill="#FFFAF0"/>
<path d="M217.898 288.544C217.898 288.544 218.346 287.18 219.358 287.386C220.371 287.592 222.646 287.979 223.513 289.446C222.495 289.026 221.231 288.615 220.264 288.514C219.297 288.412 217.898 288.544 217.898 288.544Z" fill="#204E6D"/>
<path d="M214.932 288.383C214.932 288.383 214.584 287.042 213.946 287.293C213.307 287.544 211.871 288.034 211.383 289.539C212.014 289.072 212.804 288.604 213.418 288.459C214.031 288.315 214.932 288.383 214.932 288.383Z" fill="#204E6D"/>
<path d="M226.583 286.748C226.583 286.748 227.116 284.172 226.162 283.43C225.209 282.687 221.797 282.397 219.885 282.724C217.972 283.052 215.188 283.611 214.891 282.774C216.181 279.808 220.653 278.751 223.854 279.321C227.053 279.892 235.632 282.454 232.408 294.895C231.863 293.807 231.463 293.044 230.639 292.743C229.815 292.441 228.329 292.958 228.02 295.016C226.866 294.993 226.236 294.71 226.236 294.71C226.236 294.71 227.03 292.335 227.074 291.272C227.118 290.211 225.744 289.48 226.583 286.748Z" fill="#204E6D"/>
<path d="M226.611 293.485C226.611 293.485 225.424 296.401 225.221 298.026C225.02 299.651 222.024 299.542 221.343 300.714C220.662 301.885 220.219 303.737 219.127 303.959C218.035 304.181 216.141 301.514 215.907 300.998C214.639 303.55 213.219 303.711 212.883 302.485C212.547 301.259 212.083 300.833 212.083 300.833C212.083 300.833 211.379 306.012 210.871 307.454C210.361 308.895 209.151 312.771 215.72 312.736C222.288 312.701 227.277 308.537 228.584 306.818C229.891 305.098 228.698 299.971 228.344 299.066C227.99 298.161 227.864 295.66 228.171 294.36C228.479 293.061 226.611 293.485 226.611 293.485Z" fill="#204E6D"/>
<path d="M215.955 297.49C215.955 297.49 215.227 296.989 214.743 297.358C214.26 297.729 213.331 298.88 213.02 299.52C212.708 300.16 212.735 303.123 212.735 303.123L213.188 303.66C213.188 303.66 213.431 300.15 213.663 299.622C213.896 299.094 215.677 299.336 215.99 298.751C216.888 299.467 218.429 299.346 219.256 299.488C220.084 299.63 220.28 302.036 219.976 303.938C220.745 303.972 220.968 303.096 220.968 303.096C220.968 303.096 220.554 300.025 220.425 299.342C220.297 298.659 218.151 297.483 217.487 297.309C216.823 297.137 216.089 297.377 215.955 297.49Z" fill="#204E6D"/>
<path d="M212.512 294.733C210.848 294.779 209.457 293.462 209.411 291.799C209.366 290.135 210.681 288.745 212.345 288.698C214.008 288.652 215.4 289.968 215.445 291.632C215.491 293.296 214.175 294.687 212.512 294.733ZM212.357 289.138C210.936 289.177 209.811 290.366 209.85 291.787C209.89 293.208 211.078 294.333 212.5 294.294C213.921 294.254 215.046 293.066 215.007 291.643C214.967 290.223 213.778 289.099 212.357 289.138Z" fill="#28607F"/>
<path d="M219.981 294.528C218.318 294.575 216.926 293.258 216.88 291.594C216.834 289.931 218.15 288.54 219.814 288.494C221.477 288.448 222.868 289.764 222.914 291.428C222.96 293.091 221.644 294.483 219.981 294.528ZM219.826 288.933C218.405 288.972 217.28 290.161 217.319 291.583C217.359 293.004 218.548 294.129 219.968 294.09C221.39 294.05 222.514 292.861 222.475 291.44C222.436 290.019 221.248 288.894 219.826 288.933Z" fill="#28607F"/>
<path d="M217.15 290.949C216.138 290.665 215.143 291.001 215.133 291.004L214.988 290.589C215.034 290.573 216.119 290.202 217.269 290.526L217.15 290.949Z" fill="#28607F"/>
<path d="M229.075 293.052L222.641 291.436L222.738 291.008L229.968 292.687L229.075 293.052Z" fill="#28607F"/>
<path d="M222.899 324.498C222.913 324.974 222.538 325.371 222.062 325.383C221.585 325.396 221.189 325.021 221.176 324.545C221.163 324.069 221.538 323.672 222.014 323.66C222.49 323.647 222.887 324.022 222.899 324.498Z" fill="#FEF1C2"/>
<path d="M221.424 333.397C221.436 333.873 221.061 334.27 220.585 334.283C220.109 334.296 219.712 333.921 219.7 333.445C219.686 332.969 220.061 332.572 220.538 332.559C221.014 332.546 221.41 332.921 221.424 333.397Z" fill="#FEF1C2"/>
<path d="M220.67 344.626C220.682 345.102 220.307 345.498 219.831 345.511C219.355 345.525 218.958 345.149 218.946 344.673C218.933 344.197 219.308 343.8 219.784 343.787C220.26 343.775 220.657 344.15 220.67 344.626Z" fill="#FEF1C2"/>
<path d="M220.06 353.819C220.073 354.295 219.698 354.692 219.222 354.705C218.746 354.718 218.35 354.343 218.336 353.867C218.323 353.391 218.698 352.994 219.175 352.981C219.65 352.968 220.047 353.343 220.06 353.819Z" fill="#FEF1C2"/>
<path d="M219.716 363.09C219.73 363.566 219.354 363.962 218.878 363.975C218.402 363.989 218.005 363.613 217.993 363.137C217.98 362.661 218.355 362.265 218.831 362.251C219.307 362.238 219.704 362.614 219.716 363.09Z" fill="#FEF1C2"/>
<path d="M213.801 291.121C213.812 291.527 213.54 291.864 213.193 291.873C212.846 291.883 212.555 291.562 212.543 291.155C212.532 290.749 212.805 290.412 213.152 290.403C213.499 290.394 213.789 290.715 213.801 291.121Z" fill="#204E6D"/>
<path d="M213.163 290.784C213.165 290.864 213.112 290.929 213.045 290.931C212.977 290.933 212.92 290.87 212.918 290.791C212.916 290.711 212.969 290.646 213.037 290.644C213.104 290.642 213.161 290.705 213.163 290.784Z" fill="#F9F9F9"/>
<path d="M220.335 291.053C220.347 291.459 220.074 291.796 219.727 291.805C219.38 291.816 219.089 291.494 219.078 291.088C219.067 290.681 219.339 290.345 219.687 290.335C220.034 290.326 220.325 290.647 220.335 291.053Z" fill="#204E6D"/>
<path d="M219.698 290.716C219.7 290.796 219.647 290.861 219.58 290.863C219.512 290.865 219.455 290.802 219.453 290.723C219.451 290.644 219.504 290.578 219.572 290.576C219.639 290.574 219.696 290.637 219.698 290.716Z" fill="#F9F9F9"/>
</svg>
