<svg width="72" height="25" viewBox="0 0 72 25" fill="none" xmlns="http://www.w3.org/2000/svg">
<mask id="mask0_2371_25035" style="mask-type:luminance" maskUnits="userSpaceOnUse" x="0" y="0" width="72" height="25">
<path d="M0 24.5H72V0.5H0V24.5Z" fill="white"/>
</mask>
<g mask="url(#mask0_2371_25035)">
<path d="M60.4597 0.495703L11.4951 0.594421C8.44191 0.601219 5.51622 1.87264 3.36077 4.12939C1.20547 6.38613 -0.00335702 9.44343 0.000206197 12.6297C-0.00885031 14.1931 0.280514 15.7426 0.850926 17.1883C1.42163 18.6337 2.2621 19.9464 3.32379 21.0494C4.38534 22.1526 5.64657 23.0241 7.03415 23.6134C8.42187 24.2026 9.90788 24.4979 11.4059 24.4818L60.3703 24.3829C66.7302 24.3829 72.0112 19.1172 71.9977 12.4774C71.9876 9.29265 70.767 6.24215 68.6037 3.9956C66.4405 1.74921 63.5114 0.49045 60.4597 0.495703Z" fill="#7C47E1"/>
<path d="M60.0468 21.4473C58.3487 21.4505 56.688 20.9285 55.2743 19.9467C53.8609 18.9651 52.7579 17.5679 52.1051 15.9321C51.4523 14.2962 51.279 12.495 51.6071 10.7564C51.9352 9.01785 52.7502 7.41984 53.9485 6.16448C55.1469 4.90912 56.6751 4.0528 58.3398 3.70382C60.0046 3.35483 61.7311 3.52878 63.3012 4.20373C64.8711 4.87884 66.2139 6.02452 67.16 7.496C68.106 8.96749 68.6126 10.6988 68.616 12.4708C68.6179 14.8462 67.717 17.1256 66.1105 18.8086C64.5039 20.4914 62.3231 21.4405 60.0468 21.4473Z" fill="white"/>
<path d="M65.731 13.8633C66.4594 10.576 64.4965 7.29484 61.3463 6.53461C58.1961 5.77454 55.0521 7.82319 54.3237 11.1105C53.5953 14.398 55.5583 17.679 58.7084 18.4392C61.8585 19.1994 65.0026 17.1506 65.731 13.8633Z" fill="#0FA457"/>
<path d="M11.9692 18.6596C10.8177 18.6624 9.69131 18.3088 8.73236 17.6434C7.77341 16.9779 7.02513 16.0306 6.58211 14.9215C6.13908 13.8121 6.0212 12.5908 6.24345 11.4116C6.46571 10.2325 7.01801 9.14863 7.83057 8.29695C8.64313 7.44557 9.67943 6.86455 10.8084 6.62772C11.9373 6.39089 13.1083 6.50876 14.1731 6.96651C15.2378 7.4241 16.1485 8.20117 16.7901 9.199C17.4317 10.197 17.7754 11.3711 17.7776 12.5728C17.7782 14.1829 17.1672 15.7276 16.0787 16.8687C14.99 18.0095 13.5121 18.6536 11.9692 18.6596ZM20.5328 12.5671C20.5322 10.5072 19.852 8.5103 18.6062 6.91228C17.3605 5.31442 15.6254 4.21293 13.693 3.79304C11.7605 3.3733 9.74847 3.6608 7.99507 4.60734C6.24182 5.55373 4.85454 7.10153 4.06633 8.98998C3.27796 10.8786 3.13707 12.9929 3.66695 14.9771C4.19698 16.9615 5.36556 18.6948 6.97643 19.8856C8.58701 21.0764 10.5416 21.6519 12.5112 21.5155C14.4809 21.3792 16.3453 20.539 17.7911 19.1365V20.0846C17.8067 20.4549 17.9587 20.8047 18.2154 21.0608C18.472 21.3171 18.8136 21.4602 19.1687 21.4602C19.524 21.4602 19.8655 21.3171 20.122 21.0608C20.3787 20.8047 20.5308 20.4549 20.5464 20.0846V12.8606C20.5478 12.8333 20.5478 12.806 20.5464 12.7788C20.5328 12.7054 20.5328 12.632 20.5328 12.5671Z" fill="white"/>
<path d="M30.9804 21.5058C29.5791 21.5091 28.1984 21.1565 26.957 20.4788C25.7156 19.8009 24.6509 18.8181 23.8545 17.6149C23.0583 16.4119 22.5545 15.0248 22.3865 13.5731C22.2186 12.1215 22.3915 10.6493 22.8905 9.28284C23.3895 7.91655 24.1996 6.6975 25.2506 5.73072C26.3017 4.76409 27.5625 4.07864 28.9241 3.73382C30.2855 3.38901 31.7071 3.39503 33.0659 3.75143C34.4248 4.10783 35.6801 4.8038 36.7237 5.77954C36.8698 5.90235 36.9905 6.05499 37.0784 6.22801C37.1661 6.40119 37.2194 6.59106 37.2346 6.78617C37.25 6.98129 37.2271 7.1778 37.1674 7.36349C37.1079 7.54918 37.0126 7.72035 36.8877 7.86634C36.7627 8.01249 36.6105 8.13052 36.4407 8.21348C36.2706 8.29628 36.0862 8.34232 35.8986 8.34834C35.711 8.35468 35.5242 8.321 35.3495 8.24947C35.1747 8.17795 35.0159 8.07011 34.8822 7.93262C34.0394 7.1418 32.9949 6.62273 31.8753 6.43842C30.7557 6.25397 29.6088 6.41216 28.5736 6.8937C27.5383 7.37523 26.6589 8.15956 26.0417 9.15168C25.4246 10.1438 25.0962 11.3014 25.0962 12.4843C25.0962 13.6672 25.4246 14.8247 26.0417 15.8169C26.6589 16.809 27.5383 17.5933 28.5736 18.0748C29.6088 18.5562 30.7557 18.7146 31.8753 18.5301C32.9949 18.3457 34.0394 17.8269 34.8822 17.0359C35.1575 16.7962 35.5111 16.6769 35.8688 16.7033C36.2265 16.7297 36.5604 16.8995 36.8007 17.1773C37.0411 17.455 37.1689 17.8192 37.1576 18.1932C37.1462 18.5672 36.9966 18.9219 36.7399 19.1834C35.1603 20.6725 33.1091 21.4998 30.9804 21.5058Z" fill="white"/>
<path d="M51.5792 18.8392L44.135 12.3489L51.5548 5.96305C51.8357 5.71912 52.0121 5.36874 52.0454 4.98902C52.0783 4.60929 51.9658 4.23141 51.732 3.93835C51.4983 3.64529 51.1624 3.46129 50.7986 3.42653C50.4348 3.39193 50.0727 3.50965 49.7918 3.75358L41.7527 10.735V4.87392C41.7527 4.49296 41.6078 4.1276 41.3496 3.85817C41.0915 3.5889 40.7415 3.4375 40.3764 3.4375C40.0115 3.4375 39.6614 3.5889 39.4032 3.85817C39.1452 4.1276 39 4.49296 39 4.87392L39.0272 19.9625C39.0429 20.3327 39.1949 20.6826 39.4515 20.9387C39.7082 21.1948 40.0497 21.3379 40.4048 21.3379C40.7601 21.3379 41.1016 21.1948 41.3581 20.9387C41.6148 20.6826 41.7668 20.3327 41.7826 19.9625V14.1014L49.846 21.0516C49.9818 21.1941 50.1449 21.3051 50.3245 21.3778C50.5041 21.4502 50.6963 21.4827 50.8887 21.4729C51.0811 21.463 51.2692 21.4111 51.4411 21.3206C51.6132 21.2302 51.7649 21.1029 51.8868 20.9474C52.0089 20.7919 52.0979 20.6113 52.1489 20.4175C52.1998 20.2236 52.2109 20.0206 52.182 19.8219C52.153 19.6234 52.0843 19.4332 51.9805 19.2639C51.8767 19.0946 51.74 18.95 51.5792 18.8392Z" fill="white"/>
</g>
</svg>
