<svg width="96" height="97" viewBox="0 0 96 97" fill="none" xmlns="http://www.w3.org/2000/svg">
<rect x="0.25" y="0.75" width="95.5" height="95.5" rx="7.75" fill="white"/>
<path fill-rule="evenodd" clip-rule="evenodd" d="M19.3598 32.1191H32.7609V45.7444L41.576 54.734C41.6002 54.6882 41.5933 54.7269 41.6072 54.6459L41.6106 23.119C39.051 23.0556 36.4116 23.1154 33.8415 23.1154C26.2422 23.1154 18.5978 23.1436 11.0019 23.1154L10.5273 23.1577L19.3598 32.1191Z" fill="#ED1C24"/>
<path fill-rule="evenodd" clip-rule="evenodd" d="M41.5717 54.736L32.7601 45.7429L19.3694 45.7324L19.359 32.1141L10.5231 23.1562C10.4711 31.008 10.5231 38.9585 10.5231 46.8279L10.5266 54.5705C10.5266 54.5846 10.53 54.5951 10.5335 54.6057C10.5577 54.7255 10.5924 54.729 10.7586 54.7396C11.5657 54.7748 13.5504 54.736 14.3886 54.736C23.4392 54.736 32.5315 54.7713 41.5717 54.736Z" fill="#C4161C"/>
<path fill-rule="evenodd" clip-rule="evenodd" d="M66.5209 43.8279C66.1572 43.8349 65.4991 43.7644 65.222 43.8842C64.5881 44.1625 64.6851 44.948 64.692 45.5715L66.4827 45.575L66.4862 50.6828C65.7623 51.3309 63.3516 53.2789 62.3852 52.0143C62.212 51.7888 62.0631 51.4718 62.0631 51.0879C62.0631 50.401 62.1081 45.3919 62.0388 45.1136C61.7375 43.8701 59.7355 43.5496 58.6756 43.5496C58.2253 43.5496 57.8789 43.8525 57.8789 44.321V52.0636C57.8789 53.0077 58.3361 54.2546 59.2713 54.7408C61.0309 55.6531 63.9439 54.2723 65.364 53.3141C65.7692 53.0394 66.4412 52.4757 66.5624 52.3947C66.5901 53.1204 66.5243 55.8433 66.6282 56.34C66.7841 57.0868 67.4664 56.9705 68.0414 56.9705C68.3358 56.9705 68.8173 56.8508 69.0424 56.7733C69.9049 56.4809 70.7119 55.7905 70.7119 54.702C70.7085 51.7325 70.6738 48.4812 70.7154 45.5433C71.3596 45.5293 72.0212 45.5363 72.6689 45.5398C73.0292 45.5433 73.2335 45.487 73.4517 45.3214C73.8847 44.9868 73.7912 44.3879 73.7842 43.7574L70.7189 43.7539C70.5838 42.3554 70.6253 40.337 72.0316 39.6184C73.1677 39.0407 73.9159 39.5444 74.2484 39.4423C74.7714 39.2837 74.5151 37.223 71.2765 37.2266C70.0538 37.2266 68.7203 37.526 67.8959 38.3714C67.5323 38.7413 67.1893 39.1675 66.9746 39.7029C66.3407 41.2775 66.559 42.1758 66.5209 43.8279Z" fill="#0072BC"/>
<path fill-rule="evenodd" clip-rule="evenodd" d="M72.9414 49.7514C72.9414 52.4849 74.0844 53.8657 76.7238 54.6618C77.652 54.9401 79.2835 55.081 80.236 55.0211C81.5799 54.9366 82.7125 54.7041 83.8555 53.9608C84.2746 53.6861 84.6453 53.3831 84.9709 53.0273C85.1163 52.8688 85.2861 52.6399 85.3796 52.4285C85.5112 52.1256 85.5632 51.8895 85.3796 51.6183C85.0194 51.6113 84.8912 51.8261 84.3301 52.0903C82.7021 52.8583 80.901 53.524 79.1172 52.9181C78.7362 52.7878 78.3864 52.587 78.137 52.3369C76.7134 50.9138 77.0113 47.74 78.8366 46.6233C79.6541 46.1231 81.3513 45.9963 81.708 47.1658C81.9851 48.0781 81.3236 48.7932 80.6551 49.2018C79.9797 49.6175 78.9267 49.8606 78.0885 49.8746C78.182 50.2516 78.6288 50.7165 78.9509 50.8997C79.1553 51.016 79.4012 51.1111 79.6402 51.171C80.6863 51.4387 81.6596 51.259 82.6467 50.8997C84.2227 50.3291 85.3796 49.068 85.383 47.2362C85.383 46.9403 85.2618 46.3133 85.1683 46.0773C85.0332 45.7286 84.8773 45.4644 84.673 45.2037C83.3013 43.4812 80.139 43.6749 78.2062 44.0695C76.8069 44.3548 75.0196 45.3305 74.2853 46.2851C73.6826 47.0707 73.3778 47.4476 73.1146 48.5396C73.0384 48.8355 72.9449 49.4202 72.9414 49.7514Z" fill="#0072BC"/>
<path fill-rule="evenodd" clip-rule="evenodd" d="M46.1562 39.6973V53.8862C46.1562 54.4991 46.7936 54.9395 47.1919 54.9395C50.4028 54.9395 53.8076 54.9747 56.9942 54.9395C57.0184 53.5304 57.2609 52.2271 55.6814 52.2271H50.8184C50.5586 52.2447 50.7041 52.2729 50.3439 52.2658L50.3404 50.5257C50.3404 50.3284 50.3785 50.2967 50.382 50.0819C50.4131 47.7217 50.3508 45.2278 50.3785 42.8641C50.382 42.6669 50.4201 42.5788 50.4201 42.378V40.8386C50.4201 39.3979 48.2414 38.8907 47.1122 38.8907C46.5373 38.8871 46.1562 39.1196 46.1562 39.6973Z" fill="#0072BC"/>
<path fill-rule="evenodd" clip-rule="evenodd" d="M46.1562 34.0596H49.5022L49.5057 29.7268L52.8516 29.7233L52.8551 34.0596H56.2391L56.2426 23.2418L52.8551 23.2383L52.8516 27.2892L49.5057 27.2928V23.2418L46.1597 23.2383L46.1562 34.0596Z" fill="#ED1C24"/>
<path fill-rule="evenodd" clip-rule="evenodd" d="M61.1022 31.8282L61.0988 25.4664C62.0755 25.4453 63.1216 25.396 63.5337 25.9913C63.9702 26.6218 63.9321 27.6011 63.9321 28.6262C63.9321 31.5851 63.6896 31.881 61.1022 31.8282ZM57.8359 23.2402V34.058C58.3312 34.0685 58.882 34.1883 59.3877 34.1812C59.6925 34.1777 59.8622 34.2235 60.1843 34.22L62.2175 34.2587C63.4021 34.2587 65.1201 33.8889 65.9756 33.054C66.8866 32.1628 67.2815 30.6622 67.2815 29.3553V27.897C67.2641 27.6469 67.2364 27.7561 67.2399 27.4109C67.2572 26.6183 66.8658 25.3713 66.3982 24.7408C65.5219 23.5607 64.2992 23.2402 62.8514 23.0781L59.4708 23.1134C58.9201 23.1134 58.359 23.2261 57.8359 23.2402Z" fill="#ED1C24"/>
<path fill-rule="evenodd" clip-rule="evenodd" d="M68.5582 34.0592L71.9422 34.0627L71.9457 29.6454L76.0086 29.6419L76.012 27.4967L71.9491 27.4932L71.9457 25.591C72.1604 25.5874 76.0779 25.6121 76.2337 25.5698C76.3099 25.5487 76.3099 25.5276 76.3203 25.4571C76.3307 25.4043 76.3307 25.3585 76.3307 25.3056L76.3238 23.2379L68.5547 23.2344L68.5582 34.0592Z" fill="#ED1C24"/>
<path fill-rule="evenodd" clip-rule="evenodd" d="M76.89 27.6991C76.89 29.0553 76.8034 30.3727 77.2329 31.6866C77.4684 32.4088 77.7039 32.761 78.1542 33.2225C78.743 33.8213 79.8272 34.1877 80.7174 34.2652L81.8708 34.3462C82.0613 34.3462 82.0751 34.311 82.2691 34.3039C82.4146 34.3004 82.567 34.311 82.709 34.3074C82.9861 34.3004 84.614 34.1348 84.8807 34.0432C84.995 34.0045 85.0193 34.0714 85.0193 33.8601V31.7148C84.0806 31.7923 82.0405 31.9896 81.2369 31.669C81.0429 31.5915 80.8524 31.4154 80.7312 31.2534C80.4784 30.9117 80.3156 30.2036 80.3156 29.8091C80.3156 28.9672 80.2359 27.3997 80.4507 26.6635C80.5165 26.4345 80.6515 26.1421 80.7832 25.9871C80.9321 25.811 81.1122 25.6912 81.3651 25.6067C82.089 25.3636 82.6917 25.5151 83.2251 25.5116C83.9248 25.5081 84.5136 25.5961 85.0158 25.5891V23.2818L83.6199 23.081C83.0831 23.0352 82.657 23 82.0682 23C80.2047 23 78.3482 23.2184 77.4823 24.9832C77.3021 25.3496 77.1497 25.7582 77.0597 26.2161C77.0112 26.4697 76.9869 26.6599 76.9558 26.9206C76.9419 27.0827 76.89 27.5371 76.89 27.6991Z" fill="#ED1C24"/>
<path fill-rule="evenodd" clip-rule="evenodd" d="M57.5938 40.3061C57.5938 41.0916 57.6734 41.5742 58.425 42.1378C58.8545 42.4583 59.5958 42.7084 60.0945 42.6486C61.2757 42.5077 62.4187 41.9511 62.4187 40.5491C62.4187 39.6015 61.8645 38.9534 61.0471 38.6188C60.6868 38.4708 60.5552 38.4778 60.1223 38.4215C59.5542 38.3475 58.7922 38.6505 58.4493 38.9041C58.0544 39.1929 57.5938 39.753 57.5938 40.3061Z" fill="#0072BC"/>
<path fill-rule="evenodd" clip-rule="evenodd" d="M49.2641 66.653C49.0044 67.1814 47.941 68.608 47.1963 68.5552C45.9494 68.4671 47.2413 65.3215 48.71 65.9203C48.9247 66.0119 49.4131 66.3465 49.2641 66.653ZM43.5629 65.716C43.5871 65.406 43.4278 65.1665 43.1888 65.1242C42.8424 65.0608 42.264 65.723 42.077 65.9133C41.9142 66.0788 41.7237 66.2479 41.5816 66.4205L40.255 67.9845C40.2412 66.97 40.8404 64.6698 41.0586 63.5426C41.1521 63.067 41.3704 62.3555 40.9305 62.3555C40.4975 62.3555 40.4525 62.5069 40.1511 62.602C40.2239 63.5602 40.0819 64.2083 39.9225 65.1418C39.8775 65.406 39.6039 67.0581 39.4653 67.2307C39.0912 67.6957 37.9101 68.5587 37.2624 68.5552C36.8814 68.5552 36.5454 68.4143 36.5454 67.9881C36.5454 67.4456 36.9264 65.9731 37.1031 65.5997C37.4321 65.5927 37.969 65.5645 38.2669 65.5223C38.88 65.4377 38.7657 65.2017 38.6513 64.8318C38.4366 64.9269 37.5811 65.0326 37.2624 65.0291C37.3628 64.5606 37.7265 63.6518 37.1412 63.6518C36.8294 63.6518 36.5939 63.8244 36.3861 63.9336C36.4657 64.314 36.4242 64.7226 36.3826 65.1101L35.5098 65.1136C35.3678 65.3814 35.2812 65.6385 35.5894 65.6385L36.303 65.5997C36.303 65.8146 36.0951 66.5544 36.0362 66.7833C35.9947 66.9489 36.012 66.9278 35.9081 67.0193C35.2569 67.597 34.1658 68.4354 33.2757 68.4354C32.4617 68.4354 32.6834 67.3223 32.8046 66.8608C33.106 65.7477 33.577 65.3954 33.0367 65.3954C32.8531 65.3954 32.4375 65.3532 32.3301 65.5258C32.2747 65.6138 31.9837 66.6565 31.7309 67.0651C31.4607 67.5019 30.9481 68.2311 30.2865 68.2311C29.14 68.2346 29.7323 66.8573 30.0302 66.3078C30.3592 65.6984 30.8095 65.3532 30.3662 65.3532C30.1168 65.3532 29.6526 65.332 29.5141 65.5786C29.2889 65.9837 28.8906 67.2448 28.8906 67.7027C28.8906 68.1888 28.901 69.0413 29.6873 69.0413H29.8847C30.6017 69.0413 31.5715 68.1959 31.8798 67.7908C32.0114 68.0021 31.8798 69.9501 34.6265 68.5552C34.8482 68.4425 35.0387 68.3403 35.2396 68.2064C35.3504 68.1325 35.4128 68.0867 35.5271 68.0127C35.631 67.9423 35.7072 67.8577 35.8215 67.826C35.6933 68.4248 35.6691 69.2033 36.542 69.2033C37.207 69.2033 37.7854 68.999 38.3084 68.7313C38.9492 68.4037 39.306 68.0832 39.5692 67.9528L39.5346 68.8793C39.7632 69.0025 40.2031 69.1117 40.4906 69.0413C40.4906 69.0413 41.689 66.491 42.6138 66.2902C42.5342 67.0475 42.4649 67.9845 42.8979 68.6221C43.4624 69.4499 44.8929 69.0202 45.5026 68.4671L45.8697 68.1184C45.9944 69.0237 46.275 69.2069 46.9088 69.2069C47.4803 69.2069 48.4259 68.6045 48.7931 68.2452L49.2607 67.7908C49.3403 67.9176 49.3161 68.0374 49.42 68.2769C49.4997 68.4565 49.5412 68.5411 49.6694 68.6714C50.0019 69.0096 50.189 69.0871 50.6981 69.0871C51.2939 69.0871 52.6205 68.4495 52.7313 68.0338C52.6551 67.9176 52.527 67.8295 52.4127 67.752C52.2949 67.7943 52.3122 67.8225 52.1425 67.9634C51.7303 68.3121 51.422 68.4002 50.8955 68.4002C50.3829 68.4002 50.0573 67.7943 50.0573 67.2659C50.0573 65.9485 50.3102 66.2867 49.8287 65.797C49.6174 65.5821 49.3438 65.4342 48.9974 65.3461C47.9479 65.0784 46.9642 65.7336 46.3858 66.5297C46.0983 66.9242 45.4229 68.4037 44.3595 68.4002H44.318C44.0097 68.4002 43.7672 68.2417 43.6529 68.0233C43.2546 67.2589 43.5109 66.3747 43.5629 65.716Z" fill="#ED212A"/>
<path fill-rule="evenodd" clip-rule="evenodd" d="M16.8177 67.7902C16.8177 67.2266 17.2818 66.4481 17.791 66.1029C18.7747 65.4372 19.4397 66.3213 19.3774 66.582C19.2943 66.9378 18.5045 67.8924 18.2655 68.1249C17.604 68.7766 16.8212 68.7836 16.8177 67.7902ZM27.1014 64.708C27.1707 64.5777 27.3647 64.0457 27.3751 63.8872C27.3993 63.4258 25.3419 63.5561 23.7313 66.3495C23.6308 66.5221 23.4576 66.899 23.3606 67.0153C23.3572 66.6137 23.8179 65.7929 23.6758 65.4794C23.4299 65.3632 23.0281 65.5428 22.803 65.6027C22.7961 65.8387 22.848 66.0078 22.8411 66.2896C22.8238 67.3534 22.7476 67.121 22.1726 67.6775C21.7673 68.0685 20.9603 68.7519 20.3992 68.3257C19.7341 67.8184 20.2468 66.2896 20.1844 66.117C20.0355 65.7154 19.1176 65.1518 18.2932 65.3561C15.4253 66.0747 15.1967 70.2349 17.8153 69.0478C18.702 68.6462 19.1903 67.9241 19.3289 67.8325L19.5159 68.4102C20.1255 69.8545 21.5457 68.8153 22.2765 68.2376C22.4393 68.1073 22.4739 68.0192 22.6714 67.917C22.6298 68.1214 22.5744 68.4278 22.5571 68.6462C22.5224 69.0619 22.5536 69.1112 22.7164 69.3296C22.9277 69.2274 23.184 69.164 23.3918 69.0513C23.4195 67.7022 23.8594 66.8427 24.476 66.0571C24.7634 65.6908 25.1271 65.3315 25.5289 65.0638C26.0727 64.6974 26.336 64.6552 27.1014 64.708Z" fill="#ED212A"/>
<path fill-rule="evenodd" clip-rule="evenodd" d="M73.2198 65.5221C73.1159 65.5608 73.1263 65.5644 73.0743 65.6982C73.0432 65.7757 73.0328 65.8285 73.0051 65.9131L72.6102 67.2939C72.3366 68.1147 69.1534 69.6681 70.5528 66.4556C70.6324 66.2759 70.8783 65.7968 70.9095 65.6454C70.6705 65.582 70.2237 65.2896 70.0159 65.5432C69.86 65.7334 69.7561 66.1597 69.6799 66.4168C69.3266 67.6427 68.9906 69.6223 71.1035 69.0376C71.8066 68.8439 72.1772 68.4247 72.5825 68.157C72.6275 68.7981 73.0709 69.3159 73.7463 69.1715C74.155 69.0834 74.5707 68.8685 74.8858 68.629C75.0105 68.5339 75.0764 68.4705 75.2114 68.4C75.1526 68.7065 75.0417 68.9848 74.9517 69.3018C74.7681 69.9464 74.6295 70.5523 74.536 71.2322C74.4945 71.5386 74.4148 71.9578 74.4217 72.2889C74.5741 72.3735 74.7161 72.4404 74.969 72.4016C75.6132 72.3101 75.2703 71.7359 75.3985 70.8517C75.4297 70.6439 75.4193 70.3867 75.4435 70.2071C75.5474 69.4497 75.7691 68.2309 76.1362 67.6286C76.3545 67.2693 77.0957 66.4027 77.1303 65.9589C77.158 65.6066 76.6212 65.4763 76.3337 65.4798C76.0774 65.9694 75.8938 66.5331 75.679 67.0826C75.6202 67.234 75.5751 67.3573 75.4989 67.4665C75.2391 67.8258 75.0002 68.0513 74.5949 68.2521C73.9818 68.555 73.2371 68.4282 73.3549 67.5581C73.393 67.2728 73.4727 66.9029 73.5731 66.6423C73.6355 66.4837 73.8537 65.9659 73.8641 65.8426C73.7359 65.6595 73.5177 65.5291 73.2198 65.5221Z" fill="#ED212A"/>
<path fill-rule="evenodd" clip-rule="evenodd" d="M12.5112 63.5358C12.5112 62.9228 13.1416 62.4121 13.907 62.56C14.676 62.7115 15.0189 63.5041 15.2198 63.6555C15.6389 63.5604 16.155 62.8982 15.4934 62.4473C15.2787 62.2993 15.0535 62.2148 14.766 62.1338C13.4706 61.7533 11.5933 62.2923 11.5933 63.7401C11.5933 65.5436 14.2777 66.2587 14.3816 67.5515C14.4785 68.7175 13.2316 68.7527 12.3934 68.4779C11.9985 68.3476 11.6591 68.1503 11.2331 68.0341C10.6962 67.8861 10.5195 68.3758 10.5195 68.8478C10.7343 69.0028 11.0356 69.0591 11.3231 69.1226C12.3345 69.3445 13.7373 69.3867 14.5825 68.7668C15.1228 68.3722 15.2994 67.9883 15.2994 67.3472C15.2994 66.0368 12.5077 64.8708 12.5077 63.8598V63.5358H12.5112Z" fill="#ED212A"/>
<path fill-rule="evenodd" clip-rule="evenodd" d="M59.4095 65.6202C59.4164 65.6167 59.4337 65.6202 59.4372 65.6096C59.4406 65.5991 59.458 65.6026 59.4649 65.5991C59.4649 64.803 59.0735 64.8558 58.5331 65.2574L57.643 66.0147C57.3555 66.3071 57.1269 66.5607 56.8463 66.8672C56.5969 67.1384 56.2471 67.7408 56.1224 67.7866L56.5173 65.3137C56.5865 64.9016 56.6524 64.4542 56.7112 64.0491C56.8117 63.32 56.8844 63.0769 56.874 62.3548C56.5173 62.1787 56.1986 62.4464 55.9215 62.5978C56.1432 63.1544 55.783 65.3877 55.7206 65.9619C55.6756 66.3776 55.6132 66.7932 55.5544 67.2124C55.5266 67.4167 55.5024 67.6316 55.4747 67.8606C55.4608 67.9627 55.3292 68.8786 55.3846 68.9772C55.4505 69.0899 55.6028 69.0441 55.7587 69.0441C56.0739 69.0441 56.0808 69.016 56.164 68.7694C56.2921 68.3925 56.6108 67.7478 56.9156 67.547L57.6638 68.2022C57.927 68.47 58.9072 69.3119 59.219 69.4175C59.5653 69.5338 59.929 69.1709 60.0572 68.9631C59.7732 68.7518 59.115 68.551 58.5401 68.1177C58.3738 67.9944 57.4525 67.2406 57.3139 67.0187C57.6568 66.7615 57.9547 66.4586 58.308 66.2049C58.8934 65.7893 58.8587 65.8034 59.4095 65.6202Z" fill="#ED212A"/>
<path fill-rule="evenodd" clip-rule="evenodd" d="M80.9115 67.0603C80.8387 67.4443 80.8075 67.6662 80.482 68.0431C79.6645 68.9907 77.8738 68.9554 78.1405 67.4478C78.2721 66.694 78.8263 66.1902 79.4498 65.9401C80.3503 65.5808 81.0846 66.1444 80.9115 67.0603ZM81.7497 67.1413C81.9298 66.4157 81.6181 65.8697 81.2093 65.5844C80.7487 65.2638 80.1391 65.2074 79.5017 65.3836C77.4928 65.9472 76.5541 68.0889 77.801 69.0083C78.8298 69.7656 81.2959 68.9801 81.7497 67.1413Z" fill="#ED212A"/>
<path fill-rule="evenodd" clip-rule="evenodd" d="M64.8898 71.0767C64.5746 71.2846 63.9996 72.6407 66.1229 72.4893C66.9265 72.4329 67.5118 71.5628 67.7439 70.8583C67.9794 70.1468 68.2184 67.1632 68.5405 65.8704C68.5994 65.6379 68.6722 65.4371 68.7137 65.2363C68.4332 65.0884 68.1803 65.2434 67.8028 65.3631C67.5049 65.4582 67.5395 65.4864 67.5153 65.7999C67.5049 65.9232 67.4876 65.9549 67.4806 66.0888L67.3941 67.2583C67.3005 68.153 67.2382 69.2802 67.1239 70.1045C67.0304 70.7738 66.8987 71.6298 66.4207 71.901C66.1021 72.0842 65.6657 71.901 65.4786 71.7319C65.25 71.5311 65.0907 71.3022 64.8898 71.0767Z" fill="#ED212A"/>
<path fill-rule="evenodd" clip-rule="evenodd" d="M60.8652 67.1778C60.8652 66.6987 61.3224 65.8956 61.8732 65.7758C62.8257 65.568 62.7841 66.5473 62.1087 66.8678C61.8766 66.9805 61.177 67.1848 60.8652 67.1778ZM60.8271 67.5864C61.2462 67.5688 62.2265 67.2412 62.552 67.0721C62.9815 66.8502 63.6327 66.5367 63.4803 65.8181C63.2864 64.8917 60.9103 64.9128 60.1933 66.903C59.2892 69.4041 62.3096 69.6048 63.702 68.6467C64.0172 68.4283 64.0207 68.1817 63.7366 67.9915C63.5565 68.0408 62.9954 68.7348 62.0671 68.6326C61.2982 68.5481 60.9726 68.2768 60.8271 67.5864Z" fill="#ED212A"/>
<path fill-rule="evenodd" clip-rule="evenodd" d="M85.0576 67.7076C84.8393 67.38 84.8255 67.4716 84.7527 66.9608C84.5934 65.8265 85.5771 62.7654 85.494 62.075C85.4455 61.6558 84.6073 62.0644 84.4583 62.1948C84.4653 62.4871 84.5311 62.8394 84.493 63.2022C84.4237 63.8821 84.1605 64.9459 84.0427 65.7843C83.6028 68.863 84.919 68.3064 85.0576 67.7076Z" fill="#ED212A"/>
<path fill-rule="evenodd" clip-rule="evenodd" d="M83.5033 69.5752C83.5552 69.8253 83.9986 70.0085 84.338 69.9803C84.6532 69.9556 84.913 69.6738 84.7952 69.2723C84.622 68.684 83.3128 68.6382 83.5033 69.5752Z" fill="#ED212A"/>
<path fill-rule="evenodd" clip-rule="evenodd" d="M70.7886 64.0612C71.18 64.0612 71.4987 63.8146 71.6268 63.5751C71.9836 62.9023 70.8821 62.5711 70.463 63.3672C70.2933 63.6843 70.3522 64.0612 70.7886 64.0612Z" fill="#ED212A"/>
<path fill-rule="evenodd" clip-rule="evenodd" d="M68.1185 63.8566C68.496 63.8566 68.7489 63.6488 68.9221 63.4198C69.1541 63.1133 68.9879 62.747 68.6207 62.6977C67.8934 62.592 67.308 63.8566 68.1185 63.8566Z" fill="#ED212A"/>
<rect x="0.25" y="0.75" width="95.5" height="95.5" rx="7.75" stroke="#D6E9FF" stroke-width="0.5"/>
</svg>
