<svg width="96" height="97" viewBox="0 0 96 97" fill="none" xmlns="http://www.w3.org/2000/svg">
<rect x="0.25" y="0.75" width="95.5" height="95.5" rx="7.75" fill="white"/>
<path fill-rule="evenodd" clip-rule="evenodd" d="M15.4688 14.8281H81.7853V72.5H15.4688V14.8281Z" fill="#E41D25"/>
<path d="M39.1827 36.9789C39.1827 39.2222 37.462 40.2121 36.6015 40.2121H33.9629V33.7135H36.6015C37.5484 33.7135 39.1827 34.7026 39.1827 36.9789ZM42.5959 36.9789C42.5959 32.3276 39.1827 30.6128 36.573 30.6128H30.4062V43.3789H36.573C39.1827 43.3789 42.5959 41.6303 42.5959 36.9789Z" fill="white"/>
<path d="M63.7498 35.202L64.8972 31.9367C63.4058 31.1113 61.2833 30.6168 58.9886 30.7161C55.0595 31.1113 52.7856 33.2696 52.6797 37.116C52.7535 41.0674 55.059 43.1187 58.9886 43.5137C61.6563 43.6795 63.7498 43.0194 65.2697 41.9309L63.5778 38.8306C62.6027 39.6881 61.3981 40.1499 59.9644 40.1822C57.5262 40.1172 56.3216 39.0951 56.3216 37.116C56.3216 35.1351 57.6409 33.9492 60.0785 33.8823C61.5128 33.9481 62.7745 34.3441 63.7498 35.202Z" fill="white"/>
<path d="M46.6442 33.9116H52.4116V30.6126H43.2305V43.3789H46.6442V38.7275H51.9784V35.5942H46.6442V33.9116Z" fill="white"/>
<path d="M26.1975 43.3789H29.554V30.6126H26.1975V35.1982H21.0927V30.6126H17.7656V43.3789H21.0927V38.3639H26.1975V43.3789Z" fill="white"/>
<path d="M17.7656 56.4849H27.2588V53.9643H21.0887V51.6718H26.7853V49.3755H21.0887V47.0813H27.2588V44.5584H17.7656V56.4849ZM35.8063 48.4588C35.8167 50.1173 34.143 50.0671 34.143 50.0671H31.5321V47.0813H34.143C34.143 47.0813 35.7962 47.0938 35.8063 48.4588ZM38.8907 48.4588C38.8907 44.3959 34.4629 44.5597 34.4629 44.5597L28.2088 44.5582V56.4847H31.5321V52.1293L32.7201 52.1278L35.7904 56.4849H39.5871L36.256 51.8858C38.9029 51.347 38.8907 48.4588 38.8907 48.4588ZM51.4736 56.2557C51.4806 56.2551 51.472 49.8334 51.472 49.8334H46.0105V52.1285H48.1478V54.1933C43.9152 55.1747 42.9122 53.0346 42.9122 50.5864C42.9122 46.9071 45.0661 46.8548 46.0018 46.8548C47.9212 46.8548 48.1478 48.2305 48.1478 48.2305H51.472C51.027 43.9249 45.537 44.3305 45.537 44.3305C39.0494 44.3305 39.364 50.5213 39.364 50.5213C39.364 56.2704 44.4159 56.6953 45.9229 56.6953C47.6189 56.6953 48.7916 56.5347 51.4736 56.2557ZM61.6482 50.423C61.6482 52.4754 60.9421 54.138 58.7028 54.138C56.4493 54.138 55.7571 52.4754 55.7571 50.423C55.7571 48.3702 56.4486 46.7067 58.7028 46.7067C60.9421 46.7067 61.6482 48.3702 61.6482 50.423ZM65.2488 50.423C65.2488 46.0632 62.3189 44.2359 58.7033 44.2359C55.0879 44.2359 52.1569 46.0632 52.1569 50.423C52.1569 54.7726 55.0879 56.6099 58.7033 56.6099C62.3189 56.6099 65.2488 54.7726 65.2488 50.423Z" fill="white"/>
<path d="M20.8078 68.5899V69.1432C20.6791 69.2474 20.5285 69.3326 20.3539 69.4059C20.1738 69.4789 19.9995 69.515 19.8242 69.515C19.4698 69.515 19.1794 69.3877 18.9641 69.125C18.7432 68.8707 18.6322 68.4807 18.6322 67.9637C18.633 67.4825 18.7432 67.1178 18.9585 66.8754C19.1732 66.6308 19.4641 66.5092 19.8308 66.5092C20.0747 66.5092 20.2719 66.5708 20.4346 66.6979C20.5979 66.8201 20.7083 66.9905 20.7664 67.2031L21.6043 67.0386C21.5223 66.6379 21.3361 66.3215 21.0457 66.097C20.7549 65.8714 20.348 65.7563 19.8308 65.7563C19.4351 65.7563 19.1038 65.8278 18.8363 65.9748C18.4872 66.1628 18.2195 66.4317 18.04 66.7842C17.8596 67.136 17.7656 67.5438 17.7656 67.9997C17.7656 68.4136 17.8479 68.8033 18.0104 69.1621C18.1737 69.515 18.4174 69.7882 18.7374 69.9829C19.0627 70.1713 19.4407 70.2695 19.8771 70.2695C20.2199 70.2695 20.5568 70.2025 20.8947 70.0621C21.2263 69.9286 21.482 69.7705 21.6567 69.5939V67.8546H19.8481V68.5899H20.8078Z" fill="white"/>
<path d="M25.3621 70.1914V69.4549H23.0421V68.2757H25.124V67.5387H23.0421V66.5717H25.28V65.8352H22.1992V70.1914H25.3621Z" fill="white"/>
<path d="M26.74 70.1914V67.3254L28.4261 70.1914H29.2697V65.8352H28.4909V68.7557L26.7749 65.8352H25.9609V70.1914H26.74Z" fill="white"/>
<path d="M33.0924 70.1914V69.4549H30.7724V68.2757H32.854V67.5387H30.7724V66.5717H33.0112V65.8352H29.9297V70.1914H33.0924Z" fill="white"/>
<path d="M34.5345 66.572H35.1918C35.5289 66.572 35.7381 66.578 35.8024 66.5841C35.9416 66.6078 36.0464 66.6689 36.1216 66.7606C36.1977 66.8456 36.2324 66.968 36.2324 67.113C36.2324 67.2463 36.2036 67.3567 36.145 67.4417C36.0925 67.527 36.0113 67.5881 35.9127 67.624C35.8132 67.6616 35.5581 67.6793 35.1564 67.6793H34.5345V66.572ZM34.5345 70.1914V68.3729H34.7035C34.9004 68.3729 35.0404 68.3906 35.1274 68.4206C35.2209 68.4519 35.3023 68.512 35.3837 68.6032C35.4648 68.6884 35.61 68.9016 35.8313 69.2423L36.4297 70.1914H37.4361L36.9305 69.3397C36.7264 69.005 36.5699 68.7677 36.4532 68.6341C36.3309 68.4998 36.1857 68.3787 36.0056 68.2698C36.3659 68.2144 36.6395 68.0799 36.8259 67.8677C37.0052 67.6539 37.0983 67.3807 37.0983 67.059C37.0983 66.7962 37.0406 66.5719 36.919 66.3716C36.7965 66.1701 36.6334 66.0309 36.4297 65.9516C36.2324 65.8723 35.9065 65.8354 35.4589 65.8354H33.6914V70.1914L34.5345 70.1914Z" fill="white"/>
<path d="M39.0758 68.4639L39.64 66.8515L40.2159 68.4639H39.0758ZM40.0879 65.8354H39.1981L37.582 70.1914H38.4721L38.8205 69.1992H40.4889L40.8495 70.1914H41.7572L40.0879 65.8354Z" fill="white"/>
<path d="M45.0397 70.1914V69.4549H42.9532V65.8728H42.1094V70.1914H45.0397Z" fill="white"/>
<path d="M47.7338 65.8352H46.8906V70.1914H47.7338V65.8352Z" fill="white"/>
<path d="M49.3103 70.1914V67.3254L50.9966 70.1914H51.8394V65.8352H51.0604V68.7557L49.3452 65.8352H48.5312V70.1914H49.3103Z" fill="white"/>
<path d="M52.7868 69.8857C53.0658 70.1413 53.4728 70.2695 53.9961 70.2695C54.3626 70.2695 54.6586 70.2146 54.9033 70.1112C55.1472 70.0021 55.3331 69.8435 55.4666 69.6242C55.6001 69.4046 55.6645 69.1745 55.6645 68.9248C55.665 68.6452 55.6118 68.4136 55.5016 68.231C55.3917 68.043 55.2345 67.8967 55.042 67.7875C54.8447 67.6783 54.5425 67.5749 54.1357 67.4716C53.7286 67.3734 53.4728 67.2764 53.3625 67.1789C53.2807 67.1061 53.2402 67.0208 53.2402 66.9174C53.2402 66.8012 53.2864 66.7113 53.3742 66.6438C53.5077 66.5398 53.6992 66.4858 53.9432 66.4858C54.1762 66.4858 54.3505 66.5338 54.472 66.6321C54.5892 66.7291 54.6644 66.8936 54.6998 67.1178L55.5431 67.0879C55.5307 66.6861 55.3917 66.3584 55.1297 66.1211C54.8627 65.8774 54.472 65.7563 53.9498 65.7563C53.6355 65.7563 53.3625 65.8043 53.1355 65.9071C52.9086 66.0107 52.7401 66.1568 52.6179 66.3525C52.4956 66.5456 52.4382 66.753 52.4382 66.9728C52.4382 67.3195 52.566 67.6109 52.8211 67.8546C53.0015 68.0248 53.3159 68.1699 53.7635 68.2863C54.1121 68.3773 54.3385 68.4389 54.432 68.4747C54.5772 68.5285 54.6758 68.5899 54.7345 68.6633C54.793 68.7362 54.8215 68.8272 54.8215 68.9248C54.8215 69.0893 54.7515 69.2284 54.6182 69.3447C54.4789 69.4657 54.2748 69.5268 54.0073 69.5268C53.7516 69.5268 53.5477 69.4597 53.3967 69.3264C53.2515 69.1921 53.1469 68.9799 53.1001 68.693L52.2812 68.7795C52.333 69.2655 52.5014 69.6361 52.7868 69.8857Z" fill="white"/>
<path d="M56.2617 68.158C56.2617 68.6508 56.2902 69.0154 56.3426 69.2652C56.3837 69.4356 56.4591 69.5941 56.5807 69.7522C56.6977 69.9034 56.8601 70.026 57.0638 70.1228C57.2675 70.2202 57.5697 70.2695 57.9651 70.2695C58.2911 70.2695 58.5582 70.2262 58.7618 70.1352C58.9652 70.0498 59.1281 69.9285 59.2499 69.7823C59.3719 69.6298 59.4597 69.4478 59.4997 69.2352C59.5466 69.0154 59.57 68.6508 59.57 68.1221V65.8341H58.7266V68.243C58.7266 68.5897 58.7153 68.8392 58.6917 68.9855C58.6685 69.1318 58.5931 69.2592 58.4708 69.3626C58.3542 69.4653 58.1746 69.5149 57.9418 69.5149C57.7088 69.5149 57.5233 69.4596 57.389 69.3504C57.2554 69.247 57.1681 69.1006 57.1332 68.9245C57.1162 68.8153 57.1042 68.5718 57.1042 68.1949V65.8341H56.2617V68.158Z" fill="white"/>
<path d="M60.9553 66.572H61.6132C61.9499 66.572 62.1588 66.578 62.223 66.5841C62.3626 66.6078 62.4678 66.6689 62.5426 66.7606C62.6184 66.8456 62.6535 66.968 62.6535 67.113C62.6535 67.2463 62.6241 67.3567 62.5658 67.4417C62.5136 67.527 62.432 67.5881 62.3335 67.624C62.2349 67.6616 61.9782 67.6793 61.5778 67.6793H60.9553V66.572ZM60.9553 70.1914V68.3729H61.1242C61.3216 68.3729 61.4618 68.3906 61.5484 68.4206C61.6417 68.4519 61.7235 68.512 61.804 68.6032C61.8858 68.6884 62.031 68.9016 62.2524 69.2423L62.8505 70.1914H63.8568L63.3513 69.3397C63.1472 69.005 62.9903 68.7677 62.8742 68.6341C62.752 68.4998 62.6067 68.3787 62.4263 68.2698C62.7873 68.2144 63.0606 68.0799 63.246 67.8677C63.4266 67.6539 63.5193 67.3807 63.5193 67.059C63.5193 66.7962 63.4616 66.5719 63.3394 66.3716C63.2166 66.1701 63.0544 66.0309 62.8505 65.9516C62.6535 65.8723 62.3275 65.8354 61.8796 65.8354H60.1133V70.1914L60.9553 70.1914Z" fill="white"/>
<path d="M65.4943 68.4639L66.0586 66.8515L66.6341 68.4639H65.4943ZM66.5063 65.8354H65.6162L64 70.1914H64.8902L65.2389 69.1992H66.9077L67.2677 70.1914H68.1749L66.5063 65.8354Z" fill="white"/>
<path d="M69.2907 70.1914V67.3254L70.9771 70.1914H71.8198V65.8352H71.0407V68.7557L69.3257 65.8352H68.5117V70.1914H69.2907Z" fill="white"/>
<path d="M74.7901 69.2851C74.6322 69.4379 74.4403 69.5107 74.2137 69.5107C73.9113 69.5107 73.6675 69.3958 73.4756 69.1579C73.2837 68.9263 73.1911 68.5375 73.1911 67.9836C73.1911 67.4664 73.2894 67.0897 73.4813 66.8581C73.6732 66.6267 73.9232 66.5114 74.2314 66.5114C74.4523 66.5114 74.6442 66.5784 74.8013 66.706C74.9581 66.8404 75.0631 67.0166 75.109 67.2422L75.941 67.0347C75.8477 66.6878 75.702 66.4204 75.5172 66.2318C75.1966 65.9152 74.7837 65.7579 74.2717 65.7579C73.6907 65.7579 73.2202 65.9581 72.8595 66.3606C72.5042 66.7611 72.3242 67.3274 72.3242 68.0511C72.3242 68.7383 72.5042 69.2736 72.8595 69.669C73.2136 70.0637 73.6675 70.2656 74.2195 70.2656C74.6676 70.2656 75.0396 70.1492 75.3304 69.9185C75.6204 69.6812 75.8304 69.3287 75.952 68.8477L75.1384 68.5857C75.0688 68.9022 74.9519 69.1388 74.7901 69.2851Z" fill="white"/>
<path d="M79.4921 70.1914V69.4549H77.1721V68.2757H79.2529V67.5387H77.1721V66.5717H79.4101V65.8352H76.3281V70.1914H79.4921Z" fill="white"/>
<path d="M15.9844 82.1509V76.9025H17.0093V78.9678H19.0255V76.9025H20.0548V82.1509H19.0255V79.856H17.0093V82.1509H15.9844ZM21.8373 79.5091L20.9525 79.3439C21.0595 78.9603 21.2375 78.6841 21.4845 78.5156C21.7316 78.347 22.0858 78.2626 22.5498 78.2626C22.9616 78.2626 23.2771 78.3116 23.4938 78.4092C23.7104 78.5083 23.8667 78.6401 23.9593 78.8089C24.053 78.9774 24.0993 79.2829 24.0993 79.7278L24.0909 80.902C24.0909 81.2308 24.1065 81.4765 24.1369 81.6375C24.1687 81.7977 24.2266 81.9699 24.3104 82.1509H23.345L23.2176 81.7353C23.0514 81.9026 22.8737 82.0273 22.6831 82.1117C22.4921 82.1946 22.2895 82.2362 22.0742 82.2362C21.7159 82.2362 21.4225 82.135 21.194 81.9308C20.9654 81.7268 20.8513 81.4555 20.8513 81.1157C20.8513 80.902 20.8979 80.7138 20.9901 80.5536C21.0843 80.3937 21.2156 80.2665 21.3849 80.1713C21.5539 80.076 21.8257 79.9903 22.1971 79.9171C22.6495 79.8291 22.9647 79.7462 23.1427 79.6704C23.1427 79.4601 23.125 79.3221 23.0889 79.256C23.0545 79.1912 22.9895 79.1376 22.894 79.0959C22.8001 79.0532 22.6667 79.0325 22.495 79.0325C22.3186 79.0325 22.1812 79.0667 22.0815 79.1327C21.9819 79.1998 21.8994 79.3245 21.8373 79.5091ZM23.1427 80.3253C23.0182 80.368 22.8245 80.418 22.5615 80.4755C22.2593 80.5427 22.0627 80.616 21.9685 80.6978C21.8764 80.7786 21.83 80.8837 21.83 81.012C21.83 81.1573 21.8806 81.2808 21.9832 81.3797C22.0876 81.4786 22.2159 81.5275 22.3721 81.5275C22.5095 81.5275 22.6468 81.4886 22.7826 81.4079C22.917 81.3284 23.0109 81.2329 23.0644 81.1231C23.1166 81.0131 23.1427 80.814 23.1427 80.5257V80.3253ZM26 82.1509H25.0216V78.3493H25.928V78.8894C26.084 78.6364 26.2228 78.469 26.3456 78.3859C26.4685 78.3043 26.6104 78.2626 26.7707 78.2626C26.9933 78.2626 27.2071 78.326 27.4111 78.4532L27.1058 79.3292C26.9442 79.2207 26.7923 79.1655 26.6478 79.1655C26.5118 79.1655 26.3933 79.207 26.2908 79.2927C26.1868 79.3771 26.113 79.5296 26.0683 79.7521C26.0235 79.9745 26 80.3827 26 80.9766V82.1509ZM29.7773 78.3493H30.6879V78.9077C30.8121 78.7074 30.9755 78.5497 31.1793 78.4348C31.3818 78.3201 31.6013 78.2626 31.8356 78.2626C32.2559 78.2626 32.6175 78.4325 32.9208 78.771C33.2248 79.1107 33.3765 79.5909 33.3765 80.214C33.3765 80.8679 33.2248 81.3688 32.9197 81.7157C32.6145 82.0628 32.2519 82.2362 31.8314 82.2362C31.636 82.2362 31.4554 82.1972 31.2865 82.1166C31.1187 82.0372 30.9423 81.8917 30.7559 81.6815V83.5977H29.7773V78.3493ZM30.7429 80.186C30.7429 80.6148 30.8253 80.9313 30.9898 81.134C31.1561 81.337 31.3557 81.4384 31.5898 81.4384C31.8125 81.4384 32.0003 81.3444 32.1535 81.1573C32.3054 80.9704 32.3819 80.6637 32.3819 80.2396C32.3819 79.8352 32.3041 79.5383 32.1462 79.3465C31.9902 79.1534 31.7978 79.0582 31.5723 79.0582C31.3353 79.0582 31.1373 79.1508 30.9798 79.339C30.8222 79.526 30.7429 79.8083 30.7429 80.186ZM34.8795 79.5091L33.995 79.3439C34.102 78.9603 34.28 78.6841 34.5269 78.5156C34.7741 78.347 35.1282 78.2626 35.5923 78.2626C36.0041 78.2626 36.3194 78.3116 36.5362 78.4092C36.7529 78.5083 36.9092 78.6401 37.0018 78.8089C37.0956 78.9774 37.1417 79.2829 37.1417 79.7278L37.1334 80.902C37.1334 81.2308 37.1491 81.4765 37.1793 81.6375C37.2112 81.7977 37.2691 81.9699 37.3529 82.1509H36.3875L36.2602 81.7353C36.0939 81.9026 35.9159 82.0273 35.7254 82.1117C35.5346 82.1946 35.3321 82.2362 35.1165 82.2362C34.7582 82.2362 34.4649 82.135 34.2364 81.9308C34.0078 81.7268 33.8938 81.4555 33.8938 81.1157C33.8938 80.902 33.9402 80.7138 34.0326 80.5536C34.1268 80.3937 34.2581 80.2665 34.4275 80.1713C34.5963 80.076 34.8683 79.9903 35.2397 79.9171C35.6918 79.8291 36.0072 79.7462 36.185 79.6704C36.185 79.4601 36.1677 79.3221 36.1315 79.256C36.097 79.1912 36.0318 79.1376 35.9363 79.0959C35.8425 79.0532 35.7092 79.0325 35.5374 79.0325C35.361 79.0325 35.2238 79.0667 35.1241 79.1327C35.0243 79.1998 34.9419 79.3245 34.8795 79.5091ZM36.185 80.3253C36.0607 80.368 35.8671 80.418 35.604 80.4755C35.3016 80.5427 35.1053 80.616 35.0113 80.6978C34.9187 80.7786 34.8725 80.8837 34.8725 81.012C34.8725 81.1573 34.9231 81.2808 35.0257 81.3797C35.1298 81.4786 35.2585 81.5275 35.4145 81.5275C35.5519 81.5275 35.6894 81.4886 35.8251 81.4079C35.9595 81.3284 36.0534 81.2329 36.1069 81.1231C36.1589 81.0131 36.185 80.814 36.185 80.5257V80.3253ZM38.1076 82.1509V76.9025H39.0848V82.1509H38.1076ZM42.7895 79.5091L41.9048 79.3439C42.0118 78.9603 42.1897 78.6841 42.4369 78.5156C42.6838 78.347 43.0382 78.2626 43.502 78.2626C43.9141 78.2626 44.2293 78.3116 44.4462 78.4092C44.6628 78.5083 44.8189 78.6401 44.9115 78.8089C45.0053 78.9774 45.0515 79.2829 45.0515 79.7278L45.043 80.902C45.043 81.2308 45.0588 81.4765 45.089 81.6375C45.1209 81.7977 45.1788 81.9699 45.2626 82.1509H44.2971L44.1699 81.7353C44.0036 81.9026 43.8259 82.0273 43.6353 82.1117C43.4443 82.1946 43.2418 82.2362 43.0265 82.2362C42.6681 82.2362 42.3747 82.135 42.1461 81.9308C41.9178 81.7268 41.8037 81.4555 41.8037 81.1157C41.8037 80.902 41.8502 80.7138 41.9423 80.5536C42.0365 80.3937 42.168 80.2665 42.3371 80.1713C42.5061 80.076 42.778 79.9903 43.1494 79.9171C43.6017 79.8291 43.9169 79.7462 44.0947 79.6704C44.0947 79.4601 44.0772 79.3221 44.0412 79.256C44.0067 79.1912 43.9417 79.1376 43.8462 79.0959C43.7522 79.0532 43.619 79.0325 43.4471 79.0325C43.2707 79.0325 43.1335 79.0667 43.0337 79.1327C42.9341 79.1998 42.8516 79.3245 42.7895 79.5091ZM44.0947 80.3253C43.9704 80.368 43.7768 80.418 43.5137 80.4755C43.2115 80.5427 43.0149 80.616 42.9208 80.6978C42.8286 80.7786 42.7824 80.8837 42.7824 81.012C42.7824 81.1573 42.8328 81.2808 42.9354 81.3797C43.0397 81.4786 43.1682 81.5275 43.3242 81.5275C43.4617 81.5275 43.5991 81.4886 43.7348 81.4079C43.8691 81.3284 43.9631 81.2329 44.0166 81.1231C44.0688 81.0131 44.0947 80.814 44.0947 80.5257V80.3253ZM46.7444 79.5091L45.8599 79.3439C45.9665 78.9603 46.1445 78.6841 46.3916 78.5156C46.6388 78.347 46.9929 78.2626 47.4569 78.2626C47.869 78.2626 48.184 78.3116 48.4009 78.4092C48.6178 78.5083 48.7736 78.6401 48.8663 78.8089C48.96 78.9774 49.0064 79.2829 49.0064 79.7278L48.9978 80.902C48.9978 81.2308 49.0138 81.4765 49.0438 81.6375C49.0758 81.7977 49.1335 81.9699 49.2173 82.1509H48.2519L48.125 81.7353C47.9586 81.9026 47.7808 82.0273 47.59 82.1117C47.399 82.1946 47.1968 82.2362 46.9814 82.2362C46.6231 82.2362 46.3295 82.135 46.1011 81.9308C45.8728 81.7268 45.7587 81.4555 45.7587 81.1157C45.7587 80.902 45.8049 80.7138 45.8973 80.5536C45.9912 80.3937 46.1228 80.2665 46.2919 80.1713C46.461 80.076 46.7327 79.9903 47.1044 79.9171C47.5566 79.8291 47.8717 79.7462 48.0497 79.6704C48.0497 79.4601 48.0322 79.3221 47.9962 79.256C47.9615 79.1912 47.8964 79.1376 47.8011 79.0959C47.707 79.0532 47.5741 79.0325 47.4021 79.0325C47.2255 79.0325 47.0886 79.0667 46.9885 79.1327C46.8888 79.1998 46.8065 79.3245 46.7444 79.5091ZM48.0497 80.3253C47.9252 80.368 47.7317 80.418 47.4684 80.4755C47.1664 80.5427 46.9697 80.616 46.8758 80.6978C46.7834 80.7786 46.7371 80.8837 46.7371 81.012C46.7371 81.1573 46.7877 81.2808 46.8904 81.3797C46.9945 81.4786 47.1229 81.5275 47.279 81.5275C47.4165 81.5275 47.5538 81.4886 47.6897 81.4079C47.8241 81.3284 47.9181 81.2329 47.9718 81.1231C48.0238 81.0131 48.0497 80.814 48.0497 80.5257V80.3253ZM49.942 78.3493H50.8523V78.9077C50.9766 78.7074 51.14 78.5497 51.3438 78.4348C51.5461 78.3201 51.7658 78.2626 52.0002 78.2626C52.4206 78.2626 52.7823 78.4325 53.0856 78.771C53.3892 79.1107 53.541 79.5909 53.541 80.214C53.541 80.8679 53.3892 81.3688 53.0843 81.7157C52.7792 82.0628 52.4163 82.2362 51.996 82.2362C51.8005 82.2362 51.6199 82.1972 51.4508 82.1166C51.2832 82.0372 51.1068 81.8917 50.9204 81.6815V83.5977H49.942V78.3493ZM50.9074 80.186C50.9074 80.6148 50.9897 80.9313 51.1543 81.134C51.3208 81.337 51.5202 81.4384 51.7544 81.4384C51.9769 81.4384 52.1649 81.3444 52.3181 81.1573C52.4699 80.9704 52.5466 80.6637 52.5466 80.2396C52.5466 79.8352 52.4686 79.5383 52.3107 79.3465C52.1549 79.1534 51.9626 79.0582 51.7369 79.0582C51.4999 79.0582 51.302 79.1508 51.1444 79.339C50.9868 79.526 50.9074 79.8083 50.9074 80.186ZM54.2827 82.1509V76.9025H55.2612V79.6874L56.4002 78.3493H57.6027L56.3409 79.7374L57.691 82.1509H56.6415L55.7093 80.4438L55.2612 80.9337V82.1509H54.2827ZM60.41 80.9409L61.38 81.1084C61.2497 81.4909 61.0475 81.7744 60.7742 81.959C60.4996 82.1446 60.1669 82.2362 59.7757 82.2362C59.2305 82.2362 58.8098 82.0825 58.512 81.7744C58.1623 81.4164 57.9874 80.9153 57.9874 80.2714C57.9874 79.6359 58.1636 79.1278 58.5165 78.7465C58.8158 78.4239 59.2028 78.2626 59.6769 78.2626C60.2048 78.2626 60.6197 78.4276 60.9186 78.7573C61.2628 79.134 61.4348 79.6898 61.4348 80.4255L61.4301 80.5401H58.9875C58.993 80.841 59.0726 81.0729 59.2258 81.238C59.3806 81.403 59.5656 81.4848 59.7823 81.4848C60.0962 81.4848 60.3058 81.3041 60.41 80.9409ZM60.4649 79.9245C60.4564 79.6289 60.381 79.405 60.2408 79.256C60.0993 79.1071 59.9313 79.0325 59.7365 79.0325C59.5312 79.0325 59.3561 79.1107 59.216 79.266C59.0716 79.4234 59.0006 79.6422 59.0034 79.9245H60.4649ZM63.8604 81.0657L64.8391 80.9119C64.9242 81.3102 65.1857 81.5106 65.6266 81.5106C65.8611 81.5106 66.0358 81.4713 66.1516 81.3955C66.267 81.3186 66.3249 81.2197 66.3249 81.0988C66.3249 81.0144 66.3004 80.9496 66.2499 80.902C66.1947 80.8531 66.0893 80.8114 65.9318 80.7762C65.1298 80.5979 64.6209 80.4265 64.4027 80.264C64.1321 80.0612 63.9961 79.7827 63.9961 79.4296C63.9961 79.0765 64.1292 78.7941 64.3939 78.5816C64.6596 78.369 65.0455 78.2626 65.55 78.2626C66.0331 78.2626 66.4001 78.3421 66.6516 78.501C66.903 78.6597 67.0794 78.9163 67.1806 79.2696L66.2615 79.4444C66.1803 79.1386 65.9493 78.986 65.5675 78.986C65.3276 78.986 65.157 79.0154 65.0544 79.0739C64.9531 79.1327 64.9025 79.2083 64.9025 79.3012C64.9025 79.3843 64.9487 79.4539 65.0429 79.5091C65.1353 79.5663 65.4245 79.652 65.9101 79.7667C66.4551 79.8951 66.8252 80.0515 67.0199 80.236C67.2123 80.4193 67.308 80.6637 67.308 80.9693C67.308 81.337 67.159 81.6401 66.8612 81.8783C66.5634 82.1177 66.1516 82.2362 65.6266 82.2362C65.1499 82.2362 64.7597 82.1374 64.4575 81.9383C64.1553 81.7389 63.9572 81.4481 63.8604 81.0657ZM68.8864 79.5091L68.0017 79.3439C68.1087 78.9603 68.2864 78.6841 68.5338 78.5156C68.7807 78.347 69.1349 78.2626 69.5989 78.2626C70.011 78.2626 70.3261 78.3116 70.5431 78.4092C70.7598 78.5083 70.9157 78.6401 71.0083 78.8089C71.102 78.9774 71.1484 79.2829 71.1484 79.7278L71.1398 80.902C71.1398 81.2308 71.1557 81.4765 71.186 81.6375C71.2178 81.7977 71.2755 81.9699 71.3594 82.1509H70.3939L70.267 81.7353C70.1005 81.9026 69.9228 82.0273 69.732 82.1117C69.541 82.1946 69.3387 82.2362 69.1234 82.2362C68.7651 82.2362 68.4715 82.135 68.2432 81.9308C68.0147 81.7268 67.9007 81.4555 67.9007 81.1157C67.9007 80.902 67.9469 80.7138 68.0393 80.5536C68.1333 80.3937 68.2648 80.2665 68.4342 80.1713C68.603 80.076 68.875 79.9903 69.2463 79.9171C69.6987 79.8291 70.0139 79.7462 70.1916 79.6704C70.1916 79.4601 70.1742 79.3221 70.1381 79.256C70.1034 79.1912 70.0385 79.1376 69.9432 79.0959C69.849 79.0532 69.7161 79.0325 69.5441 79.0325C69.3677 79.0325 69.2304 79.0667 69.1305 79.1327C69.0308 79.1998 68.9486 79.3245 68.8864 79.5091ZM70.1916 80.3253C70.0672 80.368 69.8738 80.418 69.6105 80.4755C69.3085 80.5427 69.112 80.616 69.0177 80.6978C68.9256 80.7786 68.8792 80.8837 68.8792 81.012C68.8792 81.1573 68.9298 81.2808 69.0323 81.3797C69.1364 81.4786 69.2651 81.5275 69.4209 81.5275C69.5585 81.5275 69.6958 81.4886 69.8317 81.4079C69.9662 81.3284 70.0601 81.2329 70.1138 81.1231C70.1657 81.0131 70.1916 80.814 70.1916 80.5257L70.1916 80.3253ZM72.8412 79.5091L71.9567 79.3439C72.0634 78.9603 72.2414 78.6841 72.4886 78.5156C72.7357 78.347 73.0899 78.2626 73.5537 78.2626C73.9658 78.2626 74.281 78.3116 74.4979 78.4092C74.7145 78.5083 74.8706 78.6401 74.9635 78.8089C75.057 78.9774 75.1034 79.2829 75.1034 79.7278L75.0948 80.902C75.0948 81.2308 75.1107 81.4765 75.141 81.6375C75.1726 81.7977 75.2305 81.9699 75.3145 82.1509H74.3491L74.2218 81.7353C74.0555 81.9026 73.8775 82.0273 73.687 82.1117C73.496 82.1946 73.2937 82.2362 73.0782 82.2362C72.72 82.2362 72.4265 82.135 72.1978 81.9308C71.9697 81.7268 71.8554 81.4555 71.8554 81.1157C71.8554 80.902 71.9019 80.7138 71.9943 80.5536C72.0882 80.3937 72.2197 80.2665 72.3889 80.1713C72.558 80.076 72.8297 79.9903 73.2011 79.9171C73.6536 79.8291 73.9686 79.7462 74.1466 79.6704C74.1466 79.4601 74.1291 79.3221 74.0931 79.256C74.0584 79.1912 73.9934 79.1376 73.8979 79.0959C73.8039 79.0532 73.6711 79.0325 73.4991 79.0325C73.3224 79.0325 73.1854 79.0667 73.0855 79.1327C72.986 79.1998 72.9035 79.3245 72.8412 79.5091ZM74.1466 80.3253C74.0224 80.368 73.8285 80.418 73.5654 80.4755C73.2634 80.5427 73.0667 80.616 72.9729 80.6978C72.8803 80.7786 72.8341 80.8837 72.8341 81.012C72.8341 81.1573 72.8847 81.2808 72.9873 81.3797C73.0914 81.4786 73.2199 81.5275 73.3762 81.5275C73.5134 81.5275 73.6508 81.4886 73.7867 81.4079C73.9211 81.3284 74.0148 81.2329 74.0685 81.1231C74.1205 81.0131 74.1466 80.814 74.1466 80.5257V80.3253ZM77.7547 78.3493V79.1508H77.0897V80.6833C77.0897 81.0144 77.0981 81.2075 77.1184 81.2588C77.1576 81.3553 77.2385 81.403 77.3598 81.403C77.4509 81.403 77.5796 81.3701 77.7501 81.3064L77.8338 82.0861C77.6084 82.1863 77.3526 82.2362 77.0681 82.2362C76.8191 82.2362 76.6199 82.1863 76.4709 82.0861C76.3206 81.9857 76.2209 81.8415 76.1703 81.6533C76.1298 81.5142 76.1111 81.2329 76.1111 80.8078V79.1508H75.6616V78.3493H76.1111V77.593L77.0898 77.0066V78.3493H77.7547ZM79.4096 76.9025V78.8319C79.5657 78.6413 79.7361 78.4985 79.9241 78.4043C80.112 78.3103 80.3158 78.2626 80.5371 78.2626C80.8305 78.2626 81.0761 78.3286 81.2728 78.4594C81.4707 78.5914 81.6124 78.7772 81.6962 79.019C81.7585 79.1949 81.7901 79.4954 81.7901 79.9209V82.1509H80.8158V80.142C80.8158 79.6776 80.7811 79.3854 80.7104 79.2696C80.6105 79.1117 80.4429 79.0325 80.206 79.0325C79.9544 79.0325 79.7594 79.1179 79.619 79.2891C79.4803 79.4588 79.4096 79.7789 79.4096 80.2458V82.1509H78.4325V76.9025H79.4096Z" fill="#E41D25"/>
<rect x="0.25" y="0.75" width="95.5" height="95.5" rx="7.75" stroke="#D6E9FF" stroke-width="0.5"/>
</svg>
