<svg width="96" height="97" viewBox="0 0 96 97" fill="none" xmlns="http://www.w3.org/2000/svg">
<rect x="0.25" y="0.75" width="95.5" height="95.5" rx="7.75" fill="white"/>
<path d="M18.3281 73.6172H79.85V12.5026H18.3281V73.6172Z" fill="#0E5CAA"/>
<path fill-rule="evenodd" clip-rule="evenodd" d="M20.1172 71.832H78.057V14.2855H20.1172V71.832Z" fill="#FEFEFE"/>
<path fill-rule="evenodd" clip-rule="evenodd" d="M22.1953 69.7734H75.9763V16.3344H22.1953V69.7734Z" fill="#0E5CAA"/>
<path fill-rule="evenodd" clip-rule="evenodd" d="M26.9922 29.3203H37.582V25.8756H26.9922V29.3203Z" fill="#FEFEFE"/>
<path fill-rule="evenodd" clip-rule="evenodd" d="M29.8906 36.7969H34.6697V28.5628H29.8906V36.7969Z" fill="#FEFEFE"/>
<path fill-rule="evenodd" clip-rule="evenodd" d="M40.7656 25.9031H45.4534L49.7473 36.7975L44.9985 36.8125L40.7656 25.9031Z" fill="#FEFEFE"/>
<path fill-rule="evenodd" clip-rule="evenodd" d="M45.3371 25.9031H40.6494L36.3555 36.7975L41.1042 36.8125L45.3371 25.9031Z" fill="#FEFEFE"/>
<path fill-rule="evenodd" clip-rule="evenodd" d="M48.5508 29.3203H59.1404V25.8756H48.5508V29.3203Z" fill="#FEFEFE"/>
<path fill-rule="evenodd" clip-rule="evenodd" d="M51.4609 36.7969H56.2399V28.5628H51.4609V36.7969Z" fill="#FEFEFE"/>
<path fill-rule="evenodd" clip-rule="evenodd" d="M62.3242 25.9031H67.0287L71.3047 36.7975L66.5589 36.8125L62.3242 25.9031Z" fill="#FEFEFE"/>
<path fill-rule="evenodd" clip-rule="evenodd" d="M66.9069 25.8992H62.2041L57.9258 36.7936L62.6591 36.8086L66.9069 25.8992Z" fill="#FEFEFE"/>
<path fill-rule="evenodd" clip-rule="evenodd" d="M26.9922 60.1094H28.0088V55.32H26.9922V60.1094Z" fill="#FEFEFE"/>
<mask id="mask0_2371_24877" style="mask-type:luminance" maskUnits="userSpaceOnUse" x="10" y="12" width="77" height="73">
<path d="M10.5 84.5H86.671V12.5H10.5V84.5Z" fill="white"/>
</mask>
<g mask="url(#mask0_2371_24877)">
<path fill-rule="evenodd" clip-rule="evenodd" d="M29.9023 60.1094H30.8733V57.3744C30.8733 57.1332 30.8733 56.8309 30.7975 56.4228C30.9647 56.8309 31.1009 57.1176 31.2225 57.2688L33.3767 60.1094H34.3627V55.3198H33.3921V57.9941C33.3921 58.2208 33.3921 58.5381 33.4679 58.9459C33.3009 58.5381 33.1641 58.266 33.0431 58.1L30.9491 55.3198H29.9023V60.1094Z" fill="#FEFEFE"/>
<path fill-rule="evenodd" clip-rule="evenodd" d="M35.9414 59.5013C36.1844 59.9699 36.7 60.2422 37.4432 60.2422C38.4902 60.2422 39.112 59.6227 39.112 58.7611C39.112 58.157 38.733 57.7035 37.929 57.326C37.4134 57.0844 36.9884 56.9789 36.9884 56.5403C36.9884 56.223 37.2462 55.9815 37.6556 55.9815C37.9744 55.9815 38.2172 56.1174 38.354 56.4046L38.9455 55.8305C38.6416 55.3924 38.2322 55.196 37.6712 55.196C36.6392 55.196 36.0022 55.8001 36.0022 56.5556C36.0022 57.2202 36.3968 57.5679 37.0946 57.9455C37.7468 58.2778 38.1414 58.3684 38.1414 58.7917C38.1414 59.1692 37.8532 59.426 37.3672 59.426C36.9728 59.426 36.6392 59.2146 36.5026 58.8519L35.9414 59.5013Z" fill="#FEFEFE"/>
<path fill-rule="evenodd" clip-rule="evenodd" d="M44.8196 55.3164H43.8182V58.142C43.8182 58.9277 43.4694 59.335 42.7712 59.335C42.104 59.335 41.7547 58.9425 41.7547 58.142V55.3164H40.7383V58.293C40.7383 59.6071 41.4062 60.2422 42.7866 60.2422C44.1516 60.2422 44.8196 59.5921 44.8196 58.293V55.3164Z" fill="#FEFEFE"/>
<path fill-rule="evenodd" clip-rule="evenodd" d="M47.7002 57.3596V56.1054H47.8524C48.4892 56.1054 48.8532 56.1962 48.8532 56.7549C48.8532 57.3142 48.4744 57.3596 47.8524 57.3596H47.7002ZM50.1128 60.1094L48.808 57.9335C49.415 57.8579 49.855 57.3446 49.855 56.6797C49.855 55.7731 49.2932 55.3198 48.1406 55.3198H46.6992V60.1094H47.7002V57.8733L48.9448 60.1094H50.1128Z" fill="#FEFEFE"/>
<path fill-rule="evenodd" clip-rule="evenodd" d="M50.9609 60.1094H52.0381L52.3719 59.0972H54.1929L54.5869 60.1094H55.725L53.9045 55.3198H52.7515L50.9609 60.1094ZM53.9651 58.281H52.6453L53.1609 56.7551C53.1765 56.6947 53.2367 56.4682 53.2977 56.0907C53.3585 56.4378 53.4037 56.6493 53.4345 56.7401L53.9651 58.281Z" fill="#FEFEFE"/>
<path fill-rule="evenodd" clip-rule="evenodd" d="M57.0469 60.1094H58.0179V57.3744C58.0179 57.1332 58.0179 56.8309 57.9571 56.4228C58.1092 56.8309 58.2608 57.1176 58.3672 57.2688L60.5212 60.1094H61.5074V55.3198H60.5516V57.9941C60.5516 58.2208 60.5516 58.5381 60.6126 58.9459C60.4604 58.5381 60.3088 58.266 60.1876 58.1L58.1092 55.3198H57.0469V60.1094Z" fill="#FEFEFE"/>
<path fill-rule="evenodd" clip-rule="evenodd" d="M67.1802 56.5556L67.2284 55.528C66.8333 55.347 66.3634 55.196 65.7709 55.196C64.2068 55.196 63.1758 56.2986 63.1758 57.7191C63.1758 59.1542 64.2228 60.2422 65.7547 60.2422C66.2728 60.2422 66.7424 60.106 67.1802 59.8491V58.8065C66.7692 59.1842 66.2994 59.3658 65.7709 59.3658C64.7832 59.3658 64.2228 58.7007 64.2228 57.7191C64.2228 56.6915 64.8579 56.0269 65.8617 56.0269C66.4223 56.0269 66.8333 56.2384 67.1802 56.5556Z" fill="#FEFEFE"/>
<path fill-rule="evenodd" clip-rule="evenodd" d="M68.9609 60.1094H71.7369V59.2484H69.9593V58.0396H71.7369V57.163H69.9593V56.1814H71.7369V55.3198H68.9609V60.1094Z" fill="#FEFEFE"/>
<path fill-rule="evenodd" clip-rule="evenodd" d="M41.2988 48.2276H36.5651L35.7307 50.2372C35.5337 50.7359 35.4275 51.0986 35.4275 51.3549C35.4275 51.5365 35.5181 51.7177 35.6853 51.8538C35.8673 52.005 36.2463 52.1108 36.8383 52.1562V52.4883H32.9844V52.1562C33.5007 52.0504 33.8343 51.9292 33.9859 51.7779C34.2893 51.4761 34.6235 50.8716 35.0023 49.9502L39.3113 39.4648H39.6145L43.878 50.056C44.2116 50.917 44.5302 51.4607 44.8032 51.7177C45.0914 51.9746 45.486 52.1108 45.9717 52.1562V52.4883H41.1472V52.1562C41.6324 52.1256 41.9662 52.035 42.1332 51.8993C42.3154 51.7481 42.391 51.5821 42.391 51.3703C42.391 51.0832 42.2698 50.6599 42.042 50.056L41.2988 48.2276ZM41.041 47.5327L38.9621 42.3812L36.8383 47.5327H41.041Z" fill="#FEFEFE"/>
<path fill-rule="evenodd" clip-rule="evenodd" d="M51.886 52.1562V52.4883H46.6367V52.1562H47.0765C47.5773 52.1562 47.9415 51.9894 48.1689 51.6875C48.3211 51.4911 48.3967 51.0078 48.3967 50.237V42.003C48.3967 41.3534 48.3509 40.9303 48.2751 40.7337C48.2147 40.5677 48.0931 40.432 47.9109 40.3262C47.6383 40.1752 47.3649 40.0994 47.0765 40.0994H46.6367V39.7521H51.886V40.0994H51.4462C50.9454 40.0994 50.5814 40.2506 50.354 40.5528C50.2019 40.7643 50.1259 41.2476 50.1259 42.003V50.237C50.1259 50.8869 50.1565 51.31 50.2477 51.5215C50.3081 51.6721 50.4297 51.8083 50.6118 51.9142C50.8696 52.0652 51.1578 52.1562 51.4462 52.1562H51.886Z" fill="#FEFEFE"/>
<path fill-rule="evenodd" clip-rule="evenodd" d="M63.6763 39.471L63.993 43.4896H63.6763C63.3575 42.493 62.9481 41.7372 62.4325 41.2239C61.7043 40.4838 60.7785 40.1209 59.6256 40.1209C58.0784 40.1209 56.8948 40.7704 56.0752 42.0545C55.3928 43.1277 55.0588 44.4266 55.0588 45.9221C55.0588 47.1309 55.2868 48.2493 55.7266 49.246C56.1814 50.2588 56.7736 50.9835 57.5018 51.4518C58.23 51.9203 58.9886 52.1623 59.762 52.1623C60.2175 52.1623 60.6418 52.0865 61.0669 51.9807C61.4917 51.8599 61.8863 51.6783 62.2807 51.4518V47.7655C62.2807 47.1309 62.2349 46.7079 62.1443 46.5118C62.0529 46.3152 61.9011 46.1641 61.7043 46.0583C61.5223 45.9525 61.1731 45.9071 60.6723 45.9071V45.5444H65.4076V45.9071H65.194C64.7244 45.9071 64.388 46.0731 64.2225 46.3906C64.0998 46.6176 64.0411 47.0855 64.0411 47.7655V51.6635C63.3427 52.0565 62.6599 52.3432 61.9925 52.5243C61.3247 52.7061 60.5661 52.7969 59.7471 52.7969C57.3798 52.7969 55.59 52.0111 54.361 50.4248C53.4509 49.246 52.9805 47.8711 52.9805 46.3302C52.9805 45.2123 53.2383 44.1243 53.7541 43.0971C54.3766 41.8735 55.2108 40.9365 56.2876 40.2871C57.183 39.7434 58.2448 39.471 59.4589 39.471C59.8987 39.471 60.3082 39.5014 60.6723 39.5768C61.0363 39.6526 61.5527 39.8186 62.2201 40.0757C62.5537 40.2111 62.7811 40.2721 62.9029 40.2721C63.0091 40.2721 63.1153 40.2111 63.1909 40.1055C63.2669 39.9997 63.3123 39.7882 63.3427 39.471H63.6763Z" fill="#FEFEFE"/>
<path fill-rule="evenodd" clip-rule="evenodd" d="M10.5 77.887L11.3192 84.0664H12.973L13.7619 79.2318H13.8377L14.6721 84.0664H16.2957L17.2667 77.887H15.9011L15.5977 82.057H15.5219L14.8087 77.887H12.973L12.2904 82.057H12.2144L12.0324 77.887H10.5Z" fill="#0E5CAA"/>
<path fill-rule="evenodd" clip-rule="evenodd" d="M18.5391 84.0664H20.1168V77.8871H18.5391V84.0664Z" fill="#0E5CAA"/>
<path fill-rule="evenodd" clip-rule="evenodd" d="M21.2891 77.887V78.8388H22.4571V84.0664H24.065V78.8388H25.2332V77.887H21.2891Z" fill="#0E5CAA"/>
<path fill-rule="evenodd" clip-rule="evenodd" d="M26.3711 77.887V84.0664H27.9337V81.2866H29.011V84.0664H30.5582V77.887H29.011V80.3348H27.9337V77.887H26.3711Z" fill="#0E5CAA"/>
<path fill-rule="evenodd" clip-rule="evenodd" d="M35.2891 77.887L36.6546 81.5737V84.0664H38.2174V81.5737L39.6284 77.887H38.2478L37.6102 80.4859H37.5344L36.8672 77.887H35.2891Z" fill="#0E5CAA"/>
<path fill-rule="evenodd" clip-rule="evenodd" d="M43.2719 79.6998V82.2531C43.2719 82.9026 43.2111 83.2049 42.7109 83.2049C42.2101 83.2049 42.1647 82.9026 42.1647 82.2531V79.6998C42.1647 79.035 42.2251 78.7326 42.7109 78.7326C43.2265 78.7326 43.2719 79.035 43.2719 79.6998ZM44.8345 79.9718C44.8345 78.3855 44.3797 77.7808 42.7109 77.7808C41.0569 77.7808 40.6016 78.3855 40.6016 79.9718V81.966C40.6016 83.5676 41.0419 84.1719 42.7109 84.1719C44.3797 84.1719 44.8345 83.5676 44.8345 81.966V79.9718Z" fill="#0E5CAA"/>
<path fill-rule="evenodd" clip-rule="evenodd" d="M46.3359 77.8866V81.966C46.3359 83.5524 46.7604 84.1719 48.4141 84.1719C50.0377 84.1719 50.5079 83.5676 50.5079 81.966V77.8866H48.9455V82.2531C48.9455 82.9026 48.8845 83.2049 48.4141 83.2049C47.9439 83.2049 47.8985 82.9026 47.8985 82.2531V77.8866H46.3359Z" fill="#0E5CAA"/>
<path fill-rule="evenodd" clip-rule="evenodd" d="M56.7307 77.887L55.3203 84.0664H56.7009L56.9735 82.7671H58.2941L58.4911 84.0664H60.008L58.7487 77.887H56.7307ZM57.6869 78.9446H57.7323L58.1419 81.8153H57.1711L57.6869 78.9446Z" fill="#0E5CAA"/>
<path fill-rule="evenodd" clip-rule="evenodd" d="M61.082 77.887V84.0664H64.4517V83.1146H62.6448V77.887H61.082Z" fill="#0E5CAA"/>
<path fill-rule="evenodd" clip-rule="evenodd" d="M64.7266 77.887L65.5273 84.0664H67.1984L67.9724 79.2318H68.0472L68.8958 84.0664H70.5188L71.4746 77.887H70.1292L69.8089 82.057H69.7449L69.0188 77.887H67.1822L66.515 82.057H66.4404L66.2426 77.887H64.7266Z" fill="#0E5CAA"/>
<path fill-rule="evenodd" clip-rule="evenodd" d="M73.4876 77.887L72.0781 84.0664H73.4608L73.7171 82.7671H75.0357L75.2493 84.0664H76.7655L75.5055 77.887H73.4876ZM74.4432 78.9446H74.4751L74.9024 81.8153H73.9308L74.4432 78.9446Z" fill="#0E5CAA"/>
<path fill-rule="evenodd" clip-rule="evenodd" d="M77.1016 77.887L78.4683 81.5737V84.0664H80.0271V81.5737L81.442 77.887H80.0592L79.4239 80.4859H79.3439L78.6765 77.887H77.1016Z" fill="#0E5CAA"/>
<path fill-rule="evenodd" clip-rule="evenodd" d="M86.2805 79.2617C86.2805 78.2797 85.6612 77.7808 84.5082 77.7808C83.2161 77.7808 82.4741 78.3855 82.4741 79.1709V79.715C82.4741 80.3343 82.7303 80.7272 83.339 81.0897L83.9741 81.4825C84.4601 81.7696 84.7804 81.9658 84.7804 82.4343V82.6762C84.7804 83.0538 84.6896 83.2049 84.3372 83.2049C84.0062 83.2049 83.8835 83.0538 83.8835 82.6762V82.1625H82.3086V82.6156C82.3086 83.6884 82.8212 84.1719 84.2466 84.1719C85.5971 84.1719 86.3394 83.628 86.3394 82.6762V82.2983C86.3394 81.9356 86.2805 81.6486 86.0991 81.4069C85.8855 81.1199 85.581 80.9838 85.3089 80.8026L84.6575 80.4099C84.2198 80.1529 83.9741 79.9414 83.9741 79.5789V79.1709C83.9741 78.854 84.065 78.7178 84.3531 78.7178C84.6575 78.7178 84.7485 78.854 84.7485 79.1709V79.715H86.2805V79.2617Z" fill="#0E5CAA"/>
</g>
<rect x="0.25" y="0.75" width="95.5" height="95.5" rx="7.75" stroke="#D6E9FF" stroke-width="0.5"/>
</svg>
