<svg width="336" height="159" viewBox="0 0 336 159" fill="none" xmlns="http://www.w3.org/2000/svg">
<path d="M29.8171 53.681C34.5846 53.681 38.7461 54.6808 42.3015 56.6803C45.9377 58.6798 48.7255 61.3041 50.6648 64.5533V54.6808H71.3914V124.288C71.3914 130.703 70.1389 136.493 67.6339 141.659C65.2098 146.907 61.4523 151.073 56.3616 154.156C51.3517 157.238 45.0893 158.779 37.5744 158.779C27.5546 158.779 19.4336 156.322 13.2116 151.406C6.98965 146.574 3.43422 139.993 2.54536 131.661H23.0295C23.6759 134.327 25.2112 136.41 27.6354 137.91C30.0595 139.493 33.0493 140.284 36.6047 140.284C40.8874 140.284 44.2812 138.993 46.7862 136.41C49.372 133.911 50.6648 129.87 50.6648 124.288V114.416C48.6447 117.665 45.8569 120.331 42.3015 122.414C38.7461 124.413 34.5846 125.413 29.8171 125.413C24.2416 125.413 19.1912 123.955 14.6661 121.039C10.1411 118.04 6.54522 113.832 3.87865 108.417C1.29288 102.919 0 96.5868 0 89.422C0 82.2571 1.29288 75.9671 3.87865 70.5518C6.54522 65.1365 10.1411 60.9709 14.6661 58.0549C19.1912 55.139 24.2416 53.681 29.8171 53.681ZM50.6648 89.5469C50.6648 84.215 49.2104 80.0077 46.3014 76.9252C43.4732 73.8426 39.9986 72.3013 35.8775 72.3013C31.7564 72.3013 28.2414 73.8426 25.3324 76.9252C22.5042 79.9244 21.0902 84.09 21.0902 89.422C21.0902 94.754 22.5042 99.0029 25.3324 102.169C28.2414 105.251 31.7564 106.793 35.8775 106.793C39.9986 106.793 43.4732 105.251 46.3014 102.169C49.2104 99.0862 50.6648 94.8789 50.6648 89.5469ZM96.81 47.4326C93.1738 47.4326 90.184 46.3496 87.8406 44.1834C85.5781 41.934 84.4468 39.1847 84.4468 35.9355C84.4468 32.603 85.5781 29.8537 87.8406 27.6876C90.184 25.4382 93.1738 24.3135 96.81 24.3135C100.365 24.3135 103.274 25.4382 105.537 27.6876C107.88 29.8537 109.052 32.603 109.052 35.9355C109.052 39.1847 107.88 41.934 105.537 44.1834C103.274 46.3496 100.365 47.4326 96.81 47.4326ZM107.113 54.6808V124.413H86.3861V54.6808H107.113ZM142.86 31.9365V124.413H122.133V31.9365H142.86ZM168.304 47.4326C164.667 47.4326 161.678 46.3496 159.334 44.1834C157.072 41.934 155.941 39.1847 155.941 35.9355C155.941 32.603 157.072 29.8537 159.334 27.6876C161.678 25.4382 164.667 24.3135 168.304 24.3135C171.859 24.3135 174.768 25.4382 177.031 27.6876C179.374 29.8537 180.546 32.603 180.546 35.9355C180.546 39.1847 179.374 41.934 177.031 44.1834C174.768 46.3496 171.859 47.4326 168.304 47.4326ZM178.606 54.6808V124.413H157.88V54.6808H178.606Z" fill="#37AFD4"/>
<g filter="url(#filter0_d_1981_16553)">
<path d="M261 142C300.212 142 332 110.212 332 71C332 31.7878 300.212 0 261 0C221.788 0 190 31.7878 190 71C190 110.212 221.788 142 261 142Z" fill="#FA0808"/>
<g clip-path="url(#clip0_1981_16553)">
<path d="M280.089 100.204L261.66 115.836C260.431 117.542 261.284 118.702 261.386 118.771C262.151 120.136 263.707 119.931 264.39 119.658L270.943 114.129L280.465 106.211L281.523 107.849L274.97 111.433C274.538 111.717 273.769 112.655 274.151 114.129C274.533 115.604 276.017 115.881 276.711 115.836L279.202 114.539C281.716 113.174 286.758 110.443 286.813 110.443C288.533 109.023 287.848 107.417 287.291 106.791L290.738 104.47L288.827 107.337C288.611 107.599 288.308 108.334 288.827 109.18C289.345 110.027 290.317 109.965 290.738 109.829C293.65 109.271 299.475 108.15 299.475 108.122C300.362 107.679 300.431 107.064 300.465 107.064C300.82 105.535 299.771 104.903 299.202 104.778L293.741 105.767C294.822 104.106 296.984 100.778 296.984 100.75C297.257 99.3578 296.506 98.8277 296.096 98.7367L292.991 94.5388L299.202 89.2828L308.144 81.706C308.895 80.1702 307.905 78.6343 306.062 79.1463L302.41 82.1156L290.738 92.0815L280.089 100.204Z" fill="white"/>
<path d="M267.734 98.4973L289.85 91.3301L273.809 103.89L267.734 98.4973Z" fill="white"/>
<path d="M299.1 98.2933C301.494 98.2933 303.435 96.261 303.435 93.7541C303.435 91.2471 301.494 89.2148 299.1 89.2148C296.706 89.2148 294.766 91.2471 294.766 93.7541C294.766 96.261 296.706 98.2933 299.1 98.2933Z" fill="white"/>
</g>
<path d="M219.333 111.676C217.338 109.734 215.991 107.642 215.293 105.399C214.617 103.134 214.591 100.898 215.213 98.6908C215.859 96.4615 217.11 94.4191 218.965 92.5637C221.341 90.1878 223.951 88.8217 226.796 88.4653C229.664 88.0864 232.494 88.764 235.284 90.4981L229.107 96.6754C227.119 95.7674 225.378 96.0601 223.885 97.5535C222.822 98.617 222.397 99.8784 222.612 101.338C222.804 102.775 223.68 104.252 225.239 105.77C226.798 107.288 228.319 108.143 229.801 108.335C231.26 108.505 232.521 108.058 233.585 106.995C235.078 105.501 235.351 103.78 234.404 101.831L240.582 95.654C242.331 98.3391 243.045 101.11 242.722 103.966C242.4 106.823 241.062 109.428 238.709 111.781C236.853 113.636 234.8 114.898 232.549 115.564C230.321 116.209 228.055 116.213 225.749 115.577C223.467 114.918 221.328 113.618 219.333 111.676ZM259.53 90.9591C257.675 92.8145 255.599 94.0983 253.303 94.8106C251.03 95.5002 248.718 95.5495 246.368 94.9585C244.04 94.345 241.879 93.0673 239.884 91.1255C237.911 89.206 236.61 87.0909 235.979 84.7803C235.326 82.4474 235.344 80.1436 236.035 77.869C236.726 75.5944 237.999 73.5294 239.855 71.674C241.71 69.8185 243.786 68.5347 246.082 67.8225C248.378 67.1102 250.712 67.0607 253.086 67.674C255.436 68.2649 257.597 69.5201 259.569 71.4396C261.541 73.3591 262.843 75.4967 263.474 77.8522C264.105 80.1628 264.063 82.4668 263.35 84.764C262.659 87.0386 261.386 89.1036 259.53 90.9591ZM254.44 86.0041C255.548 84.8953 256.075 83.5546 256.019 81.9817C255.985 80.3863 255.2 78.8408 253.664 77.3454C252.127 75.85 250.562 75.0852 248.967 75.051C247.395 74.9942 246.054 75.5202 244.945 76.6289C243.814 77.7603 243.288 79.1011 243.367 80.6513C243.422 82.1792 244.23 83.702 245.789 85.2197C247.326 86.7152 248.869 87.5026 250.418 87.582C251.991 87.6388 253.331 87.1128 254.44 86.0041ZM275.236 75.2539C274.217 76.2721 273.082 76.8192 271.83 76.895C270.577 76.926 269.503 76.5062 268.609 75.6357C267.692 74.743 267.24 73.6785 267.255 72.4423C267.292 71.1834 267.82 70.0449 268.838 69.0267C269.833 68.0311 270.958 67.5178 272.21 67.4869C273.486 67.4333 274.582 67.8529 275.499 68.7457C276.394 69.6162 276.822 70.6808 276.785 71.9396C276.748 73.1535 276.231 74.2583 275.236 75.2539ZM263.555 44.5799C262.537 45.5982 261.401 46.1452 260.149 46.2211C258.896 46.2521 257.823 45.8323 256.928 44.9618C256.011 44.069 255.571 43.0157 255.609 41.8018C255.646 40.543 256.173 39.4045 257.192 38.3862C258.187 37.3906 259.311 36.8774 260.564 36.8464C261.816 36.7705 262.901 37.179 263.818 38.0718C264.713 38.9422 265.141 40.0069 265.104 41.2657C265.067 42.4796 264.55 43.5843 263.555 44.5799ZM268.435 43.6368L287.628 62.3183L281.824 68.1222L262.631 49.4407L268.435 43.6368ZM283.975 27.6898C286.192 25.4724 288.691 24.4216 291.471 24.5377C294.25 24.6088 296.913 25.8831 299.458 28.3606L310.672 39.2749L304.902 45.0449L294.479 34.9006C293.195 33.6507 291.87 33.0079 290.503 32.9722C289.136 32.9365 287.898 33.473 286.789 34.5818C285.68 35.6905 285.153 36.9189 285.208 38.267C285.262 39.6151 285.932 40.9141 287.216 42.164L297.638 52.3083L291.834 58.1122L272.641 39.4307L278.445 33.6268L280.99 36.1043C280.73 34.6901 280.857 33.2509 281.371 31.7866C281.862 30.2999 282.73 28.9344 283.975 27.6898Z" fill="#F8FBFF"/>
</g>
<defs>
<filter id="filter0_d_1981_16553" x="186.867" y="0" width="148.265" height="148.265" filterUnits="userSpaceOnUse" color-interpolation-filters="sRGB">
<feFlood flood-opacity="0" result="BackgroundImageFix"/>
<feColorMatrix in="SourceAlpha" type="matrix" values="0 0 0 0 0 0 0 0 0 0 0 0 0 0 0 0 0 0 127 0" result="hardAlpha"/>
<feOffset dy="3.13271"/>
<feGaussianBlur stdDeviation="1.56636"/>
<feComposite in2="hardAlpha" operator="out"/>
<feColorMatrix type="matrix" values="0 0 0 0 0 0 0 0 0 0 0 0 0 0 0 0 0 0 0.25 0"/>
<feBlend mode="normal" in2="BackgroundImageFix" result="effect1_dropShadow_1981_16553"/>
<feBlend mode="normal" in="SourceGraphic" in2="effect1_dropShadow_1981_16553" result="shape"/>
</filter>
<clipPath id="clip0_1981_16553">
<rect width="47.4102" height="40.8613" fill="white" transform="translate(261 79)"/>
</clipPath>
</defs>
</svg>
