<svg width="337" height="160" viewBox="0 0 337 160" fill="none" xmlns="http://www.w3.org/2000/svg">
<path d="M29.8173 53.4832C34.5848 53.4832 38.7463 54.4937 42.3018 56.5149C45.938 58.5361 48.7258 61.1889 50.6651 64.4734V54.4937H71.3918V124.857C71.3918 131.341 70.1393 137.194 67.6343 142.416C65.2102 147.721 61.4527 151.932 56.362 155.048C51.352 158.164 45.0896 159.722 37.5746 159.722C27.5547 159.722 19.4338 157.238 13.2117 152.269C6.98969 147.384 3.43424 140.731 2.54538 132.31H23.0296C23.6761 135.005 25.2114 137.11 27.6355 138.626C30.0597 140.226 33.0495 141.026 36.605 141.026C40.8877 141.026 44.2815 139.721 46.7865 137.11C49.3723 134.584 50.6651 130.499 50.6651 124.857V114.877C48.645 118.161 45.8572 120.856 42.3018 122.962C38.7463 124.983 34.5848 125.993 29.8173 125.993C24.2417 125.993 19.1913 124.52 14.6662 121.572C10.1411 118.54 6.54526 114.287 3.87867 108.813C1.29289 103.255 0 96.8546 0 89.612C0 82.3694 1.29289 76.011 3.87867 70.537C6.54526 65.0629 10.1411 60.8521 14.6662 57.9045C19.1913 54.9569 24.2417 53.4832 29.8173 53.4832ZM50.6651 89.7383C50.6651 84.3485 49.2106 80.0955 46.3016 76.9795C43.4734 73.8635 39.9988 72.3055 35.8777 72.3055C31.7566 72.3055 28.2416 73.8635 25.3326 76.9795C22.5044 80.0113 21.0903 84.2221 21.0903 89.612C21.0903 95.0018 22.5044 99.2969 25.3326 102.497C28.2416 105.613 31.7566 107.171 35.8777 107.171C39.9988 107.171 43.4734 105.613 46.3016 102.497C49.2106 99.3811 50.6651 95.1282 50.6651 89.7383ZM96.8106 47.1669C93.1743 47.1669 90.1845 46.0721 87.8411 43.8825C85.5786 41.6086 84.4473 38.8295 84.4473 35.5451C84.4473 32.1764 85.5786 29.3973 87.8411 27.2076C90.1845 24.9338 93.1743 23.7969 96.8106 23.7969C100.366 23.7969 103.275 24.9338 105.538 27.2076C107.881 29.3973 109.053 32.1764 109.053 35.5451C109.053 38.8295 107.881 41.6086 105.538 43.8825C103.275 46.0721 100.366 47.1669 96.8106 47.1669ZM107.113 54.4937V124.983H86.3866V54.4937H107.113ZM142.86 31.5027V124.983H122.134V31.5027H142.86ZM168.305 47.1669C164.668 47.1669 161.679 46.0721 159.335 43.8825C157.073 41.6086 155.941 38.8295 155.941 35.5451C155.941 32.1764 157.073 29.3973 159.335 27.2076C161.679 24.9338 164.668 23.7969 168.305 23.7969C171.86 23.7969 174.769 24.9338 177.032 27.2076C179.375 29.3973 180.547 32.1764 180.547 35.5451C180.547 38.8295 179.375 41.6086 177.032 43.8825C174.769 46.0721 171.86 47.1669 168.305 47.1669ZM178.607 54.4937V124.983H157.881V54.4937H178.607Z" fill="white"/>
<g filter="url(#filter0_d_1981_16545)">
<path d="M262 143C301.212 143 333 111.212 333 72C333 32.7878 301.212 1 262 1C222.788 1 191 32.7878 191 72C191 111.212 222.788 143 262 143Z" fill="#FA0808"/>
<g clip-path="url(#clip0_1981_16545)">
<path d="M281.089 100.204L262.66 115.836C261.431 117.542 262.284 118.702 262.386 118.771C263.151 120.136 264.707 119.931 265.39 119.658L271.943 114.129L281.465 106.211L282.523 107.849L275.97 111.433C275.538 111.717 274.769 112.655 275.151 114.129C275.533 115.604 277.017 115.881 277.711 115.836L280.202 114.539C282.716 113.174 287.758 110.443 287.813 110.443C289.533 109.023 288.848 107.417 288.291 106.791L291.738 104.47L289.827 107.337C289.611 107.599 289.308 108.334 289.827 109.18C290.345 110.027 291.317 109.965 291.738 109.829C294.65 109.271 300.475 108.15 300.475 108.122C301.362 107.679 301.431 107.064 301.465 107.064C301.82 105.535 300.771 104.903 300.202 104.778L294.741 105.767C295.822 104.106 297.984 100.778 297.984 100.75C298.257 99.3578 297.506 98.8277 297.096 98.7367L293.991 94.5388L300.202 89.2828L309.144 81.706C309.895 80.1702 308.905 78.6343 307.062 79.1463L303.41 82.1156L291.738 92.0815L281.089 100.204Z" fill="white"/>
<path d="M268.734 98.4973L290.85 91.3301L274.809 103.89L268.734 98.4973Z" fill="white"/>
<path d="M300.1 98.2933C302.494 98.2933 304.435 96.261 304.435 93.7541C304.435 91.2471 302.494 89.2148 300.1 89.2148C297.706 89.2148 295.766 91.2471 295.766 93.7541C295.766 96.261 297.706 98.2933 300.1 98.2933Z" fill="white"/>
</g>
<path d="M220.032 111.982C218.058 110.018 216.73 107.907 216.047 105.649C215.387 103.367 215.373 101.119 216.004 98.9034C216.658 96.6654 217.913 94.6186 219.769 92.7632C222.145 90.3873 224.748 89.028 227.58 88.6853C230.434 88.3199 233.245 89.0166 236.012 90.7755L229.834 96.9528C227.862 96.029 226.129 96.3137 224.635 97.8071C223.572 98.8706 223.143 100.137 223.349 101.605C223.532 103.051 224.395 104.541 225.938 106.076C227.481 107.611 228.989 108.478 230.462 108.68C231.912 108.859 233.169 108.416 234.232 107.353C235.726 105.859 236.007 104.13 235.075 102.166L241.252 95.9884C242.978 98.6978 243.673 101.488 243.337 104.358C243.001 107.228 241.656 109.84 239.303 112.193C237.447 114.049 235.399 115.306 233.156 115.964C230.937 116.6 228.682 116.591 226.393 115.939C224.126 115.264 222.006 113.945 220.032 111.982ZM260.125 91.3714C258.269 93.2268 256.198 94.5064 253.91 95.2099C251.645 95.8909 249.346 95.9278 247.011 95.3208C244.699 94.6912 242.556 93.3947 240.583 91.4314C238.631 89.4907 237.348 87.357 236.734 85.0303C236.096 82.681 236.127 80.3648 236.826 78.0815C237.526 75.7983 238.803 73.7289 240.658 71.8735C242.514 70.018 244.585 68.7385 246.873 68.035C249.16 67.3314 251.483 67.2944 253.84 67.924C256.174 68.531 258.317 69.8048 260.268 71.7456C262.22 73.6863 263.503 75.8426 264.118 78.2145C264.732 80.5412 264.679 82.8575 263.957 85.1633C263.258 87.4466 261.98 89.5159 260.125 91.3714ZM255.088 86.3616C256.197 85.2528 256.727 83.9076 256.68 82.3258C256.655 80.7215 255.883 79.1633 254.363 77.6513C252.843 76.1394 251.289 75.3618 249.703 75.3188C248.14 75.2531 246.804 75.7746 245.695 76.8833C244.564 78.0147 244.033 79.3599 244.103 80.919C244.15 82.4556 244.946 83.9911 246.488 85.5257C248.008 87.0376 249.539 87.8378 251.08 87.9261C252.643 87.9918 253.979 87.4703 255.088 86.3616ZM275.83 75.6662C274.812 76.6844 273.68 77.2283 272.433 77.2977C271.187 77.322 270.122 76.8941 269.237 76.014C268.329 75.1113 267.886 74.0385 267.907 72.7957C267.951 71.5302 268.482 70.3883 269.5 69.3701C270.496 68.3745 271.616 67.8645 272.863 67.8403C274.131 67.7934 275.22 68.2213 276.127 69.1239C277.012 70.004 277.432 71.0768 277.389 72.3423C277.345 73.5626 276.826 74.6706 275.83 75.6662ZM264.377 44.7609C263.359 45.7792 262.226 46.323 260.98 46.3925C259.734 46.4167 258.669 45.9888 257.784 45.1087C256.876 44.206 256.444 43.1445 256.488 41.9242C256.532 40.6587 257.063 39.5169 258.081 38.4986C259.077 37.503 260.197 36.9931 261.444 36.9688C262.69 36.8994 263.766 37.316 264.674 38.2187C265.559 39.0988 265.979 40.1716 265.936 41.4371C265.892 42.6574 265.372 43.7653 264.377 44.7609ZM269.236 43.8392L288.225 62.7277L282.421 68.5316L263.432 49.6432L269.236 43.8392ZM284.777 27.8901C286.995 25.6726 289.486 24.6298 292.25 24.7617C295.015 24.8484 297.656 26.1442 300.174 28.6491L311.269 39.6843L305.499 45.4543L295.187 35.1977C293.917 33.9339 292.602 33.2804 291.242 33.237C289.883 33.1936 288.648 33.7263 287.54 34.835C286.431 35.9438 285.9 37.176 285.947 38.5318C285.994 39.8876 286.653 41.1973 287.924 42.4611L298.235 52.7177L292.431 58.5216L273.442 39.6332L279.246 33.8293L281.764 36.3342C281.513 34.9109 281.647 33.4645 282.166 31.995C282.662 30.5029 283.533 29.1346 284.777 27.8901Z" fill="#F8FBFF"/>
</g>
<defs>
<filter id="filter0_d_1981_16545" x="187.833" y="1" width="148.333" height="148.333" filterUnits="userSpaceOnUse" color-interpolation-filters="sRGB">
<feFlood flood-opacity="0" result="BackgroundImageFix"/>
<feColorMatrix in="SourceAlpha" type="matrix" values="0 0 0 0 0 0 0 0 0 0 0 0 0 0 0 0 0 0 127 0" result="hardAlpha"/>
<feOffset dy="3.16671"/>
<feGaussianBlur stdDeviation="1.58336"/>
<feComposite in2="hardAlpha" operator="out"/>
<feColorMatrix type="matrix" values="0 0 0 0 0 0 0 0 0 0 0 0 0 0 0 0 0 0 0.25 0"/>
<feBlend mode="normal" in2="BackgroundImageFix" result="effect1_dropShadow_1981_16545"/>
<feBlend mode="normal" in="SourceGraphic" in2="effect1_dropShadow_1981_16545" result="shape"/>
</filter>
<clipPath id="clip0_1981_16545">
<rect width="47.4102" height="40.8613" fill="white" transform="translate(262 79)"/>
</clipPath>
</defs>
</svg>
