<svg width="64" height="64" viewBox="0 0 64 64" fill="none" xmlns="http://www.w3.org/2000/svg">
<g id="cable-car">
<g id="cable car">
<path id="Vector" d="M51.6788 32.9743L32.0038 31.5703L12.3288 32.9743C12.0421 33.9447 11.9438 34.9611 12.0393 35.9685L13.1977 48.2685L32.0038 49.6725L50.81 48.2685L51.9685 35.9685C52.0638 34.9611 51.9655 33.9447 51.6788 32.9743Z" fill="#A3DAEB"/>
<path id="Vector_2" d="M24.082 44.8231V41.6786L34.4405 32.9746H38.153L24.082 44.8231Z" fill="#CDEBF4"/>
<path id="Vector_3" d="M28.6817 48.2685H24.9492L39.9207 35.6875V38.8045L28.6817 48.2685Z" fill="#CDEBF4"/>
<path id="Vector_4" d="M18.9988 56.5006H45.0041C47.5937 56.5006 49.7898 55.0018 50.3936 52.9478L32.0015 50.418L13.6094 52.948C14.2132 55.0018 16.4093 56.5006 18.9988 56.5006Z" fill="#F5D152"/>
<path id="Vector_5" d="M50.5445 52.1901L50.8078 48.2686H13.1953L13.4586 52.1901C13.4845 52.4467 13.535 52.7003 13.6095 52.9472H50.3937C50.4681 52.7003 50.5187 52.4467 50.5445 52.1901Z" fill="#F7DB78"/>
<path id="Vector_6" d="M35.5652 26.8953H28.4414L29.8469 13.5903C29.8728 13.3446 29.9887 13.1173 30.1724 12.952C30.356 12.7868 30.5943 12.6953 30.8413 12.6953H33.1653C33.4123 12.6953 33.6506 12.7868 33.8342 12.952C34.0179 13.1173 34.1338 13.3446 34.1598 13.5903L35.5652 26.8953Z" fill="#837D99"/>
<path id="Vector_7" d="M38.4783 25.8687C38.4783 25.0162 38.1397 24.1986 37.5369 23.5958C36.934 22.993 36.1165 22.6543 35.2639 22.6543H28.7378C27.8853 22.6543 27.0677 22.993 26.4649 23.5958C25.8621 24.1986 25.5234 25.0162 25.5234 25.8687L32.0009 28.4368L38.4783 25.8687Z" fill="#A6A4BD"/>
<path id="Vector_8" d="M40.8874 25.8691H23.1191C17.8675 25.8691 13.5202 28.9226 12.3281 32.9748H51.6783C50.4863 28.9226 46.139 25.8691 40.8874 25.8691Z" fill="#F7DB78"/>
<path id="Vector_9" d="M50.8489 47.7691H40.4203V33.4746H51.8059C51.9385 33.4746 52.0657 33.4219 52.1595 33.3282C52.2532 33.2344 52.3059 33.1072 52.3059 32.9746C52.3059 32.842 52.2532 32.7148 52.1595 32.6211C52.0657 32.5273 51.9385 32.4746 51.8059 32.4746H12.25C12.1174 32.4746 11.9902 32.5273 11.8964 32.6211C11.8027 32.7148 11.75 32.842 11.75 32.9746C11.75 33.1072 11.8027 33.2344 11.8964 33.3282C11.9902 33.4219 12.1174 33.4746 12.25 33.4746H23.5835V47.7691H13.1494C13.0167 47.7691 12.8896 47.8217 12.7958 47.9155C12.702 48.0093 12.6494 48.1365 12.6494 48.2691C12.6494 48.4017 12.702 48.5288 12.7958 48.6226C12.8896 48.7164 13.0167 48.7691 13.1494 48.7691H50.8489C50.9815 48.7691 51.1086 48.7164 51.2024 48.6226C51.2962 48.5288 51.3489 48.4017 51.3489 48.2691C51.3489 48.1365 51.2962 48.0093 51.2024 47.9155C51.1086 47.8217 50.9815 47.7691 50.8489 47.7691ZM24.5835 33.4746H39.4203V47.7691H24.5835V33.4746Z" fill="#837D99"/>
</g>
</g>
</svg>
