<svg width="24" height="24" viewBox="0 0 24 24" fill="none" xmlns="http://www.w3.org/2000/svg">
<path d="M7.44711 9.221C7.37589 9.13348 7.26913 9.08257 7.15616 9.08257H5.25113C4.98572 9.07518 4.79053 9.37937 4.91183 9.61724L6.03299 12L4.91183 14.3827C4.85708 14.4988 4.86569 14.6349 4.93454 14.7433C5.00339 14.8517 5.12277 14.9174 5.25113 14.9174H7.15616C7.26822 14.9174 7.37424 14.8674 7.44546 14.781L8.39047 13.6349H9.90317L8.64096 17.8934C8.56593 18.124 8.75748 18.3819 9.00057 18.375C9.00057 18.375 10.4041 18.375 10.4041 18.375C10.5213 18.3777 10.6163 18.312 10.6957 18.2356C10.6958 18.2357 14.4132 13.6349 14.4132 13.6349C15.3336 13.6141 16.8907 13.7536 17.6975 13.3205C18.1724 13.1106 19.3861 12.3191 19.0588 11.7856C18.4013 10.844 17.285 10.3564 16.0999 10.365H14.4132L10.6958 5.76434C10.6245 5.67627 10.5174 5.625 10.4041 5.625H9.00057C8.88229 5.625 8.77096 5.68085 8.7001 5.7757C8.62923 5.87055 8.60745 5.99304 8.64096 6.10657L9.90317 10.3651H8.3771L7.44711 9.221ZM9.50284 6.37499H10.225L13.449 10.365H10.6856L9.50284 6.37499ZM16.0999 11.115C16.9547 11.1122 17.731 11.3971 18.2748 12.0004C17.7302 12.6032 16.9725 12.8893 16.0999 12.8849C16.0268 12.8973 14.0636 12.8489 14.0684 12.9266C14.0224 12.9541 13.9797 12.9881 13.9417 13.0252C13.9417 13.0252 10.225 17.625 10.225 17.625H9.50284L10.6856 13.6349H11.8211C12.3135 13.6265 12.3145 12.8934 11.8211 12.8849C11.8211 12.8849 8.21359 12.8849 8.21359 12.8849C8.10153 12.8849 7.99551 12.9349 7.92429 13.0214L6.97928 14.1674H5.84201L6.78665 12.1597C6.83426 12.0586 6.83426 11.9414 6.78665 11.8403L5.84201 9.83257H6.97763L7.90762 10.9766C7.97885 11.0641 8.0856 11.115 8.19858 11.115H16.0999Z" fill="#37AFD4" stroke="#37AFD4" stroke-width="0.5"/>
<path d="M2.72746 16.4405C2.99346 16.4432 3.18119 16.1559 3.07041 15.9141C-0.93156 6.51834 10.2235 -1.94143 18.1799 4.46605C18.1798 4.46596 17.0391 4.46596 17.0391 4.46596C16.5444 4.47551 16.5477 5.20747 17.0392 5.21596C17.0391 5.21596 19.1559 5.21596 19.1559 5.21596C19.3624 5.22162 19.5307 5.04281 19.5354 4.84096V2.71968C19.5253 2.22807 18.7954 2.22509 18.7854 2.71971C18.7854 2.71968 18.7854 3.99257 18.7854 3.99257C10.3914 -3.14436 -2.05908 6.15088 2.3843 16.2167C2.44602 16.357 2.58335 16.4405 2.72746 16.4405ZM21.6179 7.7842C21.5342 7.59469 21.313 7.50954 21.1235 7.5923C20.934 7.67598 20.8481 7.89736 20.9316 8.08669C25.0261 17.3568 13.6479 25.9886 5.82198 19.5346C5.82217 19.5348 6.96287 19.5348 6.96287 19.5348C7.45734 19.5255 7.45451 18.7932 6.96285 18.7848C6.96287 18.7848 4.84608 18.7848 4.84608 18.7848C4.79547 18.7843 4.74517 18.794 4.69774 18.8138C4.55682 18.8734 4.47454 19.0096 4.4666 19.1598C4.4666 19.1598 4.4666 21.2811 4.4666 21.2811C4.4766 21.7729 5.20678 21.7754 5.2166 21.2811V20.0082C11.9495 25.7808 22.5351 20.8701 22.5009 12.0002C22.501 10.5313 22.2038 9.11281 21.6179 7.7842Z" fill="#37AFD4" stroke="#37AFD4" stroke-width="0.5"/>
</svg>
