<svg width="24" height="24" viewBox="0 0 24 24" fill="none" xmlns="http://www.w3.org/2000/svg">
<path fill-rule="evenodd" clip-rule="evenodd" d="M19.849 20.7358H14.281C13.369 20.7358 12.625 20.0038 12.625 19.0918V11.4958C12.625 10.5838 13.369 9.83984 14.281 9.83984H19.849C20.761 9.83984 21.505 10.5838 21.505 11.4958V19.0918C21.505 20.0038 20.761 20.7358 19.849 20.7358ZM14.281 10.4638C13.705 10.4638 13.237 10.9318 13.237 11.4958V19.0918C13.237 19.6558 13.705 20.1238 14.281 20.1238H19.849C20.425 20.1238 20.881 19.6558 20.881 19.0918V11.4958C20.881 10.9318 20.425 10.4638 19.849 10.4638H14.281Z" fill="#37AFD4" stroke="#37AFD4" stroke-width="0.3"/>
<path fill-rule="evenodd" clip-rule="evenodd" d="M18.8178 10.4639C18.6498 10.4639 18.5058 10.3199 18.5058 10.1519V6.94794H15.6138V10.1519C15.6138 10.3199 15.4818 10.4639 15.3018 10.4639C15.1338 10.4639 15.0018 10.3199 15.0018 10.1519V6.63594C15.0018 6.46794 15.1338 6.33594 15.3018 6.33594H18.8178C18.9858 6.33594 19.1298 6.46794 19.1298 6.63594V10.1519C19.1298 10.3199 18.9858 10.4639 18.8178 10.4639ZM16.0698 22.2359H14.5698C14.4018 22.2359 14.2578 22.1039 14.2578 21.9239V20.4359C14.2578 20.2559 14.4018 20.1239 14.5698 20.1239C14.7498 20.1239 14.8818 20.2559 14.8818 20.4359V21.6239H15.7578V20.4359C15.7578 20.2559 15.9018 20.1239 16.0698 20.1239C16.2378 20.1239 16.3818 20.2559 16.3818 20.4359V21.9239C16.3818 22.1039 16.2378 22.2359 16.0698 22.2359ZM19.5498 22.2359H18.0618C17.8818 22.2359 17.7498 22.1039 17.7498 21.9239V20.4359C17.7498 20.2559 17.8818 20.1239 18.0618 20.1239C18.2298 20.1239 18.3618 20.2559 18.3618 20.4359V21.6239H19.2378V20.4359C19.2378 20.2559 19.3818 20.1239 19.5498 20.1239C19.7298 20.1239 19.8618 20.2559 19.8618 20.4359V21.9239C19.8618 22.1039 19.7298 22.2359 19.5498 22.2359Z" fill="#37AFD4" stroke="#37AFD4" stroke-width="0.3"/>
<path fill-rule="evenodd" clip-rule="evenodd" d="M15.2534 17.724C15.0854 17.724 14.9414 17.58 14.9414 17.412V13.176C14.9414 13.008 15.0854 12.864 15.2534 12.864C15.4214 12.864 15.5654 13.008 15.5654 13.176V17.412C15.5654 17.58 15.4214 17.724 15.2534 17.724ZM17.0654 18.588C16.8974 18.588 16.7534 18.444 16.7534 18.276V12.312C16.7534 12.144 16.8974 12 17.0654 12C17.2334 12 17.3774 12.144 17.3774 12.312V18.276C17.3774 18.444 17.2334 18.588 17.0654 18.588ZM18.8654 17.724C18.6974 17.724 18.5654 17.58 18.5654 17.412V13.176C18.5654 13.008 18.6974 12.864 18.8654 12.864C19.0454 12.864 19.1774 13.008 19.1774 13.176V17.412C19.1774 17.58 19.0454 17.724 18.8654 17.724Z" fill="#37AFD4" stroke="#37AFD4" stroke-width="0.3"/>
<path fill-rule="evenodd" clip-rule="evenodd" d="M9.1915 22.2356H7.5115C7.3555 22.2356 7.2235 22.1276 7.1995 21.9716L6.8395 19.3676L6.4795 21.9716C6.4675 22.1276 6.3355 22.2356 6.1795 22.2356H4.4995C4.3315 22.2356 4.1875 22.1036 4.1875 21.9236V14.9516C4.1875 14.7836 4.3315 14.6396 4.4995 14.6396C4.6675 14.6396 4.8115 14.7836 4.8115 14.9516V21.6236H5.9035L6.5395 17.0516C6.5515 16.9076 6.6835 16.7876 6.8395 16.7876C6.9955 16.7876 7.1275 16.9076 7.1515 17.0516L7.7755 21.6236H8.8795V14.9516C8.8795 14.7836 9.0115 14.6396 9.1915 14.6396C9.3595 14.6396 9.4915 14.7836 9.4915 14.9516V21.9236C9.4915 22.1036 9.3595 22.2356 9.1915 22.2356Z" fill="#37AFD4" stroke="#37AFD4" stroke-width="0.3"/>
<path fill-rule="evenodd" clip-rule="evenodd" d="M10.6201 15.2633H3.06009C2.74809 15.2633 2.49609 15.0113 2.49609 14.6993V11.2433C2.49609 9.68331 3.42009 8.24331 4.86009 7.59531C4.98009 7.53531 5.13609 7.57131 5.22009 7.67931C5.62809 8.17131 6.21609 8.44731 6.84009 8.44731C7.47609 8.44731 8.06409 8.17131 8.46009 7.67931C8.55609 7.57131 8.70009 7.53531 8.83209 7.59531C10.2601 8.24331 11.1841 9.68331 11.1841 11.2433V14.6993C11.1841 15.0113 10.9321 15.2633 10.6201 15.2633ZM3.12009 14.6393H10.5721V11.2433C10.5721 9.99531 9.87609 8.85531 8.77209 8.25531C8.26809 8.77131 7.57209 9.07131 6.84009 9.07131C6.10809 9.07131 5.42409 8.77131 4.90809 8.25531C3.81609 8.85531 3.12009 9.99531 3.12009 11.2433V14.6393Z" fill="#37AFD4" stroke="#37AFD4" stroke-width="0.3"/>
<path fill-rule="evenodd" clip-rule="evenodd" d="M6.84091 7.18767C5.34091 7.18767 4.12891 5.97567 4.12891 4.47567C4.12891 2.97567 5.34091 1.76367 6.84091 1.76367C8.34091 1.76367 9.55291 2.97567 9.55291 4.47567C9.55291 5.97567 8.34091 7.18767 6.84091 7.18767ZM6.84091 2.37567C5.68891 2.37567 4.75291 3.32367 4.75291 4.47567C4.75291 5.62767 5.68891 6.57567 6.84091 6.57567C7.99291 6.57567 8.94091 5.62767 8.94091 4.47567C8.94091 3.32367 7.99291 2.37567 6.84091 2.37567Z" fill="#37AFD4" stroke="#37AFD4" stroke-width="0.3"/>
<path fill-rule="evenodd" clip-rule="evenodd" d="M8.92941 15.2634C8.76141 15.2634 8.61741 15.1194 8.61741 14.9514V11.1714C8.61741 11.0034 8.76141 10.8594 8.92941 10.8594C9.09741 10.8594 9.24141 11.0034 9.24141 11.1714V14.9514C9.24141 15.1194 9.09741 15.2634 8.92941 15.2634ZM4.75341 15.2634C4.58541 15.2634 4.44141 15.1194 4.44141 14.9514V11.1714C4.44141 11.0034 4.58541 10.8594 4.75341 10.8594C4.93341 10.8594 5.06541 11.0034 5.06541 11.1714V14.9514C5.06541 15.1194 4.93341 15.2634 4.75341 15.2634Z" fill="#37AFD4" stroke="#37AFD4" stroke-width="0.3"/>
</svg>
