<svg width="24" height="24" viewBox="0 0 24 24" fill="none" xmlns="http://www.w3.org/2000/svg">
<g clip-path="url(#clip0_2205_19378)">
<path d="M12 7.5L21.5 4L12 0.5L2.5 4L12 7.5Z" stroke="#37AFD4" stroke-width="1.5" stroke-miterlimit="10" stroke-linecap="round" stroke-linejoin="round"/>
<path d="M20.5 7.5V4.5L12 4M20.5 14.5L20 13.5L20.5 10L21 13.5L20.5 14.5Z" stroke="#37AFD4" stroke-width="1.5" stroke-miterlimit="10" stroke-linecap="round" stroke-linejoin="round"/>
<path d="M20.5 10C20.7761 10 21 9.44036 21 8.75C21 8.05964 20.7761 7.5 20.5 7.5C20.2239 7.5 20 8.05964 20 8.75C20 9.44036 20.2239 10 20.5 10Z" stroke="#37AFD4" stroke-width="1.5" stroke-miterlimit="10" stroke-linecap="round" stroke-linejoin="round"/>
<path d="M20.6988 23.4998C20.1788 23.0318 19.5968 22.6978 19.3138 22.5298C18.4308 22.0058 18.0208 21.6298 17.4448 20.8688L17.1668 20.4998H15.9998L15.1028 17.9108C16.2878 16.8658 16.8528 15.3058 16.8528 14.8228C17.6378 14.8228 18.0208 12.1368 18.0208 11.7348C18.0208 11.3328 17.8168 10.4508 17.1408 10.4508C17.3248 10.2898 17.4128 9.7198 17.4558 9.0508M6.54378 9.0498C6.58678 9.7198 6.67478 10.2898 6.85778 10.4508C6.18278 10.4508 5.97878 11.3328 5.97878 11.7348C5.97878 12.1368 6.36178 14.8228 7.14578 14.8228C7.14578 15.3058 7.71178 16.8658 8.89578 17.9108L7.99978 20.4998H6.83278L6.55478 20.8688C5.97878 21.6298 5.56878 22.0058 4.68578 22.5288C4.40278 22.6978 3.82078 23.0318 3.30078 23.4998" stroke="#37AFD4" stroke-width="1.5" stroke-miterlimit="10" stroke-linecap="round" stroke-linejoin="round"/>
<path d="M6 5.29199V8.74999C7 9.49999 10 9.99999 12 9.99999C14 9.99999 17 9.49999 18 8.74999V5.30999" stroke="#37AFD4" stroke-width="1.5" stroke-miterlimit="10" stroke-linecap="round" stroke-linejoin="round"/>
</g>
<defs>
<clipPath id="clip0_2205_19378">
<rect width="24" height="24" fill="white"/>
</clipPath>
</defs>
</svg>
