<svg width="25" height="25" viewBox="0 0 25 25" fill="none" xmlns="http://www.w3.org/2000/svg">
<path d="M8.96879 5.53021C8.8991 5.46052 8.84383 5.3778 8.80612 5.28675C8.7684 5.19571 8.74899 5.09813 8.74899 4.99958C8.74899 4.90104 8.7684 4.80345 8.80612 4.71241C8.84383 4.62136 8.8991 4.53864 8.96879 4.46896C9.03847 4.39927 9.12119 4.344 9.21224 4.30629C9.30328 4.26857 9.40087 4.24916 9.49941 4.24916C9.59796 4.24916 9.69554 4.26857 9.78658 4.30629C9.87763 4.344 9.96035 4.39927 10.03 4.46896L17.53 11.969C17.5998 12.0386 17.6551 12.1213 17.6928 12.2124C17.7306 12.3034 17.75 12.401 17.75 12.4996C17.75 12.5981 17.7306 12.6957 17.6928 12.7868C17.6551 12.8778 17.5998 12.9606 17.53 13.0302L10.03 20.5302C9.8893 20.6709 9.69843 20.75 9.49941 20.75C9.30039 20.75 9.10952 20.6709 8.96878 20.5302C8.82805 20.3895 8.74899 20.1986 8.74899 19.9996C8.74899 19.8006 8.82805 19.6097 8.96878 19.469L15.9391 12.4996L8.96879 5.53021Z" fill="#0B2C5C" stroke="#0B2C5C"/>
</svg>
