<svg width="16" height="10" viewBox="0 0 16 10" fill="none" xmlns="http://www.w3.org/2000/svg">
<g clip-path="url(#clip0_2371_25286)">
<path d="M12.9545 0.612428C13.4447 0.12632 14.2362 0.129631 14.7223 0.619825C15.2084 1.11002 15.2051 1.90147 14.7149 2.38758L12.9545 0.612428ZM7.95228 7.33334L8.83246 8.22091L7.94485 9.10112L7.06467 8.21348L7.95228 7.33334ZM1.28036 2.38015C0.794272 1.88993 0.797612 1.09848 1.28782 0.612395C1.77803 0.126304 2.56948 0.129643 3.05557 0.619854L1.28036 2.38015ZM14.7149 2.38758L8.83246 8.22091L7.0721 6.44576L12.9545 0.612428L14.7149 2.38758ZM7.06467 8.21348L1.28036 2.38015L3.05557 0.619854L8.83988 6.45319L7.06467 8.21348Z" fill="#333333"/>
</g>
<defs>
<clipPath id="clip0_2371_25286">
<rect width="16" height="10" fill="white"/>
</clipPath>
</defs>
</svg>
