<svg width="21" height="20" viewBox="0 0 21 20" fill="none" xmlns="http://www.w3.org/2000/svg">
<path d="M18.0867 5.73165L14.5961 2.24024C14.48 2.12414 14.3422 2.03204 14.1905 1.9692C14.0389 1.90637 13.8763 1.87402 13.7121 1.87402C13.5479 1.87402 13.3854 1.90637 13.2337 1.9692C13.082 2.03204 12.9442 2.12414 12.8281 2.24024L3.19454 11.8746C3.07796 11.9903 2.98553 12.1279 2.92263 12.2796C2.85973 12.4313 2.82761 12.594 2.82813 12.7582V16.2496C2.82813 16.5811 2.95983 16.8991 3.19425 17.1335C3.42867 17.3679 3.74661 17.4996 4.07813 17.4996H7.56954C7.73375 17.5001 7.89643 17.468 8.04812 17.4051C8.19981 17.3422 8.33748 17.2498 8.45313 17.1332L18.0867 7.49962C18.2028 7.38354 18.2949 7.24573 18.3578 7.09405C18.4206 6.94238 18.4529 6.77981 18.4529 6.61563C18.4529 6.45146 18.4206 6.28889 18.3578 6.13721C18.2949 5.98554 18.2028 5.84772 18.0867 5.73165ZM7.56954 16.2496H4.07813V12.7582L10.9531 5.88321L14.4445 9.37462L7.56954 16.2496ZM15.3281 8.49024L11.8367 4.99962L13.7117 3.12462L17.2031 6.61524L15.3281 8.49024Z" fill="#37AFD4"/>
</svg>
