<svg width="11" height="10" viewBox="0 0 11 10" fill="none" xmlns="http://www.w3.org/2000/svg">
<g clip-path="url(#clip0_2371_24765)">
<path d="M2.1022 7.74223C1.79582 8.04605 1.30113 8.04398 0.997322 7.73761C0.693509 7.43124 0.695572 6.93658 1.00195 6.63277L2.1022 7.74223ZM5.22855 3.54167L4.67844 2.98693L5.2332 2.4368L5.78331 2.99158L5.22855 3.54167ZM9.3985 6.63741C9.70231 6.94379 9.70022 7.43845 9.39384 7.74225C9.08746 8.04606 8.5928 8.04397 8.289 7.73759L9.3985 6.63741ZM1.00195 6.63277L4.67844 2.98693L5.77867 4.0964L2.1022 7.74223L1.00195 6.63277ZM5.78331 2.99158L9.3985 6.63741L8.289 7.73759L4.6738 4.09176L5.78331 2.99158Z" fill="#333333"/>
</g>
<defs>
<clipPath id="clip0_2371_24765">
<rect width="10" height="10" fill="white" transform="matrix(-1 0 0 -1 10.1992 10)"/>
</clipPath>
</defs>
</svg>
