<svg width="196" height="196" viewBox="0 0 196 196" fill="none" xmlns="http://www.w3.org/2000/svg">
<path d="M148.618 44.1982L84.9313 107.885C82.2785 110.537 77.9775 110.537 75.3247 107.885L61.3048 93.8646C58.652 91.2118 58.652 86.9108 61.3048 84.258L124.991 20.5716C127.644 17.9188 131.945 17.9188 134.598 20.5716L148.618 34.5916C151.271 37.2444 151.271 41.5454 148.618 44.1982ZM69.7194 123.097L44.1982 148.618C41.5454 151.271 37.2444 151.271 34.5916 148.618L20.5716 134.598C17.9188 131.945 17.9188 127.644 20.5716 124.991L46.0928 99.4699C48.7456 96.8171 53.0466 96.8171 55.6994 99.4699L69.7194 113.49C72.3722 116.143 72.3722 120.444 69.7194 123.097ZM191.465 109.175L149.619 151.021C146.966 153.674 142.665 153.674 140.012 151.021L125.992 137.001C123.339 134.349 123.339 130.048 125.992 127.395L167.839 85.548C170.492 82.8952 174.793 82.8952 177.445 85.548L191.465 99.568C194.118 102.221 194.118 106.522 191.465 109.175ZM134.696 165.944L109.175 191.465C106.522 194.118 102.221 194.118 99.568 191.465L85.548 177.445C82.8952 174.793 82.8952 170.492 85.548 167.839L111.069 142.318C113.722 139.665 118.023 139.665 120.676 142.318L134.696 156.338C137.349 158.99 137.349 163.291 134.696 165.944Z" fill="#E0FCD1"/>
<path d="M70.0098 68.8952L28.163 110.742C25.5102 113.395 21.2092 113.395 18.5564 110.742L4.53646 96.722C1.88368 94.0692 1.88368 89.7682 4.53646 87.1154L46.3833 45.2686C49.0361 42.6158 53.3371 42.6158 55.9899 45.2686L70.0098 59.2886C72.6626 61.9414 72.6626 66.2424 70.0098 68.8952ZM61.5952 30.0567L87.1164 4.53549C89.7692 1.8827 94.0702 1.8827 96.723 4.53549L110.743 18.5555C113.396 21.2083 113.396 25.5093 110.743 28.1621L85.2218 53.6833C82.569 56.336 78.268 56.336 75.6152 53.6833L61.5952 39.6633C58.9424 37.0105 58.9424 32.7095 61.5952 30.0567Z" fill="#E0FCD1"/>
<path d="M134.842 111.887L71.1552 175.574C68.5024 178.227 64.2014 178.227 61.5486 175.574L47.5287 161.554C44.8759 158.901 44.8759 154.6 47.5287 151.947L111.215 88.2608C113.868 85.608 118.169 85.608 120.822 88.2608L134.842 102.281C137.494 104.934 137.494 109.235 134.842 111.887ZM126.427 73.0489L151.948 47.5277C154.601 44.8749 158.902 44.8749 161.555 47.5277L175.575 61.5477C178.228 64.2005 178.228 68.5015 175.575 71.1543L150.054 96.6755C147.401 99.3283 143.1 99.3283 140.447 96.6755L126.427 82.6555C123.774 80.0027 123.774 75.7017 126.427 73.0489Z" fill="#E0FCD1"/>
<path d="M55.7053 19.0908L145.887 43.9902L132.7 91.9174L42.5195 67.018L55.7053 19.0908Z" fill="#F37C5A"/>
<path d="M59.0627 25.3037L95.6498 35.4061L85.1601 73.5271L48.5742 63.4259L59.0627 25.3037Z" fill="white"/>
<path d="M132.449 70.9473L128.469 85.4111L126.021 84.7359L130.001 70.2721L132.449 70.9473ZM125.498 69.129L121.52 83.5915L119.44 83.0168L123.419 68.553L125.498 69.129ZM127.994 69.7444L124.015 84.2095L123.035 83.9387L127.017 69.4748L127.994 69.7444ZM121.636 68.0405L117.657 82.5044L116.8 82.2679L120.78 67.804L121.636 68.0405ZM114.826 66.1408L110.845 80.6034L109.989 80.3669L113.968 65.9043L114.826 66.1408ZM119.175 67.303L115.195 81.7669L113.237 81.2265L117.217 66.7614L119.175 67.303ZM111.417 65.1338L107.437 79.5989L104.99 78.925L108.969 64.4599L111.417 65.1338ZM103.309 62.9035L99.33 77.3686L98.3513 77.0978L102.331 62.6339L103.309 62.9035ZM106.687 63.8292L102.706 78.293L100.993 77.82L104.973 63.3562L106.687 63.8292ZM100.604 62.227L96.625 76.6921L95.7682 76.4556L99.7489 61.9905L100.604 62.227ZM93.7944 60.3273L89.8126 74.7912L88.957 74.5547L92.9364 60.0908L93.7944 60.3273ZM98.1432 61.4895L94.1638 75.9534L92.2052 75.413L96.1859 60.9491L98.1432 61.4895Z" fill="#464E58"/>
<path d="M73.3202 57.9823L73.0664 59.8896L65.7043 57.8551L66.4658 56.0749L65.1965 55.6935L61.7693 63.1956L63.2925 63.5771L63.8003 62.3055L72.3048 64.5943L72.0509 65.8659L73.5741 66.2473L74.4626 58.1094L73.3202 57.9823ZM64.308 61.1611L65.3234 58.618L72.9394 60.6525L72.5586 63.3228L64.308 61.1611ZM79.0322 54.9306L79.9207 55.1849L80.4285 53.4047L79.1591 53.0232L80.1746 49.3358L75.4781 48.0642L71.924 49.9715L69.6392 46.5384L65.0696 45.1396L64.0541 48.8271L62.7848 48.5728L62.2771 50.2258L63.1656 50.4801L60.5 53.4047L62.1501 53.7862L62.9117 54.0405L64.6888 54.5491L65.4504 54.6762L67.2274 55.1849L68.116 55.4392L69.7661 55.9478L70.6546 56.2021L72.3048 56.5836L73.1933 56.8379L74.9704 57.3465L75.7319 57.6008L77.509 57.9823L78.2706 58.2366L79.9207 58.7452L79.0322 54.9306Z" fill="#464E58"/>
<path d="M72.0497 49.2086L75.4769 47.4284L80.3003 48.8271L82.712 40.1806L77.2539 36.4931C77.3809 36.366 77.3809 36.2388 77.3809 36.1117C77.6347 35.2216 77.127 34.3315 76.2385 34.0772C75.3499 33.8229 74.4614 34.3315 74.2075 35.2216V35.603L67.607 35.9845L65.1953 44.5039L70.0188 45.9026L72.0497 49.2086ZM72.5574 47.6827C72.0497 47.5556 71.7958 47.047 71.9228 46.5383C72.0497 46.0297 72.5574 45.7754 73.0652 45.9026C73.5729 46.0297 73.8267 46.5383 73.6998 47.047C73.446 47.5556 72.9382 47.8099 72.5574 47.6827ZM81.3158 40.8164L79.6657 46.6655L73.5729 45.0125L75.223 39.1634L81.3158 40.8164ZM68.4956 37.1289L74.5883 38.7819L72.8113 44.7582L66.7185 43.1052L68.4956 37.1289Z" fill="#464E58"/>
<path d="M102.524 37.291L136.419 46.6496L135.912 48.4883L102.018 39.1297L102.524 37.291ZM100.997 43.0257L134.892 52.3843L134.385 54.2229L100.492 44.8643L100.997 43.0257ZM99.47 48.7604L133.365 58.1189L132.86 59.9576L98.9648 50.599L99.47 48.7604ZM105.775 56.6579L123.762 61.6246L123.257 63.4633L105.27 58.4966L105.775 56.6579Z" fill="white"/>
<path d="M47.0373 86.2363L127.406 134.198L102.004 176.909L21.6367 128.948L47.0373 86.2363Z" fill="#7CCEDC"/>
<path d="M48.5555 93.0039L81.1607 112.461L60.9568 146.434L28.3516 126.977L48.5555 93.0039Z" fill="white"/>
<path d="M68.8782 118.762L69.8937 117.109L67.9897 115.965L68.2436 115.583C68.3705 115.329 68.3705 114.82 67.9897 114.693L66.7204 113.93L58.3428 128.044L59.7391 125.756L47.1727 118.254L53.9001 106.937L66.4665 114.439L67.6089 112.404L55.0425 104.902L54.154 106.301L52.8847 105.538C52.6308 105.411 52.1231 105.411 51.9961 105.792L51.7423 106.174L49.8383 105.029L48.8228 106.683L47.9343 106.174L45.3956 110.37L47.4266 111.642L49.9652 107.445L49.0767 106.937L49.8383 105.665L51.4884 106.683L41.7146 123.085C41.5877 123.34 41.5877 123.848 41.9685 123.976L42.2223 124.103L41.0799 126.137C40.953 126.264 41.0799 126.391 41.2069 126.519L43.8724 128.172C43.9994 128.299 44.1263 128.172 44.2532 128.044L45.3956 126.01L53.6463 130.969L52.5039 132.876C52.3769 133.004 52.5039 133.131 52.6308 133.258L55.2964 134.911C55.4233 135.038 55.5503 134.911 55.6772 134.784L56.8196 132.749L57.0735 132.876C57.3273 133.004 57.8351 133.004 57.962 132.622L67.7358 116.346L69.386 117.364L68.6244 118.635L67.7358 118.126L65.1972 122.323L67.2281 123.594L69.7668 119.398L68.8782 118.762ZM57.2004 130.206C56.8196 130.842 56.058 130.969 55.5503 130.588C54.9156 130.206 54.7887 129.443 55.1695 128.935C55.5503 128.299 56.3119 128.172 56.8196 128.553C57.3273 128.807 57.5812 129.57 57.2004 130.206ZM46.0303 122.068C46.665 122.45 46.7919 123.213 46.4111 123.721C46.0303 124.357 45.2687 124.484 44.761 124.103C44.1263 123.721 43.9994 122.958 44.3802 122.45C44.761 121.941 45.5226 121.687 46.0303 122.068Z" fill="#464E58"/>
<path d="M79.6047 129.171L109.812 147.198L108.837 148.837L78.6311 130.81L79.6047 129.171ZM76.675 134.314L106.881 152.341L105.906 153.98L75.7002 135.953L76.675 134.314ZM73.6337 139.393L103.84 157.42L102.866 159.059L72.6602 141.032L73.6337 139.393ZM77.6816 148.701L93.712 158.268L92.7371 159.907L76.7068 150.34L77.6816 148.701Z" fill="white"/>
<path d="M89.1909 124.103L86.6522 128.299L85.8906 127.791L88.4293 123.594L86.9061 122.704L87.4138 121.941L91.2218 124.23L90.7141 124.993L89.1909 124.103ZM92.1103 124.739L92.9989 125.247L90.0794 130.206L89.1909 129.698L92.1103 124.739ZM94.1413 131.605C94.3951 131.732 94.649 131.859 95.0298 131.859C95.2837 131.859 95.6645 131.859 95.9183 131.732L96.1722 132.622C95.2837 132.877 94.5221 132.75 93.7605 132.368C92.9989 131.859 92.4911 131.351 92.3642 130.461C92.1103 129.698 92.2373 128.935 92.745 128.172C93.1258 127.409 93.7605 126.9 94.649 126.773C95.5375 126.646 96.2991 126.773 97.0607 127.155C97.8223 127.663 98.33 128.299 98.457 129.189L97.5685 129.444C97.4415 129.062 97.3146 128.808 97.1876 128.553C97.0607 128.299 96.8069 128.172 96.553 127.918C96.0453 127.663 95.5375 127.536 95.0298 127.663C94.5221 127.791 94.0143 128.045 93.7605 128.553C93.5066 129.062 93.3797 129.571 93.5066 130.079C93.3797 130.969 93.6335 131.351 94.1413 131.605ZM99.5994 129.189L100.488 129.698L99.0916 132.114L102.773 131.097L103.788 131.732L100.488 132.75L100.869 136.818L99.8532 136.183L99.4724 132.877L98.33 133.258L97.4415 134.657L96.6799 134.148L99.5994 129.189ZM108.104 134.275L107.596 135.038L104.931 133.512L104.169 134.784L106.581 136.183L106.073 136.946L103.661 135.547L102.9 136.946L105.692 138.599L105.184 139.362L101.63 137.2L104.55 132.241L108.104 134.275ZM110.769 136.818L108.231 141.015L107.342 140.506L109.881 136.31L108.358 135.42L108.865 134.657L112.673 136.946L112.166 137.709L110.769 136.818Z" fill="#464E58"/>
<path d="M79.543 76.293H173.093V126.01H79.543V76.293Z" fill="#FDDA7F"/>
<path d="M84.3633 81.3789H122.316V120.924H84.3633V81.3789Z" fill="white"/>
<path d="M117.117 103.25V101.47L112.293 99.0537V98.418C112.293 97.7822 112.166 97.2736 112.166 96.8921C112.166 96.8921 112.166 96.765 112.039 96.765H110.897C110.897 96.765 110.77 96.765 110.77 96.8921C110.643 97.2736 110.643 97.655 110.643 98.1637L106.327 96.002C106.2 88.4999 104.931 85.8297 103.408 85.8297C101.885 85.8297 100.615 88.4999 100.489 96.002L96.6805 97.9094C96.6805 97.5279 96.5536 97.1464 96.5536 96.8921C96.5536 96.8921 96.5536 96.765 96.4267 96.765H95.2843C95.2843 96.765 95.1573 96.765 95.1573 96.8921C95.0304 97.2736 95.0304 97.9094 95.0304 98.418V98.7994L89.6992 101.47V103.25L100.615 101.597C100.742 105.284 101.123 108.972 101.631 111.769L96.9344 114.185V115.075L102.139 114.312C102.519 115.711 102.9 116.474 103.408 116.474C103.916 116.474 104.296 115.711 104.677 114.312L109.882 115.075V114.185L105.185 111.769C105.693 108.972 106.074 105.284 106.2 101.597L117.117 103.25ZM143.265 82.3965H167.89V84.6853H143.265V82.3965ZM143.265 87.2284H167.89V91.043H143.265V87.2284ZM143.265 92.696H167.89V93.4589H143.265V92.696ZM143.265 99.1809H167.89V99.9438H143.265V99.1809ZM143.265 95.112H167.89V97.0193H143.265V95.112Z" fill="#464E58"/>
<path d="M143.262 102.359H167.887V104.648H143.262V102.359ZM143.262 107.191H167.887V111.006H143.262V107.191ZM143.262 112.659H167.887V113.422H143.262V112.659ZM143.262 119.144H167.887V119.907H143.262V119.144ZM143.262 115.075H167.887V116.982H143.262V115.075Z" fill="#464E58"/>
</svg>
