<svg width="196" height="196" viewBox="0 0 196 196" fill="none" xmlns="http://www.w3.org/2000/svg">
<path d="M148.619 44.1982L84.9324 107.885C82.2796 110.537 77.9785 110.537 75.3258 107.885L61.3058 93.8647C58.653 91.2119 58.653 86.9109 61.3058 84.2581L124.992 20.5717C127.645 17.9189 131.946 17.9189 134.599 20.5717L148.619 34.5917C151.272 37.2444 151.272 41.5455 148.619 44.1982ZM69.7204 123.097L44.1992 148.618C41.5464 151.271 37.2454 151.271 34.5926 148.618L20.5726 134.598C17.9199 131.945 17.9199 127.644 20.5726 124.991L46.0939 99.47C48.7466 96.8172 53.0477 96.8172 55.7004 99.47L69.7204 113.49C72.3732 116.143 72.3732 120.444 69.7204 123.097ZM191.466 109.175L149.62 151.021C146.967 153.674 142.666 153.674 140.013 151.021L125.993 137.001C123.34 134.349 123.34 130.048 125.993 127.395L167.84 85.5481C170.493 82.8953 174.794 82.8953 177.446 85.5481L191.466 99.568C194.119 102.221 194.119 106.522 191.466 109.175ZM134.697 165.944L109.176 191.465C106.523 194.118 102.222 194.118 99.569 191.465L85.549 177.445C82.8963 174.793 82.8963 170.492 85.549 167.839L111.07 142.318C113.723 139.665 118.024 139.665 120.677 142.318L134.697 156.338C137.35 158.99 137.35 163.291 134.697 165.944ZM70.0098 68.8952L28.163 110.742C25.5102 113.395 21.2092 113.395 18.5564 110.742L4.53646 96.722C1.88368 94.0692 1.88368 89.7682 4.53646 87.1154L46.3833 45.2686C49.0361 42.6158 53.3371 42.6158 55.9899 45.2686L70.0098 59.2886C72.6626 61.9414 72.6626 66.2424 70.0098 68.8952ZM61.5952 30.0567L87.1164 4.53549C89.7692 1.8827 94.0702 1.8827 96.723 4.53549L110.743 18.5555C113.396 21.2083 113.396 25.5093 110.743 28.1621L85.2218 53.6833C82.569 56.336 78.268 56.336 75.6152 53.6833L61.5952 39.6633C58.9424 37.0105 58.9424 32.7095 61.5952 30.0567ZM134.842 111.887L71.1552 175.574C68.5024 178.227 64.2014 178.227 61.5486 175.574L47.5286 161.554C44.8759 158.901 44.8759 154.6 47.5286 151.947L111.215 88.2608C113.868 85.608 118.169 85.608 120.822 88.2608L134.842 102.281C137.494 104.934 137.494 109.235 134.842 111.887ZM126.427 73.0489L151.948 47.5277C154.601 44.8749 158.902 44.8749 161.555 47.5277L175.575 61.5477C178.228 64.2005 178.228 68.5015 175.575 71.1543L150.054 96.6755C147.401 99.3283 143.1 99.3283 140.447 96.6755L126.427 82.6555C123.774 80.0027 123.774 75.7017 126.427 73.0489Z" fill="#FFF0C2"/>
<path d="M58.01 123.025C58.01 126.821 54.9342 129.897 51.1384 129.897C47.3425 129.897 44.2578 126.821 44.2578 123.025C44.2578 119.229 47.3425 116.153 51.1384 116.153C54.9342 116.153 58.01 119.229 58.01 123.025Z" fill="#FC6559"/>
<path d="M140.412 162.813C128.912 151.247 111.403 143.822 91.7136 143.822C72.0152 143.822 54.5021 151.247 43 162.813H140.412Z" fill="#F9B938"/>
<path d="M103.362 144.71C99.5948 144.125 95.7002 143.82 91.7166 143.82C87.0711 143.82 82.5402 144.239 78.1875 145.016C97.622 103.296 83.3802 64.8086 83.3802 64.8086H91.3602C108.784 93.4704 106.353 127.21 103.362 144.71Z" fill="white"/>
<path d="M151.568 162.813C145.868 154.881 137.188 149.789 127.429 149.789C117.664 149.789 108.983 154.881 103.281 162.813H151.568Z" fill="#F9B938"/>
<path d="M48.1867 99.0675C47.1646 99.7831 45.7282 99.3628 45.2679 98.2032C40.94 87.3004 44.4435 74.4734 54.4629 67.4588C65.1776 59.9573 79.573 61.7212 88.2419 71.0244L48.1867 99.0675Z" fill="#5BC658"/>
<path d="M44.6908 44.4669C43.615 43.8557 43.3642 42.3891 44.2063 41.4826C52.1968 32.8799 65.2987 30.5343 75.9414 36.5809C87.3137 43.042 91.8952 56.8024 87.2099 68.6239L44.6908 44.4669ZM129.998 99.0672C131.021 99.7827 132.457 99.3624 132.917 98.2028C137.245 87.3 133.742 74.473 123.722 67.4584C113.008 59.9569 98.6122 61.7208 89.9432 71.024L129.998 99.0672Z" fill="#5BC658"/>
<path d="M133.494 44.4669C134.57 43.8557 134.821 42.3891 133.979 41.4826C125.988 32.8799 112.886 30.5343 102.244 36.5809C90.8713 43.042 86.2898 56.8024 90.9751 68.6239L133.494 44.4669Z" fill="#5BC658"/>
<path d="M91.2487 72.9801C91.2487 76.6986 88.2283 79.7047 84.5097 79.7047C80.7913 79.7047 77.7852 76.6986 77.7852 72.9801C77.7852 69.2616 80.7913 66.2412 84.5097 66.2412C88.2283 66.2412 91.2487 69.2616 91.2487 72.9801Z" fill="#F9B938"/>
<path d="M103.512 71.4372C103.512 75.4021 100.291 78.6073 96.3263 78.6073C92.3615 78.6073 89.1562 75.4021 89.1562 71.4372C89.1562 67.4724 92.3615 64.252 96.3263 64.252C100.291 64.2519 103.512 67.4724 103.512 71.4372Z" fill="#F9B938"/>
<path d="M126.887 125.767C124.218 125.767 122.055 123.604 122.055 120.935C122.055 118.266 124.218 116.104 126.887 116.104C127.427 116.104 127.956 116.196 128.44 116.368C128.428 116.288 128.428 116.196 128.428 116.115C128.428 113.446 130.591 111.283 133.26 111.283C135.929 111.283 138.08 113.446 138.08 116.115C138.08 116.161 138.08 116.207 138.069 116.253C138.437 116.15 138.828 116.104 139.219 116.104C141.888 116.104 144.051 118.266 144.051 120.935C144.051 123.604 141.888 125.767 139.219 125.767L126.887 125.767Z" fill="white"/>
<path d="M144.052 120.937C144.052 123.609 141.889 125.772 139.217 125.772H126.888C124.763 125.772 122.969 124.41 122.32 122.502C122.893 122.743 123.516 122.871 124.165 122.871H136.494C139.167 122.871 141.329 120.708 141.329 118.036C141.329 117.489 141.24 116.954 141.062 116.471C142.818 117.196 144.052 118.914 144.052 120.937Z" fill="#E4E3FF"/>
<path d="M156.488 161.541H152.201C152.2 161.539 152.199 161.537 152.197 161.535C146.024 153.25 137.026 148.515 127.43 148.515C125.712 148.515 124.019 148.668 122.365 148.961C122.351 148.963 122.337 148.967 122.324 148.97C116.851 146.514 110.967 144.713 104.82 143.661C108.241 122.565 107.397 99.62 99.8553 79.5063L99.8754 79.5209C146.038 111.88 73.2187 60.864 129.263 100.114C131.076 101.35 133.389 100.502 134.099 98.6754C138.77 86.9281 134.799 73.6535 124.452 66.4117C118.826 62.479 112.094 60.9772 105.641 61.7536C148.655 37.3425 102.251 63.6802 134.124 45.5772C135.941 44.5353 136.288 42.0939 134.914 40.6136C126.297 31.3481 112.603 29.2354 101.619 35.4717C95.3827 39.0099 91.0554 44.7754 89.0954 51.2791C87.1354 44.7754 82.8081 39.0099 76.5718 35.4717C65.5754 29.2354 51.8809 31.3481 43.2772 40.6136C41.8877 42.1099 42.2377 44.5285 44.0663 45.5772C46.6845 47.073 72.4146 61.6768 72.5499 61.7536C66.0845 60.9772 59.3645 62.479 53.7391 66.4117C43.3918 73.6535 39.4209 86.9281 44.0918 98.6754C44.8167 100.54 47.164 101.335 48.9154 100.114C54.8701 95.9426 78.9616 79.0673 79.1681 78.9226C80.5808 80.2081 82.4518 80.9717 84.5136 80.9717C84.9461 80.9717 85.3784 80.9337 85.7857 80.8573C88.0103 95.6681 88.5912 119.264 77.2989 143.895C63.7891 146.45 51.5777 152.573 42.4915 161.541H30.9094C30.206 161.541 29.6367 162.11 29.6367 162.813C29.6367 163.517 30.206 164.086 30.9094 164.086C50.7402 164.086 137.018 164.086 156.488 164.086C157.192 164.086 157.761 163.517 157.761 162.813C157.761 162.11 157.192 161.541 156.488 161.541ZM148.965 161.535H105.883C111.508 154.854 119.234 151.061 127.43 151.061C135.614 151.061 143.339 154.854 148.965 161.535ZM96.3245 65.5209C99.5827 65.5209 102.243 68.1808 102.243 71.439C102.243 74.6301 99.6305 77.3317 96.3245 77.3317C94.67 77.3317 93.1554 76.6445 92.099 75.5245C91.0681 74.4681 90.4317 73.0299 90.4317 71.439C90.4317 68.2259 93.0358 65.5209 96.3245 65.5209ZM122.988 68.499C132.368 75.0663 135.957 87.0809 131.732 97.7336C131.574 98.129 131.076 98.2682 130.726 98.0263L123.339 92.8513L126.819 87.8803C127.222 87.3048 127.082 86.5106 126.506 86.1079C125.933 85.7052 125.136 85.8444 124.733 86.4211L121.253 91.3924L112.704 85.4136L112.7 85.4103L116.185 80.4341C116.587 79.8586 116.448 79.0657 115.871 78.6617C115.298 78.259 114.502 78.3982 114.099 78.9749L110.616 83.9489L102.07 77.9591C102.159 77.8316 105.638 72.8616 105.549 72.9891C105.952 72.4137 105.813 71.6195 105.236 71.2168C105.093 71.1166 104.936 71.0503 104.775 71.0157C104.66 68.6752 103.591 66.5765 101.937 65.1136C108.925 63.0644 116.714 64.1081 122.988 68.499ZM102.879 37.6863C112.765 32.0511 125.199 33.8972 133.043 42.3445C133.338 42.6611 133.229 43.1542 132.865 43.3627L125.024 47.8172L125.017 47.8212L122.019 42.5437C121.673 41.9335 120.898 41.7203 120.284 42.0658C119.672 42.4132 119.458 43.19 119.806 43.8015L122.806 49.0797L113.735 54.2318L113.73 54.2347L110.732 48.9571C110.387 48.3462 109.612 48.1343 108.997 48.4792C108.385 48.8266 108.172 49.6034 108.52 50.2149L111.518 55.4933L102.446 60.6463L102.442 60.6486L99.4441 55.3698C99.0986 54.7596 98.323 54.5464 97.709 54.8919C97.0975 55.2393 96.8837 56.0161 97.2317 56.627L100.231 61.9069L98.03 63.1535C97.4827 63.039 96.91 62.9754 96.3245 62.9754C94.3645 62.9754 92.5573 63.6499 91.1318 64.7827C88.6372 54.3208 93.2954 43.1208 102.879 37.6863ZM66.67 55.4918L69.6667 50.2149C70.0147 49.6034 69.801 48.8266 69.1895 48.4792C68.5767 48.1324 67.7987 48.3456 67.4544 48.9571L64.4574 54.2329L64.4554 54.2318L55.3819 49.0778L58.38 43.8015C58.728 43.19 58.5142 42.4132 57.9027 42.0658C57.2875 41.7184 56.5131 41.9322 56.1676 42.5437L53.1701 47.8193L53.1663 47.8172L45.3263 43.3626C45.3263 43.3626 45.3263 43.3626 45.3136 43.3626C44.9666 43.1643 44.8578 42.6648 45.1354 42.3445C52.9352 33.9669 65.3443 32.0048 75.3117 37.6863C85.0609 43.2099 89.7318 54.7153 86.9445 65.3427C86.1809 65.1009 85.3663 64.9735 84.5136 64.9735C84.17 64.9735 83.8263 64.999 83.4954 65.05L77.959 61.9063L77.9568 61.9051L80.9547 56.627C81.3027 56.0161 81.089 55.2393 80.4775 54.8919C79.8622 54.5445 79.0879 54.7583 78.7424 55.3698L75.7453 60.6468L66.67 55.4918ZM47.4518 98.0263C47.0924 98.2658 46.5989 98.115 46.4463 97.7336C42.2208 87.0809 45.8227 75.0663 55.1899 68.499C59.4281 65.5335 64.3536 64.0827 69.2663 64.0827C72.9064 64.0827 76.5081 64.9099 79.83 66.4881C77.8191 67.939 76.5081 70.3063 76.5081 72.979C76.5081 73.4117 76.5463 73.8317 76.6227 74.239C76.6231 74.2415 76.6241 74.2438 76.6245 74.2463L74.7228 71.53C74.3201 70.9533 73.5234 70.8153 72.9505 71.2168C72.3737 71.6195 72.2346 72.4137 72.6373 72.9891L76.1181 77.9611L67.5736 83.9499L67.5721 83.951L64.0874 78.9749C63.6847 78.3982 62.888 78.259 62.315 78.6617C61.7383 79.0657 61.5991 79.8586 62.0018 80.4341L65.4821 85.4039L56.9349 91.3944L53.4531 86.4211C53.0504 85.8444 52.2537 85.7052 51.6807 86.1079C51.104 86.5106 50.9648 87.3048 51.3675 87.8803L54.8449 92.8473L47.4518 98.0263ZM79.0536 72.979C79.0536 69.9627 81.4972 67.519 84.5136 67.519C85.9518 67.519 87.2627 68.079 88.2427 69.0081C88.0136 69.7717 87.8863 70.599 87.8863 71.439C87.8863 73.0554 88.3445 74.5699 89.1464 75.8554C88.1791 77.3953 86.4608 78.4263 84.5136 78.4263C81.4972 78.4263 79.0536 75.9826 79.0536 72.979ZM80.3271 143.379C81.6911 140.274 82.8693 137.188 83.8893 134.135H91.8326C92.536 134.135 93.1053 133.565 93.1053 132.862C93.1053 132.159 92.536 131.589 91.8326 131.589H84.7068C87.535 122.374 88.9155 113.508 89.4047 105.401H96.0099C96.7134 105.401 97.2827 104.832 97.2827 104.129C97.2827 103.425 96.7134 102.856 96.0099 102.856H89.5332C89.8722 94.0777 89.1913 86.2892 88.2338 80.0531C89.2631 79.5188 90.1526 78.7688 90.839 77.8536C92.3154 79.1136 94.2245 79.8772 96.3245 79.8772C96.6402 79.8772 96.9432 79.8641 97.2463 79.8267C98.5952 83.3527 99.7083 86.8973 100.617 90.432L94.7671 90.8222C94.0661 90.8695 93.5353 91.476 93.5813 92.177C93.6261 92.8494 94.1854 93.3652 94.8503 93.3652C94.8789 93.3652 94.9075 93.3639 94.9361 93.3627L101.24 92.9422C103.178 101.341 104.005 109.602 104.161 117.256H95.0728C94.3693 117.256 93.8001 117.825 93.8001 118.529C93.8001 119.232 94.3693 119.802 95.0728 119.802H104.191C104.206 128.894 103.326 137.016 102.313 143.27C94.9476 142.253 87.3531 142.347 80.3271 143.379ZM46.1859 161.541C65.1142 144.541 94.6489 140.793 118.231 150.016C118.23 150.017 118.229 150.017 118.228 150.017C112.208 152.015 106.786 155.974 102.65 161.535C102.649 161.537 102.648 161.539 102.646 161.541C95.955 161.541 52.2775 161.541 46.1859 161.541Z" fill="black"/>
<path d="M42.9838 123.023C42.9838 127.516 46.6365 131.168 51.1419 131.168C55.6347 131.168 59.2874 127.516 59.2874 123.023C59.2874 118.53 55.6347 114.877 51.1419 114.877C46.6365 114.877 42.9838 118.53 42.9838 123.023ZM51.142 117.423C54.222 117.423 56.742 119.943 56.742 123.023C56.742 126.116 54.222 128.623 51.142 128.623C48.0492 128.623 45.5293 126.116 45.5293 123.023C45.5292 119.943 48.0492 117.423 51.142 117.423ZM52.4071 111.215V108.746C52.4071 108.043 51.8379 107.474 51.1344 107.474C50.4309 107.474 49.8617 108.043 49.8617 108.746V111.215C49.8617 111.918 50.4309 112.487 51.1344 112.487C51.8379 112.487 52.4071 111.918 52.4071 111.215ZM41.8835 115.574C42.3807 116.071 43.1861 116.071 43.6832 115.574C44.1804 115.076 44.1804 114.27 43.6832 113.774L41.9369 112.029C41.4398 111.532 40.6344 111.532 40.1372 112.029C39.6401 112.526 39.6401 113.333 40.1372 113.829L41.8835 115.574ZM36.8548 124.297H39.3244C40.0278 124.297 40.5971 123.728 40.5971 123.025C40.5971 122.321 40.0278 121.752 39.3244 121.752H36.8548C36.1513 121.752 35.582 122.321 35.582 123.025C35.582 123.728 36.1513 124.297 36.8548 124.297ZM41.8835 130.476L40.1372 132.222C39.6401 132.719 39.6401 133.525 40.1372 134.022C40.6344 134.519 41.4398 134.519 41.9369 134.022L43.6832 132.276C44.1804 131.778 44.1804 130.973 43.6832 130.476C43.1861 129.979 42.3807 129.979 41.8835 130.476ZM49.8617 134.835V137.304C49.8617 138.008 50.4309 138.577 51.1344 138.577C51.8379 138.577 52.4071 138.008 52.4071 137.304V134.835C52.4071 134.131 51.8379 133.562 51.1344 133.562C50.4309 133.562 49.8617 134.131 49.8617 134.835ZM58.5856 130.476C58.0884 130.972 58.0884 131.779 58.5856 132.276L60.3306 134.022C60.8277 134.519 61.6332 134.519 62.1303 134.022C62.6275 133.526 62.6275 132.719 62.1303 132.222L60.3853 130.476C59.8881 129.979 59.0827 129.979 58.5856 130.476ZM65.4128 124.297C66.1163 124.297 66.6856 123.728 66.6856 123.025C66.6856 122.321 66.1163 121.752 65.4128 121.752H62.9444C62.241 121.752 61.6717 122.321 61.6717 123.025C61.6717 123.728 62.241 124.297 62.9444 124.297H65.4128ZM60.3306 112.029L58.5856 113.774C58.0884 114.271 58.0884 115.076 58.5856 115.574C59.0827 116.071 59.8881 116.071 60.3853 115.574L62.1303 113.829C62.6275 113.331 62.6275 112.526 62.1303 112.029C61.6332 111.532 60.8278 111.532 60.3306 112.029ZM127.289 114.839C127.149 114.839 127.022 114.827 126.882 114.827C123.522 114.827 120.786 117.576 120.786 120.936C120.786 124.296 123.522 127.045 126.882 127.045H139.215C142.587 127.045 145.324 124.296 145.324 120.936C145.324 117.576 142.575 114.827 139.215 114.827C138.629 112.077 136.186 110.016 133.258 110.016C130.331 110.016 127.875 112.09 127.289 114.839ZM136.809 116.087C136.695 116.97 137.522 117.736 138.413 117.474C138.655 117.41 138.922 117.372 139.215 117.372C141.187 117.372 142.778 118.976 142.778 120.936C142.778 122.896 141.187 124.499 139.215 124.499H126.882C124.922 124.499 123.331 122.896 123.331 120.936C123.331 118.976 124.922 117.372 126.882 117.372C127.277 117.372 127.658 117.448 128.015 117.563C128.855 117.869 129.842 117.142 129.695 116.112C129.695 114.152 131.298 112.561 133.258 112.561C135.206 112.561 136.784 114.127 136.809 116.087Z" fill="black"/>
</svg>
