<svg width="196" height="196" viewBox="0 0 196 196" fill="none" xmlns="http://www.w3.org/2000/svg">
<path d="M148.618 44.1982L84.9313 107.885C82.2785 110.537 77.9775 110.537 75.3247 107.885L61.3048 93.8646C58.652 91.2118 58.652 86.9108 61.3048 84.258L124.991 20.5716C127.644 17.9188 131.945 17.9188 134.598 20.5716L148.618 34.5916C151.271 37.2444 151.271 41.5454 148.618 44.1982ZM69.7194 123.097L44.1982 148.618C41.5454 151.271 37.2444 151.271 34.5916 148.618L20.5716 134.598C17.9188 131.945 17.9188 127.644 20.5716 124.991L46.0928 99.4699C48.7456 96.8171 53.0466 96.8171 55.6994 99.4699L69.7194 113.49C72.3722 116.143 72.3722 120.444 69.7194 123.097ZM191.465 109.175L149.619 151.021C146.966 153.674 142.665 153.674 140.012 151.021L125.992 137.001C123.339 134.349 123.339 130.048 125.992 127.395L167.839 85.548C170.492 82.8952 174.793 82.8952 177.445 85.548L191.465 99.568C194.118 102.221 194.118 106.522 191.465 109.175ZM134.696 165.944L109.175 191.465C106.522 194.118 102.221 194.118 99.568 191.465L85.548 177.445C82.8952 174.793 82.8952 170.492 85.548 167.839L111.069 142.318C113.722 139.665 118.023 139.665 120.676 142.318L134.696 156.338C137.349 158.99 137.349 163.291 134.696 165.944Z" fill="#FFC9C9"/>
<path d="M70.0098 68.8952L28.163 110.742C25.5102 113.395 21.2092 113.395 18.5564 110.742L4.53646 96.722C1.88368 94.0692 1.88368 89.7682 4.53646 87.1154L46.3833 45.2686C49.0361 42.6158 53.3371 42.6158 55.9899 45.2686L70.0098 59.2886C72.6626 61.9414 72.6626 66.2424 70.0098 68.8952ZM61.5952 30.0567L87.1164 4.53549C89.7692 1.8827 94.0702 1.8827 96.723 4.53549L110.743 18.5555C113.396 21.2083 113.396 25.5093 110.743 28.1621L85.2218 53.6833C82.569 56.336 78.268 56.336 75.6152 53.6833L61.5952 39.6633C58.9424 37.0105 58.9424 32.7095 61.5952 30.0567Z" fill="#FFC9C9"/>
<path d="M134.842 111.887L71.1552 175.574C68.5024 178.227 64.2014 178.227 61.5486 175.574L47.5287 161.554C44.8759 158.901 44.8759 154.6 47.5287 151.947L111.215 88.2608C113.868 85.608 118.169 85.608 120.822 88.2608L134.842 102.281C137.494 104.934 137.494 109.235 134.842 111.887ZM126.427 73.0489L151.948 47.5277C154.601 44.8749 158.902 44.8749 161.555 47.5277L175.575 61.5477C178.228 64.2005 178.228 68.5015 175.575 71.1543L150.054 96.6755C147.401 99.3283 143.1 99.3283 140.447 96.6755L126.427 82.6555C123.774 80.0027 123.774 75.7017 126.427 73.0489Z" fill="#FFC9C9"/>
<path d="M131.954 148.642V119.588C131.954 111.142 125.108 104.295 116.662 104.295H66.2928C57.8468 104.295 51 111.142 51 119.588V148.642H131.954Z" fill="white"/>
<path d="M131.953 119.581V126.259C131.953 117.812 125.113 110.973 116.666 110.973H66.2971C57.8506 110.973 50.9961 117.812 50.9961 126.259V119.581C50.9961 111.135 57.8506 104.295 66.2971 104.295H116.666C125.113 104.295 131.953 111.135 131.953 119.581Z" fill="#E4E3FF"/>
<path d="M142.73 150.718V159.071H40.2266V150.718C40.2266 132.575 54.9345 117.867 73.0777 117.867H109.879C128.022 117.867 142.73 132.575 142.73 150.718Z" fill="#F9B938"/>
<path d="M142.73 150.713V159.071H40.2227V153.779H127.253C131.86 153.779 135.596 150.044 135.596 145.436C135.596 136.208 131.793 127.85 125.646 121.895C135.832 127.467 142.73 138.286 142.73 150.713Z" fill="#E5A320"/>
<path d="M72.9492 117.864V159.092H62.4844V119.607C65.7672 118.491 69.2839 117.875 72.9492 117.864ZM120.472 119.607V159.092H110.007V117.864C113.672 117.875 117.189 118.491 120.472 119.607Z" fill="white"/>
<path d="M72.9498 117.859V159.09H62.4883V155.136H64.6299C66.9109 155.136 68.7599 153.287 68.7599 151.006V118.147C70.1347 117.964 71.5227 117.859 72.9498 117.859ZM120.479 119.601V159.09H110.004V155.136H112.159C114.44 155.136 116.289 153.287 116.289 151.006V118.488C117.729 118.763 119.117 119.143 120.479 119.601Z" fill="#E4E3FF"/>
<path d="M76.6484 136.604V143.502C76.6484 144.479 75.8565 145.271 74.8797 145.271H60.5577C59.5809 145.271 58.7891 144.479 58.7891 143.502V136.604C58.7891 135.627 59.5809 134.835 60.5577 134.835H74.8797C75.8565 134.835 76.6484 135.627 76.6484 136.604Z" fill="#FC6559"/>
<path d="M76.6537 136.609V143.496C76.6537 144.478 75.855 145.277 74.873 145.277H60.5619C59.5799 145.277 58.7812 144.478 58.7812 143.496V141.244H71.8746C72.8566 141.244 73.6422 140.458 73.6422 139.476V134.828H74.873C75.855 134.828 76.6537 135.627 76.6537 136.609Z" fill="#E24B40"/>
<path d="M136.416 69.836H123.693V68.4149C123.693 65.8678 123.385 63.3875 122.809 61.0146H126.241C129.297 61.0146 132.22 62.248 134.365 64.4198L137.381 67.5033C138.239 68.3747 137.623 69.836 136.416 69.836Z" fill="#A2A2F9"/>
<path d="M123.695 68.4142V69.8352H60.6719V68.4142C60.6719 51.0127 74.7753 36.9092 92.1769 36.9092C100.878 36.9092 108.761 40.4351 114.458 46.1328C120.169 51.8439 123.695 59.7134 123.695 68.4142Z" fill="#A2A2F9"/>
<path d="M123.695 68.4142V69.8352H60.6719V68.4142C60.6719 51.0127 74.7753 36.9092 92.1769 36.9092C100.878 36.9092 108.761 40.4351 114.458 46.1328C120.169 51.8439 123.695 59.7134 123.695 68.4142Z" fill="#A2A2F9"/>
<path d="M123.7 68.415V69.83H60.668V68.415C60.668 67.221 60.7417 66.0417 60.8744 64.8771H103.534C111.835 64.8771 117.49 56.4898 114.416 48.7793C113.598 46.727 112.674 44.9077 111.657 43.6504C112.644 44.4169 113.573 45.2423 114.457 46.1268C120.177 51.8463 123.7 59.7178 123.7 68.415Z" fill="#5E5EEF"/>
<path d="M101.385 63.5453V69.836H82.9802V63.5453C82.9802 62.1477 84.1132 61.0146 85.5109 61.0146H98.8543C100.252 61.0147 101.385 62.1477 101.385 63.5453ZM100.908 113.749V122.476C100.908 127.679 96.6776 131.895 91.4741 131.895C88.8797 131.895 86.5211 130.834 84.8112 129.138C83.1013 127.428 82.0547 125.085 82.0547 122.476V113.749C85.0029 114.81 88.1722 115.385 91.4741 115.385C94.7908 115.385 97.96 114.81 100.908 113.749Z" fill="white"/>
<path d="M119.407 69.8301V87.4454C119.407 102.879 106.907 115.379 91.473 115.379C83.7634 115.379 76.7763 112.254 71.7202 107.198C66.6641 102.142 63.5391 95.1549 63.5391 87.4454V69.8301H119.407Z" fill="white"/>
<path d="M119.407 69.8301V73.1321C115.309 76.832 109.855 79.1021 103.885 79.1021C97.7672 79.1021 92.21 76.7141 88.0678 72.8373C84.4268 76.9352 79.1201 79.5148 73.209 79.5148C69.686 79.5148 66.3988 78.6009 63.5391 77.0089V69.8301H119.407Z" fill="black"/>
<path d="M124.711 136.604V143.502C124.711 144.479 123.919 145.271 122.942 145.271H108.62C107.643 145.271 106.852 144.479 106.852 143.502V136.604C106.852 135.627 107.643 134.835 108.62 134.835H122.942C123.919 134.835 124.711 135.627 124.711 136.604Z" fill="#FC6559"/>
<path d="M124.716 136.609V143.496C124.716 144.478 123.918 145.277 122.936 145.277H108.624C107.642 145.277 106.844 144.478 106.844 143.496V141.244H119.937C120.919 141.244 121.705 140.458 121.705 139.476V134.828H122.935C123.917 134.828 124.716 135.627 124.716 136.609Z" fill="#E24B40"/>
<path d="M78.1081 92.5043C80.9867 92.5043 83.3295 90.1615 83.3295 87.2829C83.3295 84.3957 80.9867 82.0479 78.1081 82.0479C75.2296 82.0479 72.8867 84.3957 72.8867 87.2829C72.8867 90.1615 75.2296 92.5043 78.1081 92.5043ZM78.1081 84.5933C79.5835 84.5933 80.7841 85.8002 80.7841 87.2829C80.7841 88.7583 79.5835 89.9589 78.1081 89.9589C76.6328 89.9589 75.4322 88.7583 75.4322 87.2829C75.4322 85.8002 76.6328 84.5933 78.1081 84.5933ZM104.159 92.5043C107.038 92.5043 109.381 90.1615 109.381 87.2829C109.381 84.3957 107.038 82.0479 104.159 82.0479C101.279 82.0479 98.9366 84.3957 98.9366 87.2829C98.9366 90.1615 101.279 92.5043 104.159 92.5043ZM104.159 84.5933C105.635 84.5933 106.835 85.8002 106.835 87.2829C106.835 88.7583 105.635 89.9589 104.159 89.9589C102.683 89.9589 101.482 88.7583 101.482 87.2829C101.482 85.8002 102.683 84.5933 104.159 84.5933ZM90.8292 96.6867C91.5327 96.6867 92.1019 96.1174 92.1019 95.414V91.6666C92.1019 90.9632 91.5327 90.3939 90.8292 90.3939C90.1257 90.3939 89.5565 90.9632 89.5565 91.6666V95.414C89.5565 96.1175 90.1257 96.6867 90.8292 96.6867ZM90.8093 106.343C90.813 106.343 90.8168 106.343 90.8205 106.343C93.1124 106.343 95.2676 105.452 96.8871 103.831C97.3842 103.334 97.3842 102.528 96.8871 102.031C96.3899 101.534 95.5845 101.534 95.0874 102.031C93.9476 103.171 92.4325 103.797 90.8205 103.797H90.813C89.2072 103.796 87.7008 103.168 86.571 102.034C86.0751 101.535 85.2697 101.532 84.7713 102.029C84.2729 102.525 84.2704 103.33 84.7663 103.828C86.3759 105.447 88.5224 106.34 90.8093 106.343Z" fill="black"/>
<path d="M148.139 157.819H144.004V150.714C144.004 141.075 139.946 132.163 133.229 125.848V119.587C133.229 110.453 125.798 103.022 116.664 103.022H116.163C118.951 98.6185 120.594 93.4249 120.671 87.8571H121.89C126.072 87.8571 129.475 84.454 129.475 80.2717C129.475 76.0893 126.072 72.6875 121.89 72.6875H120.682V71.109C126.517 71.109 130.857 71.109 136.418 71.109C138.752 71.109 139.933 68.281 138.292 66.6135L135.272 63.5261C132.897 61.1211 129.606 59.7415 126.243 59.7415H123.802C120.051 46.002 107.461 35.6367 92.176 35.6367C74.1017 35.6367 59.3983 50.3402 59.3983 68.4144V69.8363C59.3983 70.5398 59.9675 71.109 60.671 71.109H62.2681V72.6875H61.1271C56.9448 72.6875 53.543 76.0893 53.543 80.2717C53.543 84.454 56.9448 87.8571 61.1271 87.8571H62.2882C62.3634 93.3115 63.931 98.5147 66.786 103.022H66.2951C57.1598 103.022 49.7285 110.453 49.7285 119.587V125.849C43.0125 132.164 38.9551 141.075 38.9551 150.714V157.819H34.4719C33.7685 157.819 33.1992 158.388 33.1992 159.091C33.1992 159.795 33.7685 160.364 34.4719 160.364C99.1445 160.364 83.0994 160.364 148.139 160.364C148.842 160.364 149.411 159.795 149.411 159.091C149.411 158.388 148.842 157.819 148.139 157.819ZM63.7583 120.556C66.3324 119.763 68.9861 119.307 71.6781 119.192V133.562H63.7583V120.556ZM91.475 116.653C94.3075 116.653 97.044 116.239 99.6358 115.484V122.475C99.6358 126.967 95.9755 130.621 91.475 130.621C87.0157 130.621 83.3278 127.029 83.3278 122.475V115.491C85.9434 116.247 88.6766 116.653 91.475 116.653ZM91.475 133.167C97.3787 133.167 102.181 128.371 102.181 122.475V119.137H108.735V133.562H108.618C106.942 133.562 105.577 134.927 105.577 136.604V143.502C105.577 145.178 106.942 146.543 108.618 146.543H108.735V157.797H74.2235V146.543H74.8785C76.5552 146.543 77.9199 145.178 77.9199 143.502V136.604C77.9199 134.927 76.5552 133.562 74.8785 133.562H74.2235V119.137H80.7823V122.475C80.7823 128.434 85.6091 133.167 91.475 133.167ZM119.2 146.543V157.797H111.281V146.543H119.2ZM108.618 143.998C108.345 143.998 108.122 143.775 108.122 143.502V136.604C108.122 136.33 108.345 136.108 108.618 136.108H122.94C123.214 136.108 123.436 136.33 123.436 136.604V143.502C123.436 143.775 123.214 143.998 122.94 143.998H108.618ZM119.2 133.562H111.281V119.192C113.973 119.308 116.627 119.763 119.2 120.556V133.562ZM74.8785 136.108C75.152 136.108 75.3745 136.33 75.3745 136.604V143.502C75.3745 143.775 75.152 143.998 74.8785 143.998H60.5566C60.2832 143.998 60.0607 143.775 60.0607 143.502V136.604C60.0607 136.33 60.2832 136.108 60.5566 136.108H74.8785ZM71.6781 146.543V157.797H63.7583V146.543H71.6781ZM141.458 150.714V157.797H121.746V146.543H122.94C124.617 146.543 125.982 145.178 125.982 143.502V136.604C125.982 134.927 124.617 133.562 122.94 133.562H121.746V121.459C133.602 126.265 141.458 137.791 141.458 150.714ZM116.664 105.567C124.394 105.567 130.683 111.856 130.683 119.587V123.667C124.607 118.989 117.377 116.611 110.008 116.592H102.181V114.611C106.995 112.707 111.184 109.561 114.354 105.567H116.664ZM121.89 75.233C124.669 75.233 126.93 77.4938 126.93 80.2717C126.93 83.0508 124.669 85.3116 121.89 85.3116H120.682V75.2329L121.89 75.233ZM100.113 68.5574H84.2537V63.5447C84.2537 62.8512 84.818 62.2869 85.5115 62.2869H98.8553C99.5488 62.2869 100.113 62.8512 100.113 63.5447L100.113 68.5574ZM126.243 62.2869C128.93 62.2869 131.561 63.3906 133.456 65.3097L136.499 68.5076C136.475 68.5636 136.447 68.5636 136.418 68.5636H124.967C124.915 67.4351 125.018 65.6114 124.392 62.2869L126.243 62.2869ZM61.9437 68.4144C61.9437 51.7447 75.5062 38.1822 92.176 38.1822C108.913 38.1822 122.422 51.7296 122.422 68.4144V68.5636C95.3381 68.5551 104.679 68.558 102.659 68.5574V63.5447C102.659 61.448 100.952 59.7415 98.8553 59.7415H85.5115C83.4148 59.7415 81.7083 61.448 81.7083 63.5447V68.5574C79.9824 68.5579 88.3251 68.5553 61.9437 68.5636V68.4144ZM56.0884 80.2717C56.0884 77.4938 58.3493 75.233 61.1271 75.233H62.2681V85.3116H61.1271C58.3493 85.3116 56.0884 83.0508 56.0884 80.2717ZM64.8136 71.109C84.9281 71.109 100.499 71.109 118.136 71.109C118.136 75.2301 118.136 83.2927 118.136 87.4457C118.136 102.147 106.176 114.107 91.475 114.107C76.7376 114.107 64.8136 102.186 64.8136 87.4457V71.109ZM52.274 119.587C52.274 111.856 58.5643 105.567 66.2951 105.567H68.5878C71.9622 109.813 76.1159 112.786 80.7823 114.62V116.592H72.9471C65.6282 116.611 58.3836 118.965 52.274 123.668V119.587ZM41.5005 150.714C41.5005 137.791 49.357 126.264 61.2129 121.459V133.562H60.5566C58.88 133.562 57.5153 134.927 57.5153 136.604V143.502C57.5153 145.178 58.88 146.543 60.5566 146.543H61.2129V157.797H41.5005V150.714Z" fill="black"/>
</svg>
