<svg width="17" height="17" viewBox="0 0 17 17" fill="none" xmlns="http://www.w3.org/2000/svg">
<path d="M12.1548 8.95364L7.15481 13.9536C7.10835 14.0001 7.0532 14.0369 6.99251 14.0621C6.93181 14.0872 6.86676 14.1002 6.80106 14.1002C6.73536 14.1002 6.67031 14.0872 6.60961 14.0621C6.54891 14.0369 6.49376 14.0001 6.44731 13.9536C6.40085 13.9072 6.364 13.852 6.33886 13.7913C6.31372 13.7306 6.30078 13.6656 6.30078 13.5999C6.30078 13.5342 6.31372 13.4691 6.33886 13.4084C6.364 13.3477 6.40085 13.2926 6.44731 13.2461L11.0942 8.59989L6.44731 3.95364C6.35349 3.85982 6.30078 3.73257 6.30078 3.59989C6.30078 3.46721 6.35349 3.33996 6.44731 3.24614C6.54113 3.15232 6.66838 3.09961 6.80106 3.09961C6.93374 3.09961 7.06099 3.15232 7.15481 3.24614L12.1548 8.24614C12.2013 8.29257 12.2382 8.34772 12.2633 8.40842C12.2885 8.46912 12.3015 8.53418 12.3015 8.59989C12.3015 8.6656 12.2885 8.73066 12.2633 8.79136C12.2382 8.85206 12.2013 8.9072 12.1548 8.95364Z" fill="#0B2C5C"/>
</svg>
