<svg width="17" height="17" viewBox="0 0 17 17" fill="none" xmlns="http://www.w3.org/2000/svg">
<path d="M13.6016 2.80078H12.1016V2.30078C12.1016 2.16817 12.0489 2.041 11.9551 1.94723C11.8613 1.85346 11.7342 1.80078 11.6016 1.80078C11.469 1.80078 11.3418 1.85346 11.248 1.94723C11.1542 2.041 11.1016 2.16817 11.1016 2.30078V2.80078H6.10156V2.30078C6.10156 2.16817 6.04888 2.041 5.95512 1.94723C5.86135 1.85346 5.73417 1.80078 5.60156 1.80078C5.46895 1.80078 5.34178 1.85346 5.24801 1.94723C5.15424 2.041 5.10156 2.16817 5.10156 2.30078V2.80078H3.60156C3.33635 2.80078 3.08199 2.90614 2.89446 3.09367C2.70692 3.28121 2.60156 3.53556 2.60156 3.80078V13.8008C2.60156 14.066 2.70692 14.3204 2.89446 14.5079C3.08199 14.6954 3.33635 14.8008 3.60156 14.8008H13.6016C13.8668 14.8008 14.1211 14.6954 14.3087 14.5079C14.4962 14.3204 14.6016 14.066 14.6016 13.8008V3.80078C14.6016 3.53556 14.4962 3.28121 14.3087 3.09367C14.1211 2.90614 13.8668 2.80078 13.6016 2.80078ZM5.10156 3.80078V4.30078C5.10156 4.43339 5.15424 4.56057 5.24801 4.65433C5.34178 4.7481 5.46895 4.80078 5.60156 4.80078C5.73417 4.80078 5.86135 4.7481 5.95512 4.65433C6.04888 4.56057 6.10156 4.43339 6.10156 4.30078V3.80078H11.1016V4.30078C11.1016 4.43339 11.1542 4.56057 11.248 4.65433C11.3418 4.7481 11.469 4.80078 11.6016 4.80078C11.7342 4.80078 11.8613 4.7481 11.9551 4.65433C12.0489 4.56057 12.1016 4.43339 12.1016 4.30078V3.80078H13.6016V5.80078H3.60156V3.80078H5.10156ZM13.6016 13.8008H3.60156V6.80078H13.6016V13.8008ZM7.60156 8.30078V12.3008C7.60156 12.4334 7.54888 12.5606 7.45512 12.6543C7.36135 12.7481 7.23417 12.8008 7.10156 12.8008C6.96895 12.8008 6.84178 12.7481 6.74801 12.6543C6.65424 12.5606 6.60156 12.4334 6.60156 12.3008V9.10953L6.32531 9.24828C6.20663 9.30762 6.06923 9.31739 5.94335 9.27543C5.81746 9.23347 5.7134 9.14322 5.65406 9.02453C5.59472 8.90585 5.58496 8.76845 5.62692 8.64257C5.66888 8.51668 5.75913 8.41262 5.87781 8.35328L6.87781 7.85328C6.95407 7.81512 7.03882 7.7971 7.12401 7.80093C7.20919 7.80475 7.29198 7.83031 7.36451 7.87515C7.43704 7.91999 7.49689 7.98264 7.53838 8.05714C7.57988 8.13164 7.60162 8.21551 7.60156 8.30078ZM11.2991 10.2039L10.1016 11.8008H11.1016C11.2342 11.8008 11.3613 11.8535 11.4551 11.9472C11.5489 12.041 11.6016 12.1682 11.6016 12.3008C11.6016 12.4334 11.5489 12.5606 11.4551 12.6543C11.3613 12.7481 11.2342 12.8008 11.1016 12.8008H9.10156C9.00871 12.8008 8.91768 12.7749 8.8387 12.7261C8.75971 12.6773 8.69588 12.6074 8.65435 12.5244C8.61282 12.4413 8.59524 12.3484 8.60358 12.2559C8.61192 12.1634 8.64585 12.0751 8.70156 12.0008L10.5003 9.60266C10.5412 9.54819 10.5706 9.48593 10.5866 9.41971C10.6026 9.35349 10.6048 9.28471 10.5933 9.21757C10.5817 9.15043 10.5566 9.08637 10.5194 9.0293C10.4822 8.97223 10.4337 8.92337 10.3769 8.88571C10.3202 8.84805 10.2563 8.82239 10.1893 8.8103C10.1222 8.79821 10.0534 8.79994 9.98708 8.8154C9.92074 8.83086 9.85825 8.85971 9.80345 8.90019C9.74866 8.94066 9.70271 8.99191 9.66844 9.05078C9.63658 9.10946 9.59328 9.16116 9.54112 9.20283C9.48895 9.24451 9.42897 9.27531 9.3647 9.29343C9.30044 9.31154 9.23319 9.3166 9.16694 9.30831C9.10069 9.30002 9.03677 9.27854 8.97895 9.24514C8.92114 9.21175 8.87059 9.16711 8.83031 9.11386C8.79002 9.06062 8.76081 8.99984 8.74439 8.93512C8.72797 8.87041 8.72468 8.80305 8.73472 8.73704C8.74475 8.67103 8.76791 8.6077 8.80281 8.55078C8.96798 8.26496 9.22281 8.04161 9.52782 7.91534C9.83283 7.78908 10.171 7.76695 10.4898 7.8524C10.8087 7.93785 11.0905 8.12609 11.2915 8.38796C11.4925 8.64982 11.6015 8.97067 11.6016 9.30078C11.6026 9.62687 11.4963 9.94424 11.2991 10.2039Z" fill="#565656"/>
</svg>
