<svg width="25" height="24" viewBox="0 0 25 24" fill="none" xmlns="http://www.w3.org/2000/svg">
<path d="M12.8008 2.25C10.8724 2.25 8.98736 2.82183 7.38398 3.89317C5.7806 4.96451 4.53091 6.48726 3.79296 8.26884C3.05501 10.0504 2.86192 12.0108 3.23813 13.9021C3.61434 15.7934 4.54293 17.5307 5.90649 18.8943C7.27006 20.2579 9.00734 21.1865 10.8987 21.5627C12.79 21.9389 14.7504 21.7458 16.5319 21.0078C18.3135 20.2699 19.8363 19.0202 20.9076 17.4168C21.979 15.8134 22.5508 13.9284 22.5508 12C22.5481 9.41498 21.5199 6.93661 19.6921 5.10872C17.8642 3.28084 15.3858 2.25273 12.8008 2.25ZM12.8008 20.25C11.1691 20.25 9.57404 19.7661 8.21733 18.8596C6.86063 17.9531 5.8032 16.6646 5.17878 15.1571C4.55436 13.6496 4.39098 11.9908 4.70931 10.3905C5.02763 8.79016 5.81337 7.32015 6.96715 6.16637C8.12094 5.01259 9.59095 4.22685 11.1913 3.90852C12.7916 3.59019 14.4504 3.75357 15.9579 4.37799C17.4654 5.00242 18.7539 6.05984 19.6604 7.41655C20.5669 8.77325 21.0508 10.3683 21.0508 12C21.0483 14.1873 20.1783 16.2843 18.6317 17.8309C17.085 19.3775 14.9881 20.2475 12.8008 20.25ZM12.8008 6C11.6141 6 10.4541 6.35189 9.46736 7.01118C8.48067 7.67047 7.71163 8.60754 7.25751 9.7039C6.80338 10.8003 6.68456 12.0067 6.91607 13.1705C7.14759 14.3344 7.71903 15.4035 8.55814 16.2426C9.39726 17.0818 10.4664 17.6532 11.6302 17.8847C12.7941 18.1162 14.0005 17.9974 15.0969 17.5433C16.1932 17.0892 17.1303 16.3201 17.7896 15.3334C18.4489 14.3467 18.8008 13.1867 18.8008 12C18.799 10.4092 18.1664 8.88412 17.0415 7.75928C15.9167 6.63444 14.3916 6.00174 12.8008 6ZM12.8008 16.5C11.9108 16.5 11.0407 16.2361 10.3007 15.7416C9.5607 15.2471 8.98392 14.5443 8.64333 13.7221C8.30273 12.8998 8.21362 11.995 8.38725 11.1221C8.56089 10.2492 8.98947 9.44736 9.6188 8.81802C10.2481 8.18868 11.05 7.7601 11.9229 7.58647C12.7958 7.41283 13.7006 7.50195 14.5229 7.84254C15.3451 8.18314 16.0479 8.75991 16.5424 9.49993C17.0369 10.24 17.3008 11.11 17.3008 12C17.2995 13.1931 16.825 14.337 15.9814 15.1806C15.1378 16.0243 13.9939 16.4988 12.8008 16.5Z" fill="#8C94A3"/>
</svg>
