<svg width="65" height="65" viewBox="0 0 65 65" fill="none" xmlns="http://www.w3.org/2000/svg">
<g id="Company Policy Frame">
<rect x="0.800781" y="0.800781" width="63" height="63" rx="3.5" fill="white"/>
<g id="Layer 1">
<path id="Vector" d="M11.8516 49.043H52.8662V8.29992H11.8516V49.043Z" fill="#0E5CAA"/>
<path id="Vector_2" fill-rule="evenodd" clip-rule="evenodd" d="M13.0469 47.8555H51.6734V9.49109H13.0469V47.8555Z" fill="#FEFEFE"/>
<path id="Vector_3" fill-rule="evenodd" clip-rule="evenodd" d="M14.4297 46.4805H50.2837V10.8544H14.4297V46.4805Z" fill="#0E5CAA"/>
<path id="Vector_4" fill-rule="evenodd" clip-rule="evenodd" d="M17.625 19.5117H24.6849V17.2152H17.625V19.5117Z" fill="#FEFEFE"/>
<path id="Vector_5" fill-rule="evenodd" clip-rule="evenodd" d="M19.5625 24.4961H22.7486V19.0067H19.5625V24.4961Z" fill="#FEFEFE"/>
<path id="Vector_6" fill-rule="evenodd" clip-rule="evenodd" d="M26.8125 17.2388H29.9377L32.8003 24.5017L29.6345 24.5117L26.8125 17.2388Z" fill="#FEFEFE"/>
<path id="Vector_7" fill-rule="evenodd" clip-rule="evenodd" d="M29.855 17.2388H26.7298L23.8672 24.5017L27.033 24.5117L29.855 17.2388Z" fill="#FEFEFE"/>
<path id="Vector_8" fill-rule="evenodd" clip-rule="evenodd" d="M32 19.5117H39.0598V17.2152H32V19.5117Z" fill="#FEFEFE"/>
<path id="Vector_9" fill-rule="evenodd" clip-rule="evenodd" d="M33.9375 24.4961H37.1235V19.0067H33.9375V24.4961Z" fill="#FEFEFE"/>
<path id="Vector_10" fill-rule="evenodd" clip-rule="evenodd" d="M41.1797 17.2388H44.316L47.1667 24.5017L44.0028 24.5117L41.1797 17.2388Z" fill="#FEFEFE"/>
<path id="Vector_11" fill-rule="evenodd" clip-rule="evenodd" d="M44.2374 17.2388H41.1022L38.25 24.5017L41.4056 24.5117L44.2374 17.2388Z" fill="#FEFEFE"/>
<path id="Vector_12" fill-rule="evenodd" clip-rule="evenodd" d="M17.625 40.043H18.3027V36.8501H17.625V40.043Z" fill="#FEFEFE"/>
<g id="Clip path group">
<mask id="mask0_3370_31913" style="mask-type:luminance" maskUnits="userSpaceOnUse" x="6" y="8" width="52" height="49">
<g id="clip_0">
<path id="Vector_13" d="M6.63281 56.3008H57.4135V8.30078H6.63281V56.3008Z" fill="white"/>
</g>
</mask>
<g mask="url(#mask0_3370_31913)">
<g id="Group">
<path id="Vector_14" fill-rule="evenodd" clip-rule="evenodd" d="M19.5703 40.0352H20.2176V38.2119C20.2176 38.051 20.2176 37.8495 20.1671 37.5775C20.2786 37.8495 20.3694 38.0406 20.4504 38.1414L21.8865 40.0352H22.5439V36.8421H21.8968V38.625C21.8968 38.7761 21.8968 38.9876 21.9473 39.2595C21.836 38.9876 21.7448 38.8062 21.6641 38.6956L20.2682 36.8421H19.5703V40.0352Z" fill="#FEFEFE"/>
<path id="Vector_15" fill-rule="evenodd" clip-rule="evenodd" d="M23.5938 39.635C23.7557 39.9474 24.0995 40.1289 24.5949 40.1289C25.2929 40.1289 25.7075 39.7159 25.7075 39.1415C25.7075 38.7388 25.4548 38.4364 24.9188 38.1848C24.5751 38.0237 24.2917 37.9534 24.2917 37.661C24.2917 37.4494 24.4636 37.2885 24.7365 37.2885C24.9491 37.2885 25.1109 37.379 25.2021 37.5705L25.5965 37.1878C25.3939 36.8957 25.1209 36.7648 24.7469 36.7648C24.0589 36.7648 23.6343 37.1675 23.6343 37.6712C23.6343 38.1142 23.8973 38.346 24.3625 38.5978C24.7973 38.8193 25.0604 38.8797 25.0604 39.1619C25.0604 39.4136 24.8683 39.5848 24.5443 39.5848C24.2813 39.5848 24.0589 39.4438 23.9679 39.2021L23.5938 39.635Z" fill="#FEFEFE"/>
<path id="Vector_16" fill-rule="evenodd" clip-rule="evenodd" d="M29.5099 36.8451H28.8424V38.7288C28.8424 39.2526 28.6098 39.5241 28.1444 39.5241C27.6996 39.5241 27.4667 39.2625 27.4667 38.7288V36.8451H26.7891V38.8294C26.7891 39.7055 27.2344 40.1289 28.1546 40.1289C29.0646 40.1289 29.5099 39.6955 29.5099 38.8294V36.8451Z" fill="#FEFEFE"/>
<path id="Vector_17" fill-rule="evenodd" clip-rule="evenodd" d="M31.433 38.202V37.3658H31.5344C31.9589 37.3658 32.2016 37.4264 32.2016 37.7988C32.2016 38.1717 31.9491 38.202 31.5344 38.202H31.433ZM33.0413 40.0352L32.1715 38.5846C32.5761 38.5342 32.8695 38.192 32.8695 37.7487C32.8695 37.1443 32.4949 36.8421 31.7265 36.8421H30.7656V40.0352H31.433V38.5445L32.2627 40.0352H33.0413Z" fill="#FEFEFE"/>
<path id="Vector_18" fill-rule="evenodd" clip-rule="evenodd" d="M33.6094 40.0352H34.3275L34.55 39.3604H35.764L36.0267 40.0352H36.7854L35.5717 36.8421H34.8031L33.6094 40.0352ZM35.6121 38.8163H34.7323L35.076 37.799C35.0864 37.7587 35.1265 37.6077 35.1672 37.3561C35.2077 37.5875 35.2379 37.7284 35.2584 37.789L35.6121 38.8163Z" fill="#FEFEFE"/>
<path id="Vector_19" fill-rule="evenodd" clip-rule="evenodd" d="M37.6641 40.0352H38.3114V38.2119C38.3114 38.051 38.3114 37.8495 38.2709 37.5775C38.3723 37.8495 38.4734 38.0406 38.5443 38.1414L39.9803 40.0352H40.6377V36.8421H40.0006V38.625C40.0006 38.7761 40.0006 38.9876 40.0412 39.2595C39.9398 38.9876 39.8387 38.8062 39.7579 38.6956L38.3723 36.8421H37.6641V40.0352Z" fill="#FEFEFE"/>
<path id="Vector_20" fill-rule="evenodd" clip-rule="evenodd" d="M44.4196 37.6712L44.4518 36.9861C44.1883 36.8654 43.8751 36.7648 43.4801 36.7648C42.4373 36.7648 41.75 37.4998 41.75 38.4468C41.75 39.4036 42.448 40.1289 43.4693 40.1289C43.8147 40.1289 44.1278 40.0381 44.4196 39.8669V39.1718C44.1456 39.4236 43.8324 39.5447 43.4801 39.5447C42.8216 39.5447 42.448 39.1012 42.448 38.4468C42.448 37.7618 42.8714 37.3187 43.5406 37.3187C43.9144 37.3187 44.1883 37.4597 44.4196 37.6712Z" fill="#FEFEFE"/>
<path id="Vector_21" fill-rule="evenodd" clip-rule="evenodd" d="M45.6094 40.0352H47.46V39.4612H46.2749V38.6553H47.46V38.0709H46.2749V37.4165H47.46V36.8421H45.6094V40.0352Z" fill="#FEFEFE"/>
<path id="Vector_22" fill-rule="evenodd" clip-rule="evenodd" d="M27.168 32.1166H24.0122L23.4559 33.4563C23.3246 33.7888 23.2538 34.0306 23.2538 34.2014C23.2538 34.3225 23.3142 34.4433 23.4256 34.534C23.547 34.6348 23.7996 34.7054 24.1943 34.7356V34.957H21.625V34.7356C21.9692 34.6651 22.1916 34.5843 22.2927 34.4835C22.495 34.2822 22.7178 33.8792 22.9703 33.265L25.8429 26.2747H26.0451L28.8874 33.3355C29.1098 33.9095 29.3222 34.272 29.5042 34.4433C29.6963 34.6146 29.9594 34.7054 30.2832 34.7356V34.957H27.0669V34.7356C27.3904 34.7153 27.6129 34.6548 27.7242 34.5644C27.8457 34.4636 27.8961 34.3529 27.8961 34.2117C27.8961 34.0203 27.8153 33.7381 27.6634 33.3355L27.168 32.1166ZM26.9961 31.6533L25.6101 28.219L24.1943 31.6533H26.9961Z" fill="#FEFEFE"/>
<path id="Vector_23" fill-rule="evenodd" clip-rule="evenodd" d="M34.2261 34.7356V34.957H30.7266V34.7356H31.0198C31.3536 34.7356 31.5964 34.6244 31.748 34.4232C31.8495 34.2922 31.8999 33.97 31.8999 33.4562V27.9668C31.8999 27.5338 31.8694 27.2517 31.8188 27.1206C31.7785 27.01 31.6975 26.9195 31.576 26.849C31.3943 26.7483 31.212 26.6978 31.0198 26.6978H30.7266V26.4662H34.2261V26.6978H33.9329C33.599 26.6978 33.3564 26.7986 33.2048 27.0001C33.1033 27.141 33.0527 27.4632 33.0527 27.9668V33.4562C33.0527 33.8895 33.0731 34.1715 33.1339 34.3125C33.1741 34.4129 33.2552 34.5037 33.3766 34.5743C33.5485 34.675 33.7406 34.7356 33.9329 34.7356H34.2261Z" fill="#FEFEFE"/>
<path id="Vector_24" fill-rule="evenodd" clip-rule="evenodd" d="M42.0837 26.2762L42.2948 28.9553H42.0837C41.8712 28.2909 41.5982 27.7871 41.2545 27.4449C40.769 26.9514 40.1518 26.7095 39.3832 26.7095C38.3517 26.7095 37.5627 27.1425 37.0163 27.9986C36.5614 28.714 36.3387 29.58 36.3387 30.577C36.3387 31.3829 36.4907 32.1285 36.7839 32.7929C37.0871 33.4681 37.4819 33.9513 37.9673 34.2635C38.4528 34.5758 38.9585 34.7371 39.4741 34.7371C39.7778 34.7371 40.0607 34.6866 40.3441 34.6161C40.6273 34.5355 40.8904 34.4144 41.1533 34.2635V31.8059C41.1533 31.3829 41.1228 31.1008 41.0623 30.9701C41.0014 30.839 40.9002 30.7383 40.769 30.6678C40.6477 30.5972 40.4149 30.567 40.081 30.567V30.3252H43.2379V30.567H43.0955C42.7824 30.567 42.5581 30.6777 42.4478 30.8893C42.366 31.0406 42.3268 31.3526 42.3268 31.8059V34.4045C41.8613 34.6666 41.4061 34.8577 40.9612 34.9784C40.516 35.0996 40.0102 35.1602 39.4642 35.1602C37.886 35.1602 36.6928 34.6363 35.8735 33.5788C35.2667 32.7929 34.9531 31.8763 34.9531 30.849C34.9531 30.1038 35.125 29.3785 35.4689 28.6936C35.8839 27.8779 36.44 27.2532 37.1579 26.8203C37.7548 26.4578 38.4627 26.2762 39.2721 26.2762C39.5653 26.2762 39.8382 26.2965 40.081 26.3468C40.3237 26.3973 40.668 26.508 41.1129 26.6794C41.3353 26.7697 41.4869 26.8103 41.5681 26.8103C41.6389 26.8103 41.7097 26.7697 41.7601 26.6992C41.8107 26.6287 41.841 26.4877 41.8613 26.2762H42.0837Z" fill="#FEFEFE"/>
<path id="Vector_25" fill-rule="evenodd" clip-rule="evenodd" d="M6.63281 51.8921L7.17894 56.0117H8.28145L8.80744 52.7887H8.85798L9.41423 56.0117H10.4966L11.1439 51.8921H10.2336L10.0313 54.6721H9.98075L9.5053 51.8921H8.28145L7.82639 54.6721H7.77573L7.65439 51.8921H6.63281Z" fill="#0E5CAA"/>
<path id="Vector_26" fill-rule="evenodd" clip-rule="evenodd" d="M11.9922 56.0117H13.044V51.8922H11.9922V56.0117Z" fill="#0E5CAA"/>
<path id="Vector_27" fill-rule="evenodd" clip-rule="evenodd" d="M13.8281 51.8921V52.5266H14.6068V56.0117H15.6788V52.5266H16.4576V51.8921H13.8281Z" fill="#0E5CAA"/>
<path id="Vector_28" fill-rule="evenodd" clip-rule="evenodd" d="M17.2109 51.8921V56.0117H18.2527V54.1585H18.9709V56.0117H20.0024V51.8921H18.9709V53.524H18.2527V51.8921H17.2109Z" fill="#0E5CAA"/>
<path id="Vector_29" fill-rule="evenodd" clip-rule="evenodd" d="M23.1562 51.8921L24.0666 54.3499V56.0117H25.1085V54.3499L26.0491 51.8921H25.1287L24.7037 53.6247H24.6532L24.2084 51.8921H23.1562Z" fill="#0E5CAA"/>
<path id="Vector_30" fill-rule="evenodd" clip-rule="evenodd" d="M28.4834 53.1006V54.8028C28.4834 55.2359 28.4428 55.4374 28.1094 55.4374C27.7755 55.4374 27.7452 55.2359 27.7452 54.8028V53.1006C27.7452 52.6575 27.7855 52.4558 28.1094 52.4558C28.4531 52.4558 28.4834 52.6575 28.4834 53.1006ZM29.5251 53.282C29.5251 52.2244 29.2219 51.8213 28.1094 51.8213C27.0067 51.8213 26.7031 52.2244 26.7031 53.282V54.6115C26.7031 55.6791 26.9967 56.082 28.1094 56.082C29.2219 56.082 29.5251 55.6791 29.5251 54.6115V53.282Z" fill="#0E5CAA"/>
<path id="Vector_31" fill-rule="evenodd" clip-rule="evenodd" d="M30.5234 51.8919V54.6115C30.5234 55.669 30.8064 56.082 31.9089 56.082C32.9913 56.082 33.3047 55.6791 33.3047 54.6115V51.8919H32.2631V54.8028C32.2631 55.2359 32.2225 55.4374 31.9089 55.4374C31.5954 55.4374 31.5652 55.2359 31.5652 54.8028V51.8919H30.5234Z" fill="#0E5CAA"/>
<path id="Vector_32" fill-rule="evenodd" clip-rule="evenodd" d="M37.4559 51.8921L36.5156 56.0117H37.436L37.6178 55.1455H38.4981L38.6295 56.0117H39.6408L38.8012 51.8921H37.4559ZM38.0933 52.5972H38.1236L38.3967 54.511H37.7495L38.0933 52.5972Z" fill="#0E5CAA"/>
<path id="Vector_33" fill-rule="evenodd" clip-rule="evenodd" d="M40.3516 51.8921V56.0117H42.598V55.3772H41.3934V51.8921H40.3516Z" fill="#0E5CAA"/>
<path id="Vector_34" fill-rule="evenodd" clip-rule="evenodd" d="M42.7812 51.8921L43.3151 56.0117H44.4291L44.9451 52.7887H44.995L45.5608 56.0117H46.6428L47.28 51.8921H46.383L46.1695 54.6721H46.1268L45.6427 51.8921H44.4184L43.9736 54.6721H43.9238L43.7919 51.8921H42.7812Z" fill="#0E5CAA"/>
<path id="Vector_35" fill-rule="evenodd" clip-rule="evenodd" d="M48.6271 51.8921L47.6875 56.0117H48.6093L48.7801 55.1455H49.6592L49.8016 56.0117H50.8124L49.9724 51.8921H48.6271ZM49.2642 52.5972H49.2855L49.5703 54.511H48.9226L49.2642 52.5972Z" fill="#0E5CAA"/>
<path id="Vector_36" fill-rule="evenodd" clip-rule="evenodd" d="M51.0312 51.8921L51.9424 54.3499V56.0117H52.9816V54.3499L53.9249 51.8921H53.003L52.5795 53.6247H52.5261L52.0812 51.8921H51.0312Z" fill="#0E5CAA"/>
<path id="Vector_37" fill-rule="evenodd" clip-rule="evenodd" d="M57.1557 52.8086C57.1557 52.1539 56.7429 51.8213 55.9742 51.8213C55.1128 51.8213 54.6181 52.2244 54.6181 52.748V53.1108C54.6181 53.5236 54.789 53.7856 55.1948 54.0272L55.6182 54.2891C55.9422 54.4805 56.1557 54.6113 56.1557 54.9237V55.0849C56.1557 55.3367 56.0952 55.4374 55.8602 55.4374C55.6396 55.4374 55.5578 55.3367 55.5578 55.0849V54.7424H54.5078V55.0445C54.5078 55.7597 54.8495 56.082 55.7998 56.082C56.7002 56.082 57.195 55.7194 57.195 55.0849V54.833C57.195 54.5912 57.1557 54.3998 57.0348 54.2387C56.8924 54.0474 56.6894 53.9567 56.508 53.8358L56.0737 53.5741C55.7819 53.4027 55.6182 53.2617 55.6182 53.0201V52.748C55.6182 52.5368 55.6787 52.446 55.8708 52.446C56.0737 52.446 56.1344 52.5368 56.1344 52.748V53.1108H57.1557V52.8086Z" fill="#0E5CAA"/>
</g>
</g>
</g>
</g>
<rect x="0.800781" y="0.800781" width="63" height="63" rx="3.5" stroke="#D6E9FF"/>
</g>
</svg>
