<svg width="17" height="17" viewBox="0 0 17 17" fill="none" xmlns="http://www.w3.org/2000/svg">
<path d="M14.3008 2.80078H6.30078C6.16817 2.80078 6.041 2.85346 5.94723 2.94723C5.85346 3.041 5.80078 3.16817 5.80078 3.30078V5.80078H3.30078C3.16817 5.80078 3.041 5.85346 2.94723 5.94723C2.85346 6.041 2.80078 6.16817 2.80078 6.30078V14.3008C2.80078 14.4334 2.85346 14.5606 2.94723 14.6543C3.041 14.7481 3.16817 14.8008 3.30078 14.8008H11.3008C11.4334 14.8008 11.5606 14.7481 11.6543 14.6543C11.7481 14.5606 11.8008 14.4334 11.8008 14.3008V11.8008H14.3008C14.4334 11.8008 14.5606 11.7481 14.6543 11.6543C14.7481 11.5606 14.8008 11.4334 14.8008 11.3008V3.30078C14.8008 3.16817 14.7481 3.041 14.6543 2.94723C14.5606 2.85346 14.4334 2.80078 14.3008 2.80078ZM10.8008 13.8008H3.80078V6.80078H10.8008V13.8008ZM13.8008 10.8008H11.8008V6.30078C11.8008 6.16817 11.7481 6.041 11.6543 5.94723C11.5606 5.85346 11.4334 5.80078 11.3008 5.80078H6.80078V3.80078H13.8008V10.8008Z" fill="#37AFD4"/>
</svg>
