<svg width="17" height="17" viewBox="0 0 17 17" fill="none" xmlns="http://www.w3.org/2000/svg">
<path d="M8.24753 12.1548L3.24753 7.15481C3.20108 7.10835 3.16423 7.0532 3.13909 6.99251C3.11395 6.93181 3.10101 6.86676 3.10101 6.80106C3.10101 6.73536 3.11395 6.67031 3.13909 6.60961C3.16423 6.54891 3.20108 6.49376 3.24753 6.44731C3.29399 6.40085 3.34914 6.364 3.40984 6.33886C3.47053 6.31372 3.53559 6.30078 3.60128 6.30078C3.66698 6.30078 3.73204 6.31372 3.79273 6.33886C3.85343 6.364 3.90858 6.40085 3.95503 6.44731L8.60128 11.0942L13.2475 6.44731C13.3414 6.35349 13.4686 6.30078 13.6013 6.30078C13.734 6.30078 13.8612 6.35349 13.955 6.44731C14.0489 6.54113 14.1016 6.66838 14.1016 6.80106C14.1016 6.93374 14.0489 7.06099 13.955 7.15481L8.95503 12.1548C8.9086 12.2013 8.85345 12.2382 8.79275 12.2633C8.73206 12.2885 8.66699 12.3015 8.60128 12.3015C8.53558 12.3015 8.47051 12.2885 8.40981 12.2633C8.34912 12.2382 8.29397 12.2013 8.24753 12.1548Z" fill="#0B2C5C"/>
</svg>
